<svg width="50" height="76" viewBox="0 0 50 76" fill="none" xmlns="http://www.w3.org/2000/svg">
<path d="M21.3125 30.6875L15.1875 24.5625C14.8125 24.1875 14.3542 24 13.8125 24C13.2708 24 12.7917 24.2083 12.375 24.625C12 25 11.8125 25.4583 11.8125 26C11.8125 26.5417 12 27 12.375 27.375L20 35.0625C20.375 35.4375 20.8125 35.625 21.3125 35.625C21.8125 35.625 22.25 35.4375 22.625 35.0625L37.5625 20.125C37.9792 19.7083 38.1875 19.2292 38.1875 18.6875C38.1875 18.1458 37.9792 17.6667 37.5625 17.25C37.1458 16.875 36.6562 16.6979 36.0938 16.7188C35.5312 16.7396 35.0625 16.9375 34.6875 17.3125L21.3125 30.6875ZM25 50C21.5833 50 18.3542 49.3438 15.3125 48.0312C12.2708 46.7188 9.61458 44.9271 7.34375 42.6562C5.07292 40.3854 3.28125 37.7292 1.96875 34.6875C0.65625 31.6458 0 28.4167 0 25C0 21.5417 0.65625 18.2917 1.96875 15.25C3.28125 12.2083 5.07292 9.5625 7.34375 7.3125C9.61458 5.0625 12.2708 3.28125 15.3125 1.96875C18.3542 0.65625 21.5833 0 25 0C28.4583 0 31.7083 0.65625 34.75 1.96875C37.7917 3.28125 40.4375 5.0625 42.6875 7.3125C44.9375 9.5625 46.7188 12.2083 48.0312 15.25C49.3438 18.2917 50 21.5417 50 25C50 28.4167 49.3438 31.6458 48.0312 34.6875C46.7188 37.7292 44.9375 40.3854 42.6875 42.6562C40.4375 44.9271 37.7917 46.7188 34.75 48.0312C31.7083 49.3438 28.4583 50 25 50Z" fill="white"/>
<path d="M9.29064 70.15C8.01064 70.15 7.37064 69.405 7.37064 67.915C7.37064 67.085 7.50064 66.26 7.76064 65.44C8.03064 64.61 8.46564 63.89 9.06564 63.28C9.66564 62.66 10.3606 62.35 11.1506 62.35C11.7606 62.35 12.5956 62.44 13.6556 62.62L14.2256 62.725L13.0856 67.6C12.9456 68.16 12.8256 68.82 12.7256 69.58L12.6656 69.97L11.5706 70.015C11.7106 69.155 11.8006 68.62 11.8406 68.41C11.7906 68.5 11.6406 68.675 11.3906 68.935C11.1506 69.185 10.9356 69.39 10.7456 69.55C10.5556 69.7 10.3256 69.84 10.0556 69.97C9.78564 70.09 9.53064 70.15 9.29064 70.15ZM12.9206 63.535C12.2206 63.395 11.6156 63.325 11.1056 63.325C10.6056 63.325 10.1456 63.585 9.72564 64.105C9.30564 64.615 9.00064 65.215 8.81064 65.905C8.62064 66.585 8.52564 67.195 8.52564 67.735C8.52564 68.275 8.61064 68.65 8.78064 68.86C8.95064 69.07 9.20564 69.175 9.54564 69.175C9.88564 69.175 10.2556 69.015 10.6556 68.695C11.0656 68.365 11.4056 68.035 11.6756 67.705L12.0656 67.21L12.9206 63.535ZM16.7606 70.15C15.5006 70.15 14.8706 69.42 14.8706 67.96C14.8706 67.08 15.0106 66.22 15.2906 65.38C15.5706 64.54 16.0056 63.825 16.5956 63.235C17.1856 62.645 17.8606 62.35 18.6206 62.35C19.1306 62.35 19.6956 62.42 20.3156 62.56L20.6156 62.62L21.4106 59.23H22.5356L20.0306 70H18.9506L19.2356 68.665C19.1456 68.795 18.9956 68.96 18.7856 69.16C18.5856 69.35 18.3956 69.51 18.2156 69.64C17.7256 69.98 17.2406 70.15 16.7606 70.15ZM20.4206 63.55C19.7606 63.4 19.1606 63.325 18.6206 63.325C18.0906 63.325 17.6206 63.585 17.2106 64.105C16.8006 64.625 16.5006 65.23 16.3106 65.92C16.1206 66.61 16.0256 67.285 16.0256 67.945C16.0256 68.765 16.3856 69.175 17.1056 69.175C17.4056 69.175 17.7556 69.03 18.1556 68.74C18.5556 68.44 18.8856 68.14 19.1456 67.84L19.5206 67.405L20.4206 63.55ZM24.2606 70.15C23.0006 70.15 22.3706 69.42 22.3706 67.96C22.3706 67.08 22.5106 66.22 22.7906 65.38C23.0706 64.54 23.5056 63.825 24.0956 63.235C24.6856 62.645 25.3606 62.35 26.1206 62.35C26.6306 62.35 27.1956 62.42 27.8156 62.56L28.1156 62.62L28.9106 59.23H30.0356L27.5306 70H26.4506L26.7356 68.665C26.6456 68.795 26.4956 68.96 26.2856 69.16C26.0856 69.35 25.8956 69.51 25.7156 69.64C25.2256 69.98 24.7406 70.15 24.2606 70.15ZM27.9206 63.55C27.2606 63.4 26.6606 63.325 26.1206 63.325C25.5906 63.325 25.1206 63.585 24.7106 64.105C24.3006 64.625 24.0006 65.23 23.8106 65.92C23.6206 66.61 23.5256 67.285 23.5256 67.945C23.5256 68.765 23.8856 69.175 24.6056 69.175C24.9056 69.175 25.2556 69.03 25.6556 68.74C26.0556 68.44 26.3856 68.14 26.6456 67.84L27.0206 67.405L27.9206 63.55ZM31.0256 67.81C31.0256 68.24 31.1556 68.575 31.4156 68.815C31.6756 69.045 31.9956 69.16 32.3756 69.16C33.0856 69.16 33.8156 69.08 34.5656 68.92L34.9406 68.83L34.8506 69.715C33.9606 70.005 33.1056 70.15 32.2856 70.15C30.6956 70.15 29.9006 69.39 29.9006 67.87C29.9006 66.48 30.2156 65.24 30.8456 64.15C31.1656 63.61 31.5906 63.175 32.1206 62.845C32.6606 62.515 33.2656 62.35 33.9356 62.35C35.4156 62.35 36.1556 62.96 36.1556 64.18C36.1556 65.07 35.8206 65.695 35.1506 66.055C34.4806 66.405 33.4156 66.58 31.9556 66.58H31.1906C31.0806 66.97 31.0256 67.38 31.0256 67.81ZM32.1656 65.695C33.1856 65.695 33.9206 65.59 34.3706 65.38C34.8206 65.16 35.0456 64.765 35.0456 64.195C35.0456 63.595 34.6606 63.295 33.8906 63.295C32.6606 63.295 31.8106 64.095 31.3406 65.695H32.1656ZM38.6894 70.15C37.4294 70.15 36.7994 69.42 36.7994 67.96C36.7994 67.08 36.9394 66.22 37.2194 65.38C37.4994 64.54 37.9344 63.825 38.5244 63.235C39.1144 62.645 39.7894 62.35 40.5494 62.35C41.0594 62.35 41.6244 62.42 42.2444 62.56L42.5444 62.62L43.3394 59.23H44.4644L41.9594 70H40.8794L41.1644 68.665C41.0744 68.795 40.9244 68.96 40.7144 69.16C40.5144 69.35 40.3244 69.51 40.1444 69.64C39.6544 69.98 39.1694 70.15 38.6894 70.15ZM42.3494 63.55C41.6894 63.4 41.0894 63.325 40.5494 63.325C40.0194 63.325 39.5494 63.585 39.1394 64.105C38.7294 64.625 38.4294 65.23 38.2394 65.92C38.0494 66.61 37.9544 67.285 37.9544 67.945C37.9544 68.765 38.3144 69.175 39.0344 69.175C39.3344 69.175 39.6844 69.03 40.0844 68.74C40.4844 68.44 40.8144 68.14 41.0744 67.84L41.4494 67.405L42.3494 63.55Z" fill="white"/>
</svg>
