<svg width="358" height="536" viewBox="0 0 358 536" fill="none" xmlns="http://www.w3.org/2000/svg">
<path d="M0 42.88C0 19.198 19.2338 0 42.96 0H315.04C338.766 0 358 19.198 358 42.88V493.12C358 516.802 338.766 536 315.04 536H42.96C19.2338 536 0 516.802 0 493.12V42.88Z" fill="#282E54"/>
<path fill-rule="evenodd" clip-rule="evenodd" d="M315.04 14.2933H42.96C27.1426 14.2933 14.32 27.092 14.32 42.88V493.12C14.32 508.908 27.1426 521.707 42.96 521.707H315.04C330.857 521.707 343.68 508.908 343.68 493.12V42.88C343.68 27.092 330.857 14.2933 315.04 14.2933ZM42.96 0C19.2338 0 0 19.198 0 42.88V493.12C0 516.802 19.2338 536 42.96 536H315.04C338.766 536 358 516.802 358 493.12V42.88C358 19.198 338.766 0 315.04 0H42.96Z" fill="white"/>
<path d="M57.1602 239.6C57.1602 216.073 76.413 197 100.163 197H257.838C281.588 197 300.841 216.073 300.841 239.6V296.4C300.841 319.927 281.588 339 257.838 339H100.163C76.413 339 57.1602 319.927 57.1602 296.4V239.6Z" fill="white"/>
<path d="M126.69 304.375C123.769 304.375 120.348 304.125 116.425 303.625C116.843 298.958 117.176 293.167 117.427 286.25C117.677 279.333 117.802 272.958 117.802 267.125C117.802 262.792 117.761 259.667 117.677 257.75L104.284 266.25C102.031 263.167 100.028 259.208 98.2754 254.375C101.113 253.042 105.035 250.958 110.042 248.125L112.545 246.75C115.215 245.25 117.802 243.542 120.306 241.625C122.893 239.708 124.687 238.167 125.688 237C128.359 237 131.446 237.25 134.951 237.75C134.534 242.083 134.2 247.875 133.95 255.125C133.699 262.375 133.574 269.083 133.574 275.25C133.574 290.667 134.242 300.125 135.577 303.625C132.573 304.125 129.61 304.375 126.69 304.375Z" fill="url(#paint0_linear_599_36)"/>
<path d="M174.841 305C168.833 305 163.492 303.667 158.819 301C154.229 298.25 150.641 294.417 148.054 289.5C145.551 284.5 144.299 278.792 144.299 272.375C144.299 265.542 145.843 259.458 148.93 254.125C152.018 248.708 156.315 244.5 161.823 241.5C167.414 238.5 173.714 237 180.724 237C186.566 237 191.698 238.333 196.12 241C200.627 243.667 204.09 247.417 206.51 252.25C209.013 257 210.265 262.542 210.265 268.875C210.265 275.875 208.763 282.125 205.759 287.625C202.755 293.125 198.54 297.417 193.116 300.5C187.776 303.5 181.684 305 174.841 305ZM176.844 292C182.018 292 186.107 290 189.111 286C192.198 282 193.742 276.542 193.742 269.625C193.742 263.208 192.407 257.917 189.737 253.75C187.066 249.583 183.395 247 178.721 246C175.3 246 172.212 247 169.459 249C166.705 250.917 164.535 253.625 162.95 257.125C161.448 260.625 160.697 264.542 160.697 268.875C160.697 275.792 162.157 281.375 165.078 285.625C168.082 289.875 172.004 292 176.844 292Z" fill="url(#paint1_linear_599_36)"/>
<path d="M242.817 304.375C239.896 304.375 236.475 304.125 232.553 303.625C232.97 298.958 233.304 293.167 233.554 286.25C233.804 279.333 233.929 272.958 233.929 267.125C233.929 262.792 233.888 259.667 233.804 257.75L220.411 266.25C218.158 263.167 216.155 259.208 214.402 254.375C217.24 253.042 221.162 250.958 226.169 248.125L228.672 246.75C231.343 245.25 233.929 243.542 236.433 241.625C239.02 239.708 240.814 238.167 241.815 237C244.486 237 247.573 237.25 251.078 237.75C250.661 242.083 250.327 247.875 250.077 255.125C249.826 262.375 249.701 269.083 249.701 275.25C249.701 290.667 250.369 300.125 251.704 303.625C248.7 304.125 245.737 304.375 242.817 304.375Z" fill="url(#paint2_linear_599_36)"/>
<path d="M99.2854 148C94.6025 148 90.2541 147.419 86.2402 146.256C86.2402 143.433 86.6583 140.527 87.4946 137.538C88.2472 134.466 89.2506 132.017 90.505 130.19C93.0137 132.515 95.4805 134.383 97.9056 135.795C100.331 137.123 102.338 137.788 103.926 137.788C105.097 136.957 105.933 135.753 106.435 134.176C107.02 132.515 107.397 129.9 107.564 126.33C107.731 122.676 107.815 116.948 107.815 109.143C107.815 94.3639 106.979 84.9402 105.306 80.8718C108.484 80.3736 111.62 80.1245 114.714 80.1245C117.641 80.1245 120.86 80.3736 124.372 80.8718C123.787 86.6007 123.494 99.0549 123.494 118.234C123.494 128.115 121.445 135.546 117.348 140.527C113.334 145.509 107.313 148 99.2854 148Z" fill="white"/>
<path d="M187.359 147.128C184.599 147.128 181.589 146.838 178.327 146.256L176.948 142.271L172.934 131.187C168.418 130.938 163.61 130.813 158.509 130.813C152.99 130.813 149.059 130.979 146.718 131.311C144.544 136.874 142.746 141.856 141.324 146.256C139.317 146.755 137.52 147.004 135.931 147.004C133.84 147.004 131.708 146.755 129.534 146.256C131.875 142.105 136.014 132.308 141.952 116.864C147.889 101.421 152.321 89.3407 155.247 80.6227C158.592 80.2076 161.394 80 163.652 80C166.077 80 168.669 80.2076 171.428 80.6227C174.355 89.3407 178.787 101.421 184.724 116.864C190.662 132.308 194.801 142.105 197.142 146.256C194.132 146.838 190.871 147.128 187.359 147.128ZM163.275 121.473C164.864 121.473 166.829 121.39 169.171 121.223C165.659 111.426 162.523 103.331 159.763 96.9377C156.167 105.988 153.073 114.042 150.481 121.099C154.495 121.348 158.76 121.473 163.275 121.473Z" fill="white"/>
<path d="M210.052 147.253C208.213 147.253 205.955 147.004 203.279 146.506C203.948 138.037 204.282 125.915 204.282 110.139C204.282 94.696 203.822 84.9402 202.903 80.8718C205.077 80.3736 208.045 80.1245 211.808 80.1245C214.568 80.1245 218.038 80.3736 222.219 80.8718C224.812 85.9365 228.7 93.0769 233.885 102.293C239.153 111.509 244.212 120.144 249.062 128.198C249.23 119.895 249.313 113.543 249.313 109.143C249.313 93.6996 248.853 84.2759 247.933 80.8718C249.773 80.3736 251.613 80.1245 253.452 80.1245C255.459 80.1245 257.759 80.3736 260.351 80.8718C259.682 91.4994 259.348 103.621 259.348 117.238C259.348 132.681 259.808 142.437 260.728 146.506C257.801 147.004 254.832 147.253 251.822 147.253C248.561 147.253 245.048 147.004 241.285 146.506C238.86 141.607 235.055 134.632 229.871 125.582C224.686 116.449 219.543 107.648 214.443 99.1795C214.275 107.482 214.192 113.834 214.192 118.234C214.192 133.179 214.652 142.603 215.571 146.506C213.815 147.004 211.976 147.253 210.052 147.253Z" fill="white"/>
<path d="M96.9843 458C93.986 458 90.6128 457.751 86.8649 457.254C87.2813 452.613 87.6145 446.854 87.8643 439.976C88.1142 433.098 88.2391 426.758 88.2391 420.957C88.2391 405.461 87.5728 395.724 86.2402 391.746C89.2386 391.249 92.4868 391 95.9849 391C98.6501 391 101.732 391.249 105.23 391.746C104.647 398.707 104.189 408.858 103.856 422.2C112.684 412.919 118.514 406.165 121.346 401.939C124.261 397.712 125.718 394.522 125.718 392.367C131.382 391.456 137.42 391 143.834 391C135.421 399.204 126.926 408.154 118.348 417.85C131.007 438.07 140.544 450.583 146.957 455.39C144.042 456.384 140.96 457.047 137.712 457.378C134.547 457.793 130.924 458 126.843 458C123.845 452.862 117.473 443.456 107.728 429.783C106.812 430.777 105.521 432.269 103.856 434.258C103.939 446.44 104.605 454.105 105.854 457.254C103.023 457.751 100.066 458 96.9843 458Z" fill="white"/>
<path d="M153.601 457.627C154.517 446.108 154.975 433.553 154.975 419.963C154.975 412.256 154.808 406.414 154.475 402.436C154.225 398.458 153.726 394.895 152.976 391.746C157.64 392.326 164.928 392.616 174.839 392.616C186.499 392.616 195.494 392.326 201.824 391.746C201.824 394.729 201.574 397.92 201.074 401.317C200.575 404.632 199.95 406.87 199.2 408.03C197.035 406.952 194.245 406.124 190.83 405.544C187.415 404.964 183.959 404.673 180.461 404.673C177.462 404.673 174.381 404.881 171.216 405.295C170.883 411.262 170.716 415.985 170.716 419.466C173.881 419.631 176.255 419.714 177.837 419.714C182.085 419.714 185.333 419.631 187.582 419.466C189.914 419.217 192.496 418.844 195.328 418.347C195.661 420.833 195.827 422.78 195.827 424.189C195.827 425.515 195.661 427.504 195.328 430.156C184.833 429.576 176.588 429.286 170.591 429.286C170.591 434.838 170.716 439.686 170.966 443.829C173.881 444.409 177.254 444.699 181.085 444.699C185 444.699 188.873 444.409 192.704 443.829C196.619 443.249 199.825 442.421 202.324 441.343C202.324 444.244 202.074 447.393 201.574 450.79C201.074 454.105 200.45 456.384 199.7 457.627C193.953 457.047 185.874 456.757 175.464 456.757C165.552 456.757 158.265 457.047 153.601 457.627Z" fill="white"/>
<path d="M218.278 458C216.446 458 214.197 457.751 211.532 457.254C212.198 448.801 212.531 436.703 212.531 420.957C212.531 405.544 212.073 395.806 211.157 391.746C213.322 391.249 216.279 391 220.027 391C222.775 391 226.232 391.249 230.396 391.746C232.978 396.801 236.851 403.928 242.015 413.126C247.262 422.325 252.301 430.943 257.131 438.981C257.298 430.694 257.381 424.355 257.381 419.963C257.381 404.549 256.923 395.143 256.007 391.746C257.839 391.249 259.672 391 261.504 391C263.503 391 265.793 391.249 268.375 391.746C267.709 402.353 267.376 414.452 267.376 428.043C267.376 443.456 267.834 453.194 268.75 457.254C265.835 457.751 262.878 458 259.88 458C256.632 458 253.134 457.751 249.386 457.254C246.97 452.365 243.181 445.404 238.017 436.371C232.853 427.255 227.731 418.471 222.65 410.019C222.484 418.306 222.401 424.645 222.401 429.037C222.401 443.954 222.859 453.359 223.775 457.254C222.026 457.751 220.193 458 218.278 458Z" fill="white"/>
<defs>
<linearGradient id="paint0_linear_599_36" x1="174.99" y1="237" x2="174.99" y2="305" gradientUnits="userSpaceOnUse">
<stop stop-color="#FBD03B"/>
<stop offset="1" stop-color="#FA7800"/>
</linearGradient>
<linearGradient id="paint1_linear_599_36" x1="174.99" y1="237" x2="174.99" y2="305" gradientUnits="userSpaceOnUse">
<stop stop-color="#FBD03B"/>
<stop offset="1" stop-color="#FA7800"/>
</linearGradient>
<linearGradient id="paint2_linear_599_36" x1="174.99" y1="237" x2="174.99" y2="305" gradientUnits="userSpaceOnUse">
<stop stop-color="#FBD03B"/>
<stop offset="1" stop-color="#FA7800"/>
</linearGradient>
</defs>
</svg>
