<svg width="358" height="536" viewBox="0 0 358 536" fill="none" xmlns="http://www.w3.org/2000/svg">
<path d="M0 42.88C0 19.198 19.198 0 42.88 0H314.453C338.135 0 357.333 19.198 357.333 42.88V493.12C357.333 516.802 338.135 536 314.453 536H42.88C19.198 536 0 516.802 0 493.12V42.88Z" fill="#282E54"/>
<path fill-rule="evenodd" clip-rule="evenodd" d="M314.453 14.2933H42.88C27.092 14.2933 14.2933 27.092 14.2933 42.88V493.12C14.2933 508.908 27.092 521.707 42.88 521.707H314.453C330.241 521.707 343.04 508.908 343.04 493.12V42.88C343.04 27.092 330.241 14.2933 314.453 14.2933ZM42.88 0C19.198 0 0 19.198 0 42.88V493.12C0 516.802 19.198 536 42.88 536H314.453C338.135 536 357.333 516.802 357.333 493.12V42.88C357.333 19.198 338.135 0 314.453 0H42.88Z" fill="white"/>
<path d="M39.3066 100.053C39.3066 76.3714 58.5047 57.1733 82.1866 57.1733H275.147C298.829 57.1733 318.027 76.3714 318.027 100.053V435.947C318.027 459.629 298.829 478.827 275.147 478.827H82.1866C58.5047 478.827 39.3066 459.629 39.3066 435.947V100.053Z" fill="#282E54"/>
<path fill-rule="evenodd" clip-rule="evenodd" d="M275.147 60.7467H82.1866C60.4782 60.7467 42.88 78.3449 42.88 100.053V435.947C42.88 457.655 60.4782 475.253 82.1866 475.253H275.147C296.855 475.253 314.453 457.655 314.453 435.947V100.053C314.453 78.3449 296.855 60.7467 275.147 60.7467ZM82.1866 57.1733C58.5047 57.1733 39.3066 76.3714 39.3066 100.053V435.947C39.3066 459.629 58.5047 478.827 82.1866 478.827H275.147C298.829 478.827 318.027 459.629 318.027 435.947V100.053C318.027 76.3714 298.829 57.1733 275.147 57.1733H82.1866Z" fill="url(#paint0_linear_86_24)"/>
<path d="M85.7598 153.653C85.7598 129.971 104.958 110.773 128.64 110.773H228.693C252.375 110.773 271.573 129.971 271.573 153.653V310.88C271.573 334.562 252.375 353.76 228.693 353.76H128.64C104.958 353.76 85.7598 334.562 85.7598 310.88V153.653Z" fill="white"/>
<path d="M35.7334 42.8798C35.7334 38.9328 38.9331 35.7332 42.8801 35.7332H92.9067C96.8537 35.7332 100.053 38.9328 100.053 42.8798V67.8932C100.053 71.8401 96.8537 75.0398 92.9067 75.0398H42.8801C38.9331 75.0398 35.7334 71.8401 35.7334 67.8932V42.8798Z" fill="#282E54"/>
<path d="M50.5609 68.1507C49.5604 68.1507 48.3883 68.0649 47.0447 67.8934C47.1877 66.2925 47.302 64.3057 47.3878 61.9331C47.4735 59.5604 47.5164 57.3735 47.5164 55.3724C47.5164 53.8859 47.5021 52.8139 47.4735 52.1564L42.8854 55.0723C42.1135 54.0145 41.4275 52.6567 40.8271 50.9987C41.7991 50.5413 43.1427 49.8266 44.8579 48.8547L45.7155 48.383C46.6302 47.8684 47.5164 47.2824 48.374 46.6249C49.2602 45.9674 49.8748 45.4385 50.2179 45.0383C51.1326 45.0383 52.1903 45.1241 53.391 45.2956C53.2481 46.7821 53.1337 48.7689 53.0479 51.2559C52.9622 53.743 52.9193 56.0442 52.9193 58.1596C52.9193 63.4481 53.148 66.6927 53.6054 67.8934C52.5763 68.0649 51.5614 68.1507 50.5609 68.1507Z" fill="url(#paint1_linear_86_24)"/>
<path d="M67.056 68.3651C64.9977 68.3651 63.1682 67.9077 61.5673 66.9929C59.9951 66.0495 58.7658 64.7345 57.8797 63.0479C57.0221 61.3327 56.5933 59.3745 56.5933 57.1734C56.5933 54.8293 57.1221 52.7424 58.1798 50.9129C59.2375 49.0548 60.7097 47.6111 62.5965 46.582C64.5118 45.5529 66.6701 45.0383 69.0713 45.0383C71.0724 45.0383 72.8305 45.4957 74.3456 46.4105C75.8893 47.3253 77.0756 48.6117 77.9046 50.2697C78.7622 51.8991 79.191 53.8001 79.191 55.9727C79.191 58.374 78.6765 60.518 77.6473 62.4047C76.6182 64.2915 75.1746 65.7637 73.3165 66.8214C71.4869 67.8505 69.4001 68.3651 67.056 68.3651ZM67.7421 63.9055C69.5144 63.9055 70.9152 63.2195 71.9443 61.8473C73.002 60.4751 73.5309 58.6027 73.5309 56.23C73.5309 54.0288 73.0735 52.2136 72.1587 50.7843C71.2439 49.3549 69.9861 48.4687 68.3853 48.1257C67.2132 48.1257 66.1555 48.4687 65.2121 49.1548C64.2688 49.8123 63.5255 50.7414 62.9824 51.942C62.4678 53.1427 62.2105 54.4862 62.2105 55.9727C62.2105 58.3454 62.7108 60.2607 63.7113 61.7187C64.7405 63.1766 66.084 63.9055 67.7421 63.9055Z" fill="url(#paint2_linear_86_24)"/>
<path d="M90.3422 68.1507C89.3416 68.1507 88.1696 68.0649 86.826 67.8934C86.9689 66.2925 87.0833 64.3057 87.169 61.9331C87.2548 59.5604 87.2977 57.3735 87.2977 55.3724C87.2977 53.8859 87.2834 52.8139 87.2548 52.1564L82.6666 55.0723C81.8948 54.0145 81.2087 52.6567 80.6084 50.9987C81.5803 50.5413 82.9239 49.8266 84.6391 48.8547L85.4967 48.383C86.4115 47.8684 87.2977 47.2824 88.1553 46.6249C89.0415 45.9674 89.6561 45.4385 89.9991 45.0383C90.9139 45.0383 91.9716 45.1241 93.1722 45.2956C93.0293 46.7821 92.915 48.7689 92.8292 51.2559C92.7434 53.743 92.7006 56.0442 92.7006 58.1596C92.7006 63.4481 92.9293 66.6927 93.3866 67.8934C92.3575 68.0649 91.3427 68.1507 90.3422 68.1507Z" fill="url(#paint3_linear_86_24)"/>
<path d="M257.28 493.12C257.28 497.067 260.48 500.267 264.427 500.267H314.454C318.401 500.267 321.6 497.067 321.6 493.12V468.107C321.6 464.16 318.401 460.96 314.454 460.96H264.427C260.48 460.96 257.28 464.16 257.28 468.107V493.12Z" fill="#282E54"/>
<path d="M272.11 467.849C271.109 467.849 269.937 467.935 268.594 468.107C268.737 469.707 268.851 471.694 268.937 474.067C269.022 476.44 269.065 478.627 269.065 480.628C269.065 482.114 269.051 483.186 269.022 483.844L264.434 480.928C263.662 481.985 262.976 483.343 262.376 485.001C263.348 485.459 264.691 486.173 266.407 487.145L267.264 487.617C268.179 488.132 269.065 488.718 269.923 489.375C270.809 490.033 271.424 490.561 271.767 490.962C272.681 490.962 273.739 490.876 274.94 490.704C274.797 489.218 274.683 487.231 274.597 484.744C274.511 482.257 274.468 479.956 274.468 477.84C274.468 472.552 274.697 469.307 275.154 468.107C274.125 467.935 273.11 467.849 272.11 467.849Z" fill="url(#paint4_linear_86_24)"/>
<path d="M288.605 467.635C286.547 467.635 284.717 468.092 283.116 469.007C281.544 469.95 280.315 471.265 279.428 472.952C278.571 474.667 278.142 476.625 278.142 478.827C278.142 481.171 278.671 483.258 279.729 485.087C280.786 486.945 282.259 488.389 284.145 489.418C286.061 490.447 288.219 490.962 290.62 490.962C292.621 490.962 294.379 490.504 295.894 489.59C297.438 488.675 298.624 487.388 299.453 485.73C300.311 484.101 300.74 482.2 300.74 480.027C300.74 477.626 300.225 475.482 299.196 473.595C298.167 471.709 296.723 470.236 294.865 469.179C293.036 468.15 290.949 467.635 288.605 467.635ZM289.291 472.094C291.063 472.094 292.464 472.781 293.493 474.153C294.551 475.525 295.08 477.397 295.08 479.77C295.08 481.971 294.622 483.786 293.708 485.216C292.793 486.645 291.535 487.531 289.934 487.874C288.762 487.874 287.704 487.531 286.761 486.845C285.818 486.188 285.074 485.259 284.531 484.058C284.017 482.857 283.759 481.514 283.759 480.027C283.759 477.655 284.26 475.739 285.26 474.281C286.289 472.823 287.633 472.094 289.291 472.094Z" fill="url(#paint5_linear_86_24)"/>
<path d="M311.891 467.849C310.89 467.849 309.718 467.935 308.375 468.107C308.518 469.707 308.632 471.694 308.718 474.067C308.804 476.44 308.847 478.627 308.847 480.628C308.847 482.114 308.832 483.186 308.804 483.844L304.215 480.928C303.444 481.985 302.758 483.343 302.157 485.001C303.129 485.459 304.473 486.173 306.188 487.145L307.046 487.617C307.96 488.132 308.847 488.718 309.704 489.375C310.59 490.033 311.205 490.561 311.548 490.962C312.463 490.962 313.52 490.876 314.721 490.704C314.578 489.218 314.464 487.231 314.378 484.744C314.292 482.257 314.249 479.956 314.249 477.84C314.249 472.552 314.478 469.307 314.935 468.107C313.906 467.935 312.892 467.849 311.891 467.849Z" fill="url(#paint6_linear_86_24)"/>
<defs>
<linearGradient id="paint0_linear_86_24" x1="178.667" y1="57.1733" x2="178.667" y2="478.827" gradientUnits="userSpaceOnUse">
<stop stop-color="#FBD03B"/>
<stop offset="1" stop-color="#FA7800"/>
</linearGradient>
<linearGradient id="paint1_linear_86_24" x1="67.1069" y1="45.0383" x2="67.1069" y2="68.3651" gradientUnits="userSpaceOnUse">
<stop stop-color="#FBD03B"/>
<stop offset="1" stop-color="#FA7800"/>
</linearGradient>
<linearGradient id="paint2_linear_86_24" x1="67.1069" y1="45.0383" x2="67.1069" y2="68.3651" gradientUnits="userSpaceOnUse">
<stop stop-color="#FBD03B"/>
<stop offset="1" stop-color="#FA7800"/>
</linearGradient>
<linearGradient id="paint3_linear_86_24" x1="67.1069" y1="45.0383" x2="67.1069" y2="68.3651" gradientUnits="userSpaceOnUse">
<stop stop-color="#FBD03B"/>
<stop offset="1" stop-color="#FA7800"/>
</linearGradient>
<linearGradient id="paint4_linear_86_24" x1="288.656" y1="490.962" x2="288.656" y2="467.635" gradientUnits="userSpaceOnUse">
<stop stop-color="#FBD03B"/>
<stop offset="1" stop-color="#FA7800"/>
</linearGradient>
<linearGradient id="paint5_linear_86_24" x1="288.656" y1="490.962" x2="288.656" y2="467.635" gradientUnits="userSpaceOnUse">
<stop stop-color="#FBD03B"/>
<stop offset="1" stop-color="#FA7800"/>
</linearGradient>
<linearGradient id="paint6_linear_86_24" x1="288.656" y1="490.962" x2="288.656" y2="467.635" gradientUnits="userSpaceOnUse">
<stop stop-color="#FBD03B"/>
<stop offset="1" stop-color="#FA7800"/>
</linearGradient>
</defs>
</svg>
