<svg width="300" height="360" viewBox="0 0 300 360" fill="none" xmlns="http://www.w3.org/2000/svg">
<path d="M0 28.749C0 12.8714 16.0772 0 35.9095 0H263.336C283.169 0 299.246 12.8714 299.246 28.749V330.613C299.246 346.491 283.169 359.362 263.336 359.362H35.9095C16.0772 359.362 0 346.491 0 330.613V28.749Z" fill="#282E54"/>
<path d="M26.3535 67.081C26.3535 51.2034 39.2249 38.332 55.1025 38.332H184.473C200.351 38.332 213.222 51.2034 213.222 67.081V292.281C213.222 308.159 200.351 321.03 184.473 321.03H55.1025C39.2249 321.03 26.3535 308.159 26.3535 292.281V67.081Z" fill="#282E54"/>
<path fill-rule="evenodd" clip-rule="evenodd" d="M184.473 40.7278H55.1025C40.548 40.7278 28.7493 52.5265 28.7493 67.081V292.281C28.7493 306.836 40.548 318.635 55.1025 318.635H184.473C199.027 318.635 210.826 306.836 210.826 292.281V67.081C210.826 52.5265 199.027 40.7278 184.473 40.7278ZM55.1025 38.332C39.2249 38.332 26.3535 51.2034 26.3535 67.081V292.281C26.3535 308.159 39.2249 321.03 55.1025 321.03H184.473C200.351 321.03 213.222 308.159 213.222 292.281V67.081C213.222 51.2034 200.351 38.332 184.473 38.332H55.1025Z" fill="url(#paint0_linear_93_339)"/>
<path d="M57.498 103.017C57.498 87.1394 70.3694 74.2681 86.247 74.2681H153.328C169.206 74.2681 182.077 87.1394 182.077 103.017V208.43C182.077 224.308 169.206 237.179 153.328 237.179H86.247C70.3694 237.179 57.498 224.308 57.498 208.43V103.017Z" fill="white"/>
<path d="M23.957 28.7495C23.957 26.1032 26.1023 23.958 28.7485 23.958H62.289C64.9353 23.958 67.0805 26.1032 67.0805 28.7495V45.5197C67.0805 48.166 64.9353 50.3112 62.289 50.3112H28.7485C26.1023 50.3112 23.957 48.166 23.957 45.5197V28.7495Z" fill="#282E54"/>
<path d="M33.8971 45.692C33.2263 45.692 32.4405 45.6345 31.5397 45.5195C31.6355 44.4462 31.7122 43.1142 31.7697 41.5234C31.8272 39.9326 31.8559 38.4664 31.8559 37.1248C31.8559 36.1282 31.8464 35.4094 31.8272 34.9686L28.751 36.9236C28.2336 36.2144 27.7736 35.304 27.3711 34.1924C28.0227 33.8857 28.9235 33.4066 30.0735 32.7549L30.6485 32.4387C31.2618 32.0937 31.8559 31.7008 32.4309 31.26C33.0251 30.8192 33.4371 30.4646 33.6671 30.1963C34.2804 30.1963 34.9896 30.2538 35.7945 30.3688C35.6987 31.3654 35.6221 32.6975 35.5646 34.3649C35.5071 36.0323 35.4783 37.5752 35.4783 38.9935C35.4783 42.5392 35.6316 44.7145 35.9383 45.5195C35.2483 45.6345 34.5679 45.692 33.8971 45.692Z" fill="url(#paint1_linear_93_339)"/>
<path d="M44.9563 45.8357C43.5763 45.8357 42.3497 45.5291 41.2764 44.9158C40.2223 44.2833 39.3981 43.4017 38.804 42.2709C38.229 41.1209 37.9415 39.808 37.9415 38.3323C37.9415 36.7606 38.2961 35.3615 39.0052 34.1349C39.7144 32.8891 40.7014 31.9212 41.9664 31.2313C43.2505 30.5413 44.6975 30.1963 46.3075 30.1963C47.6491 30.1963 48.8278 30.5029 49.8436 31.1163C50.8786 31.7296 51.6739 32.592 52.2298 33.7037C52.8047 34.7961 53.0922 36.0707 53.0922 37.5273C53.0922 39.1372 52.7472 40.5747 52.0573 41.8396C51.3673 43.1046 50.3994 44.0916 49.1536 44.8008C47.927 45.4908 46.5279 45.8357 44.9563 45.8357ZM45.4163 42.8458C46.6045 42.8458 47.5437 42.3859 48.2337 41.4659C48.9428 40.5459 49.2974 39.2906 49.2974 37.6998C49.2974 36.224 48.9907 35.007 48.3774 34.0487C47.7641 33.0904 46.9208 32.4962 45.8475 32.2662C45.0617 32.2662 44.3525 32.4962 43.7201 32.9562C43.0876 33.397 42.5893 34.0199 42.2251 34.8249C41.8801 35.6298 41.7076 36.5307 41.7076 37.5273C41.7076 39.1181 42.043 40.4022 42.7138 41.3796C43.4038 42.3571 44.3046 42.8458 45.4163 42.8458Z" fill="url(#paint2_linear_93_339)"/>
<path d="M60.5685 45.692C59.8977 45.692 59.1119 45.6345 58.2111 45.5195C58.307 44.4462 58.3836 43.1142 58.4411 41.5234C58.4986 39.9326 58.5274 38.4664 58.5274 37.1248C58.5274 36.1282 58.5178 35.4094 58.4986 34.9686L55.4225 36.9236C54.905 36.2144 54.445 35.304 54.0425 34.1924C54.6942 33.8857 55.595 33.4066 56.7449 32.7549L57.3199 32.4387C57.9332 32.0937 58.5274 31.7008 59.1023 31.26C59.6965 30.8192 60.1086 30.4646 60.3385 30.1963C60.9519 30.1963 61.661 30.2538 62.466 30.3688C62.3701 31.3654 62.2935 32.6975 62.236 34.3649C62.1785 36.0323 62.1497 37.5752 62.1497 38.9935C62.1497 42.5392 62.3031 44.7145 62.6097 45.5195C61.9197 45.6345 61.2394 45.692 60.5685 45.692Z" fill="url(#paint3_linear_93_339)"/>
<path d="M172.494 330.613C172.494 333.259 174.639 335.404 177.286 335.404H210.826C213.472 335.404 215.618 333.259 215.618 330.613V313.843C215.618 311.196 213.472 309.051 210.826 309.051H177.286C174.639 309.051 172.494 311.196 172.494 313.843V330.613Z" fill="#282E54"/>
<path d="M182.434 313.67C181.763 313.67 180.978 313.728 180.077 313.843C180.173 314.916 180.249 316.248 180.307 317.839C180.364 319.43 180.393 320.896 180.393 322.238C180.393 323.234 180.383 323.953 180.364 324.394L177.288 322.439C176.771 323.148 176.311 324.058 175.908 325.17C176.56 325.477 177.461 325.956 178.611 326.607L179.186 326.924C179.799 327.269 180.393 327.661 180.968 328.102C181.562 328.543 181.974 328.898 182.204 329.166C182.818 329.166 183.527 329.109 184.332 328.994C184.236 327.997 184.159 326.665 184.102 324.997C184.044 323.33 184.015 321.787 184.015 320.369C184.015 316.823 184.169 314.648 184.475 313.843C183.785 313.728 183.105 313.67 182.434 313.67Z" fill="url(#paint4_linear_93_339)"/>
<path d="M193.493 313.527C192.113 313.527 190.887 313.833 189.814 314.447C188.759 315.079 187.935 315.961 187.341 317.091C186.766 318.241 186.479 319.554 186.479 321.03C186.479 322.602 186.833 324.001 187.542 325.227C188.251 326.473 189.239 327.441 190.503 328.131C191.788 328.821 193.235 329.166 194.845 329.166C196.186 329.166 197.365 328.859 198.381 328.246C199.416 327.633 200.211 326.77 200.767 325.659C201.342 324.566 201.629 323.292 201.629 321.835C201.629 320.225 201.284 318.788 200.594 317.523C199.904 316.258 198.937 315.271 197.691 314.562C196.464 313.872 195.065 313.527 193.493 313.527ZM193.953 316.516C195.142 316.516 196.081 316.976 196.771 317.896C197.48 318.816 197.834 320.072 197.834 321.663C197.834 323.138 197.528 324.355 196.915 325.314C196.301 326.272 195.458 326.866 194.385 327.096C193.599 327.096 192.89 326.866 192.257 326.406C191.625 325.965 191.126 325.342 190.762 324.537C190.417 323.732 190.245 322.832 190.245 321.835C190.245 320.244 190.58 318.96 191.251 317.983C191.941 317.005 192.842 316.516 193.953 316.516Z" fill="url(#paint5_linear_93_339)"/>
<path d="M209.106 313.67C208.435 313.67 207.649 313.728 206.748 313.843C206.844 314.916 206.921 316.248 206.978 317.839C207.036 319.43 207.064 320.896 207.064 322.238C207.064 323.234 207.055 323.953 207.036 324.394L203.96 322.439C203.442 323.148 202.982 324.058 202.58 325.17C203.231 325.477 204.132 325.956 205.282 326.607L205.857 326.924C206.47 327.269 207.064 327.661 207.639 328.102C208.234 328.543 208.646 328.898 208.876 329.166C209.489 329.166 210.198 329.109 211.003 328.994C210.907 327.997 210.831 326.665 210.773 324.997C210.716 323.33 210.687 321.787 210.687 320.369C210.687 316.823 210.84 314.648 211.147 313.843C210.457 313.728 209.776 313.67 209.106 313.67Z" fill="url(#paint6_linear_93_339)"/>
<path d="M235.822 37.4715C235.822 33.0083 239.44 29.3901 243.904 29.3901H262.76C267.224 29.3901 270.842 33.0083 270.842 37.4715V67.1034C270.842 71.5666 267.224 75.1848 262.76 75.1848H243.904C239.44 75.1848 235.822 71.5666 235.822 67.1034V37.4715Z" fill="white"/>
<path d="M235.823 197.782C235.823 193.318 239.441 189.7 243.905 189.7H262.761C267.225 189.7 270.843 193.318 270.843 197.782V227.413C270.843 231.877 267.225 235.495 262.761 235.495H243.905C239.441 235.495 235.823 231.877 235.823 227.413V197.782Z" fill="white"/>
<path d="M235.822 117.626C235.822 113.163 239.44 109.545 243.904 109.545H262.76C267.224 109.545 270.842 113.163 270.842 117.626V147.258C270.842 151.721 267.224 155.34 262.76 155.34H243.904C239.44 155.34 235.822 151.721 235.822 147.258V117.626Z" fill="white"/>
<path d="M235.823 277.937C235.823 273.474 239.441 269.856 243.905 269.856H262.761C267.225 269.856 270.843 273.474 270.843 277.937V307.569C270.843 312.032 267.225 315.651 262.761 315.651H243.905C239.441 315.651 235.823 312.032 235.823 307.569V277.937Z" fill="white"/>
<path fill-rule="evenodd" clip-rule="evenodd" d="M276.246 5H23C13.0589 5 5 13.0589 5 23V336.362C5 346.303 13.0589 354.362 23 354.362H276.246C286.187 354.362 294.246 346.303 294.246 336.362V23C294.246 13.0589 286.187 5 276.246 5ZM23 0C10.2975 0 0 10.2975 0 23V336.362C0 349.065 10.2974 359.362 23 359.362H276.246C288.949 359.362 299.246 349.065 299.246 336.362V23C299.246 10.2975 288.949 0 276.246 0H23Z" fill="white"/>
<defs>
<linearGradient id="paint0_linear_93_339" x1="119.788" y1="38.332" x2="119.788" y2="321.03" gradientUnits="userSpaceOnUse">
<stop stop-color="#FBD03B"/>
<stop offset="1" stop-color="#FA7800"/>
</linearGradient>
<linearGradient id="paint1_linear_93_339" x1="44.9904" y1="30.1963" x2="44.9904" y2="45.8357" gradientUnits="userSpaceOnUse">
<stop stop-color="#FBD03B"/>
<stop offset="1" stop-color="#FA7800"/>
</linearGradient>
<linearGradient id="paint2_linear_93_339" x1="44.9904" y1="30.1963" x2="44.9904" y2="45.8357" gradientUnits="userSpaceOnUse">
<stop stop-color="#FBD03B"/>
<stop offset="1" stop-color="#FA7800"/>
</linearGradient>
<linearGradient id="paint3_linear_93_339" x1="44.9904" y1="30.1963" x2="44.9904" y2="45.8357" gradientUnits="userSpaceOnUse">
<stop stop-color="#FBD03B"/>
<stop offset="1" stop-color="#FA7800"/>
</linearGradient>
<linearGradient id="paint4_linear_93_339" x1="193.528" y1="329.166" x2="193.528" y2="313.527" gradientUnits="userSpaceOnUse">
<stop stop-color="#FBD03B"/>
<stop offset="1" stop-color="#FA7800"/>
</linearGradient>
<linearGradient id="paint5_linear_93_339" x1="193.528" y1="329.166" x2="193.528" y2="313.527" gradientUnits="userSpaceOnUse">
<stop stop-color="#FBD03B"/>
<stop offset="1" stop-color="#FA7800"/>
</linearGradient>
<linearGradient id="paint6_linear_93_339" x1="193.528" y1="329.166" x2="193.528" y2="313.527" gradientUnits="userSpaceOnUse">
<stop stop-color="#FBD03B"/>
<stop offset="1" stop-color="#FA7800"/>
</linearGradient>
</defs>
</svg>
