<svg width="26" height="26" viewBox="0 0 26 26" fill="none" xmlns="http://www.w3.org/2000/svg">
<rect x="5.39258" y="9.9165" width="15.7442" height="6.56008" fill="white"/>
<path d="M7.31142 14.0379H17.906C18.1708 14.0379 18.3928 13.9478 18.572 13.7676C18.7512 13.5874 18.8408 13.364 18.8408 13.0976C18.8408 12.8312 18.7512 12.6097 18.572 12.4331C18.3928 12.2566 18.1708 12.1683 17.906 12.1683H7.31142C7.04656 12.1683 6.82454 12.2584 6.64537 12.4386C6.46619 12.6188 6.37661 12.8421 6.37661 13.1085C6.37661 13.375 6.46619 13.5965 6.64537 13.773C6.82454 13.9496 7.04656 14.0379 7.31142 14.0379ZM12.617 25.6607C10.8983 25.6607 9.28314 25.3335 7.77153 24.6792C6.25992 24.0248 4.93804 23.1315 3.80588 21.9994C2.67372 20.8672 1.78045 19.5446 1.12608 18.0314C0.471715 16.5182 0.144531 14.9014 0.144531 13.181C0.144531 11.4605 0.471715 9.84375 1.12608 8.3306C1.78045 6.81743 2.67372 5.49996 3.80588 4.37819C4.93804 3.25641 6.2607 2.36834 7.77387 1.71397C9.28702 1.05961 10.9038 0.732422 12.6243 0.732422C14.3447 0.732422 15.9615 1.05961 17.4747 1.71397C18.9878 2.36834 20.3053 3.25641 21.4271 4.37819C22.5488 5.49996 23.4369 6.81908 24.0913 8.33556C24.7457 9.85203 25.0728 11.4696 25.0728 13.1883C25.0728 14.907 24.7457 16.5221 24.0913 18.0337C23.4369 19.5453 22.5488 20.8653 21.4271 21.9937C20.3053 23.122 18.9862 24.0153 17.4697 24.6734C15.9532 25.3316 14.3357 25.6607 12.617 25.6607Z" fill="#DD2E44"/>
</svg>
