<svg width="450" height="789" viewBox="0 0 450 789" fill="none" xmlns="http://www.w3.org/2000/svg">
<rect x="5" y="5" width="440" height="779" rx="7" fill="url(#paint0_linear_347_206)" stroke="white" stroke-width="10"/>
<path d="M48.6594 125.3C49.3927 116.033 49.7594 105.933 49.7594 95C49.7594 88.8 49.626 84.1 49.3594 80.9C49.1594 77.7 48.7594 74.8333 48.1594 72.3C51.8927 72.7667 57.726 73 65.6594 73C74.9927 73 82.1927 72.7667 87.2594 72.3C87.2594 74.7 87.0594 77.2667 86.6594 80C86.2594 82.6667 85.7594 84.4667 85.1594 85.4C83.426 84.5333 81.1927 83.8667 78.4594 83.4C75.726 82.9333 72.9594 82.7 70.1594 82.7C67.7594 82.7 65.2927 82.8667 62.7594 83.2C62.4927 88 62.3594 91.8 62.3594 94.6C64.8927 94.7333 66.7927 94.8 68.0594 94.8C71.4594 94.8 74.0594 94.7333 75.8594 94.6C77.726 94.4 79.7927 94.1 82.0594 93.7C82.326 95.7 82.4594 97.2667 82.4594 98.4C82.4594 99.4667 82.326 101.067 82.0594 103.2C73.6594 102.733 67.0594 102.5 62.2594 102.5C62.2594 106.967 62.3594 110.867 62.5594 114.2C64.8927 114.667 67.5927 114.9 70.6594 114.9C73.7927 114.9 76.8927 114.667 79.9594 114.2C83.0927 113.733 85.6594 113.067 87.6594 112.2C87.6594 114.533 87.4594 117.067 87.0594 119.8C86.6594 122.467 86.1594 124.3 85.5594 125.3C80.9594 124.833 74.4927 124.6 66.1594 124.6C58.226 124.6 52.3927 124.833 48.6594 125.3ZM90.0297 125.6C95.2964 119.933 102.23 111.467 110.83 100.2C99.963 84.2 93.463 75.4 91.3297 73.8C95.5297 72.4 100.896 71.7 107.43 71.7C108.363 73.8333 112.196 79.9667 118.93 90.1C122.463 85.5667 125.163 81.8 127.03 78.8C128.896 75.8 129.996 73.6333 130.33 72.3C134.063 71.9 138.296 71.7 143.03 71.7C137.43 77.6333 130.763 85.7667 123.03 96.1C127.63 102.967 131.83 109.033 135.63 114.3C139.496 119.5 142.03 122.567 143.23 123.5C140.896 124.3 138.43 124.833 135.83 125.1C133.296 125.433 130.396 125.6 127.13 125.6C126.063 123.4 121.963 116.933 114.83 106.2C111.096 111 108.23 115 106.23 118.2C104.23 121.333 103.063 123.6 102.73 125C98.9964 125.4 94.763 125.6 90.0297 125.6ZM156.369 125.6C153.969 125.6 151.269 125.4 148.269 125C148.602 121.733 148.869 117.3 149.069 111.7C149.269 106.1 149.369 100.8 149.369 95.8C149.369 84.3333 148.835 77.2333 147.769 74.5C150.035 73.7 153.069 73.0667 156.869 72.6C160.735 72.0667 164.635 71.8 168.569 71.8C175.769 71.8 181.269 73.3333 185.069 76.4C188.935 79.4 190.869 83.7333 190.869 89.4C190.869 93.2 189.869 96.6 187.869 99.6C185.935 102.533 183.202 104.833 179.669 106.5C176.135 108.167 172.102 109 167.569 109C165.435 109 163.569 108.867 161.969 108.6C162.102 117.133 162.602 122.6 163.469 125C161.202 125.4 158.835 125.6 156.369 125.6ZM171.269 101.9C173.069 100.833 174.535 99.2667 175.669 97.2C176.802 95.1333 177.369 92.8 177.369 90.2C177.369 83.6 173.735 80.3 166.469 80.3C164.935 80.3 163.602 80.4333 162.469 80.7C162.069 88.3 161.869 94.7667 161.869 100.1C165.935 101.3 169.069 101.9 171.269 101.9ZM220.769 126.3C215.902 126.3 211.602 125.233 207.869 123.1C204.135 120.9 201.235 117.867 199.169 114C197.102 110.133 196.069 105.667 196.069 100.6C196.069 94.9333 197.302 89.9 199.769 85.5C202.235 81.1 205.669 77.6667 210.069 75.2C214.535 72.7333 219.602 71.5 225.269 71.5C230.335 71.5 234.769 72.6 238.569 74.8C242.435 77 245.435 80.1 247.569 84.1C249.702 88.0333 250.769 92.6 250.769 97.8C250.769 103.333 249.502 108.267 246.969 112.6C244.435 116.867 240.869 120.233 236.269 122.7C231.735 125.1 226.569 126.3 220.769 126.3ZM223.069 119.1C227.402 119.1 230.835 117.6 233.369 114.6C235.969 111.533 237.269 107.433 237.269 102.3C237.269 97.3667 236.135 93.1333 233.869 89.6C231.602 86.0667 228.569 83.8333 224.769 82.9C221.902 82.9 219.302 83.7 216.969 85.3C214.635 86.8333 212.802 89 211.469 91.8C210.202 94.6 209.569 97.7667 209.569 101.3C209.569 106.633 210.802 110.933 213.269 114.2C215.735 117.467 219.002 119.1 223.069 119.1ZM276.102 126.1C268.702 126.1 262.335 124.9 257.002 122.5C257.002 120.7 257.135 119.1 257.402 117.7C257.668 116.3 258.102 114.9 258.702 113.5C260.368 115.1 262.702 116.367 265.702 117.3C268.702 118.167 271.935 118.6 275.402 118.6C278.268 118.6 280.468 118.133 282.002 117.2C283.602 116.2 284.402 114.8 284.402 113C284.402 111.467 283.602 110.133 282.002 109C280.402 107.867 277.868 106.5 274.402 104.9C270.935 103.3 268.035 101.8 265.702 100.4C263.435 99 261.468 97.2 259.802 95C258.135 92.7333 257.302 90.0333 257.302 86.9C257.302 83.9 258.202 81.2667 260.002 79C261.802 76.6667 264.368 74.8667 267.702 73.6C271.035 72.3333 274.935 71.7 279.402 71.7C286.002 71.7 291.602 72.5 296.202 74.1C296.202 76.1667 295.768 78.5667 294.902 81.3C294.035 83.9667 293.002 86.0333 291.802 87.5C288.868 85.1667 285.835 83.2667 282.702 81.8C279.635 80.2667 277.035 79.5 274.902 79.5C273.835 79.7 272.868 80.2667 272.002 81.2C271.202 82.0667 270.802 83.1333 270.802 84.4C270.802 86.1333 271.635 87.6 273.302 88.8C274.968 89.9333 277.568 91.3 281.102 92.9C284.635 94.5 287.502 95.9667 289.702 97.3C291.968 98.6333 293.902 100.433 295.502 102.7C297.102 104.9 297.902 107.6 297.902 110.8C297.902 115.667 296.068 119.433 292.402 122.1C288.735 124.767 283.302 126.1 276.102 126.1ZM306.081 125.3C306.815 116.033 307.181 105.933 307.181 95C307.181 88.8 307.048 84.1 306.781 80.9C306.581 77.7 306.181 74.8333 305.581 72.3C309.315 72.7667 315.148 73 323.081 73C332.415 73 339.615 72.7667 344.681 72.3C344.681 74.7 344.481 77.2667 344.081 80C343.681 82.6667 343.181 84.4667 342.581 85.4C340.848 84.5333 338.615 83.8667 335.881 83.4C333.148 82.9333 330.381 82.7 327.581 82.7C325.181 82.7 322.715 82.8667 320.181 83.2C319.915 88 319.781 91.8 319.781 94.6C322.315 94.7333 324.215 94.8 325.481 94.8C328.881 94.8 331.481 94.7333 333.281 94.6C335.148 94.4 337.215 94.1 339.481 93.7C339.748 95.7 339.881 97.2667 339.881 98.4C339.881 99.4667 339.748 101.067 339.481 103.2C331.081 102.733 324.481 102.5 319.681 102.5C319.681 106.967 319.781 110.867 319.981 114.2C322.315 114.667 325.015 114.9 328.081 114.9C331.215 114.9 334.315 114.667 337.381 114.2C340.515 113.733 343.081 113.067 345.081 112.2C345.081 114.533 344.881 117.067 344.481 119.8C344.081 122.467 343.581 124.3 342.981 125.3C338.381 124.833 331.915 124.6 323.581 124.6C315.648 124.6 309.815 124.833 306.081 125.3ZM372.452 125.6C369.185 125.6 365.785 125.433 362.252 125.1C358.718 124.833 355.685 124.467 353.152 124C353.485 120.8 353.752 116.433 353.952 110.9C354.152 105.3 354.252 100 354.252 95C354.252 83.9333 353.718 77.1 352.652 74.5C355.052 73.7 358.252 73.0667 362.252 72.6C366.252 72.0667 370.318 71.8 374.452 71.8C383.785 71.8 390.952 74.1 395.952 78.7C400.952 83.3 403.452 89.8667 403.452 98.4C403.452 103.733 402.152 108.467 399.552 112.6C396.952 116.667 393.285 119.867 388.552 122.2C383.885 124.467 378.518 125.6 372.452 125.6ZM377.152 118.5C379.485 118.1 381.618 117 383.552 115.2C385.552 113.333 387.118 111.067 388.252 108.4C389.385 105.733 389.952 103 389.952 100.2C389.952 86.9333 384.085 80.3 372.352 80.3C370.485 80.3 368.818 80.5333 367.352 81C366.952 87.2 366.752 94.3 366.752 102.3C366.752 108.1 366.852 112.867 367.052 116.6C371.252 117.867 374.618 118.5 377.152 118.5Z" fill="white"/>
<mask id="mask0_347_206" style="mask-type:alpha" maskUnits="userSpaceOnUse" x="0" y="0" width="450" height="789">
<rect width="450" height="789" rx="12" fill="url(#paint1_linear_347_206)"/>
</mask>
<g mask="url(#mask0_347_206)">
<path d="M-25.1239 320.068C-27.8169 302.156 -15.4788 285.452 2.43403 282.759L207.85 251.876C225.762 249.183 242.467 261.521 245.16 279.433L296.359 619.981C299.052 637.894 286.714 654.598 268.801 657.291L63.3854 688.174C45.4726 690.867 28.7682 678.529 26.0752 660.617L-25.1239 320.068Z" fill="#282E54"/>
<path fill-rule="evenodd" clip-rule="evenodd" d="M209.881 265.39L4.46575 296.273C-5.9834 297.844 -13.1806 307.588 -11.6097 318.037L39.5894 658.585C41.1603 669.034 50.9045 676.231 61.3537 674.66L266.769 643.777C277.218 642.206 284.416 632.462 282.845 622.013L231.646 281.465C230.075 271.016 220.33 263.819 209.881 265.39ZM2.43403 282.759C-15.4788 285.452 -27.8169 302.156 -25.1239 320.068L26.0752 660.617C28.7682 678.529 45.4726 690.867 63.3854 688.174L268.801 657.291C286.714 654.598 299.052 637.894 296.359 619.981L245.16 279.433C242.467 261.521 225.762 249.183 207.85 251.876L2.43403 282.759Z" fill="white"/>
<path d="M11.1085 358.843C8.41553 340.931 20.7536 324.227 38.6664 321.534L184.62 299.591C202.532 296.898 219.237 309.235 221.93 327.148L260.126 581.207C262.819 599.12 250.481 615.824 232.568 618.517L86.6148 640.46C68.702 643.153 51.9977 630.815 49.3047 612.903L11.1085 358.843Z" fill="#282E54"/>
<path fill-rule="evenodd" clip-rule="evenodd" d="M185.026 302.294L39.0728 324.237C22.6527 326.705 11.3428 342.017 13.8114 358.437L52.0075 612.497C54.4761 628.916 69.7884 640.226 86.2085 637.757L232.162 615.814C248.582 613.345 259.892 598.033 257.423 581.614L219.227 327.554C216.758 311.134 201.446 299.825 185.026 302.294ZM38.6664 321.534C20.7536 324.227 8.41553 340.931 11.1085 358.843L49.3047 612.903C51.9977 630.815 68.702 643.153 86.6148 640.46L232.568 618.517C250.481 615.824 262.819 599.12 260.126 581.207L221.93 327.148C219.237 309.235 202.532 296.898 184.62 299.591L38.6664 321.534Z" fill="url(#paint2_linear_347_206)"/>
<path d="M52.3402 394.102C49.6472 376.189 61.9853 359.485 79.8981 356.792L155.578 345.414C173.49 342.721 190.195 355.059 192.888 372.971L210.767 491.893C213.46 509.805 201.122 526.509 183.209 529.202L107.529 540.58C89.6166 543.273 72.9123 530.936 70.2193 513.023L52.3402 394.102Z" fill="white"/>
<path d="M118.666 597.544C116.785 597.827 114.852 597.985 112.867 598.018C110.919 598.079 109.283 598.01 107.96 597.811C107.885 596.429 107.677 594.387 107.338 591.686C107.025 588.947 106.679 586.312 106.299 583.782C105.494 578.431 104.74 575.178 104.035 574.024C105.274 573.439 106.85 572.887 108.762 572.368C110.669 571.816 112.579 571.396 114.492 571.108C117.833 570.606 120.469 570.823 122.401 571.76C124.361 572.659 125.506 574.212 125.838 576.417C126.004 577.52 125.8 578.595 125.228 579.643C124.689 580.686 123.849 581.608 122.709 582.41C124.428 582.815 125.83 583.532 126.913 584.564C127.992 585.562 128.641 586.791 128.861 588.251C129.226 590.683 128.52 592.713 126.741 594.34C124.99 595.93 122.299 596.998 118.666 597.544ZM112.494 583.299C113.706 582.752 115.37 582.352 117.488 582.1C118.166 581.534 118.665 580.878 118.984 580.134C119.335 579.385 119.458 578.653 119.35 577.94C119.024 575.767 117.433 574.895 114.579 575.324C113.574 575.475 112.606 575.77 111.677 576.208C111.942 578.854 112.215 581.218 112.494 583.299ZM117.655 594.463C121.191 593.931 122.737 592.19 122.293 589.238C122.132 588.168 121.65 587.278 120.847 586.57C120.044 585.862 118.973 585.359 117.635 585.063C116.533 585.229 114.988 585.876 113.002 587.003C113.387 589.566 113.825 592.037 114.315 594.417C115.504 594.604 116.618 594.619 117.655 594.463Z" fill="white"/>
<path d="M134.03 594.787C133.709 590.225 133.149 585.284 132.349 579.965C131.896 576.949 131.487 574.672 131.123 573.135C130.792 571.593 130.388 570.227 129.91 569.039C131.761 568.993 134.616 568.68 138.476 568.099C143.016 567.417 146.502 566.777 148.933 566.179C149.108 567.347 149.199 568.61 149.204 569.969C149.205 571.295 149.093 572.208 148.869 572.706C147.963 572.411 146.827 572.25 145.464 572.223C144.1 572.196 142.737 572.284 141.374 572.489C140.207 572.665 139.019 572.926 137.811 573.274C138.032 575.629 138.245 577.487 138.45 578.849C139.692 578.729 140.621 578.622 141.238 578.53C142.892 578.281 144.152 578.058 145.018 577.862C145.911 577.628 146.895 577.331 147.968 576.97C148.244 577.924 148.424 578.676 148.507 579.228C148.585 579.747 148.637 580.535 148.663 581.592C144.542 581.979 141.314 582.349 138.979 582.7C139.306 584.873 139.64 586.763 139.981 588.37C141.15 588.426 142.481 588.342 143.973 588.118C145.497 587.889 146.988 587.548 148.446 587.097C149.936 586.641 151.136 586.129 152.046 585.561C152.217 586.696 152.305 587.943 152.31 589.302C152.31 590.629 152.201 591.557 151.982 592.088C149.71 592.197 146.547 592.557 142.493 593.166C138.633 593.746 135.812 594.287 134.03 594.787Z" fill="white"/>
<path d="M156.93 591.344C156.609 586.782 156.049 581.841 155.249 576.522C154.796 573.506 154.387 571.229 154.023 569.692C153.692 568.15 153.288 566.785 152.811 565.596C154.661 565.55 157.516 565.237 161.376 564.657C165.916 563.974 169.402 563.334 171.833 562.736C172.009 563.904 172.099 565.167 172.104 566.526C172.105 567.853 171.993 568.765 171.77 569.263C170.863 568.968 169.728 568.807 168.364 568.78C167 568.753 165.637 568.842 164.274 569.046C163.107 569.222 161.919 569.483 160.711 569.831C160.932 572.186 161.145 574.044 161.35 575.406C162.592 575.286 163.522 575.179 164.138 575.087C165.792 574.838 167.052 574.615 167.918 574.419C168.811 574.185 169.795 573.888 170.869 573.527C171.145 574.481 171.324 575.233 171.407 575.785C171.485 576.304 171.537 577.092 171.563 578.149C167.443 578.537 164.215 578.906 161.879 579.257C162.206 581.43 162.54 583.32 162.881 584.927C164.05 584.983 165.381 584.899 166.873 584.675C168.397 584.446 169.888 584.106 171.346 583.654C172.837 583.198 174.036 582.686 174.946 582.118C175.117 583.253 175.205 584.5 175.21 585.859C175.211 587.186 175.101 588.114 174.883 588.645C172.61 588.754 169.447 589.114 165.393 589.723C161.533 590.303 158.713 590.844 156.93 591.344Z" fill="white"/>
<path d="M183.793 587.454C182.626 587.63 181.297 587.73 179.809 587.755C179.732 586.141 179.537 583.965 179.225 581.226C178.908 578.455 178.569 575.869 178.208 573.469C177.369 567.89 176.591 564.475 175.872 563.223C176.916 562.668 178.345 562.138 180.16 561.633C182.002 561.091 183.88 560.676 185.794 560.388C189.297 559.862 192.084 560.206 194.158 561.419C196.258 562.596 197.516 564.563 197.93 567.32C198.164 568.877 197.952 570.335 197.294 571.694C196.636 573.053 195.604 574.236 194.196 575.244C197.397 579.771 199.895 582.596 201.689 583.719C199.651 584.722 197.124 585.45 194.107 585.904C192.872 583.867 190.927 581.075 188.271 577.528C187.038 577.713 185.975 577.807 185.079 577.809C185.893 582.562 186.601 585.507 187.204 586.643C186.13 587.004 184.993 587.274 183.793 587.454ZM189.162 573.862C189.993 573.206 190.609 572.45 191.011 571.594C191.44 570.7 191.577 569.734 191.421 568.696C190.938 565.485 188.929 564.146 185.394 564.677C184.648 564.789 184.009 564.952 183.477 565.164C183.703 567.552 184.028 570.372 184.45 573.625C186.457 573.953 188.027 574.032 189.162 573.862Z" fill="white"/>
<path d="M1.90473 316.005C1.45589 313.02 3.51224 310.236 6.49771 309.787L44.3374 304.098C47.3229 303.649 50.1069 305.705 50.5558 308.691L53.4002 327.61C53.849 330.596 51.7927 333.38 48.8072 333.828L10.9675 339.517C7.98201 339.966 5.19795 337.91 4.74912 334.924L1.90473 316.005Z" fill="#282E54"/>
<path d="M15.9944 333.433C15.2376 333.546 14.3413 333.615 13.3056 333.638C13.2316 332.411 13.0922 330.895 12.8873 329.091C12.6823 327.286 12.4661 325.627 12.2385 324.114C12.0695 322.989 11.9368 322.18 11.8404 321.686L8.7015 324.413C7.99741 323.701 7.32406 322.752 6.68144 321.566C7.3646 321.11 8.2996 320.416 9.48643 319.486L10.0815 319.032C10.7149 318.539 11.3186 317.995 11.8925 317.4C12.488 316.802 12.8928 316.332 13.1067 315.99C13.7986 315.886 14.6084 315.831 15.5361 315.824C15.597 316.965 15.7365 318.48 15.9544 320.371C16.1723 322.262 16.4016 324.008 16.6421 325.608C17.2435 329.608 17.7855 332.036 18.268 332.892C17.5091 333.139 16.7512 333.319 15.9944 333.433Z" fill="url(#paint3_linear_347_206)"/>
<path d="M28.4955 331.719C26.9387 331.953 25.5028 331.815 24.1879 331.305C22.8914 330.771 21.8121 329.916 20.95 328.741C20.1063 327.541 19.5592 326.109 19.3089 324.444C19.0424 322.671 19.2051 321.032 19.7971 319.528C20.3858 318.002 21.3352 316.743 22.6453 315.75C23.977 314.754 25.551 314.119 27.3673 313.846C28.8809 313.619 30.2627 313.765 31.5127 314.284C32.7844 314.801 33.828 315.639 34.6436 316.799C35.4776 317.934 36.0181 319.323 36.2651 320.966C36.5382 322.782 36.3928 324.462 35.8289 326.006C35.2651 327.55 34.3405 328.828 33.0553 329.84C31.7885 330.826 30.2686 331.452 28.4955 331.719ZM28.5073 328.268C29.8479 328.066 30.8294 327.388 31.4518 326.233C32.0958 325.075 32.2829 323.599 32.0131 321.804C31.7628 320.139 31.2104 318.818 30.356 317.841C29.5015 316.864 28.4493 316.337 27.1994 316.259C26.3129 316.393 25.5519 316.772 24.9163 317.399C24.2776 318.003 23.821 318.79 23.5467 319.76C23.294 320.727 23.2522 321.773 23.4213 322.897C23.6911 324.692 24.2873 326.083 25.2099 327.072C26.1541 328.058 27.2532 328.457 28.5073 328.268Z" fill="url(#paint4_linear_347_206)"/>
<path d="M46.0846 328.909C45.3278 329.023 44.4315 329.091 43.3957 329.114C43.3218 327.887 43.1824 326.371 42.9774 324.567C42.7725 322.762 42.5562 321.103 42.3287 319.59C42.1596 318.466 42.0269 317.656 41.9305 317.162L38.7917 319.89C38.0876 319.177 37.4142 318.228 36.7716 317.042C37.4548 316.586 38.3898 315.893 39.5766 314.962L40.1716 314.508C40.8051 314.015 41.4087 313.471 41.9826 312.876C42.5782 312.278 42.9829 311.808 43.1969 311.466C43.8888 311.362 44.6986 311.307 45.6263 311.3C45.6872 312.441 45.8266 313.956 46.0446 315.847C46.2625 317.738 46.4918 319.484 46.7323 321.084C47.3337 325.084 47.8756 327.512 48.3581 328.368C47.5992 328.615 46.8414 328.795 46.0846 328.909Z" fill="url(#paint5_linear_347_206)"/>
<path d="M220.679 631.359C221.128 634.345 223.912 636.401 226.897 635.952L264.737 630.263C267.723 629.814 269.779 627.03 269.33 624.045L266.486 605.125C266.037 602.14 263.253 600.084 260.267 600.533L222.428 606.222C219.442 606.67 217.386 609.454 217.835 612.44L220.679 631.359Z" fill="#282E54"/>
<path d="M229.02 610.56C228.263 610.673 227.387 610.871 226.39 611.154C226.68 612.349 226.992 613.838 227.327 615.623C227.662 617.408 227.943 619.057 228.17 620.571C228.339 621.695 228.451 622.508 228.504 623.008L224.702 621.325C224.238 622.212 223.874 623.317 223.608 624.64C224.395 624.875 225.493 625.263 226.901 625.803L227.603 626.062C228.353 626.347 229.09 626.69 229.814 627.09C230.559 627.486 231.084 627.816 231.389 628.08C232.081 627.976 232.871 627.791 233.76 627.525C233.483 626.417 233.17 624.927 232.823 623.055C232.475 621.184 232.181 619.448 231.94 617.848C231.339 613.848 231.143 611.368 231.352 610.408C230.554 610.395 229.777 610.446 229.02 610.56Z" fill="url(#paint6_linear_347_206)"/>
<path d="M241.473 608.522C239.916 608.756 238.584 609.31 237.477 610.184C236.395 611.076 235.615 612.21 235.136 613.587C234.683 614.982 234.581 616.512 234.831 618.176C235.098 619.949 235.735 621.468 236.743 622.731C237.755 624.016 239.032 624.941 240.576 625.505C242.142 626.065 243.833 626.209 245.65 625.936C247.163 625.709 248.441 625.163 249.483 624.298C250.546 623.431 251.298 622.323 251.736 620.975C252.199 619.645 252.308 618.158 252.061 616.515C251.787 614.699 251.154 613.135 250.162 611.825C249.169 610.515 247.909 609.566 246.383 608.977C244.883 608.407 243.246 608.255 241.473 608.522ZM242.499 611.817C243.839 611.615 244.977 611.975 245.911 612.896C246.867 613.813 247.48 615.169 247.75 616.964C248 618.629 247.861 620.054 247.331 621.239C246.802 622.424 245.951 623.237 244.78 623.679C243.893 623.812 243.054 623.673 242.262 623.261C241.474 622.871 240.806 622.253 240.259 621.407C239.733 620.557 239.386 619.57 239.217 618.446C238.947 616.651 239.107 615.146 239.698 613.929C240.311 612.709 241.244 612.005 242.499 611.817Z" fill="url(#paint7_linear_347_206)"/>
<path d="M259.11 606.036C258.354 606.149 257.477 606.348 256.48 606.63C256.77 607.825 257.083 609.314 257.417 611.099C257.752 612.884 258.033 614.533 258.261 616.047C258.43 617.171 258.541 617.984 258.594 618.484L254.792 616.801C254.328 617.688 253.964 618.794 253.698 620.116C254.485 620.351 255.583 620.739 256.991 621.279L257.693 621.538C258.444 621.824 259.181 622.166 259.904 622.566C260.649 622.962 261.174 623.292 261.479 623.556C262.171 623.452 262.961 623.267 263.85 623.001C263.573 621.893 263.26 620.403 262.913 618.532C262.565 616.66 262.271 614.924 262.03 613.324C261.429 609.324 261.233 606.844 261.442 605.884C260.645 605.871 259.867 605.922 259.11 606.036Z" fill="url(#paint8_linear_347_206)"/>
<g clip-path="url(#clip0_347_206)">
<path d="M98.6024 419.429C98.6024 419.429 100.459 411.19 105.4 410.226C110.373 409.478 111.819 399.974 115.43 398.989C119.041 398.004 125.246 396.629 125.246 396.629C125.246 396.629 130.509 388.983 136.456 390.3C142.403 391.617 148.545 394.231 148.903 396.61C149.26 398.988 153.26 396.176 153.26 396.176C153.26 396.176 161.813 398.649 162.842 404.022C163.87 409.395 164.304 413.752 164.304 413.752L168.823 443.807L103.955 453.559L98.6024 419.429Z" fill="white"/>
<path d="M111.264 488.943L173.538 479.58L174.871 488.446L112.597 497.808L111.264 488.943Z" fill="#4961A4"/>
<path d="M172.652 481.041L110.811 490.338L100.344 420.715L112.668 418.862L116.309 443.079L123.575 442.871L122.488 425.345L128.617 421.992L128.885 416.424L162.184 411.417L172.652 481.041Z" fill="#F5BF1F"/>
<path d="M134.329 433.515C134.476 434.489 135.004 435.366 135.797 435.952C136.59 436.538 137.583 436.784 138.558 436.638C139.533 436.491 140.41 435.963 140.995 435.17C141.581 434.377 141.828 433.384 141.681 432.409C141.609 431.927 141.442 431.463 141.19 431.045C140.938 430.627 140.606 430.262 140.214 429.972C139.821 429.682 139.375 429.472 138.901 429.355C138.428 429.237 137.935 429.214 137.453 429.286C136.97 429.359 136.506 429.526 136.088 429.778C135.67 430.029 135.305 430.361 135.015 430.754C134.725 431.146 134.515 431.592 134.398 432.066C134.28 432.54 134.257 433.032 134.329 433.515Z" fill="white"/>
<path d="M149.194 394.134C145.602 389.367 139.925 386.904 134.303 387.749C129.546 388.464 125.363 391.525 122.921 395.873C121.559 395.635 120.013 395.646 118.499 395.874C112.661 396.752 107.992 400.991 106.458 406.971L106.242 407.003C100.188 407.914 96.1785 413.602 97.1212 419.872L99.7218 437.17L95.1811 437.853C90.4241 438.568 87.1171 443.045 87.8323 447.802L91.083 469.424C91.7982 474.181 96.2754 477.488 101.032 476.772L105.573 476.09L108.011 492.306C108.759 497.279 113.485 500.77 118.458 500.022L169.271 492.383C174.245 491.635 177.735 486.909 176.988 481.936L165.643 406.475C164.623 398.226 157.129 392.498 149.194 394.134ZM104.707 471.798L100.382 472.448C98.0038 472.806 95.7651 471.152 95.4076 468.774L92.1568 447.152C91.7992 444.773 93.4527 442.535 95.8312 442.177L100.156 441.527L104.707 471.798ZM106.892 411.328C107.325 411.263 107.757 411.198 108.006 411.381L110.017 411.521L110.373 409.478C111.204 404.71 114.641 401.097 119.182 400.415C120.695 400.187 122.025 400.208 123.636 400.629L123.853 400.597C125.712 401.202 127.67 402.455 128.795 404.055C129.357 404.855 130.503 405.125 131.552 404.746C132.784 404.118 133.206 402.507 132.394 401.524C131.021 399.74 129.279 398.454 127.387 397.633C129.159 394.714 131.959 392.745 135.202 392.257C139.743 391.575 144.274 393.768 146.686 398.048L147.595 399.681L149.26 398.988C149.909 398.891 150.309 398.609 150.741 398.544C155.931 397.764 160.722 401.687 161.567 407.309L161.697 408.174L129.046 413.082C127.749 413.278 127.014 414.272 127.209 415.57L127.859 419.894C127.989 420.759 127.438 421.505 126.573 421.635C123.33 422.123 121.125 425.108 121.613 428.351L123.433 440.459C123.563 441.324 123.012 442.07 122.147 442.2L121.715 442.266C120.85 442.396 120.104 441.844 119.974 440.98L116.398 417.195C116.203 415.898 115.208 415.163 113.911 415.358L101.369 417.244C101.995 414.054 104.081 411.75 106.892 411.328ZM168.837 488.026L118.024 495.665C115.429 496.055 112.942 494.218 112.552 491.624L112.324 490.11L172.868 481.008L173.095 482.521C173.269 485.148 171.432 487.636 168.837 488.026ZM172.002 476.716L111.458 485.818L101.771 421.384L112.366 419.791L115.617 441.413C116.104 444.657 119.089 446.861 122.333 446.374L122.765 446.309C126.008 445.821 128.213 442.836 127.725 439.593L125.905 427.485C125.775 426.62 126.326 425.874 127.191 425.744C130.434 425.256 132.639 422.271 132.151 419.028L131.826 416.866L162.314 412.282L172.002 476.716Z" fill="#3F4651"/>
<path d="M131.551 434.154C132.104 437.829 135.337 440.218 139.013 439.665C142.689 439.112 145.077 435.879 144.525 432.203C143.972 428.527 140.738 426.139 137.062 426.692C133.387 427.244 130.998 430.478 131.551 434.154ZM137.713 431.016C139.01 430.821 140.005 431.556 140.2 432.853C140.395 434.151 139.66 435.146 138.363 435.341C137.065 435.536 136.07 434.801 135.875 433.503C135.68 432.206 136.415 431.211 137.713 431.016Z" fill="#3F4651"/>
</g>
<path d="M207.892 383.608C212.58 366.112 230.565 355.729 248.062 360.417L448.708 414.18C466.205 418.868 476.588 436.853 471.9 454.349L382.769 786.99C378.081 804.487 360.096 814.87 342.599 810.181L141.953 756.418C124.456 751.73 114.073 733.746 118.761 716.249L207.892 383.608Z" fill="#282E54"/>
<path fill-rule="evenodd" clip-rule="evenodd" d="M445.171 427.38L244.525 373.617C234.318 370.882 223.827 376.939 221.092 387.145L131.961 719.786C129.227 729.993 135.284 740.483 145.49 743.218L346.136 796.981C356.343 799.716 366.834 793.659 369.569 783.453L458.7 450.812C461.434 440.606 455.377 430.115 445.171 427.38ZM248.062 360.417C230.565 355.729 212.58 366.112 207.892 383.608L118.761 716.249C114.073 733.746 124.456 751.73 141.953 756.418L342.599 810.181C360.096 814.87 378.081 804.487 382.769 786.99L471.9 454.349C476.588 436.853 466.205 418.868 448.708 414.18L248.062 360.417Z" fill="white"/>
<path d="M225.614 433.63C230.302 416.133 248.287 405.75 265.784 410.439L408.348 448.639C425.845 453.327 436.228 471.311 431.54 488.808L365.046 736.968C360.358 754.465 342.373 764.848 324.876 760.16L182.312 721.96C164.815 717.271 154.431 699.287 159.12 681.791L225.614 433.63Z" fill="#282E54"/>
<path fill-rule="evenodd" clip-rule="evenodd" d="M407.641 451.279L265.076 413.079C249.038 408.781 232.552 418.299 228.254 434.337L161.76 682.498C157.462 698.536 166.98 715.022 183.019 719.32L325.584 757.52C341.622 761.817 358.108 752.299 362.406 736.261L428.9 488.1C433.198 472.062 423.679 455.576 407.641 451.279ZM265.784 410.439C248.287 405.75 230.302 416.133 225.614 433.63L159.12 681.791C154.431 699.287 164.815 717.271 182.312 721.96L324.876 760.16C342.373 764.848 360.358 754.465 365.046 736.968L431.54 488.808C436.228 471.311 425.845 453.327 408.348 448.639L265.784 410.439Z" fill="url(#paint9_linear_347_206)"/>
<path d="M249.325 482.426C254.013 464.929 271.998 454.546 289.494 459.234L363.417 479.042C380.914 483.73 391.297 501.714 386.609 519.211L355.484 635.371C350.796 652.868 332.811 663.251 315.314 658.562L241.392 638.755C223.895 634.067 213.512 616.082 218.2 598.586L249.325 482.426Z" fill="white"/>
<path d="M198.038 687.119C194.395 686.143 191.867 684.362 190.454 681.777C189.074 679.2 188.901 675.979 189.937 672.114C190.658 669.421 191.869 667.182 193.57 665.397C195.279 663.58 197.321 662.361 199.694 661.741C202.099 661.129 204.616 661.175 207.246 661.88C210.224 662.678 212.514 663.699 214.116 664.943C213.836 665.988 213.276 667.129 212.435 668.363C211.604 669.567 210.851 670.35 210.176 670.712C209.261 669.312 208.2 668.077 206.993 667.007C205.826 665.913 204.83 665.256 204.006 665.035C202.525 665.114 201.065 665.877 199.624 667.324C198.215 668.78 197.243 670.506 196.709 672.502C195.979 675.227 196.001 677.423 196.777 679.091C197.552 680.759 199.049 681.89 201.267 682.484C202.629 682.849 204.042 683.024 205.506 683.009C207.002 683.002 208.263 682.797 209.288 682.392L209.293 685.602C207.845 686.572 206.08 687.203 203.999 687.494C201.958 687.762 199.971 687.637 198.038 687.119Z" fill="white"/>
<path d="M231.002 695.646C229.956 695.366 228.845 694.95 227.669 694.397L227.554 692.736L227.166 688.099C225.481 687.546 223.672 687.01 221.74 686.493C219.649 685.932 218.143 685.597 217.222 685.486C215.829 687.388 214.639 689.106 213.65 690.641C212.839 690.627 212.132 690.539 211.531 690.378C210.738 690.166 209.956 689.854 209.183 689.444C210.495 688.097 213.065 684.779 216.893 679.49C220.721 674.2 223.635 670.04 225.635 667.011C226.945 667.192 228.028 667.397 228.883 667.626C229.802 667.873 230.763 668.215 231.766 668.653C231.983 672.277 232.427 677.336 233.098 683.832C233.768 690.327 234.335 694.485 234.797 696.307C233.597 696.223 232.332 696.003 231.002 695.646ZM224.5 683.412C225.102 683.574 225.855 683.742 226.759 683.916C226.43 679.821 226.07 676.414 225.678 673.694C223.391 676.783 221.395 679.541 219.691 681.971C221.187 682.474 222.79 682.954 224.5 683.412Z" fill="white"/>
<path d="M239.491 697.972C238.858 697.802 238.155 697.512 237.382 697.101C238.501 693.938 239.867 689.347 241.48 683.327C242.753 678.575 243.561 674.802 243.902 672.007C244.998 672.097 246.101 672.291 247.21 672.588C248.445 672.919 249.656 673.345 250.84 673.866C251.093 675.836 251.519 678.683 252.117 682.408C252.746 686.142 253.339 689.442 253.895 692.307C255.827 690.041 257.975 687.475 260.338 684.611C262.71 681.716 264.518 679.467 265.762 677.865C266.7 677.912 267.85 678.119 269.212 678.484C270.321 678.781 271.595 679.224 273.033 679.813C272.45 681.354 271.742 683.49 270.908 686.221C270.083 688.92 269.344 691.489 268.69 693.929C267.137 699.726 266.427 703.39 266.56 704.92C265.274 704.779 263.997 704.538 262.729 704.199C261.716 703.927 260.569 703.518 259.289 702.971C259.872 701.43 260.576 699.31 261.401 696.611C262.235 693.88 262.978 691.295 263.632 688.855C264.09 687.145 264.397 685.937 264.552 685.231C262.434 687.686 260.096 690.455 257.538 693.538C255.021 696.599 253.038 699.055 251.591 700.909C251.01 700.923 250.529 700.879 250.149 700.777C249.801 700.684 249.378 700.486 248.882 700.183C248.382 696.348 247.377 690.34 245.868 682.16C245.522 683.324 245.035 685.078 244.407 687.422C242.879 693.124 242.089 696.767 242.039 698.349C241.196 698.327 240.347 698.201 239.491 697.972Z" fill="white"/>
<path d="M271.269 706.334C272.797 702.024 274.257 697.271 275.65 692.076C276.439 689.129 276.974 686.879 277.255 685.324C277.567 683.778 277.742 682.365 277.78 681.085C279.494 681.782 282.237 682.636 286.007 683.646C290.442 684.834 293.893 685.64 296.361 686.063C296.055 687.204 295.633 688.398 295.095 689.646C294.565 690.862 294.099 691.654 293.695 692.021C292.981 691.389 292.005 690.787 290.765 690.218C289.526 689.648 288.241 689.185 286.91 688.828C285.77 688.523 284.576 688.288 283.33 688.124C282.592 690.371 282.045 692.159 281.688 693.49C282.875 693.876 283.77 694.149 284.371 694.311C285.987 694.744 287.231 695.043 288.104 695.209C289.016 695.352 290.036 695.472 291.165 695.571C291.037 696.555 290.901 697.316 290.756 697.855C290.62 698.362 290.353 699.105 289.955 700.085C286.023 698.794 282.916 697.842 280.635 697.231C280.066 699.354 279.617 701.22 279.288 702.829C280.337 703.348 281.59 703.803 283.048 704.193C284.537 704.592 286.04 704.876 287.556 705.045C289.105 705.222 290.409 705.232 291.47 705.075C291.173 706.184 290.755 707.362 290.217 708.61C289.688 709.826 289.217 710.634 288.804 711.033C286.678 710.225 283.634 709.291 279.674 708.23C275.904 707.22 273.102 706.588 271.269 706.334Z" fill="white"/>
<path d="M297.448 713.502C296.308 713.196 295.05 712.757 293.675 712.185C294.25 710.675 294.941 708.602 295.749 705.967C296.566 703.299 297.288 700.794 297.916 698.449C299.376 693 300.027 689.559 299.868 688.124C301.047 688.032 302.569 688.118 304.434 688.38C306.34 688.619 308.227 688.988 310.096 689.489C313.518 690.406 315.936 691.835 317.352 693.776C318.807 695.694 319.174 698 318.453 700.692C318.045 702.213 317.268 703.465 316.122 704.448C314.976 705.431 313.556 706.103 311.863 706.465C312.989 711.894 314.15 715.481 315.346 717.228C313.077 717.333 310.469 716.991 307.523 716.201C307.205 713.841 306.537 710.504 305.519 706.191C304.315 705.868 303.303 705.529 302.481 705.173C301.328 709.856 300.801 712.838 300.899 714.121C299.771 714.022 298.62 713.816 297.448 713.502ZM307.801 703.186C308.824 702.917 309.691 702.47 310.402 701.846C311.152 701.198 311.664 700.367 311.935 699.354C312.776 696.217 311.469 694.186 308.016 693.261C307.287 693.066 306.637 692.959 306.064 692.942C305.318 695.221 304.489 697.935 303.576 701.086C305.284 702.189 306.693 702.889 307.801 703.186Z" fill="white"/>
<path d="M337.739 724.247C336.694 723.967 335.583 723.55 334.407 722.997L334.291 721.336L333.904 716.7C332.219 716.146 330.41 715.611 328.477 715.093C326.386 714.533 324.88 714.197 323.959 714.086C322.567 715.988 321.376 717.706 320.388 719.241C319.577 719.227 318.87 719.14 318.268 718.978C317.476 718.766 316.694 718.455 315.921 718.044C317.232 716.698 319.802 713.38 323.631 708.09C327.459 702.8 330.373 698.64 332.373 695.611C333.683 695.792 334.765 695.997 335.621 696.227C336.539 696.473 337.5 696.815 338.503 697.254C338.721 700.877 339.165 705.937 339.835 712.432C340.506 718.927 341.072 723.086 341.535 724.907C340.335 724.823 339.07 724.603 337.739 724.247ZM331.238 712.013C331.84 712.174 332.593 712.342 333.497 712.516C333.168 708.421 332.808 705.014 332.416 702.295C330.128 705.383 328.133 708.142 326.429 710.571C327.924 711.074 329.527 711.554 331.238 712.013Z" fill="white"/>
<path d="M234.293 390.682C235.074 387.766 238.072 386.036 240.988 386.817L277.949 396.721C280.865 397.502 282.596 400.5 281.814 403.416L276.862 421.896C276.081 424.812 273.084 426.542 270.168 425.761L233.206 415.857C230.29 415.076 228.56 412.078 229.341 409.162L234.293 390.682Z" fill="#282E54"/>
<path d="M240.245 412.288C239.505 412.09 238.656 411.794 237.698 411.402C238.12 410.247 238.598 408.802 239.131 407.066C239.664 405.33 240.129 403.723 240.525 402.244C240.819 401.146 241.021 400.351 241.13 399.86L237.163 401.106C236.802 400.172 236.564 399.032 236.448 397.689C237.257 397.543 238.391 397.281 239.851 396.903L240.578 396.724C241.356 396.525 242.126 396.267 242.89 395.951C243.675 395.641 244.234 395.372 244.567 395.144C245.242 395.325 246.007 395.598 246.86 395.962C246.46 397.032 245.982 398.478 245.427 400.298C244.871 402.119 244.384 403.81 243.965 405.373C242.918 409.28 242.445 411.723 242.545 412.7C241.751 412.623 240.984 412.486 240.245 412.288Z" fill="url(#paint10_linear_347_206)"/>
<path d="M252.389 415.712C250.868 415.304 249.607 414.604 248.606 413.611C247.631 412.603 246.983 411.388 246.662 409.967C246.368 408.53 246.439 406.998 246.875 405.372C247.339 403.64 248.142 402.203 249.286 401.061C250.435 399.897 251.809 399.122 253.407 398.735C255.025 398.354 256.722 398.401 258.496 398.877C259.974 399.273 261.183 399.959 262.121 400.935C263.081 401.916 263.702 403.101 263.987 404.49C264.298 405.864 264.238 407.353 263.808 408.958C263.333 410.733 262.528 412.215 261.394 413.405C260.26 414.595 258.902 415.397 257.32 415.811C255.765 416.209 254.121 416.176 252.389 415.712ZM253.779 412.553C255.088 412.904 256.259 412.674 257.291 411.864C258.344 411.06 259.106 409.781 259.575 408.028C260.011 406.402 260.032 404.97 259.64 403.733C259.247 402.496 258.493 401.592 257.378 401.022C256.512 400.79 255.663 400.834 254.83 401.154C254.003 401.453 253.27 401.992 252.631 402.772C252.013 403.557 251.557 404.499 251.262 405.597C250.793 407.35 250.783 408.864 251.234 410.139C251.706 411.42 252.554 412.224 253.779 412.553Z" fill="url(#paint11_linear_347_206)"/>
<path d="M269.636 420.163C268.897 419.965 268.048 419.67 267.089 419.277C267.512 418.123 267.99 416.677 268.523 414.941C269.056 413.205 269.52 411.598 269.916 410.12C270.211 409.022 270.412 408.227 270.521 407.735L266.554 408.981C266.193 408.047 265.955 406.908 265.84 405.564C266.649 405.419 267.783 405.157 269.242 404.778L269.969 404.599C270.747 404.4 271.518 404.143 272.282 403.827C273.067 403.516 273.625 403.247 273.958 403.02C274.634 403.201 275.398 403.474 276.252 403.838C275.852 404.908 275.374 406.353 274.818 408.174C274.262 409.994 273.775 411.686 273.356 413.249C272.309 417.156 271.836 419.598 271.936 420.576C271.142 420.499 270.375 420.361 269.636 420.163Z" fill="url(#paint12_linear_347_206)"/>
<path d="M308.847 767.183C308.065 770.099 309.796 773.097 312.712 773.878L349.673 783.782C352.589 784.563 355.587 782.833 356.368 779.917L361.32 761.437C362.101 758.521 360.371 755.523 357.454 754.742L320.493 744.838C317.577 744.057 314.58 745.787 313.798 748.703L308.847 767.183Z" fill="#282E54"/>
<path d="M324.804 751.449C324.065 751.25 323.182 751.082 322.155 750.943C321.944 752.154 321.635 753.644 321.229 755.414C320.822 757.184 320.421 758.808 320.025 760.287C319.731 761.385 319.508 762.174 319.357 762.654L316.544 759.591C315.764 760.22 314.989 761.088 314.217 762.194C314.844 762.724 315.696 763.518 316.77 764.576L317.311 765.094C317.885 765.655 318.423 766.264 318.927 766.919C319.451 767.58 319.801 768.093 319.975 768.456C320.651 768.637 321.449 768.783 322.37 768.894C322.559 767.768 322.868 766.277 323.297 764.423C323.726 762.568 324.15 760.86 324.568 759.297C325.615 755.39 326.427 753.038 327.002 752.241C326.276 751.911 325.543 751.647 324.804 751.449Z" fill="url(#paint13_linear_347_206)"/>
<path d="M337.033 754.556C335.513 754.148 334.07 754.124 332.706 754.483C331.358 754.869 330.19 755.597 329.201 756.667C328.228 757.765 327.523 759.127 327.088 760.753C326.624 762.485 326.601 764.131 327.02 765.692C327.434 767.274 328.236 768.632 329.426 769.766C330.638 770.906 332.13 771.713 333.904 772.189C335.383 772.585 336.772 772.595 338.073 772.219C339.394 771.849 340.526 771.133 341.466 770.072C342.423 769.038 343.116 767.719 343.546 766.114C344.021 764.339 344.065 762.654 343.679 761.056C343.292 759.458 342.517 758.085 341.353 756.936C340.205 755.813 338.765 755.02 337.033 754.556ZM336.657 757.986C337.967 758.337 338.866 759.121 339.355 760.339C339.864 761.562 339.885 763.05 339.415 764.803C338.979 766.429 338.282 767.68 337.323 768.555C336.364 769.43 335.259 769.835 334.009 769.772C333.143 769.54 332.429 769.077 331.868 768.383C331.301 767.711 330.936 766.877 330.772 765.883C330.63 764.894 330.706 763.85 331 762.752C331.47 760.999 332.219 759.683 333.246 758.804C334.295 757.931 335.432 757.658 336.657 757.986Z" fill="url(#paint14_linear_347_206)"/>
<path d="M354.195 759.324C353.456 759.126 352.573 758.957 351.547 758.818C351.335 760.029 351.026 761.519 350.62 763.289C350.214 765.059 349.813 766.684 349.416 768.162C349.122 769.26 348.899 770.049 348.748 770.529L345.935 767.467C345.156 768.096 344.38 768.963 343.608 770.069C344.236 770.599 345.087 771.393 346.162 772.451L346.702 772.969C347.276 773.531 347.815 774.139 348.318 774.794C348.843 775.456 349.192 775.968 349.367 776.332C350.042 776.513 350.841 776.659 351.762 776.77C351.95 775.643 352.259 774.153 352.688 772.298C353.117 770.444 353.541 768.735 353.96 767.172C355.007 763.265 355.818 760.913 356.394 760.117C355.667 759.786 354.935 759.522 354.195 759.324Z" fill="url(#paint15_linear_347_206)"/>
<g clip-path="url(#clip1_347_206)">
<path d="M350.179 543.404L331.478 538.394L330.82 527.3C330.763 526.344 330.407 525.43 329.802 524.687C329.196 523.945 328.372 523.413 327.447 523.166L298.582 515.431C297.657 515.183 296.677 515.232 295.782 515.572C294.887 515.912 294.121 516.525 293.595 517.325L287.477 526.604L268.777 521.593C266.443 520.967 263.956 521.295 261.863 522.503C259.771 523.711 258.244 525.701 257.618 528.035L244.65 576.435C244.024 578.769 244.352 581.256 245.56 583.348C246.768 585.441 248.758 586.968 251.092 587.593L332.494 609.405C334.828 610.03 337.315 609.703 339.408 608.495C341.5 607.286 343.027 605.297 343.652 602.963L356.621 554.563C357.247 552.229 356.919 549.742 355.711 547.649C354.503 545.557 352.513 544.03 350.179 543.404Z" fill="#4A7082"/>
<path d="M343.342 555.72L339.118 554.588C338.175 554.28 337.157 554.289 336.219 554.612C335.281 554.935 334.475 555.556 333.922 556.379C333.513 556.985 333.257 557.681 333.174 558.407C333.091 559.133 333.184 559.869 333.445 560.552C333.706 561.234 334.127 561.844 334.674 562.33C335.22 562.815 335.875 563.162 336.584 563.341L340.808 564.473C341.751 564.781 342.769 564.773 343.706 564.449C344.644 564.126 345.451 563.506 346.004 562.682C346.412 562.076 346.669 561.38 346.752 560.654C346.835 559.928 346.742 559.192 346.481 558.51C346.22 557.827 345.798 557.217 345.252 556.732C344.706 556.246 344.05 555.899 343.342 555.72Z" fill="#F9D74A"/>
<path d="M309.598 547.009C305.207 544.983 300.285 544.408 295.545 545.367C290.806 546.325 286.494 548.767 283.234 552.339C279.975 555.911 277.937 560.428 277.415 565.235C276.894 570.042 277.916 574.891 280.334 579.079C282.752 583.267 286.44 586.576 290.864 588.529C295.288 590.481 300.219 590.974 304.943 589.938C309.666 588.901 313.937 586.388 317.136 582.762C320.336 579.137 322.299 574.587 322.741 569.771C323.171 565.084 322.138 560.379 319.784 556.303C317.431 552.227 313.872 548.98 309.598 547.009Z" fill="#AEDFF5"/>
<path d="M296.509 580.899C303.799 582.852 311.293 578.526 313.246 571.236C315.2 563.945 310.873 556.452 303.583 554.498C296.292 552.545 288.799 556.871 286.845 564.161C284.892 571.452 289.218 578.945 296.509 580.899Z" fill="#38B1E7"/>
<path d="M320.046 528.256L302.446 523.54C301.231 523.215 299.982 523.936 299.656 525.151L298.477 529.551C298.152 530.766 298.873 532.015 300.088 532.34L317.688 537.056C318.904 537.382 320.152 536.661 320.478 535.446L321.657 531.046C321.983 529.831 321.262 528.582 320.046 528.256Z" fill="#E7E9E9"/>
</g>
</g>
<path d="M138.377 172L141.437 158.4H146.677L149.737 172H146.977L146.437 169.54H141.677L141.137 172H138.377ZM143.577 160.68L142.197 167.14H145.917L144.537 160.68H143.577ZM159.288 172H151.548V158.4H154.308V169.56H159.288V172ZM168.722 172H160.982V158.4H163.742V169.56H168.722V172ZM183.43 171.78C182.017 172.087 180.743 172.24 179.61 172.24C178.477 172.24 177.57 172.1 176.89 171.82C176.21 171.54 175.677 171.093 175.29 170.48C174.903 169.867 174.637 169.147 174.49 168.32C174.343 167.493 174.27 166.453 174.27 165.2C174.27 162.573 174.637 160.747 175.37 159.72C176.117 158.68 177.483 158.16 179.47 158.16C180.617 158.16 181.943 158.34 183.45 158.7L183.37 160.9C182.05 160.7 180.95 160.6 180.07 160.6C179.203 160.6 178.583 160.72 178.21 160.96C177.837 161.187 177.557 161.627 177.37 162.28C177.197 162.933 177.11 164.047 177.11 165.62C177.11 167.193 177.29 168.287 177.65 168.9C178.023 169.5 178.757 169.8 179.85 169.8C180.957 169.8 182.13 169.707 183.37 169.52L183.43 171.78ZM184.529 172L187.589 158.4H192.829L195.889 172H193.129L192.589 169.54H187.829L187.289 172H184.529ZM189.729 160.68L188.349 167.14H192.069L190.689 160.68H189.729ZM200.461 167.44V172H197.701V158.4H202.981C206.181 158.4 207.781 159.893 207.781 162.88C207.781 164.653 207.114 165.96 205.781 166.8L207.721 172H204.701L203.121 167.44H200.461ZM203.021 165.08C203.674 165.08 204.161 164.88 204.481 164.48C204.801 164.08 204.961 163.553 204.961 162.9C204.961 162.247 204.787 161.727 204.441 161.34C204.107 160.953 203.621 160.76 202.981 160.76H200.461V165.08H203.021ZM214.683 172H210.103V158.4H214.683C215.856 158.4 216.823 158.527 217.583 158.78C218.343 159.02 218.93 159.427 219.343 160C219.77 160.56 220.063 161.227 220.223 162C220.383 162.76 220.463 163.753 220.463 164.98C220.463 166.207 220.39 167.227 220.243 168.04C220.096 168.84 219.816 169.56 219.403 170.2C219.003 170.827 218.416 171.287 217.643 171.58C216.87 171.86 215.883 172 214.683 172ZM217.583 166.6C217.61 166.173 217.623 165.587 217.623 164.84C217.623 164.08 217.596 163.473 217.543 163.02C217.49 162.567 217.363 162.153 217.163 161.78C216.963 161.407 216.663 161.153 216.263 161.02C215.876 160.873 215.35 160.8 214.683 160.8H212.863V169.6H214.683C215.683 169.6 216.41 169.347 216.863 168.84C217.25 168.427 217.49 167.68 217.583 166.6ZM227.037 160.56C225.584 160.56 224.857 161.04 224.857 162C224.857 162.427 225.037 162.753 225.397 162.98C225.757 163.207 226.597 163.533 227.917 163.96C229.25 164.387 230.184 164.873 230.717 165.42C231.25 165.953 231.517 166.78 231.517 167.9C231.517 169.327 231.084 170.407 230.217 171.14C229.35 171.873 228.217 172.24 226.817 172.24C225.777 172.24 224.504 172.08 222.997 171.76L222.277 171.62L222.557 169.48C224.344 169.72 225.71 169.84 226.657 169.84C228.07 169.84 228.777 169.253 228.777 168.08C228.777 167.653 228.61 167.32 228.277 167.08C227.957 166.84 227.31 166.58 226.337 166.3C224.79 165.86 223.697 165.34 223.057 164.74C222.43 164.127 222.117 163.28 222.117 162.2C222.117 160.84 222.53 159.827 223.357 159.16C224.184 158.493 225.317 158.16 226.757 158.16C227.744 158.16 228.997 158.293 230.517 158.56L231.237 158.7L231.017 160.88C229.137 160.667 227.81 160.56 227.037 160.56ZM238.13 172V158.4H246.81V160.8H240.89V164.8H245.73V167.2H240.89V172H238.13ZM247.186 172L250.246 158.4H255.486L258.546 172H255.786L255.246 169.54H250.486L249.946 172H247.186ZM252.386 160.68L251.006 167.14H254.726L253.346 160.68H252.386ZM264.937 172H260.357V158.4H264.937C266.11 158.4 267.077 158.527 267.837 158.78C268.597 159.02 269.184 159.427 269.597 160C270.024 160.56 270.317 161.227 270.477 162C270.637 162.76 270.717 163.753 270.717 164.98C270.717 166.207 270.644 167.227 270.497 168.04C270.35 168.84 270.07 169.56 269.657 170.2C269.257 170.827 268.67 171.287 267.897 171.58C267.124 171.86 266.137 172 264.937 172ZM267.837 166.6C267.864 166.173 267.877 165.587 267.877 164.84C267.877 164.08 267.85 163.473 267.797 163.02C267.744 162.567 267.617 162.153 267.417 161.78C267.217 161.407 266.917 161.153 266.517 161.02C266.13 160.873 265.604 160.8 264.937 160.8H263.117V169.6H264.937C265.937 169.6 266.664 169.347 267.117 168.84C267.504 168.427 267.744 167.68 267.837 166.6ZM273.111 172V158.4H281.911V160.8H275.871V163.98H280.711V166.34H275.871V169.6H281.911V172H273.111ZM291.22 167.46C291.22 169.047 292.026 169.84 293.64 169.84C295.253 169.84 296.06 169.047 296.06 167.46V158.4H298.82V167.4C298.82 169.067 298.386 170.293 297.52 171.08C296.666 171.853 295.373 172.24 293.64 172.24C291.906 172.24 290.606 171.853 289.74 171.08C288.886 170.293 288.46 169.067 288.46 167.4V158.4H291.22V167.46ZM306.666 168.04H304.426V172H301.666V158.4H306.666C309.892 158.4 311.506 159.973 311.506 163.12C311.506 164.707 311.092 165.927 310.266 166.78C309.452 167.62 308.252 168.04 306.666 168.04ZM304.426 165.68H306.646C308.019 165.68 308.706 164.827 308.706 163.12C308.706 162.28 308.539 161.68 308.206 161.32C307.872 160.947 307.352 160.76 306.646 160.76H304.426V165.68Z" fill="white"/>
<defs>
<linearGradient id="paint0_linear_347_206" x1="225" y1="789" x2="225" y2="7.15902e-06" gradientUnits="userSpaceOnUse">
<stop stop-color="#E93690"/>
<stop offset="1" stop-color="#5D7EE9"/>
</linearGradient>
<linearGradient id="paint1_linear_347_206" x1="450" y1="394.5" x2="0" y2="394.5" gradientUnits="userSpaceOnUse">
<stop stop-color="#E13387"/>
<stop offset="0.5" stop-color="#FF5085"/>
<stop offset="1" stop-color="#FA669C"/>
</linearGradient>
<linearGradient id="paint2_linear_347_206" x1="111.643" y1="310.562" x2="159.591" y2="629.488" gradientUnits="userSpaceOnUse">
<stop stop-color="#FBD03B"/>
<stop offset="1" stop-color="#FA7800"/>
</linearGradient>
<linearGradient id="paint3_linear_347_206" x1="25.8814" y1="314.07" x2="28.534" y2="331.713" gradientUnits="userSpaceOnUse">
<stop stop-color="#FBD03B"/>
<stop offset="1" stop-color="#FA7800"/>
</linearGradient>
<linearGradient id="paint4_linear_347_206" x1="25.8814" y1="314.07" x2="28.534" y2="331.713" gradientUnits="userSpaceOnUse">
<stop stop-color="#FBD03B"/>
<stop offset="1" stop-color="#FA7800"/>
</linearGradient>
<linearGradient id="paint5_linear_347_206" x1="25.8814" y1="314.07" x2="28.534" y2="331.713" gradientUnits="userSpaceOnUse">
<stop stop-color="#FBD03B"/>
<stop offset="1" stop-color="#FA7800"/>
</linearGradient>
<linearGradient id="paint6_linear_347_206" x1="244.164" y1="626.159" x2="241.511" y2="608.516" gradientUnits="userSpaceOnUse">
<stop stop-color="#FBD03B"/>
<stop offset="1" stop-color="#FA7800"/>
</linearGradient>
<linearGradient id="paint7_linear_347_206" x1="244.164" y1="626.159" x2="241.511" y2="608.516" gradientUnits="userSpaceOnUse">
<stop stop-color="#FBD03B"/>
<stop offset="1" stop-color="#FA7800"/>
</linearGradient>
<linearGradient id="paint8_linear_347_206" x1="244.164" y1="626.159" x2="241.511" y2="608.516" gradientUnits="userSpaceOnUse">
<stop stop-color="#FBD03B"/>
<stop offset="1" stop-color="#FA7800"/>
</linearGradient>
<linearGradient id="paint9_linear_347_206" x1="337.066" y1="429.539" x2="253.594" y2="741.06" gradientUnits="userSpaceOnUse">
<stop stop-color="#FBD03B"/>
<stop offset="1" stop-color="#FA7800"/>
</linearGradient>
<linearGradient id="paint10_linear_347_206" x1="257.045" y1="398.488" x2="252.427" y2="415.722" gradientUnits="userSpaceOnUse">
<stop stop-color="#FBD03B"/>
<stop offset="1" stop-color="#FA7800"/>
</linearGradient>
<linearGradient id="paint11_linear_347_206" x1="257.045" y1="398.488" x2="252.427" y2="415.722" gradientUnits="userSpaceOnUse">
<stop stop-color="#FBD03B"/>
<stop offset="1" stop-color="#FA7800"/>
</linearGradient>
<linearGradient id="paint12_linear_347_206" x1="257.045" y1="398.488" x2="252.427" y2="415.722" gradientUnits="userSpaceOnUse">
<stop stop-color="#FBD03B"/>
<stop offset="1" stop-color="#FA7800"/>
</linearGradient>
<linearGradient id="paint13_linear_347_206" x1="332.453" y1="771.8" x2="337.071" y2="754.566" gradientUnits="userSpaceOnUse">
<stop stop-color="#FBD03B"/>
<stop offset="1" stop-color="#FA7800"/>
</linearGradient>
<linearGradient id="paint14_linear_347_206" x1="332.453" y1="771.8" x2="337.071" y2="754.566" gradientUnits="userSpaceOnUse">
<stop stop-color="#FBD03B"/>
<stop offset="1" stop-color="#FA7800"/>
</linearGradient>
<linearGradient id="paint15_linear_347_206" x1="332.453" y1="771.8" x2="337.071" y2="754.566" gradientUnits="userSpaceOnUse">
<stop stop-color="#FBD03B"/>
<stop offset="1" stop-color="#FA7800"/>
</linearGradient>
<clipPath id="clip0_347_206">
<rect width="109.328" height="109.326" fill="white" transform="translate(69.3704 397.069) rotate(-8.55)"/>
</clipPath>
<clipPath id="clip1_347_206">
<rect width="109.328" height="109.326" fill="white" transform="translate(263.75 491.95) rotate(15)"/>
</clipPath>
</defs>
</svg>
