<svg width="30" height="30" viewBox="0 0 30 30" fill="none" xmlns="http://www.w3.org/2000/svg">
<path d="M11.55 30L10.8 25.275C10.325 25.1 9.825 24.8625 9.3 24.5625C8.775 24.2625 8.3125 23.95 7.9125 23.625L3.4875
25.65L0 19.5L4.05 16.5375C4 16.3125 3.96875 16.0563 3.95625 15.7688C3.94375 15.4813 3.9375 15.225 3.9375 15C3.9375 14.775
3.94375 14.5188 3.95625 14.2313C3.96875 13.9438 4 13.6875 4.05 13.4625L0 10.5L3.4875 4.35L7.9125 6.375C8.3125 6.05 8.775 5.7375
9.3 5.4375C9.825 5.1375 10.325 4.9125 10.8 4.7625L11.55 0H18.45L19.2 4.725C19.675 4.9 20.1813 5.13125 20.7188 5.41875C21.2563 5.70625
21.7125 6.025 22.0875 6.375L26.5125 4.35L30 10.5L25.95 13.3875C26 13.6375 26.0313 13.9063 26.0438 14.1938C26.0563 14.4813 26.0625 14.75
26.0625 15C26.0625 15.25 26.0563 15.5125 26.0438 15.7875C26.0313 16.0625 26 16.325 25.95 16.575L30 19.5L26.5125 25.65L22.0875 23.625C21.6875
23.95 21.2313 24.2688 20.7188 24.5813C20.2063 24.8938 19.7 25.125 19.2 25.275L18.45 30H11.55ZM15 19.875C16.35 19.875 17.5 19.4 18.45 18.45C19.4
17.5 19.875 16.35 19.875 15C19.875 13.65 19.4 12.5 18.45 11.55C17.5 10.6 16.35 10.125 15 10.125C13.65 10.125 12.5 10.6 11.55 11.55C10.6 12.5 10.125
13.65 10.125 15C10.125 16.35 10.6 17.5 11.55 18.45C12.5 19.4 13.65 19.875 15 19.875ZM15 17.625C14.275 17.625 13.6563 17.3688 13.1438 16.8563C12.6313
16.3438 12.375 15.725 12.375 15C12.375 14.275 12.6313 13.6563 13.1438 13.1438C13.6563 12.6313 14.275 12.375 15 12.375C15.725 12.375 16.3438 12.6313 16.8563
13.1438C17.3688 13.6563 17.625 14.275 17.625 15C17.625 15.725 17.3688 16.3438 16.8563 16.8563C16.3438 17.3688 15.725 17.625 15 17.625ZM13.35 27.75H16.65L17.175
23.55C18 23.35 18.7813 23.0375 19.5188 22.6125C20.2563 22.1875 20.925 21.675 21.525 21.075L25.5 22.8L27 20.1L23.475 17.5125C23.575 17.0875 23.6563 16.6688
23.7188 16.2563C23.7813 15.8438 23.8125 15.425 23.8125 15C23.8125 14.575 23.7875 14.1563 23.7375 13.7438C23.6875 13.3313 23.6 12.9125 23.475 12.4875L27 9.9L25.5
7.2L21.525 8.925C20.95 8.275 20.3 7.73125 19.575 7.29375C18.85 6.85625 18.05 6.575 17.175 6.45L16.65 2.25H13.35L12.825 6.45C11.975 6.625 11.1813 6.925 10.4438 7.35C9.70625
7.775 9.05 8.3 8.475 8.925L4.5 7.2L3 9.9L6.525 12.4875C6.425 12.9125 6.34375 13.3313 6.28125 13.7438C6.21875 14.1563 6.1875 14.575 6.1875 15C6.1875 15.425 6.21875 15.8438 6.28125
16.2563C6.34375 16.6688 6.425 17.0875 6.525 17.5125L3 20.1L4.5 22.8L8.475 21.075C9.075 21.675 9.74375 22.1875 10.4813 22.6125C11.2188 23.0375 12 23.35 12.825 23.55L13.35 27.75Z"
fill="#9092A4"/>
</svg>
