<svg width="450" height="789" viewBox="0 0 450 789" fill="none" xmlns="http://www.w3.org/2000/svg">
<rect x="5" y="5" width="440" height="779" rx="7" fill="url(#paint0_linear_347_204)" stroke="white" stroke-width="10"/>
<path d="M87.6188 125.6C85.2188 125.6 82.5188 125.4 79.5188 125C79.8521 121.267 80.1188 116.633 80.3188 111.1C80.5188 105.567 80.6188 100.467 80.6188 95.8C80.6188 83.3333 80.0854 75.5 79.0188 72.3C81.4188 71.9 84.0188 71.7 86.8188 71.7C88.9521 71.7 91.4188 71.9 94.2188 72.3C93.7521 78.1 93.4188 85.5 93.2188 94.5C97.0188 94.7 101.185 94.8 105.719 94.8C107.519 94.8 109.752 94.7333 112.419 94.6C112.419 82.5333 111.885 75.1 110.819 72.3C113.219 71.9 115.852 71.7 118.719 71.7C120.785 71.7 123.219 71.9 126.019 72.3C125.685 76.0333 125.419 80.6667 125.219 86.2C125.019 91.7333 124.919 96.8333 124.919 101.5C124.919 113.967 125.452 121.8 126.519 125C124.252 125.4 121.919 125.6 119.519 125.6C117.052 125.6 114.319 125.4 111.319 125C111.785 119.133 112.119 111.7 112.319 102.7C107.385 102.567 103.585 102.5 100.919 102.5C98.6521 102.5 96.0521 102.567 93.1188 102.7C93.1188 114.767 93.6521 122.2 94.7188 125C92.4521 125.4 90.0854 125.6 87.6188 125.6ZM144.748 125.6C142.348 125.6 139.648 125.4 136.648 125C137.381 114.267 137.748 104.533 137.748 95.8C137.748 83.3333 137.214 75.5 136.148 72.3C138.548 71.9 141.148 71.7 143.948 71.7C146.081 71.7 148.548 71.9 151.348 72.3C151.014 75.7667 150.748 80.4 150.548 86.2C150.348 92 150.248 97.3667 150.248 102.3C150.248 114.633 150.781 122.2 151.848 125C149.581 125.4 147.214 125.6 144.748 125.6ZM181.143 125.6C177.876 125.6 174.476 125.433 170.943 125.1C167.41 124.833 164.376 124.467 161.843 124C162.176 120.8 162.443 116.433 162.643 110.9C162.843 105.3 162.943 100 162.943 95C162.943 83.9333 162.41 77.1 161.343 74.5C163.743 73.7 166.943 73.0667 170.943 72.6C174.943 72.0667 179.01 71.8 183.143 71.8C192.476 71.8 199.643 74.1 204.643 78.7C209.643 83.3 212.143 89.8667 212.143 98.4C212.143 103.733 210.843 108.467 208.243 112.6C205.643 116.667 201.976 119.867 197.243 122.2C192.576 124.467 187.21 125.6 181.143 125.6ZM185.843 118.5C188.176 118.1 190.31 117 192.243 115.2C194.243 113.333 195.81 111.067 196.943 108.4C198.076 105.733 198.643 103 198.643 100.2C198.643 86.9333 192.776 80.3 181.043 80.3C179.176 80.3 177.51 80.5333 176.043 81C175.643 87.2 175.443 94.3 175.443 102.3C175.443 108.1 175.543 112.867 175.743 116.6C179.943 117.867 183.31 118.5 185.843 118.5ZM239.932 125.6C236.665 125.6 233.265 125.433 229.732 125.1C226.199 124.833 223.165 124.467 220.632 124C220.965 120.8 221.232 116.433 221.432 110.9C221.632 105.3 221.732 100 221.732 95C221.732 83.9333 221.199 77.1 220.132 74.5C222.532 73.7 225.732 73.0667 229.732 72.6C233.732 72.0667 237.799 71.8 241.932 71.8C251.265 71.8 258.432 74.1 263.432 78.7C268.432 83.3 270.932 89.8667 270.932 98.4C270.932 103.733 269.632 108.467 267.032 112.6C264.432 116.667 260.765 119.867 256.032 122.2C251.365 124.467 245.999 125.6 239.932 125.6ZM244.632 118.5C246.965 118.1 249.099 117 251.032 115.2C253.032 113.333 254.599 111.067 255.732 108.4C256.865 105.733 257.432 103 257.432 100.2C257.432 86.9333 251.565 80.3 239.832 80.3C237.965 80.3 236.299 80.5333 234.832 81C234.432 87.2 234.232 94.3 234.232 102.3C234.232 108.1 234.332 112.867 234.532 116.6C238.732 117.867 242.099 118.5 244.632 118.5ZM279.421 125.3C280.154 116.033 280.521 105.933 280.521 95C280.521 88.8 280.388 84.1 280.121 80.9C279.921 77.7 279.521 74.8333 278.921 72.3C282.654 72.7667 288.488 73 296.421 73C305.754 73 312.954 72.7667 318.021 72.3C318.021 74.7 317.821 77.2667 317.421 80C317.021 82.6667 316.521 84.4667 315.921 85.4C314.188 84.5333 311.954 83.8667 309.221 83.4C306.488 82.9333 303.721 82.7 300.921 82.7C298.521 82.7 296.054 82.8667 293.521 83.2C293.254 88 293.121 91.8 293.121 94.6C295.654 94.7333 297.554 94.8 298.821 94.8C302.221 94.8 304.821 94.7333 306.621 94.6C308.488 94.4 310.554 94.1 312.821 93.7C313.088 95.7 313.221 97.2667 313.221 98.4C313.221 99.4667 313.088 101.067 312.821 103.2C304.421 102.733 297.821 102.5 293.021 102.5C293.021 106.967 293.121 110.867 293.321 114.2C295.654 114.667 298.354 114.9 301.421 114.9C304.554 114.9 307.654 114.667 310.721 114.2C313.854 113.733 316.421 113.067 318.421 112.2C318.421 114.533 318.221 117.067 317.821 119.8C317.421 122.467 316.921 124.3 316.321 125.3C311.721 124.833 305.254 124.6 296.921 124.6C288.988 124.6 283.154 124.833 279.421 125.3ZM331.191 125.6C329.725 125.6 327.925 125.4 325.791 125C326.325 118.2 326.591 108.467 326.591 95.8C326.591 83.4 326.225 75.5667 325.491 72.3C327.225 71.9 329.591 71.7 332.591 71.7C334.791 71.7 337.558 71.9 340.891 72.3C342.958 76.3667 346.058 82.1 350.191 89.5C354.391 96.9 358.425 103.833 362.291 110.3C362.425 103.633 362.491 98.5333 362.491 95C362.491 82.6 362.125 75.0333 361.391 72.3C362.858 71.9 364.325 71.7 365.791 71.7C367.391 71.7 369.225 71.9 371.291 72.3C370.758 80.8333 370.491 90.5667 370.491 101.5C370.491 113.9 370.858 121.733 371.591 125C369.258 125.4 366.891 125.6 364.491 125.6C361.891 125.6 359.091 125.4 356.091 125C354.158 121.067 351.125 115.467 346.991 108.2C342.858 100.867 338.758 93.8 334.691 87C334.558 93.6667 334.491 98.7667 334.491 102.3C334.491 114.3 334.858 121.867 335.591 125C334.191 125.4 332.725 125.6 331.191 125.6Z" fill="white"/>
<mask id="mask0_347_204" style="mask-type:alpha" maskUnits="userSpaceOnUse" x="0" y="0" width="450" height="789">
<rect width="450" height="789" rx="12" fill="url(#paint1_linear_347_204)"/>
</mask>
<g mask="url(#mask0_347_204)">
<path d="M-29.1239 319.068C-31.8169 301.155 -19.479 284.451 -1.56647 281.758L203.846 250.876C221.758 248.183 238.463 260.521 241.156 278.433L292.355 618.985C295.048 636.898 282.71 653.602 264.798 656.295L59.3852 687.177C41.4726 689.87 24.7685 677.532 22.0755 659.62L-29.1239 319.068Z" fill="#282E54"/>
<path fill-rule="evenodd" clip-rule="evenodd" d="M205.878 264.39L0.465249 295.272C-9.98374 296.843 -17.1808 306.587 -15.6099 317.036L35.5895 657.588C37.1604 668.037 46.9045 675.234 57.3534 673.663L262.766 642.781C273.215 641.21 280.412 631.466 278.841 621.017L227.642 280.465C226.071 270.016 216.327 262.819 205.878 264.39ZM-1.56647 281.758C-19.479 284.451 -31.8169 301.155 -29.1239 319.068L22.0755 659.62C24.7685 677.532 41.4726 689.87 59.3852 687.177L264.798 656.295C282.71 653.602 295.048 636.898 292.355 618.985L241.156 278.433C238.463 260.521 221.758 248.183 203.846 250.876L-1.56647 281.758Z" fill="white"/>
<path d="M36.4699 461.22C33.7769 443.307 46.1147 426.603 64.0273 423.91L182.95 406.031C200.863 403.338 217.567 415.676 220.26 433.588L226.761 476.833C229.454 494.745 217.116 511.45 199.204 514.143L80.281 532.022C62.3685 534.715 45.6644 522.377 42.9714 504.464L36.4699 461.22Z" fill="white"/>
<path d="M96.1755 502.574C93.9682 502.906 91.3541 503.106 88.3332 503.173C88.1175 499.594 87.7108 495.173 87.1131 489.91C86.5153 484.647 85.8846 479.808 85.2209 475.394C84.7279 472.114 84.3408 469.754 84.0597 468.313L74.9048 476.268C72.8512 474.19 70.8873 471.422 69.013 467.964C71.0055 466.632 73.7325 464.61 77.1941 461.897L78.9296 460.572C80.777 459.133 82.5377 457.546 84.2116 455.811C85.9485 454.067 87.129 452.697 87.753 451.7C89.7711 451.396 92.133 451.235 94.8386 451.215C95.0163 454.542 95.423 458.963 96.0587 464.478C96.6944 469.993 97.363 475.084 98.0647 479.751C99.8187 491.418 101.399 498.5 102.807 500.997C100.593 501.717 98.3828 502.242 96.1755 502.574Z" fill="url(#paint2_linear_347_204)"/>
<path d="M132.636 497.576C128.096 498.259 123.908 497.857 120.073 496.37C116.291 494.81 113.143 492.317 110.629 488.89C108.168 485.39 106.573 481.212 105.843 476.356C105.065 471.185 105.54 466.406 107.266 462.019C108.983 457.569 111.753 453.896 115.574 451C119.458 448.094 124.048 446.243 129.346 445.447C133.76 444.783 137.791 445.209 141.436 446.724C145.145 448.231 148.189 450.675 150.568 454.058C153 457.368 154.577 461.42 155.297 466.213C156.094 471.51 155.67 476.411 154.025 480.914C152.381 485.418 149.684 489.145 145.936 492.094C142.241 494.972 137.808 496.799 132.636 497.576ZM132.671 487.511C136.581 486.923 139.444 484.945 141.259 481.576C143.137 478.198 143.683 473.892 142.896 468.658C142.166 463.802 140.555 459.949 138.063 457.099C135.57 454.249 132.502 452.711 128.856 452.485C126.271 452.874 124.051 453.982 122.197 455.808C120.334 457.571 119.003 459.868 118.203 462.696C117.466 465.516 117.344 468.565 117.837 471.845C118.624 477.079 120.363 481.138 123.053 484.023C125.807 486.898 129.013 488.061 132.671 487.511Z" fill="url(#paint3_linear_347_204)"/>
<path d="M183.937 489.38C181.73 489.712 179.116 489.911 176.095 489.979C175.879 486.4 175.472 481.979 174.875 476.716C174.277 471.453 173.646 466.614 172.983 462.2C172.489 458.92 172.102 456.56 171.821 455.119L162.666 463.073C160.613 460.996 158.649 458.228 156.775 454.769C158.767 453.438 161.494 451.416 164.956 448.702L166.691 447.377C168.539 445.939 170.299 444.352 171.973 442.617C173.71 440.873 174.891 439.502 175.515 438.506C177.533 438.202 179.895 438.041 182.6 438.021C182.778 441.347 183.185 445.768 183.82 451.284C184.456 456.799 185.125 461.89 185.826 466.556C187.58 478.224 189.161 485.306 190.568 487.803C188.355 488.522 186.144 489.048 183.937 489.38Z" fill="url(#paint4_linear_347_204)"/>
<path d="M57.9701 387.287C54.4385 387.818 51.0927 387.87 47.9328 387.442C47.6105 385.298 47.5939 383.043 47.8833 380.678C48.1 378.259 48.5771 376.285 49.3145 374.755C51.4719 376.236 53.5457 377.376 55.5358 378.173C57.5164 378.907 59.1058 379.184 60.304 379.004C61.0921 378.24 61.5853 377.231 61.7835 375.976C62.0354 374.648 62.0205 372.619 61.7389 369.888C61.4479 367.095 60.8567 362.734 59.9655 356.805C58.2778 345.58 56.571 338.517 54.8451 335.616C57.1847 334.877 59.5212 334.333 61.8546 333.982C64.0619 333.65 66.5184 333.474 69.224 333.454C69.4367 337.872 70.6382 347.365 72.8284 361.933C73.9567 369.438 73.2602 375.315 70.7389 379.563C68.2806 383.802 64.0244 386.377 57.9701 387.287Z" fill="white"/>
<path d="M124.292 376.639C122.211 376.952 119.908 377.072 117.382 377.001L115.886 374.13L111.593 366.166C108.159 366.489 104.519 366.939 100.672 367.518C96.5094 368.143 93.5643 368.715 91.8364 369.233C90.8319 373.705 90.0449 377.693 89.4753 381.196C88.0186 381.802 86.6912 382.195 85.4929 382.375C83.9163 382.612 82.2797 382.665 80.5831 382.533C81.8749 379.114 83.8778 371.203 86.5919 358.8C89.306 346.397 91.2689 336.718 92.4806 329.764C94.9558 329.07 97.0448 328.595 98.7476 328.339C100.576 328.064 102.555 327.927 104.684 327.93C107.887 334.22 112.609 342.893 118.85 353.95C125.091 365.007 129.331 371.98 131.571 374.867C129.367 375.65 126.941 376.241 124.292 376.639ZM103.2 359.882C104.398 359.702 105.871 359.416 107.617 359.025C103.85 351.981 100.56 346.188 97.7492 341.645C96.0709 348.927 94.6572 355.395 93.5081 361.049C96.5637 360.783 99.7942 360.394 103.2 359.882Z" fill="white"/>
<path d="M141.421 374.16C140.034 374.369 138.303 374.436 136.228 374.361C135.765 367.852 134.633 358.607 132.832 346.624C131.068 334.894 129.607 327.536 128.449 324.55C130.032 323.925 132.242 323.4 135.08 322.973C137.161 322.66 139.807 322.456 143.017 322.36C145.55 325.913 149.298 330.896 154.261 337.308C159.286 343.711 164.088 349.696 168.665 355.264C167.843 348.938 167.181 344.104 166.678 340.762C164.915 329.032 163.492 321.926 162.409 319.445C163.74 318.858 165.099 318.46 166.486 318.251C168 318.024 169.763 317.952 171.775 318.037C172.484 326.185 173.616 335.43 175.171 345.773C176.934 357.503 178.395 364.861 179.553 367.847C177.403 368.557 175.193 369.083 172.922 369.424C170.463 369.794 167.786 370.003 164.891 370.051C162.502 366.606 158.837 361.74 153.893 355.453C148.94 349.104 144.057 343.002 139.242 337.148C140.064 343.473 140.727 348.307 141.229 351.65C142.936 363.001 144.359 370.107 145.498 372.967C144.231 373.545 142.872 373.942 141.421 374.16Z" fill="white"/>
<path d="M91.2117 622.167C88.9414 622.509 86.3588 622.704 83.464 622.752C83.2484 619.173 82.8417 614.752 82.2439 609.489C81.6461 604.226 81.0154 599.387 80.3517 594.973C78.5787 583.18 76.9601 575.845 75.496 572.97C77.7094 572.25 80.1405 571.691 82.7893 571.293C84.8074 570.99 87.1692 570.828 89.8748 570.808C90.2298 576.172 91.0444 583.95 92.3187 594.141C97.9417 586.073 101.583 580.269 103.244 576.731C104.968 573.182 105.707 570.588 105.46 568.949C109.644 567.61 114.164 566.576 119.02 565.846C113.589 573.047 108.181 580.825 102.794 589.18C114.694 603.127 123.346 611.564 128.752 614.492C126.659 615.581 124.401 616.436 121.98 617.058C119.63 617.734 116.911 618.304 113.821 618.768C110.962 615.2 105.062 608.767 96.1187 599.471C95.5388 600.332 94.732 601.614 93.6982 603.317C95.155 612.578 96.5366 618.336 97.8429 620.59C95.7555 621.291 93.5452 621.817 91.2117 622.167Z" fill="white"/>
<path d="M134.039 615.439C133.415 606.568 132.325 596.962 130.77 586.619C129.888 580.754 129.094 576.327 128.386 573.338C127.742 570.339 126.956 567.684 126.028 565.373C129.626 565.283 135.178 564.674 142.682 563.546C151.511 562.219 158.289 560.974 163.016 559.812C163.357 562.082 163.533 564.539 163.543 567.181C163.544 569.761 163.327 571.535 162.892 572.503C161.13 571.93 158.922 571.617 156.27 571.564C153.618 571.511 150.968 571.684 148.319 572.082C146.048 572.423 143.739 572.932 141.39 573.608C141.82 578.186 142.234 581.8 142.633 584.449C145.048 584.214 146.855 584.007 148.053 583.827C151.269 583.344 153.72 582.911 155.403 582.529C157.141 582.074 159.053 581.496 161.14 580.795C161.677 582.649 162.026 584.113 162.187 585.185C162.339 586.194 162.44 587.726 162.491 589.782C154.479 590.535 148.202 591.253 143.662 591.936C144.297 596.161 144.946 599.836 145.609 602.961C147.883 603.071 150.47 602.908 153.371 602.472C156.335 602.026 159.235 601.364 162.069 600.487C164.967 599.6 167.3 598.604 169.069 597.5C169.401 599.707 169.572 602.132 169.582 604.774C169.583 607.354 169.371 609.159 168.945 610.191C164.528 610.403 158.377 611.102 150.494 612.287C142.989 613.416 137.504 614.466 134.039 615.439Z" fill="white"/>
<path d="M183.055 608.36C181.668 608.568 179.936 608.635 177.861 608.56C177.399 602.051 176.267 592.806 174.465 580.824C172.702 569.093 171.241 561.735 170.083 558.75C171.665 558.125 173.876 557.599 176.714 557.172C178.795 556.859 181.441 556.655 184.651 556.559C187.184 560.112 190.932 565.095 195.895 571.508C200.92 577.91 205.722 583.896 210.299 589.463C209.477 583.138 208.815 578.304 208.312 574.961C206.549 563.231 205.126 556.125 204.043 553.644C205.374 553.057 206.733 552.659 208.12 552.45C209.634 552.223 211.397 552.151 213.408 552.236C214.118 560.384 215.25 569.629 216.805 579.972C218.568 591.702 220.029 599.06 221.187 602.046C219.037 602.756 216.827 603.282 214.556 603.624C212.097 603.993 209.419 604.202 206.525 604.251C204.136 600.805 200.47 595.939 195.527 589.652C190.574 583.303 185.69 577.201 180.876 571.347C181.698 577.672 182.361 582.506 182.863 585.849C184.57 597.201 185.993 604.306 187.132 607.166C185.865 607.744 184.506 608.141 183.055 608.36Z" fill="white"/>
<path d="M211.625 384.818C216.313 367.321 234.297 356.938 251.794 361.626L452.437 415.388C469.933 420.076 480.317 438.061 475.628 455.557L386.496 788.202C381.808 805.699 363.824 816.082 346.327 811.394L145.684 757.632C128.188 752.943 117.804 734.959 122.493 717.462L211.625 384.818Z" fill="#282E54"/>
<path fill-rule="evenodd" clip-rule="evenodd" d="M448.9 428.588L248.257 374.826C238.05 372.091 227.56 378.148 224.825 388.355L135.693 720.999C132.958 731.206 139.015 741.697 149.221 744.431L349.864 798.194C360.071 800.928 370.561 794.871 373.296 784.665L462.428 452.02C465.163 441.814 459.106 431.323 448.9 428.588ZM251.794 361.626C234.297 356.938 216.313 367.321 211.625 384.818L122.493 717.462C117.804 734.959 128.188 752.943 145.684 757.632L346.327 811.394C363.824 816.082 381.808 805.699 386.496 788.202L475.628 455.557C480.317 438.061 469.933 420.076 452.437 415.388L251.794 361.626Z" fill="white"/>
<path d="M214.958 541.338C219.646 523.842 237.63 513.458 255.127 518.146L371.289 549.272C388.785 553.96 399.169 571.944 394.48 589.441L383.162 631.682C378.474 649.178 360.489 659.562 342.993 654.873L226.831 623.748C209.335 619.06 198.951 601.075 203.639 583.579L214.958 541.338Z" fill="white"/>
<path d="M253.168 603.103C251.012 602.526 248.536 601.664 245.74 600.519C246.972 597.152 248.366 592.936 249.921 587.873C251.476 582.81 252.831 578.122 253.986 573.81C254.844 570.607 255.433 568.288 255.751 566.855L244.18 570.489C243.128 567.764 242.433 564.442 242.097 560.522C244.455 560.098 247.763 559.334 252.021 558.23L254.141 557.709C256.409 557.128 258.657 556.377 260.885 555.455C263.174 554.55 264.804 553.765 265.774 553.101C267.745 553.629 269.975 554.425 272.463 555.487C271.297 558.608 269.903 562.823 268.283 568.133C266.662 573.443 265.241 578.377 264.019 582.936C260.966 594.332 259.585 601.455 259.877 604.307C257.561 604.082 255.324 603.681 253.168 603.103Z" fill="url(#paint5_linear_347_204)"/>
<path d="M288.59 613.09C284.154 611.901 280.476 609.859 277.554 606.964C274.711 604.023 272.822 600.48 271.886 596.333C271.028 592.142 271.235 587.675 272.506 582.932C273.859 577.88 276.204 573.689 279.539 570.357C282.891 566.964 286.897 564.703 291.557 563.575C296.279 562.463 301.227 562.6 306.401 563.987C310.713 565.142 314.238 567.143 316.974 569.989C319.773 572.852 321.586 576.309 322.415 580.36C323.322 584.367 323.149 588.711 321.894 593.392C320.508 598.567 318.161 602.89 314.854 606.361C311.547 609.833 307.586 612.172 302.971 613.378C298.435 614.539 293.641 614.443 288.59 613.09ZM292.643 603.876C296.462 604.899 299.877 604.23 302.887 601.867C305.958 599.521 308.179 595.791 309.549 590.679C310.82 585.935 310.882 581.76 309.736 578.151C308.59 574.543 306.392 571.907 303.14 570.244C300.615 569.567 298.137 569.695 295.708 570.629C293.296 571.501 291.158 573.074 289.294 575.348C287.492 577.638 286.162 580.385 285.303 583.588C283.933 588.701 283.906 593.117 285.22 596.836C286.596 600.572 289.07 602.919 292.643 603.876Z" fill="url(#paint6_linear_347_204)"/>
<path d="M338.892 626.073C336.736 625.495 334.26 624.634 331.464 623.488C332.696 620.121 334.09 615.906 335.645 610.843C337.199 605.779 338.555 601.092 339.71 596.779C340.568 593.576 341.156 591.258 341.474 589.825L329.904 593.459C328.851 590.734 328.157 587.412 327.821 583.492C330.179 583.068 333.487 582.303 337.744 581.199L339.865 580.678C342.133 580.098 344.381 579.346 346.609 578.425C348.898 577.52 350.528 576.735 351.498 576.071C353.469 576.599 355.699 577.394 358.187 578.457C357.021 581.578 355.627 585.793 354.007 591.103C352.386 596.413 350.965 601.347 349.743 605.905C346.69 617.301 345.309 624.425 345.601 627.276C343.285 627.052 341.048 626.651 338.892 626.073Z" fill="url(#paint7_linear_347_204)"/>
<path d="M264.207 482.154C260.757 481.23 257.67 479.94 254.944 478.285C255.505 476.191 256.391 474.118 257.601 472.065C258.766 469.934 259.992 468.315 261.28 467.207C262.665 469.427 264.111 471.3 265.617 472.826C267.139 474.291 268.486 475.18 269.656 475.493C270.684 475.108 271.539 474.38 272.222 473.309C272.984 472.192 273.781 470.326 274.614 467.71C275.463 465.033 276.664 460.799 278.215 455.008C281.153 444.043 282.411 436.887 281.987 433.538C284.427 433.796 286.787 434.23 289.066 434.841C291.222 435.418 293.544 436.239 296.032 437.301C294.462 441.436 291.771 450.619 287.958 464.849C285.994 472.179 283.007 477.288 278.998 480.175C275.051 483.079 270.121 483.739 264.207 482.154Z" fill="white"/>
<path d="M329.26 498.892C327.227 498.347 325.067 497.537 322.78 496.462L322.556 493.233L321.803 484.217C318.526 483.141 315.009 482.099 311.251 481.092C307.185 480.003 304.257 479.35 302.466 479.135C299.759 482.833 297.444 486.174 295.522 489.158C293.944 489.132 292.571 488.962 291.4 488.648C289.86 488.235 288.339 487.63 286.836 486.831C289.386 484.213 294.383 477.761 301.827 467.475C309.271 457.189 314.937 449.101 318.826 443.211C321.373 443.563 323.478 443.962 325.141 444.408C326.927 444.886 328.796 445.552 330.746 446.405C331.169 453.451 332.032 463.288 333.336 475.918C334.639 488.548 335.741 496.634 336.641 500.176C334.307 500.013 331.847 499.585 329.26 498.892ZM316.619 475.103C317.79 475.417 319.254 475.743 321.012 476.082C320.372 468.12 319.671 461.495 318.909 456.207C314.461 462.212 310.581 467.576 307.268 472.301C310.176 473.278 313.293 474.212 316.619 475.103Z" fill="white"/>
<path d="M345.953 503.463C344.597 503.1 342.984 502.47 341.111 501.572C343.288 495.421 345.944 486.493 349.08 474.789C352.15 463.331 353.751 456.002 353.882 452.802C355.583 452.862 357.819 453.263 360.591 454.006C362.624 454.55 365.131 455.42 368.112 456.615C369.015 460.884 370.46 466.95 372.447 474.811C374.495 482.688 376.506 490.093 378.477 497.026C380.251 490.899 381.576 486.203 382.45 482.938C385.52 471.48 387.055 464.398 387.054 461.691C388.508 461.684 389.913 461.863 391.268 462.226C392.747 462.622 394.391 463.26 396.202 464.142C393.596 471.895 390.94 480.822 388.233 490.925C385.163 502.383 383.562 509.712 383.431 512.912C381.176 512.703 378.94 512.302 376.722 511.708C374.32 511.064 371.782 510.186 369.109 509.074C368.296 504.961 366.88 499.035 364.86 491.297C362.856 483.498 360.818 475.953 358.744 468.663C356.97 474.79 355.645 479.486 354.771 482.751C351.8 493.839 350.265 500.922 350.167 503.998C348.774 504.021 347.369 503.843 345.953 503.463Z" fill="white"/>
<path d="M200.835 710.753C198.617 710.159 196.172 709.305 193.499 708.193C194.731 704.826 196.125 700.611 197.68 695.547C199.234 690.484 200.59 685.796 201.745 681.484C204.832 669.965 206.278 662.595 206.085 659.374C208.402 659.598 210.853 660.057 213.441 660.751C215.412 661.279 217.642 662.074 220.13 663.137C218.312 668.196 215.951 675.651 213.048 685.503C221.426 680.353 227.083 676.488 230.019 673.908C233.017 671.344 234.731 669.261 235.16 667.66C239.53 668.104 244.087 668.962 248.83 670.233C240.975 674.665 232.909 679.634 224.633 685.141C229.969 702.681 234.529 713.872 238.315 718.716C235.961 718.878 233.55 718.76 231.082 718.362C228.658 718.043 225.937 717.479 222.919 716.67C221.725 712.257 218.885 704.002 214.402 691.907C213.526 692.465 212.274 693.318 210.646 694.466C208.281 703.538 207.247 709.368 207.544 711.956C205.35 711.765 203.114 711.364 200.835 710.753Z" fill="white"/>
<path d="M242.784 721.696C245.756 713.315 248.595 704.073 251.302 693.971C252.837 688.242 253.877 683.866 254.423 680.843C255.031 677.837 255.371 675.089 255.444 672.599C258.778 673.955 264.11 675.615 271.441 677.579C280.065 679.89 286.775 681.457 291.573 682.28C290.978 684.498 290.158 686.82 289.112 689.246C288.082 691.611 287.174 693.151 286.389 693.865C285.002 692.635 283.103 691.466 280.693 690.358C278.283 689.25 275.784 688.349 273.197 687.656C270.98 687.062 268.659 686.605 266.236 686.286C264.801 690.655 263.737 694.133 263.044 696.721C265.351 697.471 267.09 698.003 268.261 698.317C271.403 699.159 273.821 699.741 275.518 700.063C277.292 700.34 279.276 700.575 281.469 700.767C281.221 702.681 280.956 704.161 280.675 705.208C280.411 706.194 279.892 707.639 279.117 709.545C271.471 707.034 265.43 705.184 260.995 703.996C259.889 708.123 259.016 711.751 258.376 714.881C260.416 715.89 262.853 716.774 265.687 717.533C268.582 718.309 271.504 718.861 274.453 719.189C277.464 719.533 280.001 719.553 282.064 719.247C281.486 721.403 280.674 723.695 279.627 726.121C278.598 728.486 277.682 730.056 276.88 730.832C272.745 729.262 266.827 727.445 259.127 725.382C251.797 723.418 246.349 722.189 242.784 721.696Z" fill="white"/>
<path d="M290.546 734.791C289.191 734.428 287.577 733.797 285.705 732.899C287.881 726.748 290.537 717.821 293.673 706.116C296.744 694.659 298.344 687.33 298.475 684.13C300.176 684.189 302.412 684.59 305.184 685.333C307.217 685.878 309.724 686.748 312.705 687.943C313.608 692.212 315.053 698.277 317.04 706.138C319.089 714.016 321.099 721.421 323.071 728.353C324.844 722.226 326.169 717.53 327.044 714.266C330.114 702.808 331.648 695.725 331.647 693.018C333.102 693.012 334.506 693.19 335.862 693.553C337.34 693.949 338.985 694.588 340.795 695.469C338.19 703.222 335.533 712.15 332.826 722.252C329.756 733.71 328.156 741.039 328.024 744.239C325.769 744.031 323.533 743.63 321.315 743.036C318.913 742.392 316.375 741.514 313.702 740.401C312.89 736.288 311.473 730.363 309.453 722.625C307.45 714.825 305.411 707.281 303.337 699.991C301.563 706.118 300.239 710.814 299.364 714.078C296.393 725.167 294.858 732.249 294.76 735.326C293.367 735.349 291.963 735.171 290.546 734.791Z" fill="white"/>
</g>
<path d="M121.678 172L124.738 158.4H129.978L133.038 172H130.278L129.738 169.54H124.978L124.438 172H121.678ZM126.878 160.68L125.498 167.14H129.218L127.838 160.68H126.878ZM142.589 172H134.849V158.4H137.609V169.56H142.589V172ZM152.023 172H144.283V158.4H147.043V169.56H152.023V172ZM166.731 171.78C165.318 172.087 164.044 172.24 162.911 172.24C161.778 172.24 160.871 172.1 160.191 171.82C159.511 171.54 158.978 171.093 158.591 170.48C158.204 169.867 157.938 169.147 157.791 168.32C157.644 167.493 157.571 166.453 157.571 165.2C157.571 162.573 157.938 160.747 158.671 159.72C159.418 158.68 160.784 158.16 162.771 158.16C163.918 158.16 165.244 158.34 166.751 158.7L166.671 160.9C165.351 160.7 164.251 160.6 163.371 160.6C162.504 160.6 161.884 160.72 161.511 160.96C161.138 161.187 160.858 161.627 160.671 162.28C160.498 162.933 160.411 164.047 160.411 165.62C160.411 167.193 160.591 168.287 160.951 168.9C161.324 169.5 162.058 169.8 163.151 169.8C164.258 169.8 165.431 169.707 166.671 169.52L166.731 171.78ZM167.83 172L170.89 158.4H176.13L179.19 172H176.43L175.89 169.54H171.13L170.59 172H167.83ZM173.03 160.68L171.65 167.14H175.37L173.99 160.68H173.03ZM183.761 167.44V172H181.001V158.4H186.281C189.481 158.4 191.081 159.893 191.081 162.88C191.081 164.653 190.415 165.96 189.081 166.8L191.021 172H188.001L186.421 167.44H183.761ZM186.321 165.08C186.975 165.08 187.461 164.88 187.781 164.48C188.101 164.08 188.261 163.553 188.261 162.9C188.261 162.247 188.088 161.727 187.741 161.34C187.408 160.953 186.921 160.76 186.281 160.76H183.761V165.08H186.321ZM197.984 172H193.404V158.4H197.984C199.157 158.4 200.124 158.527 200.884 158.78C201.644 159.02 202.23 159.427 202.644 160C203.07 160.56 203.364 161.227 203.524 162C203.684 162.76 203.764 163.753 203.764 164.98C203.764 166.207 203.69 167.227 203.544 168.04C203.397 168.84 203.117 169.56 202.704 170.2C202.304 170.827 201.717 171.287 200.944 171.58C200.17 171.86 199.184 172 197.984 172ZM200.884 166.6C200.91 166.173 200.924 165.587 200.924 164.84C200.924 164.08 200.897 163.473 200.844 163.02C200.79 162.567 200.664 162.153 200.464 161.78C200.264 161.407 199.964 161.153 199.564 161.02C199.177 160.873 198.65 160.8 197.984 160.8H196.164V169.6H197.984C198.984 169.6 199.71 169.347 200.164 168.84C200.55 168.427 200.79 167.68 200.884 166.6ZM210.338 160.56C208.884 160.56 208.158 161.04 208.158 162C208.158 162.427 208.338 162.753 208.698 162.98C209.058 163.207 209.898 163.533 211.218 163.96C212.551 164.387 213.484 164.873 214.018 165.42C214.551 165.953 214.818 166.78 214.818 167.9C214.818 169.327 214.384 170.407 213.518 171.14C212.651 171.873 211.518 172.24 210.118 172.24C209.078 172.24 207.804 172.08 206.298 171.76L205.578 171.62L205.858 169.48C207.644 169.72 209.011 169.84 209.958 169.84C211.371 169.84 212.078 169.253 212.078 168.08C212.078 167.653 211.911 167.32 211.578 167.08C211.258 166.84 210.611 166.58 209.638 166.3C208.091 165.86 206.998 165.34 206.358 164.74C205.731 164.127 205.418 163.28 205.418 162.2C205.418 160.84 205.831 159.827 206.658 159.16C207.484 158.493 208.618 158.16 210.058 158.16C211.044 158.16 212.298 158.293 213.818 158.56L214.538 158.7L214.318 160.88C212.438 160.667 211.111 160.56 210.338 160.56ZM221.431 172V158.4H230.111V160.8H224.191V164.8H229.031V167.2H224.191V172H221.431ZM230.486 172L233.546 158.4H238.786L241.846 172H239.086L238.546 169.54H233.786L233.246 172H230.486ZM235.686 160.68L234.306 167.14H238.026L236.646 160.68H235.686ZM248.238 172H243.658V158.4H248.238C249.411 158.4 250.378 158.527 251.138 158.78C251.898 159.02 252.484 159.427 252.898 160C253.324 160.56 253.618 161.227 253.778 162C253.938 162.76 254.018 163.753 254.018 164.98C254.018 166.207 253.944 167.227 253.798 168.04C253.651 168.84 253.371 169.56 252.958 170.2C252.558 170.827 251.971 171.287 251.198 171.58C250.424 171.86 249.438 172 248.238 172ZM251.138 166.6C251.164 166.173 251.178 165.587 251.178 164.84C251.178 164.08 251.151 163.473 251.098 163.02C251.044 162.567 250.918 162.153 250.718 161.78C250.518 161.407 250.218 161.153 249.818 161.02C249.431 160.873 248.904 160.8 248.238 160.8H246.418V169.6H248.238C249.238 169.6 249.964 169.347 250.418 168.84C250.804 168.427 251.044 167.68 251.138 166.6ZM256.412 172V158.4H265.212V160.8H259.172V163.98H264.012V166.34H259.172V169.6H265.212V172H256.412ZM276.46 172H271.88V158.4H276.46C277.634 158.4 278.6 158.527 279.36 158.78C280.12 159.02 280.707 159.427 281.12 160C281.547 160.56 281.84 161.227 282 162C282.16 162.76 282.24 163.753 282.24 164.98C282.24 166.207 282.167 167.227 282.02 168.04C281.874 168.84 281.594 169.56 281.18 170.2C280.78 170.827 280.194 171.287 279.42 171.58C278.647 171.86 277.66 172 276.46 172ZM279.36 166.6C279.387 166.173 279.4 165.587 279.4 164.84C279.4 164.08 279.374 163.473 279.32 163.02C279.267 162.567 279.14 162.153 278.94 161.78C278.74 161.407 278.44 161.153 278.04 161.02C277.654 160.873 277.127 160.8 276.46 160.8H274.64V169.6H276.46C277.46 169.6 278.187 169.347 278.64 168.84C279.027 168.427 279.267 167.68 279.36 166.6ZM287.454 168.8C287.854 169.493 288.594 169.84 289.674 169.84C290.754 169.84 291.488 169.493 291.874 168.8C292.274 168.093 292.474 166.92 292.474 165.28C292.474 163.627 292.274 162.427 291.874 161.68C291.474 160.933 290.741 160.56 289.674 160.56C288.608 160.56 287.874 160.933 287.474 161.68C287.074 162.427 286.874 163.627 286.874 165.28C286.874 166.92 287.068 168.093 287.454 168.8ZM294.034 170.56C293.194 171.68 291.741 172.24 289.674 172.24C287.608 172.24 286.148 171.68 285.294 170.56C284.454 169.427 284.034 167.66 284.034 165.26C284.034 162.86 284.454 161.08 285.294 159.92C286.148 158.747 287.608 158.16 289.674 158.16C291.741 158.16 293.194 158.747 294.034 159.92C294.888 161.08 295.314 162.86 295.314 165.26C295.314 167.66 294.888 169.427 294.034 170.56ZM296.581 158.4H299.481L301.161 169.64H301.461L303.901 158.4H307.101L309.541 169.64H309.841L311.521 158.4H314.421L311.821 172H307.641L305.501 161.66L303.361 172H299.181L296.581 158.4ZM316.275 172V158.4H320.935L324.215 169.6H324.415V158.4H327.175V172H322.635L319.235 160.8H319.035V172H316.275Z" fill="white"/>
<defs>
<linearGradient id="paint0_linear_347_204" x1="225" y1="9.99999" x2="225" y2="789" gradientUnits="userSpaceOnUse">
<stop stop-color="#FCB45A"/>
<stop offset="1" stop-color="#E12689"/>
</linearGradient>
<linearGradient id="paint1_linear_347_204" x1="450" y1="394.5" x2="0" y2="394.5" gradientUnits="userSpaceOnUse">
<stop stop-color="#12FFF7"/>
<stop offset="1" stop-color="#B3FFAB"/>
</linearGradient>
<linearGradient id="paint2_linear_347_204" x1="125.012" y1="446.098" x2="132.749" y2="497.559" gradientUnits="userSpaceOnUse">
<stop stop-color="#FBD03B"/>
<stop offset="1" stop-color="#FA7800"/>
</linearGradient>
<linearGradient id="paint3_linear_347_204" x1="125.012" y1="446.098" x2="132.749" y2="497.559" gradientUnits="userSpaceOnUse">
<stop stop-color="#FBD03B"/>
<stop offset="1" stop-color="#FA7800"/>
</linearGradient>
<linearGradient id="paint4_linear_347_204" x1="125.012" y1="446.098" x2="132.749" y2="497.559" gradientUnits="userSpaceOnUse">
<stop stop-color="#FBD03B"/>
<stop offset="1" stop-color="#FA7800"/>
</linearGradient>
<linearGradient id="paint5_linear_347_204" x1="302.168" y1="562.853" x2="288.699" y2="613.119" gradientUnits="userSpaceOnUse">
<stop stop-color="#FBD03B"/>
<stop offset="1" stop-color="#FA7800"/>
</linearGradient>
<linearGradient id="paint6_linear_347_204" x1="302.168" y1="562.853" x2="288.699" y2="613.119" gradientUnits="userSpaceOnUse">
<stop stop-color="#FBD03B"/>
<stop offset="1" stop-color="#FA7800"/>
</linearGradient>
<linearGradient id="paint7_linear_347_204" x1="302.168" y1="562.853" x2="288.699" y2="613.119" gradientUnits="userSpaceOnUse">
<stop stop-color="#FBD03B"/>
<stop offset="1" stop-color="#FA7800"/>
</linearGradient>
</defs>
</svg>
