<svg width="36" height="70" viewBox="0 0 36 70" fill="none" xmlns="http://www.w3.org/2000/svg">
<path d="M19.8101 15.6485C19.7639 15.5964 19.7241 15.5447 19.6696 15.4954C19.0667 14.9541 19.0505 15.1139 19.7105 14.5055C20.1994 14.0568 20.7927 13.7057 21.3303
13.3176C22.7526 12.2896 23.6887 10.9128 24.3216 9.28062C25.7415 5.61579 21.5575 3.08383 19.4578 0.914882C17.941 -0.654459 15.5526 1.73918 17.068 3.30521C18.2388 4.51717 19.7467
5.49981 20.7658 6.84711C21.9069 8.35539 20.168 10.0195 18.9765 10.8592C17.1345 12.1571 15.5422 13.8808 15.9102 15.7292C7.64336 16.5016 0 21.0324 0 29.0197V51.4405C0 61.345 8.05733
69.4027 17.9625 69.4027C27.8671 69.4027 35.9253 61.345 35.9253 51.4405V29.0179C35.9258 20.2979 27.8127 16.0749 19.8101 15.6485ZM3.38173 29.0179C3.38173 23.0892 9.81761 19.6563 16.4835
19.0861V39.765C10.4028 39.459 5.46597 38.0738 3.38173 37.3975V29.0179ZM32.5443 51.4389C32.5443 59.4807 26.0027 66.0209 17.963 66.0209C9.9235 66.0209 3.38173 59.4807 3.38173 51.4389V40.9522C6.40112
41.8648 12.0847 43.249 18.8025 43.249C23.1048 43.249 27.829 42.6734 32.5445 41.0508L32.5443 51.4389ZM32.5443 37.4545C28.2683 39.0897 23.9015 39.7288 19.8647 39.8157V19.0362C26.3848 19.4271 32.5443 22.5544
32.5443 29.0192V37.4545ZM31.4006 36.1743C31.4006 36.1743 23.6758 38.3373 21.0485 37.8737V20.7225C28.0408 22.0362 32.5405 24.1507 31.4006 36.1743Z"
fill="#21264A"/>
</svg>
