<svg width="36" height="70" viewBox="0 0 36 70" fill="none" xmlns="http://www.w3.org/2000/svg">
<path d="M16.1152 15.6485C16.1614 15.5964 16.2012 15.5447 16.2557 15.4954C16.8586 14.9541 16.8748 15.1139 16.2148 14.5055C15.7259 14.0568 15.1326
13.7057 14.595 13.3176C13.1727 12.2896 12.2366 10.9128 11.6037 9.28062C10.1838 5.61579 14.3678 3.08383 16.4674 0.914882C17.9843 -0.654459 20.3727
1.73918 18.8573 3.30521C17.6865 4.51717 16.1786 5.49981 15.1595 6.84711C14.0184 8.35539 15.7573 10.0195 16.9488 10.8592C18.7908 12.1571 20.3831
13.8808 20.0151 15.7292C28.2819 16.5016 35.9253 21.0324 35.9253 29.0197V51.4405C35.9253 61.345 27.868 69.4027 17.9628 69.4027C8.0582 69.4027 3.8147e-05
61.345 3.8147e-05 51.4405V29.0179C-0.000457764 20.2979 8.11263 16.0749 16.1152 15.6485ZM32.5436 29.0179C32.5436 23.0892 26.1077 19.6563 19.4418 19.0861V39.765C25.5225
39.459 30.4593 38.0738 32.5436 37.3975V29.0179ZM3.38095 51.4389C3.38095 59.4807 9.92254 66.0209 17.9623 66.0209C26.0018 66.0209 32.5436 59.4807 32.5436 51.4389V40.9522C29.5242
41.8648 23.8406 43.249 17.1228 43.249C12.8205 43.249 8.09625 42.6734 3.38078 41.0508L3.38095 51.4389ZM3.38095 37.4545C7.65697 39.0897 12.0238 39.7288 16.0606 39.8157V19.0362C9.54051
19.4271 3.38095 22.5544 3.38095 29.0192V37.4545ZM4.52474 36.1743C4.52474 36.1743 12.2495 38.3373 14.8768 37.8737V20.7225C7.88447 22.0362 3.38475 24.1507 4.52474 36.1743Z"
fill="#21264A"/>
</svg>
