<svg width="224" height="269" viewBox="0 0 224 269" fill="none" xmlns="http://www.w3.org/2000/svg">
<path d="M0 21.52C0 9.63483 12.0346 0 26.88 0H197.12C211.965 0 224 9.63483 224 21.52V247.48C224 259.365 211.965 269 197.12 269H26.88C12.0346 269 0 259.365 0 247.48V21.52Z" fill="#282E54"/>
<path fill-rule="evenodd" clip-rule="evenodd" d="M173.913 30.7881H47.2207C32.9675 30.7881 21.413 39.5945 21.413 50.4576V218.542C21.413 229.406 32.9675 238.212 47.2207 238.212H173.913C188.166 238.212 199.721 229.406 199.721 218.542V50.4576C199.721 39.5945 188.166 30.7881 173.913 30.7881ZM47.2207 29C31.6718 29 19.0669 38.6069 19.0669 50.4576V218.542C19.0669 230.393 31.6718 240 47.2207 240H173.913C189.462 240 202.067 230.393 202.067 218.542V50.4576C202.067 38.6069 189.462 29 173.913 29H47.2207Z" fill="url(#paint0_linear_289_2)"/>
<path d="M19 21.52C19 19.5392 20.6058 17.9333 22.5867 17.9333H47.6933C49.6742 17.9333 51.28 19.5392 51.28 21.52V34.0734C51.28 36.0542 49.6742 37.66 47.6933 37.66H22.5867C20.6058 37.66 19 36.0542 19 34.0734V21.52Z" fill="#282E54"/>
<path d="M26.4412 34.2026C25.9391 34.2026 25.3508 34.1595 24.6766 34.0734C24.7483 33.27 24.8057 32.2729 24.8487 31.0822C24.8918 29.8914 24.9133 28.7939 24.9133 27.7896C24.9133 27.0436 24.9061 26.5056 24.8918 26.1756L22.5891 27.639C22.2018 27.1081 21.8574 26.4267 21.5562 25.5946C22.0439 25.365 22.7182 25.0063 23.579 24.5186L24.0094 24.2818C24.4685 24.0236 24.9133 23.7295 25.3437 23.3995C25.7884 23.0695 26.0969 22.8041 26.269 22.6033C26.7281 22.6033 27.259 22.6463 27.8615 22.7324C27.7898 23.4784 27.7324 24.4755 27.6894 25.7237C27.6463 26.9718 27.6248 28.1267 27.6248 29.1884C27.6248 31.8425 27.7396 33.4709 27.9691 34.0734C27.4526 34.1595 26.9433 34.2026 26.4412 34.2026Z" fill="url(#paint1_linear_289_2)"/>
<path d="M34.7195 34.3102C33.6865 34.3102 32.7684 34.0806 31.9649 33.6215C31.1759 33.1481 30.559 32.4881 30.1142 31.6417C29.6838 30.7809 29.4686 29.7981 29.4686 28.6934C29.4686 27.517 29.734 26.4697 30.2649 25.5515C30.7957 24.619 31.5345 23.8945 32.4814 23.378C33.4426 22.8615 34.5258 22.6033 35.7309 22.6033C36.7352 22.6033 37.6175 22.8328 38.3779 23.2919C39.1526 23.751 39.748 24.3966 40.1641 25.2287C40.5945 26.0465 40.8097 27.0005 40.8097 28.0909C40.8097 29.296 40.5514 30.372 40.0349 31.3189C39.5185 32.2658 38.794 33.0046 37.8614 33.5354C36.9432 34.0519 35.8959 34.3102 34.7195 34.3102ZM35.0638 32.0721C35.9533 32.0721 36.6563 31.7278 37.1728 31.0391C37.7036 30.3505 37.969 29.4108 37.969 28.22C37.969 27.1153 37.7395 26.2043 37.2804 25.487C36.8213 24.7696 36.19 24.3249 35.3866 24.1527C34.7984 24.1527 34.2676 24.3249 33.7941 24.6692C33.3207 24.9992 32.9477 25.4654 32.6751 26.068C32.4169 26.6706 32.2877 27.3448 32.2877 28.0909C32.2877 29.2816 32.5388 30.2429 33.0409 30.9746C33.5574 31.7062 34.2317 32.0721 35.0638 32.0721Z" fill="url(#paint2_linear_289_2)"/>
<path d="M46.406 34.2026C45.9039 34.2026 45.3157 34.1595 44.6414 34.0734C44.7131 33.27 44.7705 32.2729 44.8136 31.0822C44.8566 29.8914 44.8781 28.7939 44.8781 27.7896C44.8781 27.0436 44.8709 26.5056 44.8566 26.1756L42.554 27.639C42.1666 27.1081 41.8223 26.4267 41.521 25.5946C42.0088 25.365 42.6831 25.0063 43.5439 24.5186L43.9743 24.2818C44.4334 24.0236 44.8781 23.7295 45.3085 23.3995C45.7533 23.0695 46.0617 22.8041 46.2339 22.6033C46.693 22.6033 47.2238 22.6463 47.8264 22.7324C47.7546 23.4784 47.6972 24.4755 47.6542 25.7237C47.6112 26.9718 47.5896 28.1267 47.5896 29.1884C47.5896 31.8425 47.7044 33.4709 47.934 34.0734C47.4175 34.1595 46.9082 34.2026 46.406 34.2026Z" fill="url(#paint3_linear_289_2)"/>
<path d="M172.067 247.48C172.067 249.461 173.673 251.067 175.654 251.067H200.76C202.741 251.067 204.347 249.461 204.347 247.48V234.927C204.347 232.946 202.741 231.34 200.76 231.34H175.654C173.673 231.34 172.067 232.946 172.067 234.927V247.48Z" fill="#282E54"/>
<path d="M179.508 234.797C179.006 234.797 178.418 234.84 177.743 234.927C177.815 235.73 177.873 236.727 177.916 237.918C177.959 239.109 177.98 240.206 177.98 241.21C177.98 241.956 177.973 242.494 177.959 242.824L175.656 241.361C175.269 241.892 174.924 242.573 174.623 243.405C175.111 243.635 175.785 243.994 176.646 244.481L177.076 244.718C177.535 244.976 177.98 245.271 178.411 245.6C178.855 245.93 179.164 246.196 179.336 246.397C179.795 246.397 180.326 246.354 180.928 246.268C180.857 245.522 180.799 244.524 180.756 243.276C180.713 242.028 180.692 240.873 180.692 239.812C180.692 237.157 180.806 235.529 181.036 234.927C180.52 234.84 180.01 234.797 179.508 234.797Z" fill="url(#paint4_linear_289_2)"/>
<path d="M187.786 234.69C186.753 234.69 185.835 234.919 185.032 235.378C184.243 235.852 183.626 236.512 183.181 237.358C182.751 238.219 182.536 239.202 182.536 240.307C182.536 241.483 182.801 242.53 183.332 243.448C183.863 244.381 184.601 245.106 185.548 245.622C186.51 246.138 187.593 246.397 188.798 246.397C189.802 246.397 190.684 246.167 191.445 245.708C192.22 245.249 192.815 244.603 193.231 243.771C193.661 242.954 193.877 241.999 193.877 240.909C193.877 239.704 193.618 238.628 193.102 237.681C192.585 236.734 191.861 235.995 190.928 235.465C190.01 234.948 188.963 234.69 187.786 234.69ZM188.131 236.928C189.02 236.928 189.723 237.272 190.24 237.961C190.771 238.65 191.036 239.589 191.036 240.78C191.036 241.885 190.806 242.796 190.347 243.513C189.888 244.23 189.257 244.675 188.454 244.847C187.865 244.847 187.334 244.675 186.861 244.331C186.388 244.001 186.015 243.535 185.742 242.932C185.484 242.329 185.355 241.655 185.355 240.909C185.355 239.718 185.606 238.757 186.108 238.025C186.624 237.294 187.299 236.928 188.131 236.928Z" fill="url(#paint5_linear_289_2)"/>
<path d="M199.473 234.797C198.971 234.797 198.383 234.84 197.708 234.927C197.78 235.73 197.837 236.727 197.88 237.918C197.923 239.109 197.945 240.206 197.945 241.21C197.945 241.956 197.938 242.494 197.923 242.824L195.621 241.361C195.233 241.892 194.889 242.573 194.588 243.405C195.076 243.635 195.75 243.994 196.611 244.481L197.041 244.718C197.5 244.976 197.945 245.271 198.375 245.6C198.82 245.93 199.129 246.196 199.301 246.397C199.76 246.397 200.291 246.354 200.893 246.268C200.822 245.522 200.764 244.524 200.721 243.276C200.678 242.028 200.657 240.873 200.657 239.812C200.657 237.157 200.771 235.529 201.001 234.927C200.484 234.84 199.975 234.797 199.473 234.797Z" fill="url(#paint6_linear_289_2)"/>
<rect x="2.5" y="2.5" width="219" height="264" rx="20.5" stroke="white" stroke-width="5"/>
<path d="M108.631 120.113V134.562C108.631 135.466 108.938 136.223 109.553 136.834C110.168 137.445 110.929 137.75 111.837 137.75C112.746 137.75 113.501 137.445 114.103 136.834C114.705 136.223 115.006 135.466 115.006 134.562V120.113H129.562C130.466 120.113 131.223 119.805 131.834 119.191C132.445 118.576 132.75 117.815 132.75 116.906C132.75 115.998 132.445 115.243 131.834 114.641C131.223 114.039 130.466 113.737 129.562 113.737H115.006V98.4375C115.006 97.5344 114.699 96.7773 114.085 96.1664C113.47 95.5555 112.709 95.25 111.8 95.25C110.892 95.25 110.136 95.5555 109.534 96.1664C108.932 96.7773 108.631 97.5344 108.631 98.4375V113.737H93.4375C92.5344 113.737 91.7773 114.045 91.1664 114.659C90.5555 115.274 90.25 116.035 90.25 116.944C90.25 117.852 90.5555 118.607 91.1664 119.209C91.7773 119.811 92.5344 120.113 93.4375 120.113H108.631ZM111.528 159C105.668 159 100.161 157.884 95.0064 155.653C89.8521 153.422 85.3448 150.376 81.4844 146.516C77.624 142.655 74.5781 138.145 72.3469 132.986C70.1156 127.826 69 122.313 69 116.447C69 110.581 70.1156 105.068 72.3469 99.9081C74.5781 94.7485 77.624 90.2563 81.4844 86.4313C85.3448 82.6062 89.8548 79.5781 95.0144 77.3469C100.174 75.1156 105.687 74 111.553 74C117.419 74 122.932 75.1156 128.092 77.3469C133.251 79.5781 137.744 82.6062 141.569 86.4313C145.394 90.2563 148.422 94.7542 150.653 99.925C152.884 105.096 154 110.611 154 116.472C154 122.332 152.884 127.839 150.653 132.994C148.422 138.148 145.394 142.649 141.569 146.496C137.744 150.343 133.246 153.389 128.075 155.634C122.904 157.878 117.389 159 111.528 159Z" fill="url(#paint7_linear_289_2)"/>
<path d="M51.325 215.192C50.8557 215.192 50.2797 215.128 49.597 215C49.7677 212.824 49.853 209.709 49.853 205.656C49.853 201.688 49.7357 199.181 49.501 198.136C50.0557 198.008 50.813 197.944 51.773 197.944C52.477 197.944 53.3623 198.008 54.429 198.136C55.0903 199.437 56.0823 201.272 57.405 203.64C58.749 206.008 60.0397 208.227 61.277 210.296C61.3197 208.163 61.341 206.531 61.341 205.4C61.341 201.432 61.2237 199.011 60.989 198.136C61.4583 198.008 61.9277 197.944 62.397 197.944C62.909 197.944 63.4957 198.008 64.157 198.136C63.9863 200.867 63.901 203.981 63.901 207.48C63.901 211.448 64.0183 213.955 64.253 215C63.5063 215.128 62.749 215.192 61.981 215.192C61.149 215.192 60.253 215.128 59.293 215C58.6743 213.741 57.7037 211.949 56.381 209.624C55.0583 207.277 53.7463 205.016 52.445 202.84C52.4023 204.973 52.381 206.605 52.381 207.736C52.381 211.576 52.4983 213.997 52.733 215C52.285 215.128 51.8157 215.192 51.325 215.192ZM67.2898 215.096C67.5244 212.131 67.6418 208.899 67.6418 205.4C67.6418 203.416 67.5991 201.912 67.5138 200.888C67.4498 199.864 67.3218 198.947 67.1298 198.136C68.3244 198.285 70.1911 198.36 72.7298 198.36C75.7164 198.36 78.0204 198.285 79.6418 198.136C79.6418 198.904 79.5778 199.725 79.4498 200.6C79.3218 201.453 79.1618 202.029 78.9698 202.328C78.4151 202.051 77.7004 201.837 76.8258 201.688C75.9511 201.539 75.0658 201.464 74.1698 201.464C73.4018 201.464 72.6124 201.517 71.8018 201.624C71.7164 203.16 71.6738 204.376 71.6738 205.272C72.4844 205.315 73.0924 205.336 73.4978 205.336C74.5858 205.336 75.4178 205.315 75.9938 205.272C76.5911 205.208 77.2524 205.112 77.9778 204.984C78.0631 205.624 78.1058 206.125 78.1058 206.488C78.1058 206.829 78.0631 207.341 77.9778 208.024C75.2898 207.875 73.1778 207.8 71.6418 207.8C71.6418 209.229 71.6738 210.477 71.7378 211.544C72.4844 211.693 73.3484 211.768 74.3298 211.768C75.3324 211.768 76.3244 211.693 77.3058 211.544C78.3084 211.395 79.1298 211.181 79.7698 210.904C79.7698 211.651 79.7058 212.461 79.5778 213.336C79.4498 214.189 79.2898 214.776 79.0978 215.096C77.6258 214.947 75.5564 214.872 72.8898 214.872C70.3511 214.872 68.4844 214.947 67.2898 215.096ZM88.2723 215.288C87.6323 215.288 87.0776 215 86.6083 214.424C86.1389 213.848 85.7229 213.08 85.3602 212.12C85.0189 211.139 84.6029 209.773 84.1123 208.024C83.5576 206.104 83.0349 204.429 82.5443 203C82.0749 201.571 81.4989 200.109 80.8163 198.616C82.4163 198.168 84.1549 197.944 86.0323 197.944C86.1603 198.989 86.4056 200.365 86.7683 202.072C87.1309 203.757 87.5149 205.293 87.9203 206.68C88.4536 208.365 88.9976 209.859 89.5523 211.16C90.8963 207 91.8456 203.864 92.4003 201.752L91.1203 198.616C92.6349 198.168 94.3629 197.944 96.3043 197.944C96.4749 199.117 96.7523 200.568 97.1363 202.296C97.5203 204.024 97.8829 205.485 98.2243 206.68C98.8216 208.557 99.3549 210.051 99.8243 211.16C100.976 207.661 101.819 204.931 102.352 202.968C102.907 200.984 103.184 199.608 103.184 198.84C103.184 198.648 103.163 198.467 103.12 198.296C104.144 198.061 105.307 197.944 106.608 197.944C105.862 200.035 104.955 202.723 103.888 206.008C102.822 209.272 101.979 211.981 101.36 214.136L98.5763 215.288C97.9149 215.288 97.3496 215 96.8803 214.424C96.4323 213.848 96.0376 213.091 95.6963 212.152C95.3549 211.213 94.9283 209.848 94.4163 208.056L93.7123 205.688C93.7123 205.688 93.6483 205.891 93.5203 206.296C93.4349 206.531 93.3603 206.787 93.2963 207.064C92.4216 209.773 91.6856 212.131 91.0883 214.136L88.2723 215.288ZM121.841 215.192C120.795 215.192 119.707 215.139 118.577 215.032C117.446 214.947 116.475 214.829 115.665 214.68C115.771 213.656 115.857 212.259 115.921 210.488C115.985 208.696 116.017 207 116.017 205.4C116.017 201.859 115.846 199.672 115.505 198.84C116.273 198.584 117.297 198.381 118.577 198.232C119.857 198.061 121.158 197.976 122.481 197.976C125.467 197.976 127.761 198.712 129.361 200.184C130.961 201.656 131.761 203.757 131.761 206.488C131.761 208.195 131.345 209.709 130.513 211.032C129.681 212.333 128.507 213.357 126.993 214.104C125.499 214.829 123.782 215.192 121.841 215.192ZM123.345 212.92C124.091 212.792 124.774 212.44 125.393 211.864C126.033 211.267 126.534 210.541 126.897 209.688C127.259 208.835 127.441 207.96 127.441 207.064C127.441 202.819 125.563 200.696 121.809 200.696C121.211 200.696 120.678 200.771 120.209 200.92C120.081 202.904 120.017 205.176 120.017 207.736C120.017 209.592 120.049 211.117 120.113 212.312C121.457 212.717 122.534 212.92 123.345 212.92ZM134.477 215.096C134.712 212.131 134.829 208.899 134.829 205.4C134.829 203.416 134.787 201.912 134.701 200.888C134.637 199.864 134.509 198.947 134.317 198.136C135.512 198.285 137.379 198.36 139.917 198.36C142.904 198.36 145.208 198.285 146.829 198.136C146.829 198.904 146.765 199.725 146.637 200.6C146.509 201.453 146.349 202.029 146.157 202.328C145.603 202.051 144.888 201.837 144.013 201.688C143.139 201.539 142.253 201.464 141.357 201.464C140.589 201.464 139.8 201.517 138.989 201.624C138.904 203.16 138.861 204.376 138.861 205.272C139.672 205.315 140.28 205.336 140.685 205.336C141.773 205.336 142.605 205.315 143.181 205.272C143.779 205.208 144.44 205.112 145.165 204.984C145.251 205.624 145.293 206.125 145.293 206.488C145.293 206.829 145.251 207.341 145.165 208.024C142.477 207.875 140.365 207.8 138.829 207.8C138.829 209.229 138.861 210.477 138.925 211.544C139.672 211.693 140.536 211.768 141.517 211.768C142.52 211.768 143.512 211.693 144.493 211.544C145.496 211.395 146.317 211.181 146.957 210.904C146.957 211.651 146.893 212.461 146.765 213.336C146.637 214.189 146.477 214.776 146.285 215.096C144.813 214.947 142.744 214.872 140.077 214.872C137.539 214.872 135.672 214.947 134.477 215.096ZM156.484 215.352C154.03 215.352 152.142 214.659 150.82 213.272C149.518 211.885 148.868 209.891 148.868 207.288C148.868 205.475 149.252 203.864 150.02 202.456C150.788 201.027 151.865 199.917 153.252 199.128C154.66 198.339 156.249 197.944 158.02 197.944C160.025 197.944 161.636 198.2 162.852 198.712C162.852 199.416 162.692 200.227 162.372 201.144C162.052 202.04 161.71 202.659 161.348 203C160.537 202.275 159.662 201.677 158.724 201.208C157.806 200.717 157.07 200.472 156.516 200.472C155.598 200.771 154.809 201.496 154.148 202.648C153.508 203.8 153.188 205.048 153.188 206.392C153.188 208.227 153.572 209.603 154.34 210.52C155.108 211.437 156.238 211.896 157.732 211.896C158.649 211.896 159.566 211.768 160.484 211.512C161.422 211.256 162.18 210.915 162.756 210.488L163.3 212.504C162.553 213.357 161.55 214.051 160.292 214.584C159.054 215.096 157.785 215.352 156.484 215.352ZM168.069 215.192C167.301 215.192 166.437 215.128 165.477 215C165.584 213.805 165.669 212.323 165.733 210.552C165.797 208.781 165.829 207.149 165.829 205.656C165.829 201.667 165.659 199.16 165.317 198.136C166.085 198.008 166.917 197.944 167.813 197.944C168.496 197.944 169.285 198.008 170.181 198.136C170.032 199.928 169.915 202.541 169.829 205.976C172.091 203.587 173.584 201.848 174.309 200.76C175.056 199.672 175.429 198.851 175.429 198.296C176.88 198.061 178.427 197.944 180.069 197.944C177.915 200.056 175.739 202.36 173.541 204.856C176.784 210.061 179.227 213.283 180.869 214.52C180.123 214.776 179.333 214.947 178.501 215.032C177.691 215.139 176.763 215.192 175.717 215.192C174.949 213.869 173.317 211.448 170.821 207.928C170.587 208.184 170.256 208.568 169.829 209.08C169.851 212.216 170.021 214.189 170.341 215C169.616 215.128 168.859 215.192 168.069 215.192Z" fill="white"/>
<defs>
<linearGradient id="paint0_linear_289_2" x1="110.567" y1="29" x2="110.567" y2="240" gradientUnits="userSpaceOnUse">
<stop stop-color="#FBD03B"/>
<stop offset="1" stop-color="#FA7800"/>
</linearGradient>
<linearGradient id="paint1_linear_289_2" x1="34.7451" y1="22.6033" x2="34.7451" y2="34.3102" gradientUnits="userSpaceOnUse">
<stop stop-color="#FBD03B"/>
<stop offset="1" stop-color="#FA7800"/>
</linearGradient>
<linearGradient id="paint2_linear_289_2" x1="34.7451" y1="22.6033" x2="34.7451" y2="34.3102" gradientUnits="userSpaceOnUse">
<stop stop-color="#FBD03B"/>
<stop offset="1" stop-color="#FA7800"/>
</linearGradient>
<linearGradient id="paint3_linear_289_2" x1="34.7451" y1="22.6033" x2="34.7451" y2="34.3102" gradientUnits="userSpaceOnUse">
<stop stop-color="#FBD03B"/>
<stop offset="1" stop-color="#FA7800"/>
</linearGradient>
<linearGradient id="paint4_linear_289_2" x1="187.812" y1="246.397" x2="187.812" y2="234.69" gradientUnits="userSpaceOnUse">
<stop stop-color="#FBD03B"/>
<stop offset="1" stop-color="#FA7800"/>
</linearGradient>
<linearGradient id="paint5_linear_289_2" x1="187.812" y1="246.397" x2="187.812" y2="234.69" gradientUnits="userSpaceOnUse">
<stop stop-color="#FBD03B"/>
<stop offset="1" stop-color="#FA7800"/>
</linearGradient>
<linearGradient id="paint6_linear_289_2" x1="187.812" y1="246.397" x2="187.812" y2="234.69" gradientUnits="userSpaceOnUse">
<stop stop-color="#FBD03B"/>
<stop offset="1" stop-color="#FA7800"/>
</linearGradient>
<linearGradient id="paint7_linear_289_2" x1="111.5" y1="74" x2="111.5" y2="159" gradientUnits="userSpaceOnUse">
<stop stop-color="#FBD03B"/>
<stop offset="1" stop-color="#FA7800"/>
</linearGradient>
</defs>
</svg>
