<svg width="25" height="25" viewBox="0 0 25 25" fill="none" xmlns="http://www.w3.org/2000/svg">
<path d="M14.5089 22.3214V2.67857C14.5089 1.94196 14.7712 1.31138 15.2958 0.78683C15.8203 0.262277 16.4509 0 17.1875 0H22.3214C23.058 0 23.6886 0.262277 24.2132 0.78683C24.7377 1.31138 25 1.94196 25 2.67857V22.3214C25 23.058 24.7377 23.6886 24.2132 24.2132C23.6886 24.7377 23.058 25 22.3214 25H17.1875C16.4509 25 15.8203 24.7377 15.2958 24.2132C14.7712 23.6886 14.5089 23.058 14.5089 22.3214ZM0 22.3214V2.67857C0 1.94196 0.262277 1.31138 0.78683 0.78683C1.31138 0.262277 1.94196 0 2.67857 0H7.8125C8.54911 0 9.17969 0.262277 9.70424 0.78683C10.2288 1.31138 10.4911 1.94196 10.4911 2.67857V22.3214C10.4911 23.058 10.2288 23.6886 9.70424 24.2132C9.17969 24.7377 8.54911 25 7.8125 25H2.67857C1.94196 25 1.31138 24.7377 0.78683 24.2132C0.262277 23.6886 0 23.058 0 22.3214ZM17.1875 22.3214H22.3214V2.67857H17.1875V22.3214ZM2.67857 22.3214H7.8125V2.67857H2.67857V22.3214Z" fill="#9092A4"/>
</svg>
