<?xml version="1.0" encoding="utf-8"?>

<!-- Uploaded to: SVG Repo, www.svgrepo.com, Generator: SVG Repo Mixer Tools -->
<svg width="60px" height="60px" viewBox="-1.01 0 20.026 20.026" xmlns="http://www.w3.org/2000/svg">
  <g id="user-10" transform="translate(-3 -1.974)">
    <path id="secondary" fill="#2ca9bc" d="M16.66,12.77A5.93,5.93,0,0,0,17.92,8,6,6,0,0,0,6,9a5.94,5.94,0,0,0,1.34,3.77,1,1,0,0,1-.28,1.45A7,7,0,0,0,4,20a1,1,0,0,0,1,1H19a1,1,0,0,0,1-1,7,7,0,0,0-3.06-5.78,1,1,0,0,1-.28-1.45Z"/>
    <path id="primary" d="M16.66,12.77A5.93,5.93,0,0,0,17.92,8,6,6,0,0,0,6,9a5.94,5.94,0,0,0,1.34,3.77,1,1,0,0,1-.28,1.45A7,7,0,0,0,4,20a1,1,0,0,0,1,1H19a1,1,0,0,0,1-1,7,7,0,0,0-3.06-5.78,1,1,0,0,1-.28-1.45Z" fill="none" stroke="#000000" stroke-linecap="round" stroke-linejoin="round" stroke-width="2"/>
  </g>
</svg>
