<svg width="300" height="360" viewBox="0 0 300 360" fill="none" xmlns="http://www.w3.org/2000/svg">
<g clip-path="url(#clip0_648_80)">
<path d="M0 28.749C0 12.8714 16.0772 0 35.9095 0H263.336C283.169 0 299.246 12.8714 299.246 28.749V330.613C299.246 346.491 283.169 359.362 263.336 359.362H35.9095C16.0772 359.362 0 346.491 0 330.613V28.749Z" fill="#282E54"/>
<path d="M26.3535 67.081C26.3535 51.2034 39.2249 38.332 55.1025 38.332H184.473C200.351 38.332 213.222 51.2034 213.222 67.081V292.281C213.222 308.159 200.351 321.03 184.473 321.03H55.1025C39.2249 321.03 26.3535 308.159 26.3535 292.281V67.081Z" fill="#282E54"/>
<path fill-rule="evenodd" clip-rule="evenodd" d="M184.473 40.7278H55.1025C40.548 40.7278 28.7493 52.5265 28.7493 67.081V292.281C28.7493 306.836 40.548 318.635 55.1025 318.635H184.473C199.027 318.635 210.826 306.836 210.826 292.281V67.081C210.826 52.5265 199.027 40.7278 184.473 40.7278ZM55.1025 38.332C39.2249 38.332 26.3535 51.2034 26.3535 67.081V292.281C26.3535 308.159 39.2249 321.03 55.1025 321.03H184.473C200.351 321.03 213.222 308.159 213.222 292.281V67.081C213.222 51.2034 200.351 38.332 184.473 38.332H55.1025Z" fill="url(#paint0_linear_648_80)"/>
<path d="M57.498 103.017C57.498 87.1394 70.3694 74.2681 86.247 74.2681H153.328C169.206 74.2681 182.077 87.1394 182.077 103.017V208.43C182.077 224.308 169.206 237.179 153.328 237.179H86.247C70.3694 237.179 57.498 224.308 57.498 208.43V103.017Z" fill="white"/>
<path d="M23.957 28.7495C23.957 26.1032 26.1023 23.958 28.7485 23.958H62.289C64.9353 23.958 67.0805 26.1032 67.0805 28.7495V45.5197C67.0805 48.166 64.9353 50.3112 62.289 50.3112H28.7485C26.1023 50.3112 23.957 48.166 23.957 45.5197V28.7495Z" fill="#282E54"/>
<path d="M33.8971 45.692C33.2263 45.692 32.4405 45.6345 31.5397 45.5195C31.6355 44.4462 31.7122 43.1142 31.7697 41.5234C31.8272 39.9326 31.8559 38.4664 31.8559 37.1248C31.8559 36.1282 31.8464 35.4094 31.8272 34.9686L28.751 36.9236C28.2336 36.2144 27.7736 35.304 27.3711 34.1924C28.0227 33.8857 28.9235 33.4066 30.0735 32.7549L30.6485 32.4387C31.2618 32.0937 31.8559 31.7008 32.4309 31.26C33.0251 30.8192 33.4371 30.4646 33.6671 30.1963C34.2804 30.1963 34.9896 30.2538 35.7945 30.3688C35.6987 31.3654 35.6221 32.6975 35.5646 34.3649C35.5071 36.0323 35.4783 37.5752 35.4783 38.9935C35.4783 42.5392 35.6316 44.7145 35.9383 45.5195C35.2483 45.6345 34.5679 45.692 33.8971 45.692Z" fill="url(#paint1_linear_648_80)"/>
<path d="M44.9562 45.8357C43.5762 45.8357 42.3496 45.5291 41.2763 44.9158C40.2222 44.2833 39.398 43.4017 38.8039 42.2709C38.2289 41.1209 37.9414 39.808 37.9414 38.3323C37.9414 36.7606 38.296 35.3615 39.0051 34.1349C39.7143 32.8891 40.7013 31.9212 41.9663 31.2313C43.2504 30.5413 44.6974 30.1963 46.3074 30.1963C47.649 30.1963 48.8277 30.5029 49.8435 31.1163C50.8785 31.7296 51.6738 32.592 52.2297 33.7037C52.8046 34.7961 53.0921 36.0707 53.0921 37.5273C53.0921 39.1372 52.7471 40.5747 52.0572 41.8396C51.3672 43.1046 50.3993 44.0916 49.1535 44.8008C47.9269 45.4908 46.5278 45.8357 44.9562 45.8357ZM45.4162 42.8458C46.6044 42.8458 47.5436 42.3859 48.2336 41.4659C48.9427 40.5459 49.2973 39.2906 49.2973 37.6998C49.2973 36.224 48.9906 35.007 48.3773 34.0487C47.764 33.0904 46.9207 32.4962 45.8474 32.2662C45.0616 32.2662 44.3524 32.4962 43.72 32.9562C43.0875 33.397 42.5892 34.0199 42.225 34.8249C41.88 35.6298 41.7075 36.5307 41.7075 37.5273C41.7075 39.1181 42.0429 40.4022 42.7137 41.3796C43.4037 42.3571 44.3045 42.8458 45.4162 42.8458Z" fill="url(#paint2_linear_648_80)"/>
<path d="M60.569 45.692C59.8982 45.692 59.1124 45.6345 58.2116 45.5195C58.3075 44.4462 58.3841 43.1142 58.4416 41.5234C58.4991 39.9326 58.5279 38.4664 58.5279 37.1248C58.5279 36.1282 58.5183 35.4094 58.4991 34.9686L55.423 36.9236C54.9055 36.2144 54.4455 35.304 54.043 34.1924C54.6947 33.8857 55.5955 33.4066 56.7454 32.7549L57.3204 32.4387C57.9337 32.0937 58.5279 31.7008 59.1028 31.26C59.697 30.8192 60.1091 30.4646 60.339 30.1963C60.9524 30.1963 61.6615 30.2538 62.4665 30.3688C62.3706 31.3654 62.294 32.6975 62.2365 34.3649C62.179 36.0323 62.1502 37.5752 62.1502 38.9935C62.1502 42.5392 62.3036 44.7145 62.6102 45.5195C61.9202 45.6345 61.2399 45.692 60.569 45.692Z" fill="url(#paint3_linear_648_80)"/>
<path d="M172.494 330.613C172.494 333.259 174.639 335.404 177.286 335.404H210.826C213.472 335.404 215.618 333.259 215.618 330.613V313.843C215.618 311.196 213.472 309.051 210.826 309.051H177.286C174.639 309.051 172.494 311.196 172.494 313.843V330.613Z" fill="#282E54"/>
<path d="M182.434 313.67C181.763 313.67 180.978 313.728 180.077 313.843C180.173 314.916 180.249 316.248 180.307 317.839C180.364 319.43 180.393 320.896 180.393 322.238C180.393 323.234 180.383 323.953 180.364 324.394L177.288 322.439C176.771 323.148 176.311 324.058 175.908 325.17C176.56 325.477 177.461 325.956 178.611 326.607L179.186 326.924C179.799 327.269 180.393 327.661 180.968 328.102C181.562 328.543 181.974 328.898 182.204 329.166C182.818 329.166 183.527 329.109 184.332 328.994C184.236 327.997 184.159 326.665 184.102 324.997C184.044 323.33 184.015 321.787 184.015 320.369C184.015 316.823 184.169 314.648 184.475 313.843C183.785 313.728 183.105 313.67 182.434 313.67Z" fill="url(#paint4_linear_648_80)"/>
<path d="M193.493 313.527C192.113 313.527 190.887 313.833 189.814 314.447C188.759 315.079 187.935 315.961 187.341 317.091C186.766 318.241 186.479 319.554 186.479 321.03C186.479 322.602 186.833 324.001 187.542 325.227C188.251 326.473 189.239 327.441 190.503 328.131C191.788 328.821 193.235 329.166 194.845 329.166C196.186 329.166 197.365 328.859 198.381 328.246C199.416 327.633 200.211 326.77 200.767 325.659C201.342 324.566 201.629 323.292 201.629 321.835C201.629 320.225 201.284 318.788 200.594 317.523C199.904 316.258 198.937 315.271 197.691 314.562C196.464 313.872 195.065 313.527 193.493 313.527ZM193.953 316.516C195.142 316.516 196.081 316.976 196.771 317.896C197.48 318.816 197.834 320.072 197.834 321.663C197.834 323.138 197.528 324.355 196.915 325.314C196.301 326.272 195.458 326.866 194.385 327.096C193.599 327.096 192.89 326.866 192.257 326.406C191.625 325.965 191.126 325.342 190.762 324.537C190.417 323.732 190.245 322.832 190.245 321.835C190.245 320.244 190.58 318.96 191.251 317.983C191.941 317.005 192.842 316.516 193.953 316.516Z" fill="url(#paint5_linear_648_80)"/>
<path d="M209.106 313.67C208.435 313.67 207.649 313.728 206.748 313.843C206.844 314.916 206.921 316.248 206.978 317.839C207.036 319.43 207.064 320.896 207.064 322.238C207.064 323.234 207.055 323.953 207.036 324.394L203.96 322.439C203.442 323.148 202.982 324.058 202.58 325.17C203.231 325.477 204.132 325.956 205.282 326.607L205.857 326.924C206.47 327.269 207.064 327.661 207.639 328.102C208.234 328.543 208.646 328.898 208.876 329.166C209.489 329.166 210.198 329.109 211.003 328.994C210.907 327.997 210.831 326.665 210.773 324.997C210.716 323.33 210.687 321.787 210.687 320.369C210.687 316.823 210.84 314.648 211.147 313.843C210.457 313.728 209.776 313.67 209.106 313.67Z" fill="url(#paint6_linear_648_80)"/>
<path fill-rule="evenodd" clip-rule="evenodd" d="M276.246 5H23C13.0589 5 5 13.0589 5 23V336.362C5 346.303 13.0589 354.362 23 354.362H276.246C286.187 354.362 294.246 346.303 294.246 336.362V23C294.246 13.0589 286.187 5 276.246 5ZM23 0C10.2975 0 0 10.2975 0 23V336.362C0 349.065 10.2974 359.362 23 359.362H276.246C288.949 359.362 299.246 349.065 299.246 336.362V23C299.246 10.2975 288.949 0 276.246 0H23Z" fill="white"/>
<path d="M110.575 154.349C120.626 149.858 125.652 143.401 125.652 134.979C125.652 130.711 124.424 127.399 121.967 125.041C119.621 122.57 116.327 121.335 112.083 121.335C108.397 121.335 104.935 122.289 101.697 124.198C98.5696 125.995 96.1127 128.466 94.3257 131.61C92.7622 126.893 91.9805 121.84 91.9805 116.45C99.463 111.285 108.062 108.702 117.779 108.702C127.718 108.702 135.256 110.892 140.393 115.271C145.642 119.651 148.267 125.995 148.267 134.305C148.267 139.358 146.759 144.074 143.744 148.454C140.84 152.721 136.821 156.314 131.683 159.235C126.545 162.041 120.794 163.839 114.428 164.624L110.575 154.349ZM116.103 203.366C112.083 198.425 107.169 193.484 101.362 188.543C106.052 183.041 110.966 178.156 116.103 173.888C120.459 179.279 125.317 184.163 130.678 188.543C125.987 194.27 121.129 199.211 116.103 203.366Z" fill="url(#paint7_linear_648_80)"/>
<path d="M229 45.8235C229 40.9505 234.064 37 240.309 37H266.693C272.938 37 278 40.9505 278 45.8235V78.1765C278 83.0495 272.938 87 266.693 87H240.309C234.064 87 229 83.0495 229 78.1765V45.8235Z" fill="white"/>
<path d="M250.771 61.2761C253.89 59.8715 255.45 57.8521 255.45 55.2181C255.45 53.8835 255.069 52.8474 254.307 52.11C253.578 51.3373 252.556 50.9509 251.239 50.9509C250.096 50.9509 249.021 51.2495 248.015 51.8465C247.045 52.4085 246.282 53.181 245.728 54.1644C245.243 52.6895 245 51.109 245 49.4232C247.322 47.8077 249.991 47 253.006 47C256.091 47 258.431 47.6848 260.026 49.0545C261.654 50.4242 262.469 52.4085 262.469 55.0073C262.469 56.5878 262.001 58.0627 261.065 59.4323C260.164 60.7669 258.916 61.8907 257.322 62.8039C255.727 63.6819 253.943 64.2438 251.967 64.4896L250.771 61.2761ZM252.486 76.6059C251.239 75.0607 249.714 73.5154 247.912 71.9702C249.367 70.2493 250.892 68.7216 252.486 67.3871C253.838 69.0727 255.346 70.6005 257.01 71.9702C255.554 73.7612 254.046 75.3065 252.486 76.6059Z" fill="url(#paint8_linear_648_80)"/>
<path d="M229 279.823C229 274.95 234.064 271 240.309 271H266.693C272.938 271 278 274.95 278 279.823V312.177C278 317.05 272.938 321 266.693 321H240.309C234.064 321 229 317.05 229 312.177V279.823Z" fill="white"/>
<path d="M250.771 295.276C253.89 293.871 255.45 291.852 255.45 289.218C255.45 287.884 255.069 286.847 254.307 286.11C253.578 285.337 252.556 284.951 251.239 284.951C250.096 284.951 249.021 285.25 248.015 285.846C247.045 286.408 246.282 287.181 245.728 288.164C245.243 286.689 245 285.109 245 283.423C247.322 281.808 249.991 281 253.006 281C256.091 281 258.431 281.685 260.026 283.055C261.654 284.424 262.469 286.408 262.469 289.007C262.469 290.588 262.001 292.063 261.065 293.432C260.164 294.767 258.916 295.891 257.322 296.804C255.727 297.682 253.943 298.244 251.967 298.49L250.771 295.276ZM252.486 310.606C251.239 309.061 249.714 307.515 247.912 305.97C249.367 304.249 250.892 302.722 252.486 301.387C253.838 303.073 255.346 304.601 257.01 305.97C255.554 307.761 254.046 309.307 252.486 310.606Z" fill="url(#paint9_linear_648_80)"/>
<path d="M229 201.823C229 196.95 234.064 193 240.309 193H266.693C272.938 193 278 196.95 278 201.823V234.177C278 239.05 272.938 243 266.693 243H240.309C234.064 243 229 239.05 229 234.177V201.823Z" fill="white"/>
<path d="M250.771 217.276C253.89 215.871 255.45 213.852 255.45 211.218C255.45 209.884 255.069 208.847 254.307 208.11C253.578 207.337 252.556 206.951 251.239 206.951C250.096 206.951 249.021 207.25 248.015 207.846C247.045 208.408 246.282 209.181 245.728 210.164C245.243 208.689 245 207.109 245 205.423C247.322 203.808 249.991 203 253.006 203C256.091 203 258.431 203.685 260.026 205.055C261.654 206.424 262.469 208.408 262.469 211.007C262.469 212.588 262.001 214.063 261.065 215.432C260.164 216.767 258.916 217.891 257.322 218.804C255.727 219.682 253.943 220.244 251.967 220.49L250.771 217.276ZM252.486 232.606C251.239 231.061 249.714 229.515 247.912 227.97C249.367 226.249 250.892 224.722 252.486 223.387C253.838 225.073 255.346 226.601 257.01 227.97C255.554 229.761 254.046 231.307 252.486 232.606Z" fill="url(#paint10_linear_648_80)"/>
<path d="M229 123.823C229 118.95 234.064 115 240.309 115H266.693C272.938 115 278 118.95 278 123.823V156.177C278 161.05 272.938 165 266.693 165H240.309C234.064 165 229 161.05 229 156.177V123.823Z" fill="white"/>
<path d="M250.771 139.276C253.89 137.871 255.45 135.852 255.45 133.218C255.45 131.884 255.069 130.847 254.307 130.11C253.578 129.337 252.556 128.951 251.239 128.951C250.096 128.951 249.021 129.25 248.015 129.846C247.045 130.408 246.282 131.181 245.728 132.164C245.243 130.689 245 129.109 245 127.423C247.322 125.808 249.991 125 253.006 125C256.091 125 258.431 125.685 260.026 127.055C261.654 128.424 262.469 130.408 262.469 133.007C262.469 134.588 262.001 136.063 261.065 137.432C260.164 138.767 258.916 139.891 257.322 140.804C255.727 141.682 253.943 142.244 251.967 142.49L250.771 139.276ZM252.486 154.606C251.239 153.061 249.714 151.515 247.912 149.97C249.367 148.249 250.892 146.722 252.486 145.387C253.838 147.073 255.346 148.601 257.01 149.97C255.554 151.761 254.046 153.307 252.486 154.606Z" fill="url(#paint11_linear_648_80)"/>
<path d="M78.092 289.516C77.9053 289.684 77.5787 289.824 77.112 289.936C76.6453 290.048 76.16 290.104 75.656 290.104C75.0213 290.104 74.536 290.02 74.2 289.852C73.864 289.684 73.6027 289.395 73.416 288.984L71.344 284.336C71.0267 283.645 70.6907 283.179 70.336 282.936C69.9813 282.693 69.4587 282.572 68.768 282.572H67.312V289.88H63V270.28H69.664C72.1653 270.28 74.088 270.812 75.432 271.876C76.776 272.94 77.448 274.461 77.448 276.44C77.448 277.653 77.1493 278.699 76.552 279.576C75.9733 280.435 75.124 281.088 74.004 281.536C74.508 282.059 74.928 282.693 75.264 283.44L78.092 289.516ZM69.384 279.548C70.6907 279.548 71.6333 279.305 72.212 278.82C72.7907 278.335 73.08 277.541 73.08 276.44C73.08 275.339 72.7907 274.545 72.212 274.06C71.6333 273.556 70.6907 273.304 69.384 273.304H67.312V279.548H69.384Z" fill="white"/>
<path d="M92.6422 289.88C92.3622 287.883 92.0915 286.268 91.8302 285.036H84.2142C83.9528 286.268 83.6822 287.883 83.4022 289.88H79.2022C79.9115 283.104 82.1328 276.571 85.8662 270.28H90.2062C93.9208 276.533 96.1328 283.067 96.8422 289.88H92.6422ZM91.1582 281.956C90.3742 278.876 89.3288 276.048 88.0222 273.472C86.7155 276.048 85.6702 278.876 84.8862 281.956H91.1582Z" fill="white"/>
<path d="M114.907 286.044C114.907 286.623 114.925 287.304 114.963 288.088C115 288.611 115.019 288.956 115.019 289.124C115.019 289.628 114.776 289.88 114.291 289.88H110.651V288.928C110.651 287.995 110.287 286.959 109.559 285.82L103.371 276.3V289.88H99.1145V270.28H102.979C103.221 270.28 103.417 270.317 103.567 270.392C103.735 270.448 103.893 270.597 104.043 270.84L110.651 280.892V270.28H114.907V286.044Z" fill="white"/>
<path d="M125.356 270.28C127.335 270.28 129.043 270.672 130.48 271.456C131.917 272.24 133.019 273.369 133.784 274.844C134.549 276.3 134.932 278.045 134.932 280.08C134.932 282.04 134.531 283.767 133.728 285.26C132.944 286.735 131.833 287.873 130.396 288.676C128.959 289.479 127.279 289.88 125.356 289.88H118.72V270.28H125.356ZM124.796 286.912C126.663 286.912 128.1 286.324 129.108 285.148C130.116 283.953 130.62 282.273 130.62 280.108C130.62 275.535 128.679 273.248 124.796 273.248H123.032V286.912H124.796Z" fill="white"/>
<path d="M145.478 290.16C142.809 290.16 140.727 289.273 139.234 287.5C137.759 285.708 137.022 283.197 137.022 279.968C137.022 276.813 137.759 274.368 139.234 272.632C140.727 270.877 142.809 270 145.478 270C148.147 270 150.219 270.877 151.694 272.632C153.187 274.368 153.934 276.813 153.934 279.968C153.934 283.197 153.187 285.708 151.694 287.5C150.219 289.273 148.147 290.16 145.478 290.16ZM145.478 287.08C146.878 287.08 147.895 286.52 148.53 285.4C149.183 284.261 149.51 282.451 149.51 279.968C149.51 277.541 149.193 275.787 148.558 274.704C147.923 273.621 146.897 273.08 145.478 273.08C144.059 273.08 143.033 273.621 142.398 274.704C141.763 275.787 141.446 277.541 141.446 279.968C141.446 282.451 141.763 284.261 142.398 285.4C143.051 286.52 144.078 287.08 145.478 287.08Z" fill="white"/>
<path d="M174.617 270.28C175.588 273.323 176.279 276.337 176.689 279.324C177.1 282.292 177.296 285.811 177.277 289.88H172.909V288.76C172.909 285.512 172.835 282.88 172.685 280.864C172.536 278.829 172.265 276.795 171.873 274.76C171.108 276.925 170.492 278.82 170.025 280.444C169.559 282.068 169.036 284.187 168.457 286.8H165.041C164.519 284.224 164.033 282.124 163.585 280.5C163.156 278.876 162.559 276.981 161.793 274.816C161.401 276.907 161.121 279.025 160.953 281.172C160.804 283.3 160.701 286.203 160.645 289.88H156.389C156.445 285.736 156.669 282.18 157.061 279.212C157.472 276.244 158.135 273.267 159.049 270.28H163.865C164.761 272.707 165.396 274.536 165.769 275.768C166.143 276.981 166.46 278.297 166.721 279.716C167.057 278.297 167.421 276.972 167.813 275.74C168.224 274.508 168.887 272.688 169.801 270.28H174.617Z" fill="white"/>
</g>
<defs>
<linearGradient id="paint0_linear_648_80" x1="119.788" y1="38.332" x2="119.788" y2="321.03" gradientUnits="userSpaceOnUse">
<stop stop-color="#FBD03B"/>
<stop offset="1" stop-color="#FA7800"/>
</linearGradient>
<linearGradient id="paint1_linear_648_80" x1="44.9904" y1="30.1963" x2="44.9904" y2="45.8357" gradientUnits="userSpaceOnUse">
<stop stop-color="#FBD03B"/>
<stop offset="1" stop-color="#FA7800"/>
</linearGradient>
<linearGradient id="paint2_linear_648_80" x1="44.9903" y1="30.1963" x2="44.9903" y2="45.8357" gradientUnits="userSpaceOnUse">
<stop stop-color="#FBD03B"/>
<stop offset="1" stop-color="#FA7800"/>
</linearGradient>
<linearGradient id="paint3_linear_648_80" x1="44.9909" y1="30.1963" x2="44.9909" y2="45.8357" gradientUnits="userSpaceOnUse">
<stop stop-color="#FBD03B"/>
<stop offset="1" stop-color="#FA7800"/>
</linearGradient>
<linearGradient id="paint4_linear_648_80" x1="193.528" y1="329.166" x2="193.528" y2="313.527" gradientUnits="userSpaceOnUse">
<stop stop-color="#FBD03B"/>
<stop offset="1" stop-color="#FA7800"/>
</linearGradient>
<linearGradient id="paint5_linear_648_80" x1="193.528" y1="329.166" x2="193.528" y2="313.527" gradientUnits="userSpaceOnUse">
<stop stop-color="#FBD03B"/>
<stop offset="1" stop-color="#FA7800"/>
</linearGradient>
<linearGradient id="paint6_linear_648_80" x1="193.528" y1="329.166" x2="193.528" y2="313.527" gradientUnits="userSpaceOnUse">
<stop stop-color="#FBD03B"/>
<stop offset="1" stop-color="#FA7800"/>
</linearGradient>
<linearGradient id="paint7_linear_648_80" x1="120.124" y1="108.702" x2="120.124" y2="203.366" gradientUnits="userSpaceOnUse">
<stop stop-color="#FBD03B"/>
<stop offset="1" stop-color="#FA7800"/>
</linearGradient>
<linearGradient id="paint8_linear_648_80" x1="253.734" y1="47" x2="253.734" y2="76.6059" gradientUnits="userSpaceOnUse">
<stop stop-color="#FBD03B"/>
<stop offset="1" stop-color="#FA7800"/>
</linearGradient>
<linearGradient id="paint9_linear_648_80" x1="253.734" y1="281" x2="253.734" y2="310.606" gradientUnits="userSpaceOnUse">
<stop stop-color="#FBD03B"/>
<stop offset="1" stop-color="#FA7800"/>
</linearGradient>
<linearGradient id="paint10_linear_648_80" x1="253.734" y1="203" x2="253.734" y2="232.606" gradientUnits="userSpaceOnUse">
<stop stop-color="#FBD03B"/>
<stop offset="1" stop-color="#FA7800"/>
</linearGradient>
<linearGradient id="paint11_linear_648_80" x1="253.734" y1="125" x2="253.734" y2="154.606" gradientUnits="userSpaceOnUse">
<stop stop-color="#FBD03B"/>
<stop offset="1" stop-color="#FA7800"/>
</linearGradient>
<clipPath id="clip0_648_80">
<rect width="300" height="360" fill="white"/>
</clipPath>
</defs>
</svg>
