<svg width="224" height="269" viewBox="0 0 224 269" fill="none" xmlns="http://www.w3.org/2000/svg">
<path d="M0 21.52C0 9.63483 12.0346 0 26.88 0H197.12C211.965 0 224 9.63483 224 21.52V247.48C224 259.365 211.965 269 197.12 269H26.88C12.0346 269 0 259.365 0 247.48V21.52Z" fill="#282E54"/>
<path fill-rule="evenodd" clip-rule="evenodd" d="M197.12 5H26.88C13.701 5 5 13.3767 5 21.52V247.48C5 255.623 13.701 264 26.88 264H197.12C210.299 264 219 255.623 219 247.48V21.52C219 13.3767 210.299 5 197.12 5ZM26.88 0C12.0346 0 0 9.63483 0 21.52V247.48C0 259.365 12.0346 269 26.88 269H197.12C211.965 269 224 259.365 224 247.48V21.52C224 9.63483 211.965 0 197.12 0H26.88Z" fill="white"/>
<path d="M19.7266 50.2134C19.7266 38.3282 29.3614 28.6934 41.2466 28.6934H138.087C149.972 28.6934 159.607 38.3282 159.607 50.2134V218.787C159.607 230.672 149.972 240.307 138.087 240.307H41.2466C29.3614 240.307 19.7266 230.672 19.7266 218.787V50.2134Z" fill="#282E54"/>
<path fill-rule="evenodd" clip-rule="evenodd" d="M138.087 30.4867H41.2466C30.3518 30.4867 21.5199 39.3186 21.5199 50.2134V218.787C21.5199 229.681 30.3518 238.513 41.2466 238.513H138.087C148.981 238.513 157.813 229.681 157.813 218.787V50.2134C157.813 39.3186 148.981 30.4867 138.087 30.4867ZM41.2466 28.6934C29.3614 28.6934 19.7266 38.3282 19.7266 50.2134V218.787C19.7266 230.672 29.3614 240.307 41.2466 240.307H138.087C149.972 240.307 159.607 230.672 159.607 218.787V50.2134C159.607 38.3282 149.972 28.6934 138.087 28.6934H41.2466Z" fill="url(#paint0_linear_347_281)"/>
<path d="M43 77.52C43 65.6348 52.6348 56 64.52 56H114.733C126.618 56 136.253 65.6348 136.253 77.52V156.427C136.253 168.312 126.618 177.947 114.733 177.947H64.52C52.6348 177.947 43 168.312 43 156.427V77.52Z" fill="white"/>
<path d="M17.9336 21.5203C17.9336 19.5394 19.5394 17.9336 21.5203 17.9336H46.6269C48.6078 17.9336 50.2136 19.5394 50.2136 21.5203V34.0736C50.2136 36.0545 48.6078 37.6603 46.6269 37.6603H21.5203C19.5394 37.6603 17.9336 36.0545 17.9336 34.0736V21.5203Z" fill="#282E54"/>
<path d="M25.3753 34.2028C24.8731 34.2028 24.2849 34.1598 23.6106 34.0737C23.6824 33.2703 23.7398 32.2732 23.7828 31.0824C23.8258 29.8916 23.8474 28.7941 23.8474 27.7898C23.8474 27.0438 23.8402 26.5058 23.8258 26.1758L21.5232 27.6392C21.1358 27.1084 20.7915 26.4269 20.4902 25.5948C20.978 25.3652 21.6523 25.0066 22.5131 24.5188L22.9435 24.2821C23.4026 24.0238 23.8474 23.7297 24.2778 23.3998C24.7225 23.0698 25.031 22.8044 25.2031 22.6035C25.6622 22.6035 26.193 22.6466 26.7956 22.7326C26.7239 23.4787 26.6665 24.4758 26.6234 25.7239C26.5804 26.9721 26.5589 28.127 26.5589 29.1886C26.5589 31.8428 26.6736 33.4711 26.9032 34.0737C26.3867 34.1598 25.8774 34.2028 25.3753 34.2028Z" fill="url(#paint1_linear_347_281)"/>
<path d="M33.6536 34.3104C32.6206 34.3104 31.7024 34.0809 30.899 33.6218C30.11 33.1483 29.493 32.4884 29.0483 31.6419C28.6179 30.7811 28.4027 29.7984 28.4027 28.6937C28.4027 27.5172 28.6681 26.4699 29.1989 25.5518C29.7298 24.6192 30.4686 23.8947 31.4155 23.3782C32.3767 22.8618 33.4599 22.6035 34.665 22.6035C35.6693 22.6035 36.5516 22.8331 37.312 23.2922C38.0867 23.7512 38.6821 24.3968 39.0981 25.229C39.5285 26.0467 39.7437 27.0008 39.7437 28.0911C39.7437 29.2962 39.4855 30.3722 38.969 31.3191C38.4525 32.266 37.728 33.0049 36.7955 33.5357C35.8773 34.0522 34.83 34.3104 33.6536 34.3104ZM33.9979 32.0723C34.8874 32.0723 35.5904 31.728 36.1069 31.0394C36.6377 30.3507 36.9031 29.411 36.9031 28.2202C36.9031 27.1155 36.6736 26.2045 36.2145 25.4872C35.7554 24.7699 35.1241 24.3251 34.3207 24.153C33.7325 24.153 33.2017 24.3251 32.7282 24.6694C32.2548 24.9994 31.8818 25.4657 31.6092 26.0682C31.3509 26.6708 31.2218 27.3451 31.2218 28.0911C31.2218 29.2819 31.4729 30.2431 31.975 30.9748C32.4915 31.7065 33.1658 32.0723 33.9979 32.0723Z" fill="url(#paint2_linear_347_281)"/>
<path d="M45.3401 34.2028C44.838 34.2028 44.2498 34.1598 43.5755 34.0737C43.6472 33.2703 43.7046 32.2732 43.7476 31.0824C43.7907 29.8916 43.8122 28.7941 43.8122 27.7898C43.8122 27.0438 43.805 26.5058 43.7907 26.1758L41.488 27.6392C41.1007 27.1084 40.7564 26.4269 40.4551 25.5948C40.9429 25.3652 41.6172 25.0066 42.478 24.5188L42.9084 24.2821C43.3675 24.0238 43.8122 23.7297 44.2426 23.3998C44.6873 23.0698 44.9958 22.8044 45.168 22.6035C45.6271 22.6035 46.1579 22.6466 46.7604 22.7326C46.6887 23.4787 46.6313 24.4758 46.5883 25.7239C46.5452 26.9721 46.5237 28.127 46.5237 29.1886C46.5237 31.8428 46.6385 33.4711 46.868 34.0737C46.3516 34.1598 45.8423 34.2028 45.3401 34.2028Z" fill="url(#paint3_linear_347_281)"/>
<path d="M129.12 247.48C129.12 249.461 130.726 251.066 132.707 251.066H157.813C159.794 251.066 161.4 249.461 161.4 247.48V234.926C161.4 232.946 159.794 231.34 157.813 231.34H132.707C130.726 231.34 129.12 232.946 129.12 234.926V247.48Z" fill="#282E54"/>
<path d="M136.561 234.797C136.059 234.797 135.47 234.84 134.796 234.926C134.868 235.73 134.925 236.727 134.968 237.918C135.011 239.108 135.033 240.206 135.033 241.21C135.033 241.956 135.026 242.494 135.011 242.824L132.709 241.361C132.321 241.892 131.977 242.573 131.676 243.405C132.164 243.635 132.838 243.993 133.699 244.481L134.129 244.718C134.588 244.976 135.033 245.27 135.463 245.6C135.908 245.93 136.217 246.196 136.389 246.396C136.848 246.396 137.379 246.353 137.981 246.267C137.909 245.521 137.852 244.524 137.809 243.276C137.766 242.028 137.744 240.873 137.744 239.811C137.744 237.157 137.859 235.529 138.089 234.926C137.572 234.84 137.063 234.797 136.561 234.797Z" fill="url(#paint4_linear_347_281)"/>
<path d="M144.839 234.69C143.806 234.69 142.888 234.919 142.085 235.378C141.296 235.852 140.679 236.512 140.234 237.358C139.803 238.219 139.588 239.202 139.588 240.306C139.588 241.483 139.854 242.53 140.384 243.448C140.915 244.381 141.654 245.105 142.601 245.622C143.562 246.138 144.645 246.396 145.851 246.396C146.855 246.396 147.737 246.167 148.498 245.708C149.272 245.249 149.868 244.603 150.284 243.771C150.714 242.953 150.929 241.999 150.929 240.909C150.929 239.704 150.671 238.628 150.155 237.681C149.638 236.734 148.914 235.995 147.981 235.464C147.063 234.948 146.016 234.69 144.839 234.69ZM145.183 236.928C146.073 236.928 146.776 237.272 147.292 237.961C147.823 238.649 148.089 239.589 148.089 240.78C148.089 241.884 147.859 242.795 147.4 243.513C146.941 244.23 146.31 244.675 145.506 244.847C144.918 244.847 144.387 244.675 143.914 244.331C143.44 244.001 143.067 243.534 142.795 242.932C142.536 242.329 142.407 241.655 142.407 240.909C142.407 239.718 142.658 238.757 143.161 238.025C143.677 237.294 144.351 236.928 145.183 236.928Z" fill="url(#paint5_linear_347_281)"/>
<path d="M156.526 234.797C156.024 234.797 155.435 234.84 154.761 234.926C154.833 235.73 154.89 236.727 154.933 237.918C154.976 239.108 154.998 240.206 154.998 241.21C154.998 241.956 154.991 242.494 154.976 242.824L152.674 241.361C152.286 241.892 151.942 242.573 151.641 243.405C152.128 243.635 152.803 243.993 153.664 244.481L154.094 244.718C154.553 244.976 154.998 245.27 155.428 245.6C155.873 245.93 156.181 246.196 156.354 246.396C156.813 246.396 157.343 246.353 157.946 246.267C157.874 245.521 157.817 244.524 157.774 243.276C157.731 242.028 157.709 240.873 157.709 239.811C157.709 237.157 157.824 235.529 158.054 234.926C157.537 234.84 157.028 234.797 156.526 234.797Z" fill="url(#paint6_linear_347_281)"/>
<path d="M176.524 28.0493C176.524 24.7084 179.233 22 182.574 22H196.689C200.03 22 202.738 24.7084 202.738 28.0493V50.2302C202.738 53.5711 200.03 56.2795 196.689 56.2795H182.574C179.233 56.2795 176.524 53.5711 176.524 50.2302V28.0493Z" fill="white"/>
<path d="M176.525 148.049C176.525 144.708 179.234 142 182.575 142H196.69C200.031 142 202.739 144.708 202.739 148.049V170.23C202.739 173.571 200.031 176.28 196.69 176.28H182.575C179.234 176.28 176.525 173.571 176.525 170.23V148.049Z" fill="white"/>
<path d="M176.524 88.0493C176.524 84.7084 179.233 82 182.574 82H196.689C200.03 82 202.738 84.7084 202.738 88.0493V110.23C202.738 113.571 200.03 116.279 196.689 116.279H182.574C179.233 116.279 176.524 113.571 176.524 110.23V88.0493Z" fill="white"/>
<path d="M176.525 208.049C176.525 204.708 179.234 202 182.575 202H196.69C200.031 202 202.739 204.708 202.739 208.049V230.23C202.739 233.571 200.031 236.28 196.69 236.28H182.575C179.234 236.28 176.525 233.571 176.525 230.23V208.049Z" fill="white"/>
<path d="M82.5357 115.683C90.3929 112.172 94.3214 107.125 94.3214 100.541C94.3214 97.2052 93.3611 94.6157 91.4405 92.7722C89.6071 90.841 87.0317 89.8754 83.7143 89.8754C80.8333 89.8754 78.127 90.6216 75.5952 92.1139C73.1508 93.5184 71.2302 95.4496 69.8333 97.9075C68.6111 94.2206 68 90.2705 68 86.0569C73.8492 82.019 80.5714 80 88.1667 80C95.9365 80 101.829 81.7117 105.845 85.1352C109.948 88.5587 112 93.5184 112 100.014C112 103.964 110.821 107.651 108.464 111.075C106.194 114.41 103.052 117.219 99.0357 119.502C95.0198 121.696 90.5238 123.101 85.5476 123.715L82.5357 115.683ZM86.8571 154C83.7143 150.138 79.873 146.275 75.3333 142.413C79 138.112 82.8413 134.293 86.8571 130.957C90.2619 135.171 94.0595 138.989 98.25 142.413C94.5833 146.89 90.7857 150.752 86.8571 154Z" fill="url(#paint7_linear_347_281)"/>
<path d="M187.295 38.6085C189.616 37.5647 190.777 36.0641 190.777 34.1068C190.777 33.1151 190.493 32.3452 189.926 31.7972C189.384 31.223 188.623 30.9359 187.643 30.9359C186.792 30.9359 185.992 31.1578 185.244 31.6014C184.522 32.019 183.954 32.5931 183.542 33.3238C183.181 32.2278 183 31.0534 183 29.8007C184.728 28.6002 186.714 28 188.958 28C191.254 28 192.995 28.5089 194.182 29.5267C195.394 30.5445 196 32.019 196 33.9502C196 35.1246 195.652 36.2206 194.955 37.2384C194.285 38.2301 193.356 39.0652 192.17 39.7438C190.983 40.3962 189.655 40.8138 188.185 40.9964L187.295 38.6085ZM188.571 50C187.643 48.8517 186.508 47.7034 185.167 46.5552C186.25 45.2764 187.385 44.1412 188.571 43.1495C189.577 44.4021 190.699 45.5374 191.938 46.5552C190.854 47.8861 189.732 49.0344 188.571 50Z" fill="url(#paint8_linear_347_281)"/>
<path d="M187.295 98.6085C189.616 97.5647 190.777 96.0641 190.777 94.1068C190.777 93.1151 190.493 92.3452 189.926 91.7972C189.384 91.223 188.623 90.9359 187.643 90.9359C186.792 90.9359 185.992 91.1578 185.244 91.6014C184.522 92.019 183.954 92.5931 183.542 93.3238C183.181 92.2278 183 91.0534 183 89.8007C184.728 88.6002 186.714 88 188.958 88C191.254 88 192.995 88.5089 194.182 89.5267C195.394 90.5445 196 92.019 196 93.9502C196 95.1246 195.652 96.2206 194.955 97.2384C194.285 98.2301 193.356 99.0652 192.17 99.7438C190.983 100.396 189.655 100.814 188.185 100.996L187.295 98.6085ZM188.571 110C187.643 108.852 186.508 107.703 185.167 106.555C186.25 105.276 187.385 104.141 188.571 103.149C189.577 104.402 190.699 105.537 191.938 106.555C190.854 107.886 189.732 109.034 188.571 110Z" fill="url(#paint9_linear_347_281)"/>
<path d="M187.295 158.609C189.616 157.565 190.777 156.064 190.777 154.107C190.777 153.115 190.493 152.345 189.926 151.797C189.384 151.223 188.623 150.936 187.643 150.936C186.792 150.936 185.992 151.158 185.244 151.601C184.522 152.019 183.954 152.593 183.542 153.324C183.181 152.228 183 151.053 183 149.801C184.728 148.6 186.714 148 188.958 148C191.254 148 192.995 148.509 194.182 149.527C195.394 150.544 196 152.019 196 153.95C196 155.125 195.652 156.221 194.955 157.238C194.285 158.23 193.356 159.065 192.17 159.744C190.983 160.396 189.655 160.814 188.185 160.996L187.295 158.609ZM188.571 170C187.643 168.852 186.508 167.703 185.167 166.555C186.25 165.276 187.385 164.141 188.571 163.149C189.577 164.402 190.699 165.537 191.938 166.555C190.854 167.886 189.732 169.034 188.571 170Z" fill="url(#paint10_linear_347_281)"/>
<path d="M187.295 218.609C189.616 217.565 190.777 216.064 190.777 214.107C190.777 213.115 190.493 212.345 189.926 211.797C189.384 211.223 188.623 210.936 187.643 210.936C186.792 210.936 185.992 211.158 185.244 211.601C184.522 212.019 183.954 212.593 183.542 213.324C183.181 212.228 183 211.053 183 209.801C184.728 208.6 186.714 208 188.958 208C191.254 208 192.995 208.509 194.182 209.527C195.394 210.544 196 212.019 196 213.95C196 215.125 195.652 216.221 194.955 217.238C194.285 218.23 193.356 219.065 192.17 219.744C190.983 220.396 189.655 220.814 188.185 220.996L187.295 218.609ZM188.571 230C187.643 228.852 186.508 227.703 185.167 226.555C186.25 225.276 187.385 224.141 188.571 223.149C189.577 224.402 190.699 225.537 191.938 226.555C190.854 227.886 189.732 229.034 188.571 230Z" fill="url(#paint11_linear_347_281)"/>
<path d="M37.96 215.192C37.192 215.192 36.328 215.128 35.368 215C35.4747 213.955 35.56 212.536 35.624 210.744C35.688 208.931 35.72 207.235 35.72 205.656C35.72 201.987 35.5493 199.715 35.208 198.84C35.9333 198.584 36.904 198.381 38.12 198.232C39.3573 198.061 40.6053 197.976 41.864 197.976C44.168 197.976 45.928 198.467 47.144 199.448C48.3813 200.408 49 201.795 49 203.608C49 204.632 48.7227 205.549 48.168 206.36C47.6133 207.171 46.8347 207.832 45.832 208.344C47.4533 211.565 48.7867 213.624 49.832 214.52C48.424 214.968 46.728 215.192 44.744 215.192C44.1467 213.763 43.1653 211.779 41.8 209.24C40.9893 209.24 40.296 209.197 39.72 209.112C39.784 212.248 39.9547 214.211 40.232 215C39.5067 215.128 38.7493 215.192 37.96 215.192ZM42.728 206.968C43.3253 206.627 43.7947 206.2 44.136 205.688C44.4987 205.155 44.68 204.547 44.68 203.864C44.68 201.752 43.5173 200.696 41.192 200.696C40.7013 200.696 40.2747 200.739 39.912 200.824C39.8267 202.381 39.7627 204.227 39.72 206.36C40.9787 206.765 41.9813 206.968 42.728 206.968Z" fill="white"/>
<path d="M65.0825 215.16C64.3785 215.16 63.6105 215.085 62.7785 214.936L62.4265 213.912L61.4025 211.064C60.2505 211 59.0238 210.968 57.7225 210.968C56.3145 210.968 55.3118 211.011 54.7145 211.096C54.1598 212.525 53.7012 213.805 53.3385 214.936C52.8265 215.064 52.3678 215.128 51.9625 215.128C51.4292 215.128 50.8852 215.064 50.3305 214.936C50.9278 213.869 51.9838 211.352 53.4985 207.384C55.0132 203.416 56.1438 200.312 56.8905 198.072C57.7438 197.965 58.4585 197.912 59.0345 197.912C59.6532 197.912 60.3145 197.965 61.0185 198.072C61.7652 200.312 62.8958 203.416 64.4105 207.384C65.9252 211.352 66.9812 213.869 67.5785 214.936C66.8105 215.085 65.9785 215.16 65.0825 215.16ZM58.9385 208.568C59.3438 208.568 59.8452 208.547 60.4425 208.504C59.5465 205.987 58.7465 203.907 58.0425 202.264C57.1252 204.589 56.3358 206.659 55.6745 208.472C56.6985 208.536 57.7865 208.568 58.9385 208.568Z" fill="white"/>
<path d="M70.872 215.192C70.4027 215.192 69.8267 215.128 69.144 215C69.3147 212.824 69.4 209.709 69.4 205.656C69.4 201.688 69.2827 199.181 69.048 198.136C69.6027 198.008 70.36 197.944 71.32 197.944C72.024 197.944 72.9093 198.008 73.976 198.136C74.6373 199.437 75.6293 201.272 76.952 203.64C78.296 206.008 79.5867 208.227 80.824 210.296C80.8667 208.163 80.888 206.531 80.888 205.4C80.888 201.432 80.7707 199.011 80.536 198.136C81.0053 198.008 81.4747 197.944 81.944 197.944C82.456 197.944 83.0427 198.008 83.704 198.136C83.5333 200.867 83.448 203.981 83.448 207.48C83.448 211.448 83.5653 213.955 83.8 215C83.0533 215.128 82.296 215.192 81.528 215.192C80.696 215.192 79.8 215.128 78.84 215C78.2213 213.741 77.2507 211.949 75.928 209.624C74.6053 207.277 73.2933 205.016 71.992 202.84C71.9493 204.973 71.928 206.605 71.928 207.736C71.928 211.576 72.0453 213.997 72.28 215C71.832 215.128 71.3627 215.192 70.872 215.192Z" fill="white"/>
<path d="M93.0128 215.192C91.9674 215.192 90.8794 215.139 89.7488 215.032C88.6181 214.947 87.6474 214.829 86.8368 214.68C86.9434 213.656 87.0288 212.259 87.0928 210.488C87.1568 208.696 87.1888 207 87.1888 205.4C87.1888 201.859 87.0181 199.672 86.6768 198.84C87.4448 198.584 88.4688 198.381 89.7488 198.232C91.0288 198.061 92.3301 197.976 93.6528 197.976C96.6394 197.976 98.9328 198.712 100.533 200.184C102.133 201.656 102.933 203.757 102.933 206.488C102.933 208.195 102.517 209.709 101.685 211.032C100.853 212.333 99.6794 213.357 98.1648 214.104C96.6714 214.829 94.9541 215.192 93.0128 215.192ZM94.5168 212.92C95.2634 212.792 95.9461 212.44 96.5648 211.864C97.2048 211.267 97.7061 210.541 98.0688 209.688C98.4314 208.835 98.6128 207.96 98.6128 207.064C98.6128 202.819 96.7354 200.696 92.9808 200.696C92.3834 200.696 91.8501 200.771 91.3808 200.92C91.2528 202.904 91.1888 205.176 91.1888 207.736C91.1888 209.592 91.2208 211.117 91.2848 212.312C92.6288 212.717 93.7061 212.92 94.5168 212.92Z" fill="white"/>
<path d="M112.849 215.416C111.292 215.416 109.916 215.075 108.721 214.392C107.527 213.688 106.599 212.717 105.937 211.48C105.276 210.243 104.945 208.813 104.945 207.192C104.945 205.379 105.34 203.768 106.129 202.36C106.919 200.952 108.017 199.853 109.425 199.064C110.855 198.275 112.476 197.88 114.289 197.88C115.911 197.88 117.329 198.232 118.545 198.936C119.783 199.64 120.743 200.632 121.425 201.912C122.108 203.171 122.449 204.632 122.449 206.296C122.449 208.067 122.044 209.645 121.233 211.032C120.423 212.397 119.281 213.475 117.809 214.264C116.359 215.032 114.705 215.416 112.849 215.416ZM113.585 213.112C114.972 213.112 116.071 212.632 116.881 211.672C117.713 210.691 118.129 209.379 118.129 207.736C118.129 206.157 117.767 204.803 117.041 203.672C116.316 202.541 115.345 201.827 114.129 201.528C113.212 201.528 112.38 201.784 111.633 202.296C110.887 202.787 110.3 203.48 109.873 204.376C109.468 205.272 109.265 206.285 109.265 207.416C109.265 209.123 109.66 210.499 110.449 211.544C111.239 212.589 112.284 213.112 113.585 213.112Z" fill="white"/>
<path d="M126.652 215.192C126.225 215.192 125.734 215.128 125.18 215C125.35 212.824 125.436 209.709 125.436 205.656C125.436 202.456 125.308 199.949 125.052 198.136C125.756 198.008 126.481 197.944 127.228 197.944C128.06 197.944 128.892 198.008 129.724 198.136C130.214 199.331 130.961 201.048 131.964 203.288C132.988 205.528 133.916 207.501 134.748 209.208C135.58 207.459 136.497 205.485 137.5 203.288C138.502 201.069 139.26 199.352 139.772 198.136C140.369 198.008 141.126 197.944 142.044 197.944C142.79 197.944 143.665 198.008 144.668 198.136C144.561 199.203 144.476 200.664 144.412 202.52C144.348 204.355 144.316 206.093 144.316 207.736C144.316 211.64 144.486 214.061 144.828 215C143.996 215.128 143.153 215.192 142.3 215.192C141.617 215.192 140.828 215.128 139.932 215C140.038 213.933 140.124 212.483 140.188 210.648C140.252 208.792 140.284 207.043 140.284 205.4C140.284 204.248 140.273 203.437 140.252 202.968C139.334 204.867 138.332 207 137.244 209.368C136.177 211.715 135.345 213.592 134.748 215C134.385 215.107 134.076 215.16 133.82 215.16C133.585 215.16 133.286 215.107 132.924 215C131.964 212.675 130.321 209.069 127.996 204.184C127.974 204.973 127.964 206.157 127.964 207.736C127.964 211.576 128.081 213.997 128.316 215C127.782 215.128 127.228 215.192 126.652 215.192Z" fill="white"/>
<path d="M185.504 64.2398C186.104 63.9731 186.404 63.5898 186.404 63.0898C186.404 62.8365 186.33 62.6398 186.184 62.4998C186.044 62.3531 185.847 62.2798 185.594 62.2798C185.374 62.2798 185.167 62.3365 184.974 62.4498C184.787 62.5565 184.64 62.7031 184.534 62.8898C184.44 62.6098 184.394 62.3098 184.394 61.9898C184.84 61.6831 185.354 61.5298 185.934 61.5298C186.527 61.5298 186.977 61.6598 187.284 61.9198C187.597 62.1798 187.754 62.5565 187.754 63.0498C187.754 63.3498 187.664 63.6298 187.484 63.8898C187.31 64.1431 187.07 64.3565 186.764 64.5298C186.457 64.6965 186.114 64.8031 185.734 64.8498L185.504 64.2398ZM185.834 67.1498C185.594 66.8565 185.3 66.5631 184.954 66.2698C185.234 65.9431 185.527 65.6531 185.834 65.3998C186.094 65.7198 186.384 66.0098 186.704 66.2698C186.424 66.6098 186.134 66.9031 185.834 67.1498Z" fill="white"/>
<path d="M189.341 64.2398C189.941 63.9731 190.241 63.5898 190.241 63.0898C190.241 62.8365 190.168 62.6398 190.021 62.4998C189.881 62.3531 189.685 62.2798 189.431 62.2798C189.211 62.2798 189.005 62.3365 188.811 62.4498C188.625 62.5565 188.478 62.7031 188.371 62.8898C188.278 62.6098 188.231 62.3098 188.231 61.9898C188.678 61.6831 189.191 61.5298 189.771 61.5298C190.365 61.5298 190.815 61.6598 191.121 61.9198C191.435 62.1798 191.591 62.5565 191.591 63.0498C191.591 63.3498 191.501 63.6298 191.321 63.8898C191.148 64.1431 190.908 64.3565 190.601 64.5298C190.295 64.6965 189.951 64.8031 189.571 64.8498L189.341 64.2398ZM189.671 67.1498C189.431 66.8565 189.138 66.5631 188.791 66.2698C189.071 65.9431 189.365 65.6531 189.671 65.3998C189.931 65.7198 190.221 66.0098 190.541 66.2698C190.261 66.6098 189.971 66.9031 189.671 67.1498Z" fill="white"/>
<path d="M193.179 64.2398C193.779 63.9731 194.079 63.5898 194.079 63.0898C194.079 62.8365 194.006 62.6398 193.859 62.4998C193.719 62.3531 193.523 62.2798 193.269 62.2798C193.049 62.2798 192.843 62.3365 192.649 62.4498C192.463 62.5565 192.316 62.7031 192.209 62.8898C192.116 62.6098 192.069 62.3098 192.069 61.9898C192.516 61.6831 193.029 61.5298 193.609 61.5298C194.203 61.5298 194.653 61.6598 194.959 61.9198C195.273 62.1798 195.429 62.5565 195.429 63.0498C195.429 63.3498 195.339 63.6298 195.159 63.8898C194.986 64.1431 194.746 64.3565 194.439 64.5298C194.133 64.6965 193.789 64.8031 193.409 64.8498L193.179 64.2398ZM193.509 67.1498C193.269 66.8565 192.976 66.5631 192.629 66.2698C192.909 65.9431 193.203 65.6531 193.509 65.3998C193.769 65.7198 194.059 66.0098 194.379 66.2698C194.099 66.6098 193.809 66.9031 193.509 67.1498Z" fill="white"/>
<path d="M185.504 124.24C186.104 123.973 186.404 123.59 186.404 123.09C186.404 122.836 186.33 122.64 186.184 122.5C186.044 122.353 185.847 122.28 185.594 122.28C185.374 122.28 185.167 122.336 184.974 122.45C184.787 122.556 184.64 122.703 184.534 122.89C184.44 122.61 184.394 122.31 184.394 121.99C184.84 121.683 185.354 121.53 185.934 121.53C186.527 121.53 186.977 121.66 187.284 121.92C187.597 122.18 187.754 122.556 187.754 123.05C187.754 123.35 187.664 123.63 187.484 123.89C187.31 124.143 187.07 124.356 186.764 124.53C186.457 124.696 186.114 124.803 185.734 124.85L185.504 124.24ZM185.834 127.15C185.594 126.856 185.3 126.563 184.954 126.27C185.234 125.943 185.527 125.653 185.834 125.4C186.094 125.72 186.384 126.01 186.704 126.27C186.424 126.61 186.134 126.903 185.834 127.15Z" fill="white"/>
<path d="M189.341 124.24C189.941 123.973 190.241 123.59 190.241 123.09C190.241 122.836 190.168 122.64 190.021 122.5C189.881 122.353 189.685 122.28 189.431 122.28C189.211 122.28 189.005 122.336 188.811 122.45C188.625 122.556 188.478 122.703 188.371 122.89C188.278 122.61 188.231 122.31 188.231 121.99C188.678 121.683 189.191 121.53 189.771 121.53C190.365 121.53 190.815 121.66 191.121 121.92C191.435 122.18 191.591 122.556 191.591 123.05C191.591 123.35 191.501 123.63 191.321 123.89C191.148 124.143 190.908 124.356 190.601 124.53C190.295 124.696 189.951 124.803 189.571 124.85L189.341 124.24ZM189.671 127.15C189.431 126.856 189.138 126.563 188.791 126.27C189.071 125.943 189.365 125.653 189.671 125.4C189.931 125.72 190.221 126.01 190.541 126.27C190.261 126.61 189.971 126.903 189.671 127.15Z" fill="white"/>
<path d="M193.179 124.24C193.779 123.973 194.079 123.59 194.079 123.09C194.079 122.836 194.006 122.64 193.859 122.5C193.719 122.353 193.523 122.28 193.269 122.28C193.049 122.28 192.843 122.336 192.649 122.45C192.463 122.556 192.316 122.703 192.209 122.89C192.116 122.61 192.069 122.31 192.069 121.99C192.516 121.683 193.029 121.53 193.609 121.53C194.203 121.53 194.653 121.66 194.959 121.92C195.273 122.18 195.429 122.556 195.429 123.05C195.429 123.35 195.339 123.63 195.159 123.89C194.986 124.143 194.746 124.356 194.439 124.53C194.133 124.696 193.789 124.803 193.409 124.85L193.179 124.24ZM193.509 127.15C193.269 126.856 192.976 126.563 192.629 126.27C192.909 125.943 193.203 125.653 193.509 125.4C193.769 125.72 194.059 126.01 194.379 126.27C194.099 126.61 193.809 126.903 193.509 127.15Z" fill="white"/>
<path d="M185.504 184.24C186.104 183.973 186.404 183.59 186.404 183.09C186.404 182.836 186.33 182.64 186.184 182.5C186.044 182.353 185.847 182.28 185.594 182.28C185.374 182.28 185.167 182.336 184.974 182.45C184.787 182.556 184.64 182.703 184.534 182.89C184.44 182.61 184.394 182.31 184.394 181.99C184.84 181.683 185.354 181.53 185.934 181.53C186.527 181.53 186.977 181.66 187.284 181.92C187.597 182.18 187.754 182.556 187.754 183.05C187.754 183.35 187.664 183.63 187.484 183.89C187.31 184.143 187.07 184.356 186.764 184.53C186.457 184.696 186.114 184.803 185.734 184.85L185.504 184.24ZM185.834 187.15C185.594 186.856 185.3 186.563 184.954 186.27C185.234 185.943 185.527 185.653 185.834 185.4C186.094 185.72 186.384 186.01 186.704 186.27C186.424 186.61 186.134 186.903 185.834 187.15Z" fill="white"/>
<path d="M189.341 184.24C189.941 183.973 190.241 183.59 190.241 183.09C190.241 182.836 190.168 182.64 190.021 182.5C189.881 182.353 189.685 182.28 189.431 182.28C189.211 182.28 189.005 182.336 188.811 182.45C188.625 182.556 188.478 182.703 188.371 182.89C188.278 182.61 188.231 182.31 188.231 181.99C188.678 181.683 189.191 181.53 189.771 181.53C190.365 181.53 190.815 181.66 191.121 181.92C191.435 182.18 191.591 182.556 191.591 183.05C191.591 183.35 191.501 183.63 191.321 183.89C191.148 184.143 190.908 184.356 190.601 184.53C190.295 184.696 189.951 184.803 189.571 184.85L189.341 184.24ZM189.671 187.15C189.431 186.856 189.138 186.563 188.791 186.27C189.071 185.943 189.365 185.653 189.671 185.4C189.931 185.72 190.221 186.01 190.541 186.27C190.261 186.61 189.971 186.903 189.671 187.15Z" fill="white"/>
<path d="M193.179 184.24C193.779 183.973 194.079 183.59 194.079 183.09C194.079 182.836 194.006 182.64 193.859 182.5C193.719 182.353 193.523 182.28 193.269 182.28C193.049 182.28 192.843 182.336 192.649 182.45C192.463 182.556 192.316 182.703 192.209 182.89C192.116 182.61 192.069 182.31 192.069 181.99C192.516 181.683 193.029 181.53 193.609 181.53C194.203 181.53 194.653 181.66 194.959 181.92C195.273 182.18 195.429 182.556 195.429 183.05C195.429 183.35 195.339 183.63 195.159 183.89C194.986 184.143 194.746 184.356 194.439 184.53C194.133 184.696 193.789 184.803 193.409 184.85L193.179 184.24ZM193.509 187.15C193.269 186.856 192.976 186.563 192.629 186.27C192.909 185.943 193.203 185.653 193.509 185.4C193.769 185.72 194.059 186.01 194.379 186.27C194.099 186.61 193.809 186.903 193.509 187.15Z" fill="white"/>
<path d="M185.504 244.24C186.104 243.973 186.404 243.59 186.404 243.09C186.404 242.836 186.33 242.64 186.184 242.5C186.044 242.353 185.847 242.28 185.594 242.28C185.374 242.28 185.167 242.336 184.974 242.45C184.787 242.556 184.64 242.703 184.534 242.89C184.44 242.61 184.394 242.31 184.394 241.99C184.84 241.683 185.354 241.53 185.934 241.53C186.527 241.53 186.977 241.66 187.284 241.92C187.597 242.18 187.754 242.556 187.754 243.05C187.754 243.35 187.664 243.63 187.484 243.89C187.31 244.143 187.07 244.356 186.764 244.53C186.457 244.696 186.114 244.803 185.734 244.85L185.504 244.24ZM185.834 247.15C185.594 246.856 185.3 246.563 184.954 246.27C185.234 245.943 185.527 245.653 185.834 245.4C186.094 245.72 186.384 246.01 186.704 246.27C186.424 246.61 186.134 246.903 185.834 247.15Z" fill="white"/>
<path d="M189.341 244.24C189.941 243.973 190.241 243.59 190.241 243.09C190.241 242.836 190.168 242.64 190.021 242.5C189.881 242.353 189.685 242.28 189.431 242.28C189.211 242.28 189.005 242.336 188.811 242.45C188.625 242.556 188.478 242.703 188.371 242.89C188.278 242.61 188.231 242.31 188.231 241.99C188.678 241.683 189.191 241.53 189.771 241.53C190.365 241.53 190.815 241.66 191.121 241.92C191.435 242.18 191.591 242.556 191.591 243.05C191.591 243.35 191.501 243.63 191.321 243.89C191.148 244.143 190.908 244.356 190.601 244.53C190.295 244.696 189.951 244.803 189.571 244.85L189.341 244.24ZM189.671 247.15C189.431 246.856 189.138 246.563 188.791 246.27C189.071 245.943 189.365 245.653 189.671 245.4C189.931 245.72 190.221 246.01 190.541 246.27C190.261 246.61 189.971 246.903 189.671 247.15Z" fill="white"/>
<path d="M193.179 244.24C193.779 243.973 194.079 243.59 194.079 243.09C194.079 242.836 194.006 242.64 193.859 242.5C193.719 242.353 193.523 242.28 193.269 242.28C193.049 242.28 192.843 242.336 192.649 242.45C192.463 242.556 192.316 242.703 192.209 242.89C192.116 242.61 192.069 242.31 192.069 241.99C192.516 241.683 193.029 241.53 193.609 241.53C194.203 241.53 194.653 241.66 194.959 241.92C195.273 242.18 195.429 242.556 195.429 243.05C195.429 243.35 195.339 243.63 195.159 243.89C194.986 244.143 194.746 244.356 194.439 244.53C194.133 244.696 193.789 244.803 193.409 244.85L193.179 244.24ZM193.509 247.15C193.269 246.856 192.976 246.563 192.629 246.27C192.909 245.943 193.203 245.653 193.509 245.4C193.769 245.72 194.059 246.01 194.379 246.27C194.099 246.61 193.809 246.903 193.509 247.15Z" fill="white"/>
<defs>
<linearGradient id="paint0_linear_347_281" x1="89.6666" y1="28.6934" x2="89.6666" y2="240.307" gradientUnits="userSpaceOnUse">
<stop stop-color="#FBD03B"/>
<stop offset="1" stop-color="#FA7800"/>
</linearGradient>
<linearGradient id="paint1_linear_347_281" x1="33.6791" y1="22.6035" x2="33.6791" y2="34.3104" gradientUnits="userSpaceOnUse">
<stop stop-color="#FBD03B"/>
<stop offset="1" stop-color="#FA7800"/>
</linearGradient>
<linearGradient id="paint2_linear_347_281" x1="33.6791" y1="22.6035" x2="33.6791" y2="34.3104" gradientUnits="userSpaceOnUse">
<stop stop-color="#FBD03B"/>
<stop offset="1" stop-color="#FA7800"/>
</linearGradient>
<linearGradient id="paint3_linear_347_281" x1="33.6791" y1="22.6035" x2="33.6791" y2="34.3104" gradientUnits="userSpaceOnUse">
<stop stop-color="#FBD03B"/>
<stop offset="1" stop-color="#FA7800"/>
</linearGradient>
<linearGradient id="paint4_linear_347_281" x1="144.865" y1="246.396" x2="144.865" y2="234.69" gradientUnits="userSpaceOnUse">
<stop stop-color="#FBD03B"/>
<stop offset="1" stop-color="#FA7800"/>
</linearGradient>
<linearGradient id="paint5_linear_347_281" x1="144.865" y1="246.396" x2="144.865" y2="234.69" gradientUnits="userSpaceOnUse">
<stop stop-color="#FBD03B"/>
<stop offset="1" stop-color="#FA7800"/>
</linearGradient>
<linearGradient id="paint6_linear_347_281" x1="144.865" y1="246.396" x2="144.865" y2="234.69" gradientUnits="userSpaceOnUse">
<stop stop-color="#FBD03B"/>
<stop offset="1" stop-color="#FA7800"/>
</linearGradient>
<linearGradient id="paint7_linear_347_281" x1="90" y1="80" x2="90" y2="154" gradientUnits="userSpaceOnUse">
<stop stop-color="#FBD03B"/>
<stop offset="1" stop-color="#FA7800"/>
</linearGradient>
<linearGradient id="paint8_linear_347_281" x1="189.5" y1="28" x2="189.5" y2="50" gradientUnits="userSpaceOnUse">
<stop stop-color="#FBD03B"/>
<stop offset="1" stop-color="#FA7800"/>
</linearGradient>
<linearGradient id="paint9_linear_347_281" x1="189.5" y1="88" x2="189.5" y2="110" gradientUnits="userSpaceOnUse">
<stop stop-color="#FBD03B"/>
<stop offset="1" stop-color="#FA7800"/>
</linearGradient>
<linearGradient id="paint10_linear_347_281" x1="189.5" y1="148" x2="189.5" y2="170" gradientUnits="userSpaceOnUse">
<stop stop-color="#FBD03B"/>
<stop offset="1" stop-color="#FA7800"/>
</linearGradient>
<linearGradient id="paint11_linear_347_281" x1="189.5" y1="208" x2="189.5" y2="230" gradientUnits="userSpaceOnUse">
<stop stop-color="#FBD03B"/>
<stop offset="1" stop-color="#FA7800"/>
</linearGradient>
</defs>
</svg>
