<svg width="450" height="789" viewBox="0 0 450 789" fill="none" xmlns="http://www.w3.org/2000/svg">
<rect x="5" y="5" width="440" height="779" rx="7" fill="url(#paint0_linear_347_205)" stroke="white" stroke-width="10"/>
<path d="M103.548 125.6C101.148 125.6 98.4484 125.4 95.4484 125C95.7818 121.733 96.0484 117.3 96.2484 111.7C96.4484 106.033 96.5484 100.733 96.5484 95.8C96.5484 84.3333 96.0151 77.2333 94.9484 74.5C97.2151 73.7 100.248 73.0667 104.048 72.6C107.915 72.0667 111.815 71.8 115.748 71.8C122.948 71.8 128.448 73.3333 132.248 76.4C136.115 79.4 138.048 83.7333 138.048 89.4C138.048 92.6 137.182 95.4667 135.448 98C133.715 100.533 131.282 102.6 128.148 104.2C133.215 114.267 137.382 120.7 140.648 123.5C136.248 124.9 130.948 125.6 124.748 125.6C122.882 121.133 119.815 114.933 115.548 107C113.015 107 110.848 106.867 109.048 106.6C109.248 116.4 109.782 122.533 110.648 125C108.382 125.4 106.015 125.6 103.548 125.6ZM118.448 99.9C120.315 98.8333 121.782 97.5 122.848 95.9C123.982 94.2333 124.548 92.3333 124.548 90.2C124.548 83.6 120.915 80.3 113.648 80.3C112.115 80.3 110.782 80.4333 109.648 80.7C109.382 85.5667 109.182 91.3333 109.048 98C112.982 99.2667 116.115 99.9 118.448 99.9ZM155.306 125.6C152.906 125.6 150.206 125.4 147.206 125C147.94 114.267 148.306 104.533 148.306 95.8C148.306 83.3333 147.773 75.5 146.706 72.3C149.106 71.9 151.706 71.7 154.506 71.7C156.64 71.7 159.106 71.9 161.906 72.3C161.573 75.7667 161.306 80.4 161.106 86.2C160.906 92 160.806 97.3667 160.806 102.3C160.806 114.633 161.34 122.2 162.406 125C160.14 125.4 157.773 125.6 155.306 125.6ZM192.702 125.9C190.702 125.9 188.935 125 187.402 123.2C185.868 121.333 184.502 118.933 183.302 116C182.168 113 180.702 108.733 178.902 103.2C176.968 97.3333 175.168 92.1333 173.502 87.6C171.835 83.0667 169.868 78.4667 167.602 73.8C172.535 72.4 177.935 71.7 183.802 71.7C184.335 75.0333 185.268 79.3667 186.602 84.7C187.935 89.9667 189.302 94.7333 190.702 99C193.235 106.333 195.568 111.933 197.702 115.8C201.568 104.133 204.402 95 206.202 88.4C208.002 81.7333 208.902 77.1333 208.902 74.6C208.902 73.6667 208.835 73.0667 208.702 72.8C211.902 72.0667 215.568 71.7 219.702 71.7C217.435 78.0333 214.635 86.3333 211.302 96.6C208.035 106.8 205.402 115.367 203.402 122.3L192.702 125.9ZM263.795 125.5C261.595 125.5 259.195 125.267 256.595 124.8L255.495 121.6L252.295 112.7C248.695 112.5 244.861 112.4 240.795 112.4C236.395 112.4 233.261 112.533 231.395 112.8C229.661 117.267 228.228 121.267 227.095 124.8C225.495 125.2 224.061 125.4 222.795 125.4C221.128 125.4 219.428 125.2 217.695 124.8C219.561 121.467 222.861 113.6 227.595 101.2C232.328 88.8 235.861 79.1 238.195 72.1C240.861 71.7667 243.095 71.6 244.895 71.6C246.828 71.6 248.895 71.7667 251.095 72.1C253.428 79.1 256.961 88.8 261.695 101.2C266.428 113.6 269.728 121.467 271.595 124.8C269.195 125.267 266.595 125.5 263.795 125.5ZM244.595 104.9C245.861 104.9 247.428 104.833 249.295 104.7C246.495 96.8333 243.995 90.3333 241.795 85.2C238.928 92.4667 236.461 98.9333 234.395 104.6C237.595 104.8 240.995 104.9 244.595 104.9ZM277.187 125.3C277.92 115.5 278.287 105.667 278.287 95.8C278.287 83.0667 277.753 75.2333 276.687 72.3C279.087 71.9 281.553 71.7 284.087 71.7C286.287 71.7 288.887 71.9 291.887 72.3C291.553 75.7 291.287 80.3 291.087 86.1C290.887 91.8333 290.787 97.2333 290.787 102.3C290.787 107.5 290.887 111.767 291.087 115.1C294.553 115.5 297.387 115.7 299.587 115.7C302.12 115.7 304.653 115.467 307.187 115C309.787 114.533 311.953 113.867 313.687 113C313.687 115.2 313.487 117.567 313.087 120.1C312.687 122.633 312.187 124.367 311.587 125.3C307.653 124.833 302.153 124.6 295.087 124.6C287.087 124.6 281.12 124.833 277.187 125.3ZM336.172 126.1C328.772 126.1 322.405 124.9 317.072 122.5C317.072 120.7 317.205 119.1 317.472 117.7C317.739 116.3 318.172 114.9 318.772 113.5C320.439 115.1 322.772 116.367 325.772 117.3C328.772 118.167 332.005 118.6 335.472 118.6C338.339 118.6 340.539 118.133 342.072 117.2C343.672 116.2 344.472 114.8 344.472 113C344.472 111.467 343.672 110.133 342.072 109C340.472 107.867 337.939 106.5 334.472 104.9C331.005 103.3 328.105 101.8 325.772 100.4C323.505 99 321.539 97.2 319.872 95C318.205 92.7333 317.372 90.0333 317.372 86.9C317.372 83.9 318.272 81.2667 320.072 79C321.872 76.6667 324.439 74.8667 327.772 73.6C331.105 72.3333 335.005 71.7 339.472 71.7C346.072 71.7 351.672 72.5 356.272 74.1C356.272 76.1667 355.839 78.5667 354.972 81.3C354.105 83.9667 353.072 86.0333 351.872 87.5C348.939 85.1667 345.905 83.2667 342.772 81.8C339.705 80.2667 337.105 79.5 334.972 79.5C333.905 79.7 332.939 80.2667 332.072 81.2C331.272 82.0667 330.872 83.1333 330.872 84.4C330.872 86.1333 331.705 87.6 333.372 88.8C335.039 89.9333 337.639 91.3 341.172 92.9C344.705 94.5 347.572 95.9667 349.772 97.3C352.039 98.6333 353.972 100.433 355.572 102.7C357.172 104.9 357.972 107.6 357.972 110.8C357.972 115.667 356.139 119.433 352.472 122.1C348.805 124.767 343.372 126.1 336.172 126.1Z" fill="white"/>
<mask id="mask0_347_205" style="mask-type:alpha" maskUnits="userSpaceOnUse" x="0" y="0" width="450" height="789">
<rect width="450" height="789" rx="12" fill="url(#paint1_linear_347_205)"/>
</mask>
<g mask="url(#mask0_347_205)">
<path d="M-25.1239 325.068C-27.8169 307.155 -15.479 290.451 2.43353 287.758L207.846 256.876C225.758 254.183 242.463 266.521 245.156 284.433L296.355 624.985C299.048 642.898 286.71 659.602 268.798 662.295L63.3852 693.177C45.4726 695.87 28.7685 683.532 26.0755 665.62L-25.1239 325.068Z" fill="#282E54"/>
<path fill-rule="evenodd" clip-rule="evenodd" d="M209.878 270.39L4.46525 301.272C-5.98374 302.843 -13.1808 312.587 -11.6099 323.036L39.5895 663.588C41.1604 674.037 50.9045 681.234 61.3534 679.663L266.766 648.781C277.215 647.21 284.412 637.466 282.841 627.017L231.642 286.465C230.071 276.016 220.327 268.819 209.878 270.39ZM2.43353 287.758C-15.479 290.451 -27.8169 307.155 -25.1239 325.068L26.0755 665.62C28.7685 683.532 45.4726 695.87 63.3852 693.177L268.798 662.295C286.71 659.602 299.048 642.898 296.355 624.985L245.156 284.433C242.463 266.521 225.758 254.183 207.846 256.876L2.43353 287.758Z" fill="white"/>
<path d="M40.4699 467.22C37.7769 449.308 50.1147 432.604 68.0273 429.91L186.95 412.031C204.863 409.338 221.567 421.676 224.26 439.589L230.761 482.833C233.454 500.746 221.116 517.45 203.204 520.143L84.281 538.022C66.3685 540.715 49.6644 528.377 46.9714 510.465L40.4699 467.22Z" fill="white"/>
<path d="M100.176 508.574C97.9682 508.906 95.3541 509.106 92.3332 509.173C92.1175 505.594 91.7108 501.173 91.1131 495.91C90.5153 490.647 89.8846 485.808 89.2209 481.394C88.7279 478.114 88.3408 475.754 88.0597 474.313L78.9048 482.268C76.8512 480.19 74.8873 477.422 73.013 473.964C75.0055 472.632 77.7325 470.61 81.1941 467.897L82.9296 466.572C84.777 465.133 86.5377 463.546 88.2116 461.811C89.9485 460.067 91.129 458.697 91.753 457.7C93.7711 457.396 96.133 457.235 98.8386 457.215C99.0163 460.542 99.423 464.963 100.059 470.478C100.694 475.993 101.363 481.084 102.065 485.751C103.819 497.418 105.399 504.5 106.807 506.997C104.593 507.717 102.383 508.242 100.176 508.574Z" fill="url(#paint2_linear_347_205)"/>
<path d="M136.636 503.576C132.096 504.259 127.908 503.857 124.073 502.37C120.291 500.81 117.143 498.317 114.629 494.89C112.168 491.39 110.573 487.212 109.843 482.356C109.065 477.185 109.54 472.406 111.266 468.019C112.983 463.569 115.753 459.896 119.574 457C123.458 454.094 128.048 452.243 133.346 451.447C137.76 450.783 141.791 451.209 145.436 452.724C149.145 454.231 152.189 456.675 154.568 460.058C157 463.368 158.577 467.42 159.297 472.213C160.094 477.51 159.67 482.411 158.025 486.914C156.381 491.418 153.684 495.145 149.936 498.094C146.241 500.972 141.808 502.799 136.636 503.576ZM136.671 493.511C140.581 492.923 143.444 490.945 145.259 487.576C147.137 484.198 147.683 479.892 146.896 474.658C146.166 469.802 144.555 465.949 142.063 463.099C139.57 460.249 136.502 458.711 132.856 458.485C130.271 458.874 128.051 459.982 126.197 461.808C124.334 463.571 123.003 465.868 122.203 468.696C121.466 471.516 121.344 474.565 121.837 477.845C122.624 483.079 124.363 487.138 127.053 490.023C129.807 492.898 133.013 494.061 136.671 493.511Z" fill="url(#paint3_linear_347_205)"/>
<path d="M187.937 495.38C185.73 495.712 183.116 495.911 180.095 495.979C179.879 492.4 179.472 487.979 178.875 482.716C178.277 477.453 177.646 472.614 176.983 468.2C176.489 464.92 176.102 462.56 175.821 461.119L166.666 469.073C164.613 466.996 162.649 464.228 160.775 460.769C162.767 459.438 165.494 457.416 168.956 454.702L170.691 453.377C172.539 451.939 174.299 450.352 175.973 448.617C177.71 446.873 178.891 445.502 179.515 444.506C181.533 444.202 183.895 444.041 186.6 444.021C186.778 447.347 187.185 451.768 187.82 457.284C188.456 462.799 189.125 467.89 189.826 472.556C191.58 484.224 193.161 491.306 194.568 493.803C192.355 494.522 190.144 495.048 187.937 495.38Z" fill="url(#paint4_linear_347_205)"/>
<path d="M61.9696 393.288C58.438 393.818 55.0922 393.87 51.9323 393.442C51.61 391.298 51.5935 389.043 51.8828 386.678C52.0996 384.259 52.5766 382.285 53.314 380.756C55.4715 382.237 57.5452 383.376 59.5353 384.173C61.5159 384.907 63.1053 385.184 64.3035 385.004C65.0916 384.241 65.5848 383.232 65.783 381.977C66.0349 380.649 66.02 378.62 65.7384 375.889C65.4474 373.095 64.8562 368.734 63.965 362.806C62.2773 351.58 60.5705 344.517 58.8446 341.617C61.1842 340.878 63.5207 340.333 65.8541 339.982C68.0614 339.651 70.5179 339.475 73.2235 339.455C73.4362 343.873 74.6377 353.366 76.8279 367.934C77.9562 375.439 77.2597 381.315 74.7384 385.564C72.2801 389.803 68.0239 392.377 61.9696 393.288Z" fill="white"/>
<path d="M128.292 382.639C126.211 382.952 123.907 383.073 121.381 383.001L119.885 380.13L115.593 372.166C112.159 372.489 108.518 372.94 104.671 373.518C100.509 374.144 97.5638 374.716 95.8359 375.233C94.8314 379.705 94.0444 383.693 93.4748 387.197C92.0181 387.803 90.6907 388.196 89.4924 388.376C87.9158 388.613 86.2792 388.665 84.5826 388.534C85.8744 385.115 87.8773 377.204 90.5914 364.8C93.3055 352.397 95.2684 342.719 96.4801 335.765C98.9553 335.07 101.044 334.595 102.747 334.339C104.576 334.064 106.555 333.928 108.683 333.93C111.886 340.22 116.608 348.894 122.849 359.951C129.09 371.008 133.331 377.98 135.571 380.868C133.367 381.651 130.94 382.241 128.292 382.639ZM107.199 365.883C108.397 365.703 109.87 365.417 111.617 365.025C107.849 357.982 104.56 352.188 101.749 347.645C100.07 354.927 98.6567 361.395 97.5076 367.05C100.563 366.784 103.794 366.395 107.199 365.883Z" fill="white"/>
<path d="M145.421 380.161C144.033 380.369 142.302 380.436 140.227 380.361C139.765 373.853 138.633 364.607 136.831 352.625C135.068 340.895 133.607 333.537 132.448 330.551C134.031 329.926 136.242 329.4 139.079 328.974C141.161 328.661 143.806 328.456 147.016 328.361C149.55 331.914 153.298 336.896 158.26 343.309C163.286 349.712 168.087 355.697 172.665 361.264C171.843 354.939 171.18 350.105 170.678 346.762C168.914 335.032 167.491 327.927 166.409 325.445C167.74 324.858 169.098 324.46 170.486 324.252C171.999 324.024 173.762 323.953 175.774 324.037C176.483 332.185 177.615 341.431 179.17 351.774C180.934 363.504 182.395 370.862 183.553 373.848C181.403 374.558 179.192 375.084 176.922 375.425C174.462 375.795 171.785 376.004 168.89 376.052C166.502 372.606 162.836 367.74 157.893 361.454C152.94 355.104 148.056 349.003 143.242 343.148C144.064 349.474 144.726 354.308 145.229 357.65C146.935 369.002 148.358 376.108 149.498 378.968C148.23 379.545 146.871 379.943 145.421 380.161Z" fill="white"/>
<path d="M95.212 628.167C92.9416 628.509 90.3591 628.704 87.4642 628.752C87.2486 625.173 86.8419 620.752 86.2441 615.489C85.6464 610.226 85.0157 605.387 84.352 600.973C82.579 589.18 80.9604 581.845 79.4962 578.97C81.7097 578.25 84.1408 577.691 86.7895 577.293C88.8076 576.99 91.1695 576.828 93.8751 576.808C94.2301 582.172 95.0447 589.95 96.3189 600.141C101.942 592.073 105.584 586.269 107.244 582.731C108.968 579.182 109.707 576.588 109.46 574.949C113.644 573.61 118.164 572.576 123.02 571.846C117.59 579.047 112.181 586.825 106.794 595.18C118.694 609.127 127.346 617.564 132.752 620.492C130.659 621.581 128.401 622.436 125.98 623.058C123.631 623.734 120.911 624.304 117.821 624.768C114.963 621.2 109.062 614.767 100.119 605.471C99.539 606.332 98.7322 607.614 97.6984 609.317C99.1553 618.578 100.537 624.336 101.843 626.59C99.7558 627.291 97.5454 627.817 95.212 628.167Z" fill="white"/>
<path d="M138.039 621.439C137.415 612.568 136.325 602.962 134.77 592.619C133.889 586.754 133.094 582.327 132.387 579.338C131.742 576.339 130.956 573.684 130.028 571.373C133.626 571.283 139.178 570.674 146.683 569.546C155.512 568.219 162.29 566.974 167.016 565.812C167.358 568.082 167.533 570.539 167.544 573.181C167.545 575.761 167.328 577.535 166.893 578.503C165.13 577.93 162.922 577.617 160.27 577.564C157.618 577.511 154.968 577.684 152.319 578.082C150.049 578.423 147.739 578.932 145.39 579.608C145.82 584.186 146.235 587.8 146.633 590.449C149.048 590.214 150.855 590.007 152.053 589.827C155.27 589.344 157.72 588.911 159.404 588.529C161.141 588.074 163.053 587.496 165.141 586.795C165.677 588.649 166.026 590.113 166.187 591.185C166.339 592.194 166.441 593.726 166.492 595.782C158.479 596.535 152.202 597.253 147.662 597.936C148.297 602.161 148.946 605.836 149.61 608.961C151.883 609.071 154.471 608.908 157.372 608.472C160.336 608.026 163.235 607.364 166.07 606.487C168.967 605.6 171.3 604.604 173.069 603.5C173.401 605.707 173.572 608.132 173.582 610.774C173.583 613.354 173.371 615.159 172.946 616.191C168.528 616.403 162.377 617.102 154.494 618.287C146.989 619.416 141.504 620.466 138.039 621.439Z" fill="white"/>
<path d="M187.055 614.36C185.668 614.568 183.937 614.635 181.862 614.56C181.399 608.051 180.267 598.806 178.466 586.824C176.702 575.093 175.241 567.735 174.083 564.75C175.666 564.125 177.876 563.599 180.714 563.172C182.795 562.859 185.441 562.655 188.651 562.559C191.184 566.112 194.932 571.095 199.895 577.508C204.92 583.91 209.722 589.896 214.299 595.463C213.477 589.138 212.815 584.304 212.313 580.961C210.549 569.231 209.126 562.125 208.044 559.644C209.374 559.057 210.733 558.659 212.121 558.45C213.634 558.223 215.397 558.151 217.409 558.236C218.118 566.384 219.25 575.629 220.805 585.972C222.568 597.702 224.029 605.06 225.188 608.046C223.037 608.756 220.827 609.282 218.556 609.624C216.097 609.993 213.42 610.202 210.525 610.251C208.137 606.805 204.471 601.939 199.527 595.652C194.574 589.303 189.691 583.201 184.877 577.347C185.699 583.672 186.361 588.506 186.863 591.849C188.57 603.201 189.993 610.306 191.132 613.166C189.865 613.744 188.506 614.141 187.055 614.36Z" fill="white"/>
<path d="M216.039 390.422C220.595 373.418 238.046 363.321 255.016 367.868L449.624 420.013C466.595 424.56 476.659 442.03 472.103 459.034L385.483 782.302C380.927 799.306 363.476 809.404 346.506 804.856L151.898 752.711C134.927 748.164 124.864 730.694 129.42 713.69L216.039 390.422Z" fill="#282E54"/>
<path fill-rule="evenodd" clip-rule="evenodd" d="M446.187 432.841L251.579 380.696C241.68 378.043 231.5 383.934 228.843 393.852L142.223 717.121C139.565 727.04 145.436 737.231 155.335 739.883L349.943 792.028C359.843 794.681 370.022 788.79 372.68 778.872L459.299 455.603C461.957 445.684 456.087 435.493 446.187 432.841ZM255.016 367.868C238.046 363.321 220.595 373.418 216.039 390.422L129.42 713.69C124.864 730.694 134.927 748.164 151.898 752.711L346.506 804.856C363.476 809.404 380.927 799.306 385.483 782.302L472.103 459.034C476.659 442.03 466.595 424.56 449.624 420.013L255.016 367.868Z" fill="white"/>
<path d="M233.623 438.602C238.197 421.529 255.624 411.365 272.546 415.899L410.426 452.844C427.348 457.378 437.358 474.894 432.783 491.967L367.898 734.122C363.323 751.195 345.897 761.36 328.975 756.825L191.094 719.881C174.172 715.346 164.163 697.83 168.738 680.757L233.623 438.602Z" fill="#282E54"/>
<path fill-rule="evenodd" clip-rule="evenodd" d="M409.736 455.42L271.856 418.475C256.344 414.319 240.37 423.636 236.176 439.287L171.291 681.441C167.097 697.092 176.273 713.148 191.785 717.304L329.665 754.249C345.177 758.406 361.151 749.088 365.345 733.438L430.23 491.283C434.423 475.633 425.248 459.576 409.736 455.42ZM272.546 415.899C255.624 411.365 238.197 421.529 233.623 438.602L168.738 680.757C164.163 697.83 174.172 715.346 191.094 719.881L328.975 756.825C345.897 761.36 363.323 751.195 367.898 734.122L432.783 491.967C437.358 474.894 427.348 457.378 410.426 452.844L272.546 415.899Z" fill="url(#paint5_linear_347_205)"/>
<path d="M256.133 486.368C260.709 469.292 278.187 459.139 295.173 463.691L366.935 482.919C383.921 487.47 393.981 505.002 389.406 522.078L359.03 635.443C354.454 652.519 336.976 662.672 319.99 658.12L248.228 638.892C231.242 634.34 221.182 616.809 225.757 599.733L256.133 486.368Z" fill="white"/>
<path d="M206.977 685.618C205.875 685.323 204.66 684.896 203.333 684.338C203.899 682.839 204.581 680.782 205.38 678.167C206.18 675.552 206.895 673.065 207.527 670.708C208.975 665.303 209.627 661.89 209.482 660.47C210.624 660.372 212.097 660.447 213.902 660.694C215.745 660.919 217.569 661.273 219.376 661.757C222.683 662.643 225.015 664.043 226.373 665.956C227.769 667.846 228.11 670.127 227.394 672.798C226.914 674.589 226.025 676.069 224.728 677.237C223.469 678.382 221.924 679.13 220.09 679.481C218.257 679.832 216.3 679.728 214.218 679.171C213.238 678.908 212.397 678.616 211.696 678.293C210.68 682.332 210.219 684.971 210.314 686.209C209.222 686.118 208.11 685.921 206.977 685.618ZM216.814 676.279C217.775 675.997 218.647 675.439 219.428 674.605C220.21 673.77 220.765 672.74 221.093 671.514C221.927 668.403 220.675 666.4 217.338 665.506C216.634 665.317 216.004 665.216 215.45 665.202C214.306 668.735 213.398 671.759 212.724 674.274C214.44 675.34 215.803 676.008 216.814 676.279Z" fill="white"/>
<path d="M229.94 691.771C228.838 691.475 227.623 691.049 226.296 690.491C226.861 688.992 227.544 686.935 228.343 684.32C229.151 681.673 229.866 679.187 230.489 676.861C231.938 671.455 232.59 668.043 232.445 666.623C233.587 666.525 235.06 666.599 236.864 666.847C238.707 667.072 240.532 667.426 242.339 667.91C245.645 668.796 247.977 670.195 249.335 672.109C250.732 673.999 251.073 676.28 250.357 678.951C249.953 680.459 249.193 681.704 248.076 682.685C246.96 683.666 245.582 684.341 243.941 684.71C244.996 690.079 246.097 693.624 247.244 695.346C245.046 695.465 242.523 695.143 239.676 694.38C239.383 692.044 238.758 688.744 237.8 684.479C236.637 684.167 235.659 683.838 234.866 683.491C233.72 688.135 233.19 691.092 233.276 692.362C232.185 692.271 231.073 692.074 229.94 691.771ZM240.029 681.489C241.021 681.216 241.863 680.768 242.555 680.145C243.286 679.498 243.786 678.672 244.056 677.667C244.89 674.555 243.638 672.553 240.3 671.658C239.596 671.47 238.967 671.368 238.413 671.355C237.676 673.616 236.855 676.31 235.952 679.436C237.599 680.518 238.958 681.202 240.029 681.489Z" fill="white"/>
<path d="M268.878 702.154C267.868 701.883 266.795 701.478 265.66 700.938L265.559 699.294L265.213 694.704C263.585 694.167 261.837 693.648 259.97 693.148C257.949 692.606 256.493 692.284 255.602 692.18C254.242 694.072 253.079 695.781 252.112 697.307C251.326 697.299 250.643 697.217 250.061 697.061C249.296 696.856 248.54 696.553 247.795 696.151C249.073 694.809 251.582 691.507 255.322 686.244C259.063 680.98 261.911 676.842 263.866 673.83C265.133 674.001 266.18 674.197 267.007 674.418C267.894 674.656 268.822 674.989 269.791 675.417C269.978 679.004 270.376 684.012 270.983 690.44C271.591 696.868 272.112 700.982 272.549 702.784C271.387 702.708 270.164 702.498 268.878 702.154ZM262.662 690.08C263.244 690.236 263.972 690.397 264.846 690.564C264.554 686.511 264.227 683.139 263.865 680.448C261.63 683.521 259.681 686.266 258.016 688.683C259.46 689.171 261.009 689.637 262.662 690.08Z" fill="white"/>
<path d="M281.878 705.688C280.807 705.401 279.577 704.97 278.188 704.396C279.023 702.261 279.963 699.364 281.01 695.703C280.46 692.12 279.708 688.5 278.752 684.841C277.796 681.183 277.085 678.938 276.619 678.106C278.755 677.971 281.339 678.309 284.37 679.121C284.404 679.973 284.593 681.657 284.936 684.174C285.309 686.699 285.803 689.325 286.419 692.049C288.593 689.567 290.29 687.461 291.508 685.733C292.756 684.013 293.52 682.752 293.801 681.952C295.566 682.222 297.489 682.637 299.571 683.195C296.153 686.153 291.899 690.823 286.809 697.207C285.529 701.984 284.982 705.004 285.169 706.266C284.077 706.176 282.981 705.983 281.878 705.688Z" fill="white"/>
<path d="M295.46 709.175C296.967 704.897 298.412 700.181 299.793 695.027C300.576 692.104 301.108 689.872 301.39 688.33C301.702 686.797 301.881 685.397 301.925 684.129C303.581 684.808 306.23 685.636 309.874 686.612C314.16 687.761 317.496 688.537 319.882 688.94C319.579 690.071 319.163 691.257 318.634 692.496C318.113 693.704 317.656 694.491 317.263 694.857C316.576 694.235 315.635 693.646 314.438 693.09C313.242 692.534 312.001 692.083 310.715 691.739C309.613 691.443 308.459 691.218 307.253 691.064C306.525 693.294 305.983 695.069 305.63 696.389C306.776 696.763 307.64 697.028 308.222 697.184C309.784 697.603 310.986 697.891 311.83 698.05C312.712 698.185 313.699 698.298 314.791 698.389C314.661 699.364 314.524 700.119 314.381 700.653C314.246 701.156 313.983 701.894 313.591 702.867C309.792 701.613 306.79 700.691 304.586 700.1C304.022 702.206 303.575 704.057 303.246 705.653C304.258 706.16 305.469 706.602 306.877 706.98C308.316 707.365 309.769 707.637 311.237 707.794C312.735 707.96 313.998 707.961 315.026 707.799C314.731 708.899 314.319 710.069 313.79 711.308C313.27 712.516 312.808 713.318 312.407 713.716C310.353 712.93 307.413 712.024 303.585 710.999C299.942 710.022 297.234 709.415 295.46 709.175Z" fill="white"/>
<path d="M320.759 716.106C319.657 715.81 318.442 715.384 317.115 714.826C317.681 713.327 318.363 711.27 319.163 708.655C319.97 706.008 320.686 703.522 321.309 701.196C322.757 695.79 323.409 692.378 323.265 690.958C324.407 690.86 325.88 690.934 327.684 691.182C329.527 691.407 331.352 691.761 333.158 692.245C336.465 693.131 338.797 694.53 340.155 696.444C341.552 698.334 341.892 700.615 341.176 703.286C340.772 704.794 340.012 706.039 338.896 707.02C337.78 708.001 336.401 708.676 334.76 709.045C335.816 714.414 336.916 717.959 338.063 719.681C335.865 719.8 333.343 719.478 330.496 718.715C330.203 716.379 329.577 713.079 328.62 708.814C327.456 708.502 326.478 708.173 325.685 707.826C324.539 712.47 324.009 715.427 324.096 716.697C323.004 716.606 321.892 716.409 320.759 716.106ZM330.849 705.824C331.841 705.551 332.683 705.103 333.375 704.48C334.106 703.833 334.606 703.007 334.875 702.002C335.709 698.89 334.457 696.888 331.12 695.993C330.416 695.805 329.787 695.703 329.232 695.69C328.495 697.951 327.675 700.645 326.772 703.771C328.418 704.853 329.777 705.537 330.849 705.824Z" fill="white"/>
<path d="M241.538 397.085C242.303 394.228 245.233 392.53 248.082 393.294L284.187 402.968C287.035 403.731 288.724 406.666 287.959 409.523L283.107 427.629C282.342 430.485 279.412 432.183 276.563 431.419L240.458 421.745C237.61 420.982 235.921 418.047 236.686 415.19L241.538 397.085Z" fill="#282E54"/>
<path d="M247.97 418.781C247.257 418.59 246.438 418.306 245.514 417.928C245.919 416.825 246.376 415.444 246.886 413.785C247.396 412.126 247.84 410.59 248.219 409.176C248.5 408.127 248.693 407.367 248.797 406.897L244.977 408.081C244.628 407.187 244.396 406.097 244.282 404.811C245.061 404.674 246.153 404.426 247.559 404.067L248.259 403.897C249.008 403.708 249.75 403.464 250.485 403.163C251.24 402.868 251.778 402.612 252.098 402.395C252.75 402.569 253.487 402.832 254.31 403.182C253.927 404.204 253.469 405.586 252.938 407.325C252.406 409.065 251.94 410.682 251.54 412.176C250.539 415.91 250.088 418.245 250.187 419.18C249.421 419.105 248.682 418.972 247.97 418.781Z" fill="url(#paint6_linear_347_205)"/>
<path d="M259.678 422.08C258.212 421.687 256.995 421.015 256.028 420.064C255.087 419.098 254.46 417.934 254.148 416.574C253.862 415.199 253.927 413.735 254.343 412.181C254.787 410.525 255.558 409.153 256.658 408.063C257.763 406.952 259.084 406.214 260.623 405.847C262.182 405.486 263.817 405.535 265.527 405.993C266.952 406.375 268.118 407.033 269.024 407.968C269.95 408.909 270.552 410.044 270.829 411.373C271.131 412.687 271.077 414.111 270.666 415.645C270.212 417.341 269.439 418.757 268.349 419.893C267.259 421.029 265.953 421.793 264.429 422.185C262.931 422.563 261.347 422.528 259.678 422.08ZM261.01 419.062C262.273 419.4 263.4 419.183 264.393 418.411C265.406 417.644 266.137 416.422 266.586 414.747C267.002 413.193 267.02 411.823 266.639 410.64C266.258 409.456 265.529 408.59 264.454 408.042C263.619 407.818 262.801 407.859 261.999 408.163C261.203 408.447 260.498 408.962 259.884 409.706C259.29 410.455 258.853 411.355 258.571 412.405C258.122 414.08 258.116 415.528 258.553 416.749C259.01 417.975 259.829 418.746 261.01 419.062Z" fill="url(#paint7_linear_347_205)"/>
<path d="M276.304 426.373C275.592 426.182 274.773 425.898 273.849 425.52C274.253 424.417 274.711 423.036 275.221 421.377C275.731 419.718 276.175 418.182 276.554 416.769C276.835 415.719 277.027 414.959 277.132 414.49L273.312 415.673C272.962 414.779 272.73 413.689 272.617 412.404C273.395 412.266 274.488 412.018 275.893 411.659L276.593 411.49C277.342 411.301 278.084 411.056 278.82 410.755C279.575 410.46 280.113 410.204 280.433 409.987C281.085 410.162 281.822 410.424 282.644 410.774C282.261 411.797 281.804 413.178 281.272 414.918C280.741 416.657 280.275 418.274 279.874 419.768C278.874 423.502 278.423 425.837 278.521 426.772C277.756 426.697 277.017 426.564 276.304 426.373Z" fill="url(#paint8_linear_347_205)"/>
<path d="M313.562 763.2C312.796 766.057 314.485 768.991 317.334 769.755L353.439 779.429C356.287 780.192 359.217 778.495 359.983 775.638L364.834 757.533C365.6 754.676 363.911 751.741 361.062 750.977L324.957 741.303C322.109 740.54 319.179 742.237 318.413 745.094L313.562 763.2Z" fill="#282E54"/>
<path d="M329.981 747.627C329.268 747.436 328.417 747.272 327.428 747.137C327.227 748.295 326.932 749.72 326.545 751.411C326.157 753.103 325.773 754.656 325.395 756.069C325.114 757.118 324.901 757.873 324.756 758.331L322.04 755.397C321.29 755.996 320.544 756.824 319.803 757.881C320.409 758.389 321.23 759.15 322.268 760.164L322.79 760.661C323.344 761.198 323.864 761.781 324.351 762.409C324.857 763.043 325.195 763.534 325.364 763.882C326.015 764.056 326.785 764.197 327.672 764.305C327.852 763.229 328.146 761.804 328.556 760.031C328.965 758.259 329.37 756.625 329.771 755.132C330.771 751.397 331.548 749.15 332.101 748.389C331.4 748.072 330.694 747.817 329.981 747.627Z" fill="url(#paint9_linear_347_205)"/>
<path d="M341.77 750.623C340.304 750.23 338.915 750.204 337.602 750.545C336.303 750.911 335.179 751.605 334.228 752.627C333.293 753.674 332.617 754.975 332.201 756.529C331.757 758.185 331.739 759.759 332.146 761.253C332.548 762.767 333.323 764.067 334.473 765.154C335.642 766.246 337.082 767.021 338.792 767.48C340.218 767.862 341.556 767.874 342.809 767.517C344.081 767.166 345.17 766.484 346.074 765.472C346.993 764.485 347.658 763.224 348.069 761.69C348.523 759.994 348.563 758.382 348.187 756.853C347.811 755.325 347.061 754.01 345.938 752.908C344.829 751.832 343.44 751.071 341.77 750.623ZM341.415 753.903C342.678 754.241 343.546 754.993 344.019 756.159C344.513 757.329 344.535 758.753 344.086 760.428C343.67 761.982 343.001 763.177 342.079 764.012C341.157 764.846 340.093 765.232 338.888 765.169C338.053 764.945 337.365 764.501 336.822 763.836C336.275 763.192 335.921 762.394 335.762 761.443C335.622 760.497 335.693 759.499 335.975 758.449C336.423 756.774 337.142 755.517 338.131 754.678C339.14 753.845 340.234 753.587 341.415 753.903Z" fill="url(#paint10_linear_347_205)"/>
<path d="M358.316 755.219C357.603 755.028 356.752 754.865 355.763 754.729C355.562 755.887 355.267 757.312 354.879 759.004C354.491 760.696 354.108 762.248 353.73 763.661C353.448 764.711 353.235 765.465 353.091 765.924L350.374 762.989C349.624 763.589 348.879 764.417 348.137 765.473C348.743 765.981 349.565 766.742 350.603 767.756L351.124 768.253C351.679 768.791 352.199 769.374 352.685 770.002C353.192 770.635 353.53 771.126 353.698 771.474C354.35 771.648 355.12 771.79 356.007 771.898C356.187 770.821 356.481 769.396 356.891 767.623C357.3 765.851 357.705 764.218 358.105 762.724C359.106 758.99 359.883 756.742 360.436 755.982C359.735 755.664 359.028 755.41 358.316 755.219Z" fill="url(#paint11_linear_347_205)"/>
<path d="M286.048 605.691C285.229 605.472 284.569 604.804 284.416 603.931C284.366 603.65 283.202 596.946 282.916 587.959C282.529 575.797 283.903 565.776 287.001 558.177C287.456 557.06 288.751 556.527 289.895 556.986C291.038 557.444 291.597 558.722 291.142 559.838C284.259 576.726 288.761 602.971 288.807 603.234C289.017 604.426 288.204 605.548 286.991 605.74C286.667 605.792 286.347 605.772 286.048 605.691Z" fill="#F95428"/>
<path d="M324.585 533.899C321.171 527.911 318.733 524.729 324.684 521.25L338.033 532.286C343.045 541.077 344.779 551.398 342.927 561.4L342.197 565.344C341.449 569.377 342.149 573.54 344.171 577.088L314.944 594.175L312.005 589.021C309.953 585.417 306.728 582.642 302.877 581.161C300.952 580.421 299.185 579.357 297.639 578.029C296.096 576.7 294.775 575.106 293.749 573.302L286.658 560.864L271.043 533.475C269.46 530.697 270.413 527.138 273.173 525.524C274.553 524.717 276.122 524.549 277.547 524.931C278.969 525.312 280.246 526.243 281.035 527.631L275.229 517.447C273.646 514.67 274.6 511.11 277.36 509.497C278.74 508.69 280.309 508.522 281.733 508.903C283.158 509.285 284.433 510.215 285.224 511.604L280.754 503.762C279.17 500.984 280.124 497.425 282.884 495.811C284.263 495.007 285.835 494.84 287.257 495.221C288.678 495.602 289.956 496.532 290.749 497.918L294.328 504.196C292.79 501.428 293.748 497.906 296.488 496.302C297.868 495.495 299.437 495.327 300.861 495.709C302.286 496.091 303.561 497.021 304.352 498.409L324.585 533.899Z" fill="#E2C7A3"/>
<path d="M355.162 572.007L325.509 588.981L322.496 583.806C320.775 580.846 318.255 578.436 315.246 576.839C314.577 576.484 313.886 576.168 313.174 575.895C312.459 575.622 311.764 575.305 311.093 574.949C309.927 574.328 308.834 573.583 307.83 572.735C306.255 571.397 304.903 569.794 303.851 567.984L280.569 528.002C278.945 525.214 279.899 521.654 282.699 520.051C284.099 519.25 285.695 519.089 287.145 519.478C288.593 519.866 289.897 520.804 290.706 522.197L284.753 511.974C283.13 509.186 284.083 505.626 286.884 504.023C287.8 503.499 288.8 503.248 289.786 503.248C290.309 503.246 290.828 503.315 291.33 503.45C292.781 503.838 294.082 504.775 294.894 506.17L290.309 498.297C288.685 495.508 289.639 491.949 292.44 490.346C293.839 489.547 295.437 489.387 296.885 489.775C298.333 490.163 299.637 491.101 300.45 492.492L304.12 498.795C302.872 496.598 303.212 493.939 304.78 492.133C305.196 491.653 305.696 491.235 306.281 490.901C307.682 490.1 309.277 489.939 310.727 490.327C312.178 490.716 313.479 491.653 314.291 493.047L335.038 528.675C334.136 527.126 333.603 525.467 333.414 523.8C333.229 522.21 333.358 520.613 333.772 519.089C333.84 518.837 333.916 518.588 334.002 518.344C334.949 515.565 336.875 513.109 339.632 511.531L348.711 527.122C353.85 535.947 355.662 546.289 353.824 556.295L353.1 560.24C352.358 564.275 353.088 568.447 355.162 572.007Z" fill="#FCE2B9"/>
<path d="M314.364 576.839C314.254 576.988 314.142 577.133 314.028 577.278C298.29 597.293 287.972 604.954 287.539 605.27C287 605.666 286.346 605.772 285.759 605.614C285.298 605.491 284.877 605.206 284.582 604.776C283.911 603.799 284.148 602.434 285.109 601.728C288.586 599.171 298.305 590.314 310.395 575.003C310.51 574.858 310.625 574.714 310.74 574.567C319.652 563.231 324.049 547.761 326.164 536.778C327.593 529.368 328.204 522.972 328.461 519.154C330.12 519.592 331.363 520.988 331.643 522.727L332.128 525.745C331.749 529.126 331.181 533.157 330.331 537.562C328.145 548.894 323.608 564.846 314.364 576.839Z" fill="#F95428"/>
<path d="M317.464 521.022L304.328 498.546C303.096 496.385 303.429 493.77 304.974 491.996L317.464 521.022Z" fill="#EDD2AB"/>
<path d="M307.569 528.001L290.268 502.723C290.792 502.714 291.31 502.78 291.811 502.914C293.258 503.301 294.548 504.265 295.343 505.713L307.569 528.001Z" fill="#EDD2AB"/>
<path d="M303.558 542.975L285.86 519.179C286.381 519.18 286.898 519.251 287.399 519.385C288.846 519.773 290.148 520.692 290.966 522.052L303.558 542.975Z" fill="#EDD2AB"/>
<path d="M290.143 611.006L286.195 609.948L287.651 604.516L283.567 603.422L282.111 608.854L278.164 607.796L276.989 612.182L280.936 613.24L278.351 622.889L282.435 623.983L285.02 614.334L288.968 615.392L290.143 611.006Z" fill="#E09B2D"/>
<path d="M339.017 536.426L335.115 528.58C334.306 526.952 333.853 525.194 333.728 523.415C333.605 521.719 333.781 520.005 334.228 518.36C334.301 518.088 334.382 517.818 334.473 517.554L339.017 536.426Z" fill="#EDD2AB"/>
</g>
<path d="M80.5647 160.84V158.4H90.5647V160.84H86.9647V172H84.2047V160.84H80.5647ZM100.132 172V166.36H95.072V172H92.312V158.4H95.072V163.96H100.132V158.4H102.892V172H100.132ZM105.847 172V158.4H114.647V160.8H108.607V163.98H113.447V166.34H108.607V169.6H114.647V172H105.847ZM129.936 171.78C128.523 172.087 127.249 172.24 126.116 172.24C124.983 172.24 124.076 172.1 123.396 171.82C122.716 171.54 122.183 171.093 121.796 170.48C121.409 169.867 121.143 169.147 120.996 168.32C120.849 167.493 120.776 166.453 120.776 165.2C120.776 162.573 121.143 160.747 121.876 159.72C122.623 158.68 123.989 158.16 125.976 158.16C127.123 158.16 128.449 158.34 129.956 158.7L129.876 160.9C128.556 160.7 127.456 160.6 126.576 160.6C125.709 160.6 125.089 160.72 124.716 160.96C124.343 161.187 124.063 161.627 123.876 162.28C123.703 162.933 123.616 164.047 123.616 165.62C123.616 167.193 123.796 168.287 124.156 168.9C124.529 169.5 125.263 169.8 126.356 169.8C127.463 169.8 128.636 169.707 129.876 169.52L129.936 171.78ZM131.035 172L134.095 158.4H139.335L142.395 172H139.635L139.095 169.54H134.335L133.795 172H131.035ZM136.235 160.68L134.855 167.14H138.575L137.195 160.68H136.235ZM146.967 167.44V172H144.207V158.4H149.487C152.687 158.4 154.287 159.893 154.287 162.88C154.287 164.653 153.62 165.96 152.287 166.8L154.227 172H151.207L149.627 167.44H146.967ZM149.527 165.08C150.18 165.08 150.667 164.88 150.987 164.48C151.307 164.08 151.467 163.553 151.467 162.9C151.467 162.247 151.293 161.727 150.947 161.34C150.613 160.953 150.127 160.76 149.487 160.76H146.967V165.08H149.527ZM161.189 172H156.609V158.4H161.189C162.362 158.4 163.329 158.527 164.089 158.78C164.849 159.02 165.436 159.427 165.849 160C166.276 160.56 166.569 161.227 166.729 162C166.889 162.76 166.969 163.753 166.969 164.98C166.969 166.207 166.896 167.227 166.749 168.04C166.602 168.84 166.322 169.56 165.909 170.2C165.509 170.827 164.922 171.287 164.149 171.58C163.376 171.86 162.389 172 161.189 172ZM164.089 166.6C164.116 166.173 164.129 165.587 164.129 164.84C164.129 164.08 164.102 163.473 164.049 163.02C163.996 162.567 163.869 162.153 163.669 161.78C163.469 161.407 163.169 161.153 162.769 161.02C162.382 160.873 161.856 160.8 161.189 160.8H159.369V169.6H161.189C162.189 169.6 162.916 169.347 163.369 168.84C163.756 168.427 163.996 167.68 164.089 166.6ZM173.543 160.56C172.089 160.56 171.363 161.04 171.363 162C171.363 162.427 171.543 162.753 171.903 162.98C172.263 163.207 173.103 163.533 174.423 163.96C175.756 164.387 176.689 164.873 177.223 165.42C177.756 165.953 178.023 166.78 178.023 167.9C178.023 169.327 177.589 170.407 176.723 171.14C175.856 171.873 174.723 172.24 173.323 172.24C172.283 172.24 171.009 172.08 169.503 171.76L168.783 171.62L169.063 169.48C170.849 169.72 172.216 169.84 173.163 169.84C174.576 169.84 175.283 169.253 175.283 168.08C175.283 167.653 175.116 167.32 174.783 167.08C174.463 166.84 173.816 166.58 172.843 166.3C171.296 165.86 170.203 165.34 169.563 164.74C168.936 164.127 168.623 163.28 168.623 162.2C168.623 160.84 169.036 159.827 169.863 159.16C170.689 158.493 171.823 158.16 173.263 158.16C174.249 158.16 175.503 158.293 177.023 158.56L177.743 158.7L177.523 160.88C175.643 160.667 174.316 160.56 173.543 160.56ZM183.536 158.4H186.436L188.116 169.64H188.416L190.856 158.4H194.056L196.496 169.64H196.796L198.476 158.4H201.376L198.776 172H194.596L192.456 161.66L190.316 172H186.136L183.536 158.4ZM203.23 172V158.4H205.99V172H203.23ZM216.693 172H208.953V158.4H211.713V169.56H216.693V172ZM226.126 172H218.386V158.4H221.146V169.56H226.126V172ZM232.214 158.4H237.554C238.968 158.4 240.028 158.687 240.734 159.26C241.441 159.82 241.794 160.733 241.794 162C241.794 162.76 241.681 163.367 241.454 163.82C241.228 164.26 240.841 164.653 240.294 165C240.894 165.253 241.334 165.62 241.614 166.1C241.908 166.58 242.054 167.247 242.054 168.1C242.054 169.42 241.668 170.4 240.894 171.04C240.121 171.68 239.034 172 237.634 172H232.214V158.4ZM237.494 166.32H234.974V169.64H237.494C238.094 169.64 238.534 169.52 238.814 169.28C239.108 169.04 239.254 168.6 239.254 167.96C239.254 166.867 238.668 166.32 237.494 166.32ZM237.414 160.76H234.974V164H237.434C238.474 164 238.994 163.46 238.994 162.38C238.994 161.3 238.468 160.76 237.414 160.76ZM244.402 172V158.4H253.202V160.8H247.162V163.98H252.002V166.34H247.162V169.6H253.202V172H244.402ZM264.451 172H259.871V158.4H264.451C265.624 158.4 266.591 158.527 267.351 158.78C268.111 159.02 268.697 159.427 269.111 160C269.537 160.56 269.831 161.227 269.991 162C270.151 162.76 270.231 163.753 270.231 164.98C270.231 166.207 270.157 167.227 270.011 168.04C269.864 168.84 269.584 169.56 269.171 170.2C268.771 170.827 268.184 171.287 267.411 171.58C266.637 171.86 265.651 172 264.451 172ZM267.351 166.6C267.377 166.173 267.391 165.587 267.391 164.84C267.391 164.08 267.364 163.473 267.311 163.02C267.257 162.567 267.131 162.153 266.931 161.78C266.731 161.407 266.431 161.153 266.031 161.02C265.644 160.873 265.117 160.8 264.451 160.8H262.631V169.6H264.451C265.451 169.6 266.177 169.347 266.631 168.84C267.017 168.427 267.257 167.68 267.351 166.6ZM272.625 172V158.4H275.385V172H272.625ZM282.527 160.56C281.074 160.56 280.347 161.04 280.347 162C280.347 162.427 280.527 162.753 280.887 162.98C281.247 163.207 282.087 163.533 283.407 163.96C284.741 164.387 285.674 164.873 286.207 165.42C286.741 165.953 287.007 166.78 287.007 167.9C287.007 169.327 286.574 170.407 285.707 171.14C284.841 171.873 283.707 172.24 282.307 172.24C281.267 172.24 279.994 172.08 278.487 171.76L277.767 171.62L278.047 169.48C279.834 169.72 281.201 169.84 282.147 169.84C283.561 169.84 284.267 169.253 284.267 168.08C284.267 167.653 284.101 167.32 283.767 167.08C283.447 166.84 282.801 166.58 281.827 166.3C280.281 165.86 279.187 165.34 278.547 164.74C277.921 164.127 277.607 163.28 277.607 162.2C277.607 160.84 278.021 159.827 278.847 159.16C279.674 158.493 280.807 158.16 282.247 158.16C283.234 158.16 284.487 158.293 286.007 158.56L286.727 158.7L286.507 160.88C284.627 160.667 283.301 160.56 282.527 160.56ZM297.846 171.78C296.433 172.087 295.159 172.24 294.026 172.24C292.893 172.24 291.986 172.1 291.306 171.82C290.626 171.54 290.093 171.093 289.706 170.48C289.319 169.867 289.053 169.147 288.906 168.32C288.759 167.493 288.686 166.453 288.686 165.2C288.686 162.573 289.053 160.747 289.786 159.72C290.533 158.68 291.899 158.16 293.886 158.16C295.033 158.16 296.359 158.34 297.866 158.7L297.786 160.9C296.466 160.7 295.366 160.6 294.486 160.6C293.619 160.6 292.999 160.72 292.626 160.96C292.253 161.187 291.973 161.627 291.786 162.28C291.613 162.933 291.526 164.047 291.526 165.62C291.526 167.193 291.706 168.287 292.066 168.9C292.439 169.5 293.173 169.8 294.266 169.8C295.373 169.8 296.546 169.707 297.786 169.52L297.846 171.78ZM302.788 168.8C303.188 169.493 303.928 169.84 305.008 169.84C306.088 169.84 306.822 169.493 307.208 168.8C307.608 168.093 307.808 166.92 307.808 165.28C307.808 163.627 307.608 162.427 307.208 161.68C306.808 160.933 306.075 160.56 305.008 160.56C303.942 160.56 303.208 160.933 302.808 161.68C302.408 162.427 302.208 163.627 302.208 165.28C302.208 166.92 302.402 168.093 302.788 168.8ZM309.368 170.56C308.528 171.68 307.075 172.24 305.008 172.24C302.942 172.24 301.482 171.68 300.628 170.56C299.788 169.427 299.368 167.66 299.368 165.26C299.368 162.86 299.788 161.08 300.628 159.92C301.482 158.747 302.942 158.16 305.008 158.16C307.075 158.16 308.528 158.747 309.368 159.92C310.222 161.08 310.648 162.86 310.648 165.26C310.648 167.66 310.222 169.427 309.368 170.56ZM320.18 158.4H323.08L319.92 172H314.82L311.66 158.4H314.56L316.92 169.6H317.82L320.18 158.4ZM324.871 172V158.4H333.671V160.8H327.631V163.98H332.471V166.34H327.631V169.6H333.671V172H324.871ZM338.705 167.44V172H335.945V158.4H341.225C344.425 158.4 346.025 159.893 346.025 162.88C346.025 164.653 345.358 165.96 344.025 166.8L345.965 172H342.945L341.365 167.44H338.705ZM341.265 165.08C341.918 165.08 342.405 164.88 342.725 164.48C343.045 164.08 343.205 163.553 343.205 162.9C343.205 162.247 343.032 161.727 342.685 161.34C342.352 160.953 341.865 160.76 341.225 160.76H338.705V165.08H341.265ZM348.347 172V158.4H357.147V160.8H351.107V163.98H355.947V166.34H351.107V169.6H357.147V172H348.347ZM364.001 172H359.421V158.4H364.001C365.175 158.4 366.141 158.527 366.901 158.78C367.661 159.02 368.248 159.427 368.661 160C369.088 160.56 369.381 161.227 369.541 162C369.701 162.76 369.781 163.753 369.781 164.98C369.781 166.207 369.708 167.227 369.561 168.04C369.415 168.84 369.135 169.56 368.721 170.2C368.321 170.827 367.735 171.287 366.961 171.58C366.188 171.86 365.201 172 364.001 172ZM366.901 166.6C366.928 166.173 366.941 165.587 366.941 164.84C366.941 164.08 366.915 163.473 366.861 163.02C366.808 162.567 366.681 162.153 366.481 161.78C366.281 161.407 365.981 161.153 365.581 161.02C365.195 160.873 364.668 160.8 364.001 160.8H362.181V169.6H364.001C365.001 169.6 365.728 169.347 366.181 168.84C366.568 168.427 366.808 167.68 366.901 166.6ZM148.318 202H143.738V188.4H148.318C149.491 188.4 150.458 188.527 151.218 188.78C151.978 189.02 152.564 189.427 152.978 190C153.404 190.56 153.698 191.227 153.858 192C154.018 192.76 154.098 193.753 154.098 194.98C154.098 196.207 154.024 197.227 153.878 198.04C153.731 198.84 153.451 199.56 153.038 200.2C152.638 200.827 152.051 201.287 151.278 201.58C150.504 201.86 149.518 202 148.318 202ZM151.218 196.6C151.244 196.173 151.258 195.587 151.258 194.84C151.258 194.08 151.231 193.473 151.178 193.02C151.124 192.567 150.998 192.153 150.798 191.78C150.598 191.407 150.298 191.153 149.898 191.02C149.511 190.873 148.984 190.8 148.318 190.8H146.498V199.6H148.318C149.318 199.6 150.044 199.347 150.498 198.84C150.884 198.427 151.124 197.68 151.218 196.6ZM159.132 197.46C159.132 199.047 159.938 199.84 161.552 199.84C163.165 199.84 163.972 199.047 163.972 197.46V188.4H166.732V197.4C166.732 199.067 166.298 200.293 165.432 201.08C164.578 201.853 163.285 202.24 161.552 202.24C159.818 202.24 158.518 201.853 157.652 201.08C156.798 200.293 156.372 199.067 156.372 197.4V188.4H159.132V197.46ZM172.338 197.44V202H169.578V188.4H174.858C178.058 188.4 179.658 189.893 179.658 192.88C179.658 194.653 178.991 195.96 177.658 196.8L179.598 202H176.578L174.998 197.44H172.338ZM174.898 195.08C175.551 195.08 176.038 194.88 176.358 194.48C176.678 194.08 176.838 193.553 176.838 192.9C176.838 192.247 176.664 191.727 176.318 191.34C175.984 190.953 175.498 190.76 174.858 190.76H172.338V195.08H174.898ZM181.98 202V188.4H184.74V202H181.98ZM187.703 202V188.4H192.363L195.643 199.6H195.843V188.4H198.603V202H194.063L190.663 190.8H190.463V202H187.703ZM207.23 197.12V194.72H211.19V201.78C209.283 202.087 207.737 202.24 206.55 202.24C204.43 202.24 202.97 201.673 202.17 200.54C201.383 199.407 200.99 197.607 200.99 195.14C200.99 192.673 201.403 190.893 202.23 189.8C203.057 188.707 204.463 188.16 206.45 188.16C207.69 188.16 209.03 188.3 210.47 188.58L211.19 188.72L211.11 190.86C209.51 190.687 208.197 190.6 207.17 190.6C206.157 190.6 205.443 190.72 205.03 190.96C204.617 191.2 204.31 191.647 204.11 192.3C203.923 192.94 203.83 194.047 203.83 195.62C203.83 197.18 204.023 198.273 204.41 198.9C204.797 199.527 205.597 199.84 206.81 199.84L208.47 199.76V197.12H207.23ZM216.971 190.84V188.4H226.971V190.84H223.371V202H220.611V190.84H216.971ZM236.538 202V196.36H231.478V202H228.718V188.4H231.478V193.96H236.538V188.4H239.298V202H236.538ZM242.253 202V188.4H251.053V190.8H245.013V193.98H249.853V196.34H245.013V199.6H251.053V202H242.253ZM263.382 197.12V194.72H267.342V201.78C265.436 202.087 263.889 202.24 262.702 202.24C260.582 202.24 259.122 201.673 258.322 200.54C257.536 199.407 257.142 197.607 257.142 195.14C257.142 192.673 257.556 190.893 258.382 189.8C259.209 188.707 260.616 188.16 262.602 188.16C263.842 188.16 265.182 188.3 266.622 188.58L267.342 188.72L267.262 190.86C265.662 190.687 264.349 190.6 263.322 190.6C262.309 190.6 261.596 190.72 261.182 190.96C260.769 191.2 260.462 191.647 260.262 192.3C260.076 192.94 259.982 194.047 259.982 195.62C259.982 197.18 260.176 198.273 260.562 198.9C260.949 199.527 261.749 199.84 262.962 199.84L264.622 199.76V197.12H263.382ZM268.809 202L271.869 188.4H277.109L280.169 202H277.409L276.869 199.54H272.109L271.569 202H268.809ZM274.009 190.68L272.629 197.14H276.349L274.969 190.68H274.009ZM281.98 202V188.4H286.68L289.08 198.32L291.48 188.4H296.18V202H293.42V191.48H293.12L290.46 201.4H287.7L285.04 191.48H284.74V202H281.98ZM299.148 202V188.4H307.948V190.8H301.908V193.98H306.748V196.34H301.908V199.6H307.948V202H299.148Z" fill="white"/>
<defs>
<linearGradient id="paint0_linear_347_205" x1="225" y1="0" x2="225" y2="789" gradientUnits="userSpaceOnUse">
<stop stop-color="#10E2E0"/>
<stop offset="1" stop-color="#8912DA"/>
</linearGradient>
<linearGradient id="paint1_linear_347_205" x1="225" y1="0" x2="225" y2="789" gradientUnits="userSpaceOnUse">
<stop stop-color="#FBD03B"/>
<stop offset="1" stop-color="#FA7800"/>
</linearGradient>
<linearGradient id="paint2_linear_347_205" x1="129.012" y1="452.098" x2="136.749" y2="503.559" gradientUnits="userSpaceOnUse">
<stop stop-color="#FBD03B"/>
<stop offset="1" stop-color="#FA7800"/>
</linearGradient>
<linearGradient id="paint3_linear_347_205" x1="129.012" y1="452.098" x2="136.749" y2="503.559" gradientUnits="userSpaceOnUse">
<stop stop-color="#FBD03B"/>
<stop offset="1" stop-color="#FA7800"/>
</linearGradient>
<linearGradient id="paint4_linear_347_205" x1="129.012" y1="452.098" x2="136.749" y2="503.559" gradientUnits="userSpaceOnUse">
<stop stop-color="#FBD03B"/>
<stop offset="1" stop-color="#FA7800"/>
</linearGradient>
<linearGradient id="paint5_linear_347_205" x1="341.486" y1="434.371" x2="260.035" y2="738.353" gradientUnits="userSpaceOnUse">
<stop stop-color="#FBD03B"/>
<stop offset="1" stop-color="#FA7800"/>
</linearGradient>
<linearGradient id="paint6_linear_347_205" x1="264.128" y1="405.618" x2="259.714" y2="422.09" gradientUnits="userSpaceOnUse">
<stop stop-color="#FBD03B"/>
<stop offset="1" stop-color="#FA7800"/>
</linearGradient>
<linearGradient id="paint7_linear_347_205" x1="264.128" y1="405.618" x2="259.714" y2="422.09" gradientUnits="userSpaceOnUse">
<stop stop-color="#FBD03B"/>
<stop offset="1" stop-color="#FA7800"/>
</linearGradient>
<linearGradient id="paint8_linear_347_205" x1="264.128" y1="405.618" x2="259.714" y2="422.09" gradientUnits="userSpaceOnUse">
<stop stop-color="#FBD03B"/>
<stop offset="1" stop-color="#FA7800"/>
</linearGradient>
<linearGradient id="paint9_linear_347_205" x1="337.393" y1="767.105" x2="341.807" y2="750.633" gradientUnits="userSpaceOnUse">
<stop stop-color="#FBD03B"/>
<stop offset="1" stop-color="#FA7800"/>
</linearGradient>
<linearGradient id="paint10_linear_347_205" x1="337.393" y1="767.105" x2="341.807" y2="750.633" gradientUnits="userSpaceOnUse">
<stop stop-color="#FBD03B"/>
<stop offset="1" stop-color="#FA7800"/>
</linearGradient>
<linearGradient id="paint11_linear_347_205" x1="337.393" y1="767.105" x2="341.807" y2="750.633" gradientUnits="userSpaceOnUse">
<stop stop-color="#FBD03B"/>
<stop offset="1" stop-color="#FA7800"/>
</linearGradient>
</defs>
</svg>
