<!DOCTYPE svg PUBLIC "-//W3C//DTD SVG 1.1//EN" "http://www.w3.org/Graphics/SVG/1.1/DTD/svg11.dtd">
<!-- Uploaded to: SVG Repo, www.svgrepo.com, Transformed by: SVG Repo Mixer Tools -->
<svg height="800px" width="800px" version="1.1" id="Layer_1" xmlns="http://www.w3.org/2000/svg" xmlns:xlink="http://www.w3.org/1999/xlink" viewBox="0 0 512 512" xml:space="preserve" fill="#000000">
<g id="SVGRepo_bgCarrier" stroke-width="0"/>
<g id="SVGRepo_tracerCarrier" stroke-linecap="round" stroke-linejoin="round"/>
<g id="SVGRepo_iconCarrier"> <g transform="translate(1 1)"> <path style="fill:#FFFFFF;" d="M237.93,161.133c0,10.24-9.387,18.773-19.627,17.067c-8.533-1.707-14.507-9.387-14.507-17.92V77.507 c0-10.24-7.68-18.773-17.92-18.773h-16.213h-8.533v-6.827c0-14.507,12.8-28.16,27.307-27.307c5.973,0,11.947,2.56,16.213,6.827 c0.853-13.653,11.093-23.893,24.747-23.893s24.747,10.24,25.6,23.893c4.267-4.267,10.24-6.827,17.067-6.827 c7.68,0,13.653,3.413,18.773,8.533c4.267-10.24,14.507-17.92,26.453-17.067c13.653,1.707,23.04,13.653,23.04,27.307v15.36h-83.627 c-10.24,0-18.773,8.533-18.773,18.773V161.133z"/> <path style="fill:#FD9808;" d="M307.903,453.827c-17.92-49.493-9.387-103.253,12.8-152.747 c33.28-73.387,28.16-242.347,28.16-242.347h-8.533h-83.627c-10.24,0-18.773,8.533-18.773,18.773v82.773 c0,8.533-5.973,16.213-14.507,17.92c-10.24,1.707-19.627-6.827-19.627-17.067V77.507c0-10.24-7.68-18.773-17.92-18.773h-16.213 h-8.533l0,0c0,0-4.267,168.96,28.16,241.493c23.04,50.347,31.573,103.253,13.653,153.6c-8.533,23.04-12.8,43.52-24.747,48.64h153.6 C320.703,497.347,316.436,476.867,307.903,453.827"/> <path style="fill:#FFDD09;" d="M289.983,453.827c-14.507-49.493-7.68-103.253,10.24-152.747 c27.307-73.387,23.04-242.347,23.04-242.347h-6.827h-69.12c-8.533,0-15.36,8.533-15.36,18.773v82.773 c0,8.533-5.12,16.213-11.947,17.92c-8.533,1.707-16.213-6.827-16.213-17.067V77.507c0.853-10.24-5.973-18.773-13.653-18.773H176.49 h-6.827l0,0c0,0-3.413,168.96,23.04,241.493c18.773,50.347,25.6,103.253,10.24,152.747c-5.973,23.893-9.387,44.373-18.773,49.493 h125.44C300.223,497.347,296.81,476.867,289.983,453.827"/> <polygon style="fill:#FFFFFF;" points="306.197,237.933 280.596,263.533 289.13,297.667 254.996,280.6 220.863,297.667 229.396,263.533 203.796,237.933 237.93,229.4 254.996,203.8 272.063,229.4 "/> <path d="M220.863,186.733c-1.707,0-2.56,0-4.267,0c-11.947-2.56-21.333-13.653-21.333-26.453V77.507 c0-5.973-4.267-10.24-9.387-10.24H161.13c-5.12,0-8.533-3.413-8.533-8.533v-6.827c0-10.24,4.267-19.627,11.947-26.453 c6.827-6.827,15.36-9.387,23.893-9.387c3.413,0,6.827,0.853,10.24,2.56C204.65,6.68,216.596-1,229.396-1 c12.8,0,24.747,7.68,30.72,19.627c9.387-3.413,19.627-2.56,28.16,1.707c6.827-8.533,17.92-13.653,29.867-12.8 c17.067,1.707,30.72,17.067,30.72,34.987v16.213c0,5.12-3.413,8.533-8.533,8.533h-83.627c-5.973,0-10.24,4.267-10.24,10.24v83.627 c0,7.68-3.413,14.507-9.387,19.627C232.81,185.027,226.836,186.733,220.863,186.733z M169.663,50.2h15.36 c15.36,0,27.307,11.947,27.307,27.307v82.773c0,4.267,3.413,8.533,6.827,9.387c2.56,0,5.12,0,6.827-1.707 c2.56-1.707,3.413-4.267,3.413-6.827V77.507c0-15.36,11.947-27.307,27.307-27.307h75.093v-6.827c0-10.24-6.827-17.92-15.36-18.773 c-7.68-0.853-14.507,3.413-17.92,11.093c-0.853,2.56-3.413,5.12-5.973,5.12c-2.56,0.853-5.973,0-7.68-2.56 c-5.973-6.827-17.067-6.827-23.893-0.853c-2.56,2.56-5.973,2.56-8.533,1.707c-3.413-0.853-5.973-4.267-5.973-6.827 c-0.853-9.387-7.68-16.213-17.067-16.213c-8.533,0-16.213,6.827-17.067,16.213c0,3.413-2.56,5.973-5.12,7.68 c-3.413,0.853-6.827,0.853-8.533-1.707c-3.413-3.413-6.827-5.12-11.093-5.12s-8.533,1.707-11.947,4.267 C172.223,40.813,170.516,45.933,169.663,50.2z"/> <path d="M331.797,511h-153.6c-4.267,0-7.68-2.56-8.533-6.827s1.707-7.68,5.12-9.387c5.12-2.56,10.24-16.213,14.507-29.013 c1.707-5.12,3.413-10.24,5.12-15.36c16.213-43.52,11.947-93.013-11.947-145.92c-34.133-74.24-29.867-238.933-29.867-245.76 c0-4.267,4.267-8.533,8.533-8.533h24.747c14.507,0,26.453,11.947,26.453,27.307v83.627c0,2.56,0.853,5.12,3.413,6.827 c1.707,1.707,4.267,1.707,6.827,1.707c4.267-0.853,6.827-5.12,6.827-9.387V77.507c0-15.36,11.947-27.307,27.307-27.307h92.16 c4.267,0,8.533,3.413,8.533,8.533c0,6.827,4.267,171.52-29.013,245.76c-23.893,53.76-28.16,103.253-12.8,146.773l0,0 c1.707,5.12,3.413,10.24,5.12,15.36c4.267,12.8,8.533,26.453,14.507,29.013c3.413,1.707,5.973,5.973,5.12,9.387 C339.477,508.44,336.063,511,331.797,511z M196.97,493.933h116.907c-3.413-6.827-5.973-14.507-8.533-23.04 c-1.707-4.267-3.413-9.387-5.12-14.507l0,0c-17.92-47.787-12.8-101.547,12.8-159.573c27.307-60.587,28.16-194.56,28.16-229.547 h-84.48c-5.973,0-10.24,4.267-10.24,10.24v82.773c0,12.8-9.387,23.893-21.333,26.453c-7.68,0.853-15.36-0.853-20.48-5.973 c-5.973-5.12-9.387-11.947-9.387-19.627V77.507c0-5.973-4.267-10.24-9.387-10.24h-16.213c0,34.987,0,168.96,28.16,229.547 c25.6,58.027,30.72,111.787,12.8,159.573c-1.707,5.12-3.413,10.24-5.12,14.507C202.943,479.427,200.383,487.107,196.97,493.933z"/> <path d="M289.13,306.2c-1.707,0-2.56,0-3.413-0.853l-30.72-15.36l-30.72,15.36c-2.56,1.707-6.827,0.853-9.387-0.853 c-2.56-1.707-3.413-5.12-2.56-8.533l7.68-29.867l-22.187-22.187c-2.56-2.56-3.413-5.12-2.56-8.533s3.413-5.12,5.973-5.973 l30.72-7.68l15.36-23.04c3.413-5.12,11.093-5.12,14.507,0l15.36,23.04l30.72,7.68c2.56,0.853,5.12,3.413,5.973,5.973 c0.853,2.56,0,5.973-2.56,8.533l-22.187,22.187l7.68,29.867c0.853,3.413,0,6.827-2.56,8.533 C292.543,305.347,290.836,306.2,289.13,306.2z M254.996,272.067c1.707,0,2.56,0,3.413,0.853l17.92,8.533l-4.267-16.213 c-0.853-2.56,0-5.973,2.56-7.68l15.36-15.36l-19.627-4.267c-1.707-0.853-4.267-1.707-5.12-3.413l-10.24-15.36l-10.24,15.36 c-0.853,1.707-2.56,3.413-5.12,3.413l-18.773,4.267l15.36,15.36c1.707,1.707,2.56,5.12,1.707,7.68l-4.267,16.213l17.92-8.533 C252.436,272.067,253.29,272.067,254.996,272.067z"/> <path d="M331.797,511h-153.6c-4.267,0-7.68-2.56-8.533-6.827s1.707-7.68,5.12-9.387c5.12-2.56,10.24-16.213,14.507-29.013 c0.853-2.56,1.707-5.12,2.56-8.533c1.707-3.413,5.12-5.973,8.533-5.973H309.61c3.413,0,6.827,2.56,7.68,5.973l2.56,8.533 c4.267,13.653,9.387,27.307,14.507,29.013c3.413,1.707,5.973,5.973,5.12,9.387C338.623,507.587,336.063,511,331.797,511z M196.97,493.933h116.907c-3.413-6.827-5.973-14.507-8.533-23.04l-1.707-2.56h-97.28c0,0.853-0.853,1.707-0.853,2.56 C202.943,479.427,200.383,487.107,196.97,493.933z"/> </g> </g>
</svg>