<svg width="150" height="175" viewBox="0 0 150 175" fill="none" xmlns="http://www.w3.org/2000/svg">
<path d="M25 0H125V12.5H137.5V50H150V75H137.5V112.5H125V125H87.5V137.5H137.5V150H150V175H0V150H12.5V137.5H62.5V125H25V112.5H12.5V75H0V50H12.5V12.5H25V0Z" fill="#E0B687"/>
<path d="M25 0H125V12.5H137.5V50H150V75H137.5V112.5H125V125H25V112.5H12.5V75H0V50H12.5V12.5H25V0Z" fill="white" fill-opacity="0.1"/>
<path d="M37.5 137.5H12.5V150H0V175H150V150H137.5V137.5H112.5V150H37.5V137.5Z" fill="#FFC425"/>
<path d="M100 37.5H112.5V62.5H87.5V50H100V37.5ZM37.5 37.5H50V62.5H25V50H37.5V37.5Z" fill="white"/>
<path d="M112.5 50H100V62.5H112.5V50ZM50 50H37.5V62.5H50V50Z" fill="#647B90"/>
<path d="M62.5 87.5V100H87.5V112.5H100V100H87.5V87.5H62.5Z" fill="#D29985"/>
<path d="M25 0H125V12.5H25V0ZM12.5 12.5H50V25H12.5V12.5ZM100 12.5H137.5V25H100V12.5ZM75 12.5H87.5V25H75V12.5Z" fill="#611C17"/>
<path d="M75 12.5H87.5V25H75V12.5Z" fill="#611C17"/>
</svg>
