<?xml version="1.0" encoding="iso-8859-1"?>
<!-- Uploaded to: SVG Repo, www.svgrepo.com, Generator: SVG Repo Mixer Tools -->
<svg height="800px" width="800px" version="1.1" id="Layer_1" xmlns="http://www.w3.org/2000/svg" xmlns:xlink="http://www.w3.org/1999/xlink" 
	 viewBox="0 0 503.467 503.467" xml:space="preserve">
<g transform="translate(17 1)">
	<g>
		<path style="fill:#FF7474;" d="M243.267,319v76.8h-102.4V105.667h102.4v76.8c-20.48,15.36-34.133,40.107-34.133,68.267
			S222.787,303.64,243.267,319z M243.267,54.467h-102.4c0-28.16,23.04-51.2,51.2-51.2S243.267,26.307,243.267,54.467z M140.867,447
			h102.4c0,28.16-23.04,51.2-51.2,51.2S140.867,475.16,140.867,447z"/>
		<path style="fill:#FF7474;" d="M345.667,319v76.8h-102.4V319c14.507,11.093,32.427,17.067,51.2,17.067S331.16,330.093,345.667,319
			z M345.667,105.667v76.8c-14.507-11.093-32.427-17.067-51.2-17.067c-18.773,0-36.693,6.827-51.2,17.067v-76.8H345.667z
			 M345.667,54.467h-102.4c0-28.16,23.04-51.2,51.2-51.2C322.627,3.267,345.667,26.307,345.667,54.467z M243.267,447h102.4
			c0,28.16-23.04,51.2-51.2,51.2C266.307,498.2,243.267,475.16,243.267,447z"/>
	</g>
	<path style="fill:#AAB1BA;" d="M465.133,404.333v34.133c0,4.267-3.413,8.533-8.533,8.533h-8.533h-102.4h-102.4h-102.4h-8.533
		c-4.267,0-8.533-4.267-8.533-8.533v-34.133c0-4.267,4.267-8.533,8.533-8.533h8.533h102.4h102.4h102.4h8.533
		C461.72,395.8,465.133,400.067,465.133,404.333z M465.133,63v34.133c0,4.267-3.413,8.533-8.533,8.533h-8.533h-102.4h-102.4h-102.4
		h-8.533c-4.267,0-8.533-4.267-8.533-8.533v-25.6V63c0-4.267,4.267-8.533,8.533-8.533h8.533h102.4h102.4h102.4h8.533
		C461.72,54.467,465.133,58.733,465.133,63z"/>
	<path style="fill:#FF7474;" d="M448.067,105.667V395.8h-102.4V319c20.48-15.36,34.133-40.107,34.133-68.267
		s-13.653-52.907-34.133-68.267v-76.8H448.067z M448.067,54.467h-102.4c0-28.16,23.04-51.2,51.2-51.2
		C425.027,3.267,448.067,26.307,448.067,54.467z M345.667,447h102.4c0,28.16-23.04,51.2-51.2,51.2
		C368.707,498.2,345.667,475.16,345.667,447z"/>
	<path style="fill:#E4F2DE;" d="M345.667,182.467c20.48,15.36,34.133,40.107,34.133,68.267S366.147,303.64,345.667,319
		c-14.507,11.093-32.427,17.067-51.2,17.067c-18.773,0-36.693-6.827-51.2-17.067c-20.48-15.36-34.133-40.107-34.133-68.267
		s13.653-52.907,34.133-68.267c14.507-11.093,32.427-17.067,51.2-17.067S331.16,172.227,345.667,182.467"/>
</g>
<path style="fill:#51565F;" d="M413.867,503.467c-23.04,0-42.667-14.507-51.2-34.133c-8.533,19.627-28.16,34.133-51.2,34.133
	s-42.667-14.507-51.2-34.133c-8.533,19.627-28.16,34.133-51.2,34.133c-29.013,0-52.907-22.187-55.467-51.2h-4.267
	c-6.827,0-12.8-5.973-12.8-12.8v-34.133c0-6.827,5.973-12.8,12.8-12.8h4.267v-281.6h-4.267c-6.827,0-12.8-5.973-12.8-12.8V76.8
	h-12.8c-34.987,0-64,29.013-64,64v136.533c0,2.56-1.707,4.267-4.267,4.267c-2.56,0-4.267-1.707-4.267-4.267V140.8
	c0-40.107,32.427-72.533,72.533-72.533h12.8V64c0-6.827,5.973-12.8,12.8-12.8h4.267C156.16,22.187,180.053,0,209.067,0
	c23.04,0,42.667,14.507,51.2,34.133C268.8,14.507,288.427,0,311.467,0s42.667,14.507,51.2,34.133C371.2,14.507,390.827,0,413.867,0
	c29.013,0,52.907,22.187,55.467,51.2h4.267c6.827,0,12.8,5.973,12.8,12.8v34.133c0,6.827-5.973,12.8-12.8,12.8h-4.267v281.6h4.267
	c6.827,0,12.8,5.973,12.8,12.8v34.133c0,6.827-5.973,12.8-12.8,12.8h-4.267C466.773,481.28,442.88,503.467,413.867,503.467z
	 M366.933,452.267c2.56,23.893,22.187,42.667,46.933,42.667s44.373-18.773,46.933-42.667H366.933z M264.533,452.267
	c2.56,23.893,22.187,42.667,46.933,42.667s44.373-18.773,46.933-42.667H264.533z M162.133,452.267
	c2.56,23.893,22.187,42.667,46.933,42.667S253.44,476.16,256,452.267H162.133z M465.067,443.733h8.533
	c2.56,0,4.267-1.707,4.267-4.267v-34.133c0-2.56-1.707-4.267-4.267-4.267H149.333c-2.56,0-4.267,1.707-4.267,4.267v34.133
	c0,2.56,1.707,4.267,4.267,4.267H465.067z M366.933,392.533H460.8v-281.6h-93.867v38.4c0,2.56-1.707,4.267-4.267,4.267
	s-4.267-1.707-4.267-4.267v-38.4h-93.867v38.4c0,2.56-1.707,4.267-4.267,4.267S256,151.893,256,149.333v-38.4h-93.867v281.6H256
	v-38.4c0-2.56,1.707-4.267,4.267-4.267s4.267,1.707,4.267,4.267v38.4H358.4v-38.4c0-2.56,1.707-4.267,4.267-4.267
	s4.267,1.707,4.267,4.267V392.533z M465.067,102.4h8.533c2.56,0,4.267-1.707,4.267-4.267V64c0-2.56-1.707-4.267-4.267-4.267H149.333
	c-2.56,0-4.267,1.707-4.267,4.267v34.133c0,2.56,1.707,4.267,4.267,4.267H465.067z M366.933,51.2H460.8
	c-2.56-23.893-22.187-42.667-46.933-42.667S369.493,27.307,366.933,51.2z M264.533,51.2H358.4
	c-2.56-23.893-22.187-42.667-46.933-42.667S267.093,27.307,264.533,51.2z M162.133,51.2H256
	c-2.56-23.893-22.187-42.667-46.933-42.667S164.693,27.307,162.133,51.2z M311.467,341.333c-49.493,0-89.6-40.107-89.6-89.6
	s40.107-89.6,89.6-89.6s89.6,40.107,89.6,89.6S360.96,341.333,311.467,341.333z M311.467,170.667
	c-44.373,0-81.067,36.693-81.067,81.067s36.693,81.067,81.067,81.067s81.067-36.693,81.067-81.067S355.84,170.667,311.467,170.667z
	 M55.467,332.8c-2.56,0-4.267-1.707-4.267-4.267v-17.067c0-2.56,1.707-4.267,4.267-4.267c2.56,0,4.267,1.707,4.267,4.267v17.067
	C59.733,331.093,58.027,332.8,55.467,332.8z M89.6,320c-0.853,0-2.56-0.853-3.413-1.707l-11.947-12.8
	c-0.853-0.853-0.853-1.707-0.853-2.56c0-0.853,0.853-2.56,1.707-3.413c1.707-1.707,4.267-1.707,5.973,0l11.947,12.8
	c0.853,0.853,0.853,1.707,0.853,2.56c0,0.853-0.853,2.56-1.707,3.413C91.307,320,90.453,320,89.6,320z M21.333,320
	c-0.853,0-1.707,0-2.56-0.853c-0.853-0.853-1.707-1.707-1.707-3.413c0-0.853,0-1.707,0.853-2.56l11.947-12.8
	c1.707-1.707,4.267-1.707,5.973,0c0.853,0.853,1.707,1.707,1.707,3.413c0,0.853,0,1.707-0.853,2.56l-11.947,12.8
	C23.893,320,22.187,320,21.333,320z M311.467,256c-2.56,0-4.267-1.707-4.267-4.267v-51.2c0-2.56,1.707-4.267,4.267-4.267
	s4.267,1.707,4.267,4.267v51.2C315.733,254.293,314.027,256,311.467,256z"/>
</svg>