<?xml version="1.0" encoding="iso-8859-1"?>
<!-- Uploaded to: SVG Repo, www.svgrepo.com, Generator: SVG Repo Mixer Tools -->
<svg height="800px" width="800px" version="1.1" id="Layer_1" xmlns="http://www.w3.org/2000/svg" xmlns:xlink="http://www.w3.org/1999/xlink" 
	 viewBox="0 0 512 512" xml:space="preserve">
<path style="fill:#FFDC64;" d="M219.154,121.672l-31.386,141.241c-1.225,5.513,2.97,10.742,8.617,10.742H256l-16.322,138.741
	c-0.284,2.411,2.967,3.446,4.129,1.314l93.348-171.138c3.209-5.882-1.049-13.055-7.75-13.055h-64.578l41.831-108.76
	c1.112-2.891-1.022-5.998-4.119-5.998h-74.767C223.634,114.759,220.051,117.632,219.154,121.672z"/>
<path style="fill:#FFC850;" d="M265.419,256h-44.725c-5.647,0-9.843-5.229-8.618-10.742l29-130.499h-13.304
	c-4.138,0-7.72,2.873-8.618,6.913l-31.386,141.241c-1.225,5.513,2.969,10.742,8.617,10.742H256l-16.322,138.741
	c-0.284,2.411,2.966,3.446,4.129,1.314l22.884-41.955l11.879-100.967C279.496,262.916,273.345,256,265.419,256z"/>
<g>
	<path style="fill:#E4EAF8;" d="M256,0C184.301,0,117.618,29.23,69.334,80.892l4.105-24.642c0.802-4.802-2.449-9.354-7.258-10.155
		c-4.81-0.853-9.353,2.449-10.155,7.26l-8.828,52.966c-0.466,2.81,0.448,5.673,2.465,7.69c1.673,1.673,3.923,2.586,6.241,2.586
		c0.483,0,0.966-0.043,1.449-0.12l52.966-8.828c4.81-0.802,8.061-5.354,7.258-10.155c-0.793-4.81-5.336-8.12-10.155-7.258
		l-26.794,4.463C125.707,45.53,188.46,17.655,256,17.655c131.423,0,238.345,106.922,238.345,238.345
		c0,38.526-9.397,76.785-27.19,110.655c-2.268,4.319-0.604,9.655,3.715,11.923c1.311,0.681,2.716,1.009,4.095,1.009
		c3.172,0,6.241-1.716,7.828-4.724C501.897,338.474,512,297.37,512,256C512,114.845,397.155,0,256,0z"/>
	<path style="fill:#E4EAF8;" d="M454.646,395.526l-52.966,8.828c-4.81,0.802-8.061,5.354-7.258,10.155
		c0.793,4.81,5.362,8.086,10.155,7.258l26.794-4.463C386.293,466.47,323.54,494.345,256,494.345
		C124.577,494.345,17.655,387.423,17.655,256c0-38.526,9.397-76.785,27.19-110.655c2.268-4.319,0.604-9.655-3.715-11.923
		c-4.319-2.241-9.638-0.595-11.923,3.715C10.103,173.526,0,214.63,0,256c0,141.155,114.845,256,256,256
		c71.699,0,138.382-29.23,186.666-80.892l-4.105,24.642c-0.802,4.802,2.449,9.354,7.258,10.155c0.491,0.086,0.974,0.12,1.457,0.12
		c4.242,0,7.982-3.06,8.698-7.38l8.828-52.966c0.466-2.81-0.448-5.673-2.465-7.69C460.32,395.974,457.449,395.052,454.646,395.526z"
		/>
</g>
</svg>