<?xml version="1.0" encoding="iso-8859-1"?>
<!-- Uploaded to: SVG Repo, www.svgrepo.com, Generator: SVG Repo Mixer Tools -->
<svg height="800px" width="800px" version="1.1" id="Layer_1" xmlns="http://www.w3.org/2000/svg" xmlns:xlink="http://www.w3.org/1999/xlink" 
	 viewBox="0 0 511.998 511.998" xml:space="preserve">
<path style="fill:#806749;" d="M432.339,47.174c-19.585-19.585-51.337-19.585-70.922,0C350.971,57.619,18.811,389.78,14.689,393.902
	c-19.585,19.585-19.585,51.337,0,70.922c19.585,19.585,51.337,19.585,70.922,0c2.68-2.68,338.395-338.395,346.728-346.728
	C451.923,98.511,451.923,66.759,432.339,47.174z"/>
<path style="fill:#5F4D37;" d="M85.611,464.824c2.68-2.68,338.395-338.395,346.728-346.728c19.585-19.585,19.585-51.337,0-70.922
	l-417.65,417.65C34.274,484.408,66.026,484.408,85.611,464.824z"/>
<path style="fill:#FF5023;" d="M334.275,83.959c-15.182-11.544-29.842-23.967-43.964-37.293c-6.572-6.203-16.891-6.057-23.287,0.339
	l-94.901,94.901c-6.395,6.395-6.542,16.714-0.339,23.287c56.061,59.41,96.136,128.321,122.066,205.514
	c51.082-7.191,99.073-30.649,135.199-66.775c36.405-36.404,59.666-84.391,66.797-135.198
	C436.991,148.956,382.953,120.973,334.275,83.959z"/>
<path style="fill:#CD2A00;" d="M429.049,303.93c0.084-0.084,0.165-0.171,0.249-0.254L219.826,94.204l-47.702,47.702
	c-6.395,6.395-6.542,16.714-0.339,23.287c56.061,59.41,96.136,128.321,122.067,205.514
	C344.932,363.514,392.924,340.056,429.049,303.93z"/>
<path style="fill:#E0E0E2;" d="M500.486,170.284c-12.516-4.097-24.815-8.563-36.895-13.402
	c-4.88,46.168-25.231,90.456-58.183,123.408s-77.242,53.297-123.413,58.176c4.838,12.08,9.303,24.378,13.398,36.894
	c0.839,2.562,2.254,4.81,4.071,6.625c3.101,3.101,7.388,4.94,11.989,4.895c52.583-0.516,104.059-22.133,141.236-59.309
	c37.177-37.177,58.794-88.652,59.309-141.236C512.076,179.041,507.405,172.538,500.486,170.284z"/>
<path style="fill:#C6C5CA;" d="M452.938,327.316l-47.281-47.281c-0.084,0.084-0.165,0.171-0.249,0.254
	c-32.952,32.952-77.242,53.297-123.413,58.176c4.838,12.08,9.303,24.378,13.398,36.894c0.839,2.562,2.255,4.81,4.071,6.625
	c3.101,3.101,7.388,4.94,11.989,4.895c52.583-0.516,104.058-22.133,141.236-59.309C452.774,327.487,452.855,327.401,452.938,327.316
	z"/>
</svg>