<svg width="801" height="565" viewBox="0 0 801 565" fill="none" xmlns="http://www.w3.org/2000/svg">
<path d="M155.556 297.333C199.045 297.333 236.289 322.555 254.556 358.933L331.822 320.289C299.733 254.178 232.133 208.444 153.689 208.444C125.724 208.45 98.0814 214.412 72.6001 225.933L109.667 307.489C124.058 300.851 139.708 297.388 155.556 297.333ZM644.445 297.333C677.045 297.333 706.045 311.622 726.4 333.955L790.778 275.4C772.247 254.355 749.446 237.499 723.892 225.954C698.338 214.409 670.619 208.44 642.578 208.444C563.111 208.444 494.756 255.355 463.178 322.889L544.245 361.155C562.067 323.555 600.067 297.333 644.445 297.333Z" fill="#EA596E"/>
<path d="M155.556 252.889C135.128 252.889 114.9 256.912 96.027 264.73C77.1542 272.547 60.0058 284.005 45.5612 298.45C31.1165 312.895 19.6584 330.043 11.841 348.916C4.02356 367.789 0 388.017 0 408.444C0 428.872 4.02356 449.1 11.841 467.973C19.6584 486.846 31.1165 503.994 45.5612 518.439C60.0058 532.884 77.1542 544.342 96.027 552.159C114.9 559.976 135.128 564 155.556 564C196.811 564 236.378 547.611 265.55 518.439C294.722 489.267 311.111 449.7 311.111 408.444C311.111 367.189 294.722 327.622 265.55 298.45C236.378 269.278 196.811 252.889 155.556 252.889ZM155.556 519.556C126.087 519.556 97.8255 507.849 76.9881 487.012C56.1508 466.175 44.4444 437.913 44.4444 408.444C44.4444 378.976 56.1508 350.714 76.9881 329.877C97.8255 309.04 126.087 297.333 155.556 297.333C185.024 297.333 213.286 309.04 234.123 329.877C254.96 350.714 266.667 378.976 266.667 408.444C266.667 437.913 254.96 466.175 234.123 487.012C213.286 507.849 185.024 519.556 155.556 519.556ZM644.444 252.889C603.186 252.892 563.618 269.285 534.445 298.461C505.273 327.638 488.886 367.208 488.889 408.467C488.892 449.726 505.285 489.293 534.461 518.466C563.638 547.638 603.208 564.025 644.467 564.022C664.896 564.021 685.125 559.995 703.999 552.176C722.872 544.357 740.021 532.897 754.466 518.45C768.91 504.003 780.368 486.853 788.185 467.978C796.001 449.103 800.024 428.874 800.022 408.444C800.021 388.015 795.995 367.786 788.176 348.913C780.357 330.039 768.897 312.89 754.45 298.445C740.003 284.001 722.853 272.543 703.978 264.726C685.103 256.91 664.874 252.887 644.444 252.889ZM644.444 519.556C614.976 519.556 586.714 507.849 565.877 487.012C545.04 466.175 533.333 437.913 533.333 408.444C533.333 378.976 545.04 350.714 565.877 329.877C586.714 309.04 614.976 297.333 644.444 297.333C673.913 297.333 702.174 309.04 723.012 329.877C743.849 350.714 755.556 378.976 755.556 408.444C755.556 437.913 743.849 466.175 723.012 487.012C702.174 507.849 673.913 519.556 644.444 519.556Z" fill="#292F33"/>
<path d="M666.311 406.711C666.167 405.218 665.869 403.743 665.422 402.311C665.032 400.885 664.504 399.501 663.844 398.178C663.555 397.645 663.511 397.022 663.2 396.511L507.644 152.067C506.078 149.603 504.041 147.472 501.651 145.796C499.261 144.119 496.564 142.93 493.714 142.297C490.864 141.663 487.917 141.597 485.041 142.103C482.166 142.609 479.418 143.676 476.955 145.245C473.852 147.27 471.316 150.053 469.585 153.331C467.855 156.608 466.988 160.273 467.067 163.978H266.667C260.773 163.978 255.121 166.319 250.953 170.487C246.786 174.654 244.444 180.306 244.444 186.2C244.444 192.094 246.786 197.746 250.953 201.914C255.121 206.081 260.773 208.422 266.667 208.422H488.889C489.489 208.422 490 208.111 490.6 208.067L603.955 386.222H400C394.106 386.222 388.454 388.564 384.286 392.731C380.119 396.899 377.778 402.551 377.778 408.445C377.778 414.338 380.119 419.991 384.286 424.158C388.454 428.326 394.106 430.667 400 430.667H644.467C647.873 430.592 651.217 429.74 654.244 428.178C654.933 427.8 655.711 427.645 656.4 427.2C657.067 426.756 657.467 426.067 658.067 425.6C660.362 423.809 662.261 421.562 663.644 419C664.311 417.756 664.867 416.556 665.311 415.178C665.763 413.724 666.061 412.227 666.2 410.711C666.289 409.911 666.667 409.245 666.667 408.445C666.667 407.845 666.355 407.311 666.311 406.711Z" fill="#DD2E44"/>
<path d="M479.578 119.556L415.156 299.933L283.4 149.378C281.489 147.145 279.155 145.313 276.531 143.989C273.907 142.665 271.047 141.874 268.116 141.662C265.185 141.451 262.241 141.823 259.454 142.757C256.668 143.691 254.094 145.168 251.882 147.104C249.671 149.039 247.865 151.394 246.57 154.032C245.274 156.67 244.515 159.539 244.336 162.472C244.157 165.405 244.561 168.345 245.526 171.121C246.49 173.897 247.996 176.454 249.956 178.645L398.045 347.867L379.067 400.978C377.087 406.53 377.393 412.641 379.918 417.967C382.444 423.293 386.982 427.398 392.534 429.378C398.085 431.358 404.197 431.052 409.523 428.526C414.849 426.001 418.953 421.463 420.933 415.911L526.778 119.556H479.578Z" fill="#DD2E44"/>
<path d="M155.555 430.667C151.771 430.661 148.05 429.688 144.747 427.842C141.443 425.995 138.666 423.336 136.678 420.115C134.691 416.894 133.559 413.219 133.389 409.439C133.22 405.658 134.019 401.896 135.711 398.511L203.755 262.822C204.133 262.2 244.444 200.689 244.444 141.778C244.444 69.7333 193.489 51.9333 192.978 51.7555C190.174 50.861 187.576 49.4185 185.334 47.5117C183.092 45.6049 181.251 43.2718 179.919 40.6478C178.586 38.0238 177.788 35.1612 177.57 32.2262C177.353 29.2912 177.72 26.3423 178.652 23.5506C179.584 20.7589 181.06 18.18 182.997 15.9637C184.933 13.7474 187.29 11.9378 189.932 10.6399C192.573 9.34202 195.446 8.58175 198.384 8.40323C201.321 8.22471 204.265 8.63148 207.044 9.59994C210.378 10.7111 288.889 38.0666 288.889 141.778C288.889 209.955 248.089 276.044 241.533 286.155L175.444 418.355C173.608 422.059 170.772 425.174 167.257 427.35C163.742 429.525 159.689 430.674 155.555 430.667Z" fill="#DD2E44"/>
<path d="M324.711 67.6222C323.482 67.6281 322.255 67.524 321.044 67.3111L187.711 45.0889C181.897 44.1194 176.706 40.8799 173.28 36.0832C169.855 31.2864 168.475 25.3252 169.444 19.5111C170.414 13.697 173.653 8.50612 178.45 5.08045C183.247 1.65479 189.208 0.274924 195.022 1.24444L328.355 23.4667C333.873 24.3649 338.849 27.3095 342.292 31.7134C345.735 36.1173 347.391 41.657 346.932 47.228C346.472 52.7991 343.929 57.9922 339.811 61.772C335.693 65.5519 330.301 67.6407 324.711 67.6222ZM586.289 141.778C585.627 141.778 584.967 141.733 584.311 141.644L458.267 125.911C454.166 125.57 450.363 123.637 447.671 120.526C444.979 117.414 443.613 113.372 443.866 109.265C444.119 105.158 445.97 101.314 449.023 98.5562C452.077 95.7983 456.089 94.3462 460.2 94.5111C461.111 94.5111 550.578 94.1111 593.289 65.6445C596.025 63.8326 599.256 62.9151 602.536 63.0186C605.816 63.1221 608.983 64.2415 611.6 66.2222C614.198 68.2256 616.109 70.987 617.068 74.1243C618.028 77.2615 617.988 80.6195 616.956 83.7333L601.2 131C600.169 134.139 598.171 136.873 595.493 138.808C592.815 140.744 589.593 141.783 586.289 141.778Z" fill="#292F33"/>
<path d="M444.445 408.444C444.445 420.232 439.762 431.536 431.427 439.871C423.092 448.206 411.788 452.889 400 452.889C388.213 452.889 376.908 448.206 368.573 439.871C360.238 431.536 355.556 420.232 355.556 408.444C355.556 396.657 360.238 385.352 368.573 377.017C376.908 368.683 388.213 364 400 364C411.788 364 423.092 368.683 431.427 377.017C439.762 385.352 444.445 396.657 444.445 408.444Z" fill="#66757F"/>
</svg>
