<?xml version="1.0" encoding="iso-8859-1"?>
<!-- Uploaded to: SVG Repo, www.svgrepo.com, Generator: SVG Repo Mixer Tools -->
<svg version="1.1" id="Layer_1" xmlns="http://www.w3.org/2000/svg" xmlns:xlink="http://www.w3.org/1999/xlink" 
	 viewBox="0 0 511.994 511.994" xml:space="preserve">
<path style="fill:#B4A990;" d="M285.357,62.572c5.507-6.619,8.826-15.122,8.826-24.386C294.184,17.131,277.053,0,255.997,0
	S217.81,17.131,217.81,38.187c0,9.265,3.319,17.767,8.826,24.386c-71.387,13.759-125.48,76.695-125.48,152.038V473.26
	c0,4.586,3.717,8.303,8.303,8.303s8.303-3.716,8.303-8.303V214.61c0-66.223,46.812-121.711,109.081-135.133
	c-4.917,7.547-9.364,17.201-13.261,28.889c-9.501,28.502-14.733,66.233-14.733,106.245v258.649c0,4.586,3.717,8.303,8.303,8.303
	c4.585,0,8.303-3.716,8.303-8.303V214.61c0-85.646,23.614-138.237,40.544-138.237s40.544,52.59,40.544,138.237V473.26
	c0,4.586,3.717,8.303,8.303,8.303s8.303-3.716,8.303-8.303V214.61c0-40.011-5.233-77.743-14.733-106.245
	c-3.896-11.688-8.344-21.342-13.261-28.889c62.269,13.423,109.081,68.909,109.081,135.133v258.649c0,4.586,3.717,8.303,8.303,8.303
	c4.585,0,8.303-3.716,8.303-8.303V214.61C410.839,139.267,356.745,76.332,285.357,62.572z M234.415,38.187
	c0-11.901,9.681-21.581,21.581-21.581c11.901,0,21.581,9.681,21.581,21.581s-9.681,21.581-21.581,21.581
	C244.096,59.768,234.415,50.087,234.415,38.187z"/>
<rect x="101.157" y="473.254" style="fill:#FF6A2E;" width="309.68" height="38.74"/>
<path style="fill:#F24802;" d="M413.408,481.562H98.585c-4.585,0-8.303-3.716-8.303-8.303s3.717-8.303,8.303-8.303h314.824
	c4.585,0,8.303,3.716,8.303,8.303S417.993,481.562,413.408,481.562z"/>
</svg>