<?xml version="1.0" encoding="iso-8859-1"?>
<!-- Uploaded to: SVG Repo, www.svgrepo.com, Generator: SVG Repo Mixer Tools -->
<svg height="800px" width="800px" version="1.1" id="Layer_1" xmlns="http://www.w3.org/2000/svg" xmlns:xlink="http://www.w3.org/1999/xlink" 
	 viewBox="0 0 512.002 512.002" xml:space="preserve">
<path style="fill:#EDEDED;" d="M357.79,56.627L153.528,260.89l75.651,75.651l204.264-204.262c20.89-20.888,20.89-54.759,0-75.656
	C412.552,35.733,378.682,35.733,357.79,56.627z"/>
<path style="fill:#DBDBDB;" d="M229.18,336.541l204.264-204.262c20.89-20.888,20.89-54.759,0-75.656L191.352,298.714L229.18,336.541
	z"/>
<path style="fill:#EFC27B;" d="M100.569,238.192l-60.522,60.522c-12.535,12.536-12.535,32.858,0,45.394l60.523,60.522
	l-22.697,22.694c-12.535,12.536-12.534,32.86,0.001,45.394l22.696,22.696c12.535,12.534,32.858,12.534,45.391-0.002l105.913-105.911
	c12.535-12.534,12.535-32.86,0.001-45.394L145.963,238.192C133.428,225.658,113.105,225.656,100.569,238.192z"/>
<path style="fill:#ECB45C;" d="M93.004,397.063l7.566,7.566l-22.697,22.694c-12.535,12.536-12.534,32.86,0.001,45.394l22.696,22.696
	c12.535,12.534,32.858,12.534,45.391-0.002l105.913-105.911c12.535-12.534,12.535-32.86,0.001-45.394L198.92,291.15L93.004,397.063z
	"/>
<polygon style="fill:#88888F;" points="176.223,419.759 229.181,366.803 176.223,313.843 153.527,336.541 153.528,397.065 "/>
<g>
	<path style="fill:#2E2D31;" d="M468.403,66.527c1.201,3.232,4.265,5.231,7.522,5.231c0.929,0,1.873-0.162,2.795-0.505
		c4.153-1.544,6.27-6.164,4.726-10.318c-2.036-5.479-4.605-10.792-7.634-15.79c-2.296-3.791-7.231-5-11.021-2.704
		c-3.791,2.296-5.001,7.231-2.704,11.021C464.593,57.596,466.717,61.993,468.403,66.527z"/>
	<path style="fill:#2E2D31;" d="M206.565,169.726c2.053,0,4.107-0.783,5.674-2.35l11.347-11.348c3.134-3.135,3.134-8.215,0-11.348
		c-3.134-3.133-8.215-3.133-11.347,0l-11.347,11.347c-3.134,3.135-3.134,8.215,0,11.348
		C202.458,168.942,204.512,169.726,206.565,169.726z"/>
	<path style="fill:#2E2D31;" d="M430.449,24.24c4.319,2.164,8.458,4.754,12.301,7.694c1.455,1.114,3.169,1.652,4.87,1.652
		c2.414,0,4.798-1.084,6.379-3.148c2.694-3.519,2.024-8.556-1.496-11.249c-4.642-3.552-9.643-6.68-14.863-9.296
		c-3.96-1.987-8.783-0.385-10.769,3.579C424.886,17.434,426.488,22.255,430.449,24.24z"/>
	<path style="fill:#2E2D31;" d="M387.316,16.456c0.26,0,0.523-0.014,0.789-0.039c4.795-0.469,9.706-0.492,14.535-0.062
		c4.38,0.37,8.311-2.867,8.705-7.282c0.393-4.413-2.867-8.311-7.282-8.705c-5.814-0.516-11.735-0.49-17.516,0.074
		c-4.411,0.43-7.638,4.356-7.207,8.766C379.743,13.356,383.234,16.456,387.316,16.456z"/>
	<path style="fill:#2E2D31;" d="M172.521,203.77c2.054,0,4.107-0.783,5.675-2.351l11.347-11.348c3.134-3.134,3.133-8.215,0-11.347
		c-3.135-3.133-8.215-3.134-11.348,0.001l-11.348,11.348c-3.134,3.134-3.133,8.215,0.001,11.347
		C168.415,202.987,170.468,203.77,172.521,203.77z"/>
	<path style="fill:#2E2D31;" d="M343.195,34.033c1.724,0,3.46-0.553,4.926-1.694c3.822-2.975,7.94-5.6,12.239-7.801
		c3.946-2.02,5.506-6.854,3.488-10.8c-2.019-3.946-6.856-5.505-10.8-3.488c-5.197,2.659-10.172,5.831-14.788,9.427
		c-3.496,2.723-4.123,7.764-1.4,11.261C338.442,32.971,340.806,34.033,343.195,34.033z"/>
	<path style="fill:#2E2D31;" d="M308.696,67.595c2.053,0,4.107-0.783,5.675-2.349l11.348-11.348c3.134-3.135,3.134-8.215,0-11.348
		c-3.135-3.133-8.215-3.133-11.348,0l-11.348,11.348c-3.134,3.135-3.134,8.215,0,11.348
		C304.589,66.81,306.643,67.595,308.696,67.595z"/>
	<path style="fill:#2E2D31;" d="M240.609,135.682c2.053,0,4.107-0.783,5.675-2.351l11.347-11.348c3.134-3.134,3.134-8.215,0-11.347
		c-3.135-3.133-8.215-3.134-11.348,0.001l-11.347,11.348c-3.134,3.134-3.133,8.215,0,11.347
		C236.503,134.899,238.556,135.682,240.609,135.682z"/>
	<path style="fill:#2E2D31;" d="M274.653,101.638c2.053,0,4.107-0.783,5.675-2.349l11.348-11.347c3.134-3.135,3.134-8.215,0-11.348
		c-3.135-3.133-8.215-3.133-11.348,0L268.98,87.94c-3.134,3.135-3.134,8.215,0,11.348
		C270.546,100.855,272.6,101.638,274.653,101.638z"/>
	<path style="fill:#2E2D31;" d="M471.681,133.876c-3.701-2.434-8.677-1.407-11.114,2.296c-2.648,4.026-5.704,7.839-9.083,11.337
		c-3.08,3.187-2.994,8.267,0.193,11.346c1.558,1.505,3.568,2.254,5.576,2.254c2.099,0,4.196-0.82,5.771-2.447
		c4.073-4.214,7.759-8.814,10.954-13.672C476.411,141.287,475.384,136.311,471.681,133.876z"/>
	<path style="fill:#2E2D31;" d="M428.891,170.116l-11.348,11.348c-3.134,3.135-3.134,8.215,0,11.348
		c1.567,1.566,3.622,2.349,5.675,2.349c2.053,0,4.107-0.783,5.675-2.349l11.348-11.347c3.134-3.135,3.134-8.215,0-11.348
		C437.105,166.984,432.025,166.984,428.891,170.116z"/>
	<path style="fill:#2E2D31;" d="M326.759,272.248l-11.347,11.347c-3.134,3.135-3.134,8.215,0,11.348
		c1.567,1.566,3.622,2.35,5.675,2.35s4.107-0.784,5.675-2.35l11.348-11.348c3.134-3.135,3.134-8.215,0-11.348
		C334.974,269.115,329.894,269.115,326.759,272.248z"/>
	<path style="fill:#2E2D31;" d="M394.848,204.159L383.5,215.507c-3.134,3.135-3.134,8.215,0,11.348
		c1.567,1.566,3.622,2.349,5.675,2.349c2.053,0,4.107-0.783,5.675-2.349l11.347-11.347c3.134-3.135,3.134-8.215,0-11.348
		C403.061,201.028,397.981,201.028,394.848,204.159z"/>
	<path style="fill:#2E2D31;" d="M481.422,87.165c-4.407-0.128-8.088,3.446-8.17,7.877c-0.088,4.846-0.632,9.703-1.617,14.437
		c-0.903,4.34,1.884,8.588,6.221,9.49c0.552,0.114,1.101,0.17,1.642,0.17c3.721,0,7.06-2.604,7.848-6.393
		c1.188-5.712,1.845-11.57,1.95-17.413C489.378,90.903,485.852,87.245,481.422,87.165z"/>
	<path style="fill:#2E2D31;" d="M360.802,238.205l-11.347,11.347c-3.134,3.135-3.134,8.215,0,11.348
		c1.567,1.566,3.622,2.349,5.675,2.349c2.053,0,4.107-0.783,5.675-2.349l11.347-11.347c3.134-3.135,3.134-8.215,0-11.348
		C369.017,235.072,363.937,235.072,360.802,238.205z"/>
	<path style="fill:#2E2D31;" d="M259.508,339.619c-0.603-0.69-11.333-11.48-11.333-11.48l191.025-191.024
		c23.985-23.986,23.985-63.014,0-87.002c-11.619-11.618-27.068-18.017-43.5-18.017c-16.433,0-31.882,6.399-43.502,18.017
		L161.172,241.138c0,0-10.748-10.691-11.417-11.278l5.744-5.744c3.134-3.135,3.134-8.215,0-11.348
		c-3.134-3.133-8.215-3.133-11.347,0l-8.941,8.941c-3.794-1.17-7.781-1.779-11.865-1.779c-10.717,0-20.791,4.173-28.368,11.75
		l-2.463,2.463c-15.569-10.297-36.794-8.594-50.495,5.103c-7.578,7.578-11.751,17.653-11.751,28.37
		c0,7.991,2.322,15.623,6.643,22.13l-2.458,2.459c-7.577,7.578-11.751,17.653-11.751,28.37c0,10.717,4.174,20.792,11.752,28.37
		l54.848,54.848L72.28,420.816c-15.642,15.642-15.642,41.096,0.001,56.741l22.696,22.693c7.578,7.579,17.653,11.753,28.37,11.753
		c10.716,0,20.791-4.173,28.369-11.75l105.914-105.915c7.578-7.578,11.752-17.653,11.752-28.37c0-4.082-0.609-8.07-1.778-11.864
		l2.417-2.417c3.134-3.135,3.134-8.215,0-11.348C267.15,337.466,262.652,337.233,259.508,339.619z M363.545,61.461
		c8.589-8.588,20.008-13.317,32.155-13.317c12.145,0,23.563,4.729,32.151,13.316c17.728,17.73,17.728,46.578,0,64.306
		L236.826,316.791l-64.306-64.306L363.545,61.461z M46.316,267.616c0-6.43,2.504-12.475,7.051-17.021
		c7.395-7.396,18.433-8.938,27.377-4.682l-32.065,32.066C47.149,274.78,46.316,271.267,46.316,267.616z M246.283,382.986
		L140.368,488.902c-4.547,4.546-10.591,7.051-17.021,7.051c-6.43,0-12.475-2.505-17.023-7.053l-22.696-22.693
		c-9.385-9.386-9.385-24.66,0-34.045l22.697-22.696c1.505-1.505,2.351-3.546,2.351-5.675c0-2.128-0.845-4.168-2.351-5.675
		l-60.522-60.522c-4.547-4.546-7.051-10.591-7.051-17.021c0-6.43,2.504-12.475,7.05-17.021l60.523-60.524
		c4.546-4.547,10.591-7.051,17.021-7.051c6.43,0,12.476,2.505,17.023,7.053l105.914,105.913c4.546,4.546,7.051,10.591,7.051,17.021
		C253.333,372.394,250.829,378.44,246.283,382.986z"/>
	<path style="fill:#2E2D31;" d="M292.715,306.292l-11.348,11.348c-3.134,3.135-3.134,8.215,0,11.348
		c1.567,1.566,3.622,2.35,5.675,2.35c2.053,0,4.107-0.783,5.675-2.35l11.348-11.348c3.134-3.135,3.134-8.215,0-11.348
		C300.929,303.16,295.849,303.16,292.715,306.292z"/>
	<path style="fill:#2E2D31;" d="M106.324,443.51c-3.134-3.133-8.215-3.133-11.347,0c-3.134,3.135-3.134,8.215,0,11.348
		l22.696,22.696c1.566,1.566,3.621,2.349,5.674,2.349c2.054,0,4.107-0.783,5.674-2.349c3.134-3.135,3.134-8.215,0-11.348
		L106.324,443.51z"/>
	<path style="fill:#2E2D31;" d="M181.978,307.333c-1.504-1.504-3.546-2.35-5.674-2.35s-4.169,0.845-5.674,2.351l-22.697,22.698
		c-1.505,1.504-2.351,3.546-2.351,5.674v22.236h-14.213v-7.107c0-4.433-3.593-8.024-8.024-8.024s-8.024,3.592-8.024,8.024v30.262
		c0,4.433,3.593,8.024,8.024,8.024s8.024-3.592,8.024-8.024v-7.107h14.213v22.238c0,2.128,0.845,4.168,2.351,5.675l22.697,22.696
		c1.566,1.566,3.621,2.35,5.674,2.35c2.053,0,4.107-0.783,5.674-2.35l52.957-52.958c3.134-3.135,3.134-8.215,0-11.348
		L181.978,307.333z M176.304,407.575l-14.673-14.672v-53.875l14.673-14.674l41.609,41.61L176.304,407.575z"/>
</g>
</svg>