<?xml version="1.0" encoding="iso-8859-1"?>
<!-- Uploaded to: SVG Repo, www.svgrepo.com, Generator: SVG Repo Mixer Tools -->
<svg version="1.1" id="Capa_1" xmlns="http://www.w3.org/2000/svg" xmlns:xlink="http://www.w3.org/1999/xlink" 
	 viewBox="0 0 480 480" xml:space="preserve">
<g>
	<path style="fill:#695A69;" d="M396.522,344.348L400,340.87v-10.435h10.435v-6.957H400v-80.314
		c3.973-0.671,7.559-2.462,10.435-5.044v-15.511c0,6.47-4.443,11.905-10.435,13.455v-7.437c-1.024,0.593-2.21,0.938-3.478,0.938
		s-2.454-0.345-3.478-0.938v7.437c-5.992-1.55-10.435-6.985-10.435-13.455c0-6.47,4.443-11.905,10.435-13.455v7.437
		c1.024-0.593,2.21-0.938,3.478-0.938s2.454,0.345,3.478,0.938v-7.437c5.992,1.55,10.435,6.985,10.435,13.455v-15.511
		c-2.876-2.582-6.462-4.373-10.435-5.044v-14.227h-6.957v14.227c-3.973,0.671-7.559,2.462-10.435,5.044v-33.184h27.826v-6.957
		h-27.826v-13.913h-6.957v13.913h-27.826v-13.913h-6.957v13.913h-27.826v-13.913h-6.956v13.913h-27.826v-13.913h-6.957v13.913
		h-27.826v-13.913h-6.957v13.913h-27.826v-13.913h-6.957v13.913h-27.826v-13.913h-6.956v13.913H139.13v-13.913h-6.957v13.913
		h-27.826v-13.913h-6.957v13.913H69.565v6.957h27.826v33.184c-2.876-2.582-6.462-4.373-10.435-5.044v-14.227H80v14.227
		c-3.973,0.671-7.559,2.462-10.435,5.044v15.511c0-6.47,4.443-11.905,10.435-13.455v7.437c1.024-0.593,2.21-0.938,3.478-0.938
		s2.454,0.345,3.478,0.938v-7.437c5.992,1.55,10.435,6.985,10.435,13.455c0,6.47-4.443,11.905-10.435,13.455v-7.437
		c-1.024,0.593-2.21,0.938-3.478,0.938s-2.454-0.345-3.478-0.938v7.437c-5.992-1.55-10.435-6.985-10.435-13.455v15.511
		c2.876,2.582,6.462,4.373,10.435,5.044v80.314H69.565v6.957H80v10.435l3.478,3.478v6.956h313.043V344.348z M393.043,344.348
		h-27.826v-13.913h27.826V344.348z M118.261,215.652c1.269,0,2.454,0.345,3.478,0.938v-7.437c5.992,1.55,10.435,6.985,10.435,13.455
		c0,6.47-4.443,11.905-10.435,13.455v-7.437c-1.024,0.593-2.21,0.938-3.478,0.938s-2.454-0.345-3.478-0.938v7.437
		c-5.992-1.55-10.435-6.985-10.435-13.455c0-6.47,4.443-11.905,10.435-13.455v7.437
		C115.807,215.997,116.992,215.652,118.261,215.652z M153.043,215.652c1.269,0,2.454,0.345,3.478,0.938v-7.437
		c5.992,1.55,10.435,6.985,10.435,13.455c0,6.47-4.443,11.905-10.435,13.455v-7.437c-1.024,0.593-2.21,0.938-3.478,0.938
		c-1.269,0-2.454-0.345-3.478-0.938v7.437c-5.992-1.55-10.435-6.985-10.435-13.456c0-6.47,4.443-11.906,10.435-13.455v7.437
		C150.589,215.997,151.775,215.652,153.043,215.652z M187.826,215.652c1.269,0,2.454,0.345,3.478,0.938v-7.437
		c5.992,1.55,10.435,6.985,10.435,13.455c0,6.47-4.443,11.906-10.435,13.456v-7.437c-1.024,0.593-2.21,0.938-3.478,0.938
		s-2.454-0.345-3.478-0.938v7.437c-5.992-1.55-10.435-6.985-10.435-13.455c0-6.47,4.443-11.905,10.435-13.455v7.437
		C185.372,215.997,186.557,215.652,187.826,215.652z M222.609,215.652c1.269,0,2.454,0.345,3.478,0.938v-7.437
		c5.992,1.55,10.435,6.985,10.435,13.455c0,6.47-4.443,11.905-10.435,13.455v-7.437c-1.024,0.593-2.21,0.938-3.478,0.938
		c-1.269,0-2.454-0.345-3.478-0.938v7.437c-5.992-1.55-10.435-6.985-10.435-13.455c0-6.47,4.443-11.905,10.435-13.455v7.437
		C220.154,215.997,221.34,215.652,222.609,215.652z M257.391,215.652c1.269,0,2.454,0.345,3.478,0.938v-7.437
		c5.992,1.55,10.435,6.985,10.435,13.455c0,6.47-4.443,11.905-10.435,13.455v-7.437c-1.024,0.593-2.21,0.938-3.478,0.938
		c-1.269,0-2.454-0.345-3.478-0.938v7.437c-5.992-1.55-10.435-6.985-10.435-13.455c0-6.47,4.443-11.905,10.435-13.455v7.437
		C254.937,215.997,256.123,215.652,257.391,215.652z M292.174,215.652c1.269,0,2.454,0.345,3.478,0.938v-7.437
		c5.992,1.55,10.435,6.985,10.435,13.455c0,6.47-4.443,11.905-10.435,13.455v-7.437c-1.024,0.593-2.21,0.938-3.478,0.938
		s-2.454-0.345-3.478-0.938v7.437c-5.992-1.55-10.435-6.985-10.435-13.456c0-6.47,4.443-11.906,10.435-13.455v7.437
		C289.72,215.997,290.905,215.652,292.174,215.652z M326.957,215.652c1.269,0,2.454,0.345,3.478,0.938v-7.437
		c5.992,1.55,10.435,6.985,10.435,13.455c0,6.47-4.443,11.906-10.435,13.456v-7.437c-1.024,0.593-2.21,0.938-3.478,0.938
		c-1.269,0-2.454-0.345-3.478-0.938v7.437c-5.992-1.55-10.435-6.985-10.435-13.455c0-6.47,4.443-11.905,10.435-13.455v7.437
		C324.502,215.997,325.688,215.652,326.957,215.652z M361.739,215.652c1.269,0,2.454,0.345,3.478,0.938v-7.437
		c5.992,1.55,10.435,6.985,10.435,13.455c0,6.47-4.443,11.905-10.435,13.455v-7.437c-1.024,0.593-2.21,0.938-3.478,0.938
		s-2.454-0.345-3.478-0.938v7.437c-5.992-1.55-10.435-6.985-10.435-13.455c0-6.47,4.443-11.905,10.435-13.455v7.437
		C359.285,215.997,360.471,215.652,361.739,215.652z M365.217,323.478v-80.314c3.973-0.671,7.559-2.462,10.435-5.044v85.358H365.217
		z M139.13,238.12c2.876,2.582,6.462,4.373,10.435,5.044v80.314H139.13V238.12z M156.522,243.164
		c3.973-0.671,7.559-2.462,10.435-5.044v85.358h-10.435V243.164z M173.913,238.12c2.876,2.582,6.462,4.373,10.435,5.044v80.314
		h-10.435V238.12z M191.304,243.164c3.973-0.671,7.559-2.462,10.435-5.044v85.358h-10.435V243.164z M208.696,238.12
		c2.876,2.582,6.462,4.373,10.435,5.044v80.314h-10.435V238.12z M226.087,243.164c3.972-0.671,7.559-2.462,10.435-5.044v85.358
		h-10.435V243.164z M243.478,238.12c2.876,2.582,6.462,4.373,10.435,5.044v80.314h-10.435V238.12z M260.87,243.164
		c3.973-0.671,7.559-2.462,10.435-5.044v85.358H260.87V243.164z M278.261,238.12c2.876,2.582,6.462,4.373,10.435,5.044v80.314
		h-10.435V238.12z M295.652,243.164c3.973-0.671,7.559-2.462,10.435-5.044v85.358h-10.435V243.164z M313.043,238.12
		c2.876,2.582,6.462,4.373,10.435,5.044v80.314h-10.435V238.12z M330.435,243.164c3.973-0.671,7.559-2.462,10.435-5.044v85.358
		h-10.435V243.164z M347.826,238.12c2.876,2.582,6.462,4.373,10.435,5.044v80.314h-10.435V238.12z M104.348,238.12
		c2.876,2.582,6.462,4.373,10.435,5.044v80.314h-10.435V238.12z M121.739,243.164c3.973-0.671,7.559-2.462,10.435-5.044v85.358
		h-10.435V243.164z M149.565,330.435v13.913h-27.826v-13.913H149.565z M156.522,330.435h27.826v13.913h-27.826V330.435z
		 M191.304,330.435h27.826v13.913h-27.826V330.435z M226.087,330.435h27.826v13.913h-27.826V330.435z M260.87,330.435h27.826v13.913
		H260.87V330.435z M295.652,330.435h27.826v13.913h-27.826V330.435z M330.435,330.435h27.826v13.913h-27.826V330.435z
		 M393.043,243.164v80.314h-10.435V238.12C385.485,240.702,389.071,242.493,393.043,243.164z M375.652,173.913v33.184
		c-2.876-2.582-6.462-4.373-10.435-5.044v-14.227h-6.957v14.227c-3.973,0.671-7.559,2.462-10.435,5.044v-33.184H375.652z
		 M340.87,173.913v33.184c-2.876-2.582-6.462-4.373-10.435-5.044v-14.227h-6.956v14.227c-3.973,0.671-7.559,2.462-10.435,5.044
		v-33.184H340.87z M306.087,173.913v33.184c-2.876-2.582-6.462-4.373-10.435-5.044v-14.227h-6.957v14.227
		c-3.973,0.671-7.559,2.462-10.435,5.044v-33.184H306.087z M271.304,173.913v33.184c-2.876-2.582-6.462-4.373-10.435-5.044v-14.227
		h-6.957v14.227c-3.972,0.671-7.559,2.462-10.435,5.044v-33.184H271.304z M236.522,173.913v33.184
		c-2.876-2.582-6.462-4.373-10.435-5.044v-14.227h-6.957v14.227c-3.973,0.671-7.559,2.462-10.435,5.044v-33.184H236.522z
		 M201.739,173.913v33.184c-2.876-2.582-6.462-4.373-10.435-5.044v-14.227h-6.957v14.227c-3.973,0.671-7.559,2.462-10.435,5.044
		v-33.184H201.739z M166.957,173.913v33.184c-2.876-2.582-6.462-4.373-10.435-5.044v-14.227h-6.956v14.227
		c-3.973,0.671-7.559,2.462-10.435,5.044v-33.184H166.957z M132.174,173.913v33.184c-2.876-2.582-6.462-4.373-10.435-5.044v-14.227
		h-6.957v14.227c-3.973,0.671-7.559,2.462-10.435,5.044v-33.184H132.174z M86.957,243.164c3.973-0.671,7.559-2.462,10.435-5.044
		v85.358H86.957V243.164z M86.957,330.435h27.826v13.913H86.957V330.435z"/>
	<path style="fill:#DFD0C6;" d="M69.565,238.12v-15.511v-15.511v-33.184v-6.957v-31.304H13.913v180.87h55.652V238.12z
		 M55.652,219.13v83.478H27.826V219.13v-69.565h27.826V219.13z"/>
	<rect y="107.826" style="fill:#DFD0C6;" width="83.478" height="13.913"/>
	<polygon style="fill:#C8B2A8;" points="83.478,121.739 0,121.739 13.913,135.652 69.565,135.652 	"/>
	<path style="fill:#C8B2A8;" d="M41.739,233.043c-7.684,0-13.913-6.229-13.913-13.913v83.478h27.826V219.13
		C55.652,226.814,49.423,233.043,41.739,233.043z"/>
	<path style="fill:#C8B2A8;" d="M27.826,219.13c0-7.684,6.229-13.913,13.913-13.913s13.913,6.229,13.913,13.913v-69.565H27.826
		V219.13z"/>
	<polygon style="fill:#C8B2A8;" points="69.565,323.478 69.565,316.522 13.913,316.522 13.913,330.435 69.565,330.435 	"/>
	<polygon style="fill:#C8B2A8;" points="83.478,344.348 69.565,344.348 0,344.348 0,372.174 13.913,372.174 13.913,358.261 
		69.565,358.261 69.565,372.174 83.478,372.174 83.478,351.304 	"/>
	<polygon style="fill:#DFD0C6;" points="69.565,344.348 83.478,344.348 80,340.87 69.565,330.435 13.913,330.435 0,344.348 	"/>
	<circle style="fill:#A08A8A;" cx="41.739" cy="219.13" r="13.913"/>
	<rect x="13.913" y="358.261" style="fill:#A08A8A;" width="55.652" height="13.913"/>
	<path style="fill:#DFD0C6;" d="M410.435,207.097v15.511v15.511v78.402h55.652v-180.87h-55.652v31.304v6.957V207.097z
		 M424.348,219.13v-69.565h27.826v69.565v83.478h-27.826V219.13z"/>
	<rect x="396.522" y="107.826" style="fill:#DFD0C6;" width="83.478" height="13.913"/>
	<polygon style="fill:#C8B2A8;" points="480,121.739 396.522,121.739 410.435,135.652 466.087,135.652 	"/>
	<path style="fill:#C8B2A8;" d="M438.261,205.217c7.684,0,13.913,6.229,13.913,13.913v-69.565h-27.826v69.565
		C424.348,211.447,430.577,205.217,438.261,205.217z"/>
	<path style="fill:#C8B2A8;" d="M452.174,219.13c0,7.684-6.229,13.913-13.913,13.913s-13.913-6.229-13.913-13.913v83.478h27.826
		V219.13z"/>
	<polygon style="fill:#C8B2A8;" points="410.435,316.522 410.435,323.478 410.435,330.435 466.087,330.435 466.087,316.522 	"/>
	<polygon style="fill:#C8B2A8;" points="410.435,344.348 396.522,344.348 396.522,351.304 396.522,372.174 410.435,372.174 
		410.435,358.261 466.087,358.261 466.087,372.174 480,372.174 480,344.348 	"/>
	<polygon style="fill:#DFD0C6;" points="400,340.87 396.522,344.348 410.435,344.348 480,344.348 466.087,330.435 410.435,330.435 	
		"/>
	<circle style="fill:#A08A8A;" cx="438.261" cy="219.13" r="13.913"/>
	<rect x="410.435" y="358.261" style="fill:#A08A8A;" width="55.652" height="13.913"/>
	<polygon style="fill:#826E77;" points="100.87,118.261 97.391,153.043 104.348,153.043 	"/>
	<polygon style="fill:#826E77;" points="135.652,118.261 132.174,153.043 139.13,153.043 	"/>
	<polygon style="fill:#826E77;" points="170.435,118.261 166.957,153.043 173.913,153.043 	"/>
	<polygon style="fill:#826E77;" points="205.217,118.261 201.739,153.043 208.696,153.043 	"/>
	<polygon style="fill:#826E77;" points="240,118.261 236.522,153.043 243.478,153.043 	"/>
	<polygon style="fill:#826E77;" points="274.783,118.261 271.304,153.043 278.261,153.043 	"/>
	<polygon style="fill:#826E77;" points="309.565,118.261 306.087,153.043 313.043,153.043 	"/>
	<polygon style="fill:#826E77;" points="344.348,118.261 340.87,153.043 347.826,153.043 	"/>
	<polygon style="fill:#826E77;" points="379.13,118.261 375.652,153.043 382.609,153.043 	"/>
	<path style="fill:#826E77;" d="M215.652,222.609c0,2.573,1.401,4.815,3.478,6.018c1.024,0.593,2.21,0.938,3.478,0.938
		c1.269,0,2.454-0.345,3.478-0.938c2.077-1.203,3.478-3.445,3.478-6.018c0-2.573-1.401-4.815-3.478-6.018
		c-1.024-0.593-2.21-0.938-3.478-0.938c-1.269,0-2.454,0.345-3.478,0.938C217.053,217.794,215.652,220.035,215.652,222.609z"/>
	<path style="fill:#826E77;" d="M180.87,222.609c0,2.573,1.401,4.815,3.478,6.018c1.024,0.593,2.21,0.938,3.478,0.938
		s2.454-0.345,3.478-0.938c2.077-1.203,3.478-3.445,3.478-6.018s-1.401-4.815-3.478-6.018c-1.024-0.593-2.21-0.938-3.478-0.938
		s-2.454,0.345-3.478,0.938C182.271,217.794,180.87,220.035,180.87,222.609z"/>
	<path style="fill:#826E77;" d="M285.217,222.609c0,2.573,1.401,4.815,3.478,6.018c1.024,0.593,2.21,0.938,3.478,0.938
		s2.454-0.345,3.478-0.938c2.077-1.203,3.478-3.445,3.478-6.018c0-2.573-1.401-4.815-3.478-6.018
		c-1.024-0.593-2.21-0.938-3.478-0.938s-2.454,0.345-3.478,0.938C286.618,217.794,285.217,220.035,285.217,222.609z"/>
	<path style="fill:#826E77;" d="M250.435,222.609c0,2.573,1.401,4.815,3.478,6.018c1.024,0.593,2.21,0.938,3.478,0.938
		c1.269,0,2.454-0.345,3.478-0.938c2.077-1.203,3.478-3.445,3.478-6.018c0-2.573-1.401-4.815-3.478-6.018
		c-1.024-0.593-2.21-0.938-3.478-0.938c-1.269,0-2.454,0.345-3.478,0.938C251.836,217.794,250.435,220.035,250.435,222.609z"/>
	<path style="fill:#826E77;" d="M354.783,222.609c0,2.573,1.401,4.815,3.478,6.018c1.024,0.593,2.21,0.938,3.478,0.938
		s2.454-0.345,3.478-0.938c2.077-1.203,3.478-3.445,3.478-6.018c0-2.573-1.401-4.815-3.478-6.018
		c-1.024-0.593-2.21-0.938-3.478-0.938s-2.454,0.345-3.478,0.938C356.184,217.794,354.783,220.035,354.783,222.609z"/>
	<path style="fill:#826E77;" d="M403.478,222.609c0-2.573-1.401-4.815-3.478-6.018c-1.024-0.593-2.21-0.938-3.478-0.938
		s-2.454,0.345-3.478,0.938c-2.077,1.203-3.478,3.445-3.478,6.018c0,2.573,1.401,4.815,3.478,6.018
		c1.024,0.593,2.21,0.938,3.478,0.938s2.454-0.345,3.478-0.938C402.077,227.424,403.478,225.182,403.478,222.609z"/>
	<path style="fill:#826E77;" d="M320,222.609c0,2.573,1.401,4.815,3.478,6.018c1.024,0.593,2.21,0.938,3.478,0.938
		c1.269,0,2.454-0.345,3.478-0.938c2.077-1.203,3.478-3.445,3.478-6.018s-1.401-4.815-3.478-6.018
		c-1.024-0.593-2.21-0.938-3.478-0.938c-1.269,0-2.454,0.345-3.478,0.938C321.401,217.794,320,220.035,320,222.609z"/>
	<path style="fill:#826E77;" d="M111.304,222.609c0,2.573,1.401,4.815,3.478,6.018c1.024,0.593,2.21,0.938,3.478,0.938
		s2.454-0.345,3.478-0.938c2.077-1.203,3.478-3.445,3.478-6.018c0-2.573-1.401-4.815-3.478-6.018
		c-1.024-0.593-2.21-0.938-3.478-0.938s-2.454,0.345-3.478,0.938C112.705,217.794,111.304,220.035,111.304,222.609z"/>
	<path style="fill:#826E77;" d="M146.087,222.609c0,2.573,1.401,4.815,3.478,6.018c1.024,0.593,2.21,0.938,3.478,0.938
		c1.269,0,2.454-0.345,3.478-0.938c2.077-1.203,3.478-3.445,3.478-6.018c0-2.573-1.401-4.815-3.478-6.018
		c-1.024-0.593-2.21-0.938-3.478-0.938c-1.269,0-2.454,0.345-3.478,0.938C147.488,217.794,146.087,220.035,146.087,222.609z"/>
	<path style="fill:#826E77;" d="M76.522,222.609c0,2.573,1.401,4.815,3.478,6.018c1.024,0.593,2.21,0.938,3.478,0.938
		s2.454-0.345,3.478-0.938c2.077-1.203,3.478-3.445,3.478-6.018c0-2.573-1.401-4.815-3.478-6.018
		c-1.024-0.593-2.21-0.938-3.478-0.938s-2.454,0.345-3.478,0.938C77.923,217.794,76.522,220.035,76.522,222.609z"/>
</g>
</svg>