<?xml version="1.0" encoding="iso-8859-1"?>
<!-- Uploaded to: SVG Repo, www.svgrepo.com, Generator: SVG Repo Mixer Tools -->
<!DOCTYPE svg PUBLIC "-//W3C//DTD SVG 1.1//EN" "http://www.w3.org/Graphics/SVG/1.1/DTD/svg11.dtd">
<svg version="1.1" id="Capa_1" xmlns="http://www.w3.org/2000/svg" xmlns:xlink="http://www.w3.org/1999/xlink" 
	 viewBox="0 0 290.884 290.884" xml:space="preserve">
<g>
	<g>
		<g>
			<path style="fill:#FD912C;" d="M196.58,211.812c-7.042-12.521-13.424-15.875-7.949-48.67
				c6.466-38.744-36.429-38.761-43.142-38.763c-6.714-0.003-49.609-0.019-44.631,38.73c4.203,32.717,0.358,36.44-6.53,48.665
				c-9.756,17.164-25.866,76.682,49.872,79.079c0,0.01,0,0.02,0,0.03c0.416,0,0.814-0.011,1.226-0.015
				c0.411,0.004,0.81,0.016,1.226,0.016c0-0.011,0-0.021,0-0.03C222.392,288.513,206.322,228.983,196.58,211.812z"/>
			<circle style="fill:#D12200;" cx="145.467" cy="184.456" r="24.076"/>
			<circle style="fill:#8E3300;" cx="145.467" cy="184.455" r="18.33"/>
			
				<rect x="120.361" y="231.039" transform="matrix(-1 -2.712329e-004 2.712329e-004 -1 290.8197 471.14)" style="fill:#8E3300;" width="50.162" height="9.022"/>
			<rect x="137.343" y="36.156" style="fill:#8E3300;" width="16.303" height="146.901"/>
			<circle style="fill:#8E3300;" cx="130.885" cy="8.949" r="2.904"/>
			<circle style="fill:#8E3300;" cx="130.885" cy="19.604" r="2.904"/>
			<circle style="fill:#8E3300;" cx="130.885" cy="30.258" r="2.904"/>
			<circle style="fill:#8E3300;" cx="159.943" cy="8.949" r="2.904"/>
			<circle style="fill:#8E3300;" cx="159.943" cy="19.604" r="2.904"/>
			<circle style="fill:#8E3300;" cx="159.943" cy="30.258" r="2.904"/>
			<path style="fill:#8E3300;" d="M145.523,0c-6.448-0.002-11.724,0.405-11.727,6.852l-0.008,25.98
				c-0.003,6.447,5.271,14.606,11.719,14.609c6.447,0.002,11.724-8.153,11.726-14.601l0.009-25.98
				C157.244,0.414,151.971,0.003,145.523,0z M142.118,33.438c0,1.405-1.149,2.555-2.555,2.555c-1.404,0-2.554-1.149-2.554-2.555
				V8.356c0-1.404,1.149-2.554,2.554-2.554c1.405,0,2.555,1.149,2.555,2.554V33.438z M154.021,33.438
				c0,1.405-1.149,2.555-2.555,2.555c-1.404,0-2.554-1.149-2.554-2.555V8.356c0-1.404,1.149-2.554,2.554-2.554
				c1.405,0,2.555,1.149,2.555,2.554V33.438z"/>
		</g>
		
			<line style="fill:none;stroke:#E2DAB3;stroke-width:0.5391;stroke-miterlimit:10;" x1="138.969" y1="35.273" x2="138.969" y2="233.395"/>
		
			<line style="fill:none;stroke:#E2DAB3;stroke-width:0.5391;stroke-miterlimit:10;" x1="143.284" y1="35.273" x2="143.284" y2="233.395"/>
		
			<line style="fill:none;stroke:#E2DAB3;stroke-width:0.5391;stroke-miterlimit:10;" x1="147.6" y1="35.273" x2="147.6" y2="233.395"/>
		
			<line style="fill:none;stroke:#E2DAB3;stroke-width:0.5391;stroke-miterlimit:10;" x1="151.915" y1="35.273" x2="151.915" y2="233.395"/>
		
			<rect x="127.98" y="230.252" transform="matrix(-1 -2.805312e-004 2.805312e-004 -1 290.8181 466.8259)" style="fill:#8E3300;" width="34.924" height="6.281"/>
	</g>
	<g style="opacity:0.5;">
		<path style="fill:#8E3300;" d="M196.58,211.812c-7.042-12.521-13.424-15.875-7.949-48.67
			c5.117-30.662-20.678-37.067-34.991-38.407l0.03-82.03c2.191-2.865,3.563-6.583,3.564-9.863l0.001-1.559
			c0.415,1.096,1.467,1.879,2.708,1.879c1.604,0,2.904-1.3,2.904-2.903s-1.301-2.903-2.904-2.903c-1.24,0-2.292,0.782-2.707,1.877
			l0.002-8.593c0.418,1.091,1.468,1.869,2.705,1.869c1.604,0,2.904-1.301,2.904-2.904c0-1.604-1.301-2.903-2.904-2.903
			c-1.236,0-2.286,0.776-2.704,1.866l0.003-8.571c0.421,1.085,1.468,1.857,2.701,1.857c1.604,0,2.904-1.3,2.904-2.903
			s-1.301-2.903-2.904-2.903c-1.232,0-2.279,0.771-2.7,1.855v-1.04c0.002-6.447-5.272-6.858-11.719-6.861
			c-0.027,0-0.054,0.001-0.081,0.001v290.867c0.404,0.004,0.799,0.016,1.209,0.016c0-0.011,0-0.021,0-0.03
			C222.392,288.513,206.322,228.983,196.58,211.812z M151.467,35.992c-1.404,0-2.554-1.149-2.554-2.555V8.356
			c0-1.404,1.149-2.554,2.554-2.554c1.405,0,2.555,1.149,2.555,2.554v25.081C154.021,34.843,152.872,35.992,151.467,35.992z"/>
		<circle style="fill:#8E3300;" cx="130.886" cy="8.949" r="2.903"/>
		<circle style="fill:#8E3300;" cx="130.886" cy="19.604" r="2.904"/>
		<circle style="fill:#8E3300;" cx="130.886" cy="30.258" r="2.903"/>
	</g>
</g>
</svg>