<svg width="68" height="114" viewBox="0 0 68 114" fill="none" xmlns="http://www.w3.org/2000/svg">
<path d="M26.5357 55.6833C34.3929 52.172 38.3214 47.1246 38.3214 40.5409C38.3214 37.2052 37.3611 34.6157 35.4405 32.7722C33.6071 30.841 31.0317 29.8754 27.7143 29.8754C24.8333 29.8754 22.127 30.6216 19.5952 32.1139C17.1508 33.5184 15.2302 35.4496 13.8333 37.9075C12.6111 34.2206 12 30.2705 12 26.0569C17.8492 22.019 24.5714 20 32.1667 20C39.9365 20 45.8294 21.7117 49.8452 25.1352C53.9484 28.5587 56 33.5184 56 40.0142C56 43.9644 54.8214 47.6512 52.4643 51.0747C50.1944 54.4104 47.0516 57.2195 43.0357 59.5018C39.0198 61.6963 34.5238 63.1008 29.5476 63.7153L26.5357 55.6833ZM30.8571 94C27.7143 90.1376 23.873 86.2752 19.3333 82.4128C23 78.1115 26.8413 74.293 30.8571 70.9573C34.2619 75.1708 38.0595 78.9893 42.25 82.4128C38.5833 86.8897 34.7857 90.7521 30.8571 94Z" fill="url(#paint0_linear_487_5)"/>
<defs>
<linearGradient id="paint0_linear_487_5" x1="34" y1="20" x2="34" y2="94" gradientUnits="userSpaceOnUse">
<stop stop-color="#FBD03B"/>
<stop offset="1" stop-color="#FA7800"/>
</linearGradient>
</defs>
</svg>
