<?xml version="1.0" encoding="iso-8859-1"?>
<!-- Uploaded to: SVG Repo, www.svgrepo.com, Generator: SVG Repo Mixer Tools -->
<svg version="1.1" id="Layer_1" xmlns="http://www.w3.org/2000/svg" xmlns:xlink="http://www.w3.org/1999/xlink" 
	 viewBox="0 0 512 512" xml:space="preserve">
<path style="fill:#808080;" d="M186.774,166.599l105.776,64.552l52.853,94.065c-3.65,5.187-7.813,10.131-12.462,14.781
	L194.254,478.671c-5.52,5.52-11.463,10.362-17.739,14.512v-0.013l-94.873-53.671L18.821,335.475
	c4.15-6.276,8.991-12.219,14.512-17.739l138.674-138.674C176.643,174.425,181.587,170.262,186.774,166.599z"/>
<polygon style="fill:#666666;" points="169.473,367.868 117.468,368.542 148.574,326.855 131.868,277.611 181.125,294.316 
	222.795,263.21 222.138,315.203 264.597,345.237 214.931,360.674 199.493,410.329 "/>
<polygon style="fill:#F95428;" points="247.447,342.519 208.792,354.534 196.778,393.176 173.416,360.131 132.942,360.656 
	157.149,328.213 144.149,289.891 182.484,302.891 214.914,278.683 214.402,319.145 "/>
<path style="fill:#808080;" d="M512,182.695l-82.148,83.471l-82.892-31.144c-2.177-5.678-4.809-11.232-7.896-16.592l72.336-73.52
	L512,182.695z"/>
<path style="fill:#4D4D4D;" d="M329.308,0.003l37.787,100.587l-73.52,72.35c-5.36-3.087-10.914-5.719-16.592-7.896l-31.144-82.892
	L329.308,0.003z"/>
<g>
	<path style="fill:#666666;" d="M176.515,493.169v0.013c-18.956,12.539-40.833,18.815-62.722,18.815
		c-29.126,0-58.239-11.105-80.461-33.327c-38.924-38.924-43.753-99.02-14.512-143.196L176.515,493.169z"/>
	<path style="fill:#666666;" d="M358.609,218.434c13.525,34.966,9.132,75.274-13.205,106.782l-158.63-158.617
		c19.609-13.91,42.651-20.865,65.693-20.865c13.961,0,27.909,2.549,41.102,7.659c5.277,2.024,10.439,4.47,15.421,7.339
		c8.569,4.893,16.625,11.002,23.939,18.329h0.013c7.313,7.313,13.423,15.383,18.329,23.951
		C354.139,207.995,356.586,213.157,358.609,218.434z"/>
	<path style="fill:#666666;" d="M345.404,325.216l-30.793-30.792c-3.65,5.187-7.813,10.13-12.461,14.779L163.462,447.877
		c-5.518,5.518-11.458,10.358-17.732,14.507l30.786,30.786v0.013c6.276-4.15,12.219-8.991,17.739-14.512l138.687-138.674
		C337.591,335.347,341.754,330.403,345.404,325.216z"/>
</g>
<g>
	<path style="fill:#4D4D4D;" d="M176.515,493.169l-30.792-30.793v0.013c-18.956,12.539-40.833,18.815-62.722,18.815
		c-22.209,0-44.409-6.464-63.553-19.384c4.014,5.939,8.628,11.593,13.885,16.85c22.222,22.222,51.335,33.327,80.461,33.327
		c21.889,0,43.766-6.276,62.722-18.815v-0.013H176.515z"/>
	<path style="fill:#4D4D4D;" d="M358.609,218.434c-2.024-5.277-4.47-10.439-7.339-15.421c-4.906-8.569-11.015-16.638-18.329-23.951
		h-0.013c-5.267-5.276-10.924-9.911-16.875-13.924c1.565,2.32,3.047,4.679,4.423,7.083c2.869,4.982,5.315,10.144,7.339,15.421
		c13.525,34.966,9.132,75.274-13.205,106.782l30.793,30.793C367.742,293.707,372.135,253.4,358.609,218.434z"/>
	
		<rect x="354.602" y="66.106" transform="matrix(-0.7071 -0.7071 0.7071 -0.7071 517.2474 509.805)" style="fill:#4D4D4D;" width="19.212" height="163.341"/>
</g>
</svg>