<?xml version="1.0" encoding="iso-8859-1"?>
<!-- Uploaded to: SVG Repo, www.svgrepo.com, Generator: SVG Repo Mixer Tools -->
<svg height="800px" width="800px" version="1.1" id="Layer_1" xmlns="http://www.w3.org/2000/svg" xmlns:xlink="http://www.w3.org/1999/xlink" 
	 viewBox="0 0 512 512" xml:space="preserve">
<path style="fill:#A4D95E;" d="M256,0C114.842,0,0.001,114.841,0.001,256S114.842,512,256,512s255.999-114.841,255.999-256
	S397.158,0,256,0z M449.863,256c0,39.901-12.122,77.022-32.869,107.884L287.067,259.358V64.636
	C379.246,79.549,449.863,159.677,449.863,256z M224.932,447.364c-32.521-5.261-62.355-18.638-87.354-37.984l87.354-70.275V447.364z
	 M287.067,339.105l87.353,70.275c-24.999,19.346-54.832,32.722-87.353,37.984V339.105z M224.932,64.636v194.722L95.006,363.884
	C74.259,333.022,62.137,295.901,62.137,256C62.136,159.677,132.753,79.549,224.932,64.636z"/>
<path style="fill:#84BF7E;" d="M256,0v512c141.158,0,255.999-114.841,255.999-256S397.158,0,256,0z M287.067,447.364V339.105
	l87.353,70.275C349.422,428.726,319.589,442.102,287.067,447.364z M416.994,363.884L287.067,259.358V64.636
	C379.246,79.549,449.863,159.677,449.863,256C449.863,295.901,437.741,333.022,416.994,363.884z"/>
</svg>