<?xml version="1.0" encoding="iso-8859-1"?>
<!-- Uploaded to: SVG Repo, www.svgrepo.com, Generator: SVG Repo Mixer Tools -->
<svg height="800px" width="800px" version="1.1" id="Layer_1" xmlns="http://www.w3.org/2000/svg" xmlns:xlink="http://www.w3.org/1999/xlink" 
	 viewBox="0 0 512.001 512.001" xml:space="preserve">
<g>
	<path style="fill:#EFBD54;" d="M256.001,25.263C219.36,46.418,144.283,46.036,108.914,10.669L38.177,81.402
		c53.488,80.625,25.726,134.105,9.61,183.686c-20.183,62.113,0.594,104.966,49.107,145.741
		c61.868,51.994,138.444,50.674,159.106,90.503c20.66-39.829,97.236-38.509,159.104-90.503
		c48.514-40.775,69.29-83.628,49.105-145.741c-16.112-49.581-43.875-103.061,9.615-183.686l-70.737-70.733
		C367.719,46.036,292.641,46.418,256.001,25.263L256.001,25.263z M256.001,185.998l29.437,40.264l44.166,13.212l-29.197,40.44
		L301.491,326l-47.484-15.272L210.509,326l-0.146-49.878l-27.966-36.649l47.391-15.554L256.001,185.998z"/>
	<polygon style="fill:#E8863B;" points="256.001,185.998 229.787,223.92 182.396,239.474 210.362,276.123 210.508,326.001 
		254.007,310.729 301.49,326.001 300.407,279.914 329.604,239.474 285.438,226.262 	"/>
</g>
<g>
	<path style="fill:#000003;" d="M481.369,73.858L410.63,3.125c-4.165-4.167-10.921-4.166-15.089,0
		c-16.119,16.119-44.802,25.744-76.723,25.744c-22.394,0-43.346-4.681-57.484-12.845c-3.301-1.905-7.368-1.905-10.669,0
		c-14.14,8.163-35.093,12.845-57.484,12.845c-31.921,0-60.604-9.624-76.725-25.744c-4.165-4.165-10.921-4.166-15.087-0.001
		L30.632,73.858c-3.588,3.59-4.153,9.211-1.346,13.443c45.115,68.001,29.101,114.253,13.618,158.98
		c-1.762,5.091-3.586,10.357-5.262,15.511c-10.573,32.535-10.921,61.28-1.067,87.877c8.96,24.177,25.946,46.206,53.456,69.329
		c31.456,26.434,65.532,39.315,95.597,50.68c29.142,11.015,52.16,19.716,60.901,36.568c1.834,3.536,5.487,5.756,9.471,5.756
		c3.984,0,7.635-2.22,9.471-5.757c8.741-16.851,31.759-25.552,60.901-36.568c30.064-11.364,64.141-24.246,95.596-50.68
		c27.511-23.121,44.496-45.151,53.456-69.329c9.854-26.597,9.506-55.342-1.067-87.877c-1.675-5.155-3.498-10.422-5.264-15.516
		C453.61,201.548,437.601,155.3,482.715,87.3C485.522,83.069,484.957,77.447,481.369,73.858z M431.839,175.818
		c0.354,29.087,9.248,54.773,17.093,77.437c1.808,5.229,3.52,10.168,5.132,15.131c17.361,53.426,4.086,92.328-45.823,134.276
		c-28.672,24.096-60.941,36.294-89.414,47.057c-25.535,9.652-48.295,18.255-62.827,33.512
		c-14.532-15.256-37.295-23.86-62.829-33.512c-28.471-10.762-60.741-22.96-89.414-47.056
		c-49.908-41.948-63.183-80.851-45.822-134.277c1.611-4.961,3.321-9.898,5.131-15.125c7.847-22.664,16.74-48.352,17.097-77.439
		c0.379-30.919-8.914-61.399-28.375-92.944l57.609-57.605c20.552,15.949,50.416,24.933,83.785,24.933
		c23.456,0,45.95-4.649,62.819-12.874c16.867,8.225,39.36,12.874,62.819,12.874c33.369,0,63.231-8.984,83.785-24.933l57.609,57.605
		C440.756,114.419,431.462,144.902,431.839,175.818z"/>
	<path style="fill:#000003;" d="M298.223,336.157c1.069,0.344,2.171,0.512,3.266,0.512c2.274,0,4.519-0.727,6.386-2.121
		c2.767-2.068,4.361-5.345,4.28-8.798l-0.998-42.5l27.096-37.532c2.022-2.801,2.563-6.406,1.452-9.675
		c-1.111-3.27-3.736-5.801-7.046-6.791l-40.729-12.182l-27.32-37.369c-2.038-2.788-5.313-4.403-8.754-4.371
		c-3.452,0.045-6.67,1.76-8.635,4.601L223.052,214.9l-43.984,14.437c-3.282,1.078-5.839,3.676-6.862,6.975s-0.387,6.889,1.707,9.634
		l25.791,33.796l0.138,46.291c0.011,3.453,1.692,6.689,4.512,8.682c2.822,1.992,6.43,2.496,9.691,1.354l40.11-14.084
		L298.223,336.157z M250.472,300.663l-29.337,10.301l-0.105-34.872c-0.006-2.328-0.776-4.59-2.186-6.441l-18.864-24.719
		l33.134-10.876c2.211-0.727,4.126-2.155,5.449-4.07l17.68-25.576l20.581,28.153c1.373,1.88,3.325,3.258,5.555,3.925l29.789,8.911
		l-20.412,28.273c-1.362,1.887-2.071,4.168-2.015,6.495l0.73,31.085l-33.2-10.677c-1.063-0.342-2.163-0.512-3.266-0.512
		C252.81,300.06,251.614,300.262,250.472,300.663z"/>
	<path style="fill:#000003;" d="M108.422,245.1c-5.892,0-10.669,4.776-10.669,10.669v0.232c0,5.892,4.776,10.669,10.669,10.669
		c5.89,0,10.669-4.776,10.669-10.669v-0.232C119.091,249.877,114.313,245.1,108.422,245.1z"/>
	<path style="fill:#000003;" d="M392.908,256.001v0.23c0,5.892,4.779,10.669,10.669,10.669c5.892,0,10.669-4.776,10.669-10.669
		v-0.23c0-5.892-4.776-10.669-10.669-10.669C397.686,245.332,392.908,250.108,392.908,256.001z"/>
	<path style="fill:#000003;" d="M266.67,108.422c0-5.892-4.779-10.669-10.669-10.669c-36.259,0-71.723,12.601-99.853,35.48
		s-47.692,55.03-55.079,90.53c-1.2,5.769,2.503,11.418,8.273,12.618c0.734,0.153,1.463,0.226,2.184,0.226
		c4.947,0,9.387-3.462,10.433-8.498c13.146-63.171,69.52-109.02,134.043-109.02C261.891,119.091,266.67,114.315,266.67,108.422z"/>
	<path style="fill:#000003;" d="M402.659,275.617c-5.774-1.201-11.417,2.503-12.617,8.27
		c-13.146,63.172-69.52,109.022-134.041,109.022c-5.893,0-10.669,4.776-10.669,10.669c0,5.892,4.775,10.669,10.669,10.669
		c36.259,0,71.721-12.601,99.851-35.481c28.13-22.88,47.69-55.031,55.079-90.531C412.13,282.467,408.428,276.817,402.659,275.617z"
		/>
</g>
</svg>