<?xml version="1.0" encoding="iso-8859-1"?>
<!-- Uploaded to: SVG Repo, www.svgrepo.com, Generator: SVG Repo Mixer Tools -->
<!DOCTYPE svg PUBLIC "-//W3C//DTD SVG 1.1//EN" "http://www.w3.org/Graphics/SVG/1.1/DTD/svg11.dtd">
<svg height="800px" width="800px" version="1.1" id="Capa_1" xmlns="http://www.w3.org/2000/svg" xmlns:xlink="http://www.w3.org/1999/xlink" 
	 viewBox="0 0 433.917 433.917" xml:space="preserve">
<g>
	<polygon style="fill:#E29A3B;" points="98.913,350.945 335.004,350.945 335.004,196.999 81.05,196.999 	"/>
	<path style="fill:#CCCCCC;" d="M295.167,363.488l-0.331,2.11c-6.288,39.589-39.982,68.319-80.129,68.319
		c-40.127,0-73.821-28.73-80.108-68.319l-0.331-2.11c3.309-0.538,6.702-0.807,10.177-0.807H284.99
		C288.465,362.682,291.857,362.951,295.167,363.488z"/>
	<path style="fill:#EA535E;" d="M276.448,362.682c-4.737,29.826-30.591,52.619-61.741,52.619c-31.15,0-56.984-22.794-61.721-52.619
		H276.448z"/>
	<path style="fill:#FCE7A7;" d="M249.942,331.769v25.45c0,1.84-0.15,3.65-0.44,5.41c-0.58,3.56-1.74,6.93-3.39,10.01
		c-5.5,10.4-16.46,17.51-29.08,17.51c-12.64,0-23.58-7.11-29.1-17.51c-1.64-3.07-2.8-6.42-3.39-9.97c-0.29-1.77-0.44-3.59-0.44-5.45
		v-25.45H249.942z"/>
	<g>
		<path style="fill:#E5CF98;" d="M127.304,217.223c0,24.442-19.834,44.276-44.276,44.276c-7.842,0-15.201-2.051-21.571-5.622
			c-13.536-7.552-22.705-22.053-22.705-38.654c0-14.477,6.949-27.338,17.735-35.42c7.383-5.55,16.576-8.856,26.541-8.856
			C107.47,172.947,127.304,192.781,127.304,217.223z"/>
		<path style="fill:#E5CF98;" d="M395.164,217.223c0,24.442-19.834,44.276-44.276,44.276c-1.81,0-3.595-0.12-5.356-0.338
			c-21.909-2.63-38.919-21.305-38.919-43.938c0-24.442,19.834-44.276,44.276-44.276c0.41,0,0.796,0,1.182,0.024
			C375.982,173.599,395.164,193.191,395.164,217.223z"/>
	</g>
	<path style="fill:#E5CF98;" d="M249.942,331.769v25.45c0,1.84-0.15,3.65-0.44,5.41c-10.42,2.59-21.32,3.96-32.54,3.96
		c-11.18,0-22.03-1.36-32.42-3.92c-0.29-1.77-0.44-3.59-0.44-5.45v-25.45H249.942z"/>
	<path style="fill:#FCE7A7;" d="M351.721,176.243v45.597c0,23.581-6.066,45.753-16.712,65.029
		c-22.935,41.565-67.202,69.726-118.043,69.726c-50.861,0-95.127-28.16-118.062-69.726c-10.646-19.276-16.712-41.448-16.712-65.029
		v-45.597c0-74.423,60.333-134.755,134.775-134.755c37.221,0,70.9,15.088,95.284,39.472
		C336.633,105.342,351.721,139.021,351.721,176.243z"/>
	<path style="fill:#FFFFFF;" d="M270.191,241.618c4.337-2.993,9.59-4.755,15.259-4.755c4.773,0,9.247,1.255,13.134,3.435
		c7.161-4.892,11.874-13.116,11.874-22.424c0-14.967-12.177-27.144-27.145-27.144c-14.967,0-27.144,12.177-27.144,27.144
		C256.169,228.082,261.839,236.984,270.191,241.618z"/>
	<path style="fill:#E5CF98;" d="M351.721,176.243v45.597c0,23.581-6.066,45.753-16.712,65.029V186.653
		c-86.79,8.552-118.043-67.28-118.043-67.28s-31.272,75.832-118.062,67.28v100.215c-10.646-19.276-16.712-41.448-16.712-65.029
		v-45.597c0-74.423,60.333-134.755,134.775-134.755c37.221,0,70.9,15.088,95.284,39.472
		C336.633,105.342,351.721,139.021,351.721,176.243z"/>
	<path style="fill:#FFFFFF;" d="M135.333,240.295c3.886-2.178,8.359-3.432,13.13-3.432c5.67,0,10.924,1.763,15.262,4.758
		c8.354-4.634,14.026-13.537,14.026-23.748c0-14.967-12.177-27.144-27.144-27.144c-14.967,0-27.145,12.177-27.145,27.144
		C123.462,227.18,128.174,235.403,135.333,240.295z"/>
	<path style="fill:#AB8FD8;" d="M159.896,217.873c-5.131,0-9.29-4.159-9.29-9.29c0-3.206,1.624-6.032,4.094-7.702
		c-1.316-0.316-2.682-0.502-4.094-0.502c-9.661,0-17.493,7.832-17.493,17.493c0,9.661,7.832,17.493,17.493,17.493
		s17.493-7.832,17.493-17.493c0-1.413-0.186-2.779-0.502-4.094C165.928,216.249,163.102,217.873,159.896,217.873z"/>
	<path style="fill:#AB8FD8;" d="M292.603,217.873c-5.131,0-9.29-4.159-9.29-9.29c0-3.206,1.624-6.032,4.094-7.702
		c-1.316-0.316-2.682-0.502-4.094-0.502c-9.661,0-17.493,7.832-17.493,17.493c0,9.661,7.832,17.493,17.493,17.493
		s17.493-7.832,17.493-17.493c0-1.413-0.186-2.779-0.502-4.094C298.635,216.249,295.809,217.873,292.603,217.873z"/>
	<path style="fill:#EA535E;" d="M216.955,296.146c-11.57,0-21.715-7.405-25.245-18.426c-0.505-1.578,0.364-3.267,1.942-3.772
		c1.582-0.506,3.267,0.364,3.772,1.942c2.731,8.527,10.58,14.256,19.531,14.256c8.951,0,16.799-5.729,19.53-14.256
		c0.505-1.577,2.193-2.448,3.772-1.942c1.578,0.505,2.447,2.194,1.942,3.772C238.669,288.741,228.524,296.146,216.955,296.146z"/>
	<polygon style="fill:#E5CF98;" points="198.56,239.589 216.958,222.924 235.357,239.589 	"/>
	<path style="fill:#FBB03B;" d="M378.727,174.422v176.516h-43.718V172.955c-86.79,8.552-118.043-67.28-118.043-67.28
		s-31.272,75.832-118.062,67.28v177.984H55.185V174.422c0-38.278,13.405-73.933,36.184-101.976
		c22.779-28.063,54.931-48.493,92.387-56.36c10.939-2.289,22.074-3.444,33.209-3.444c11.115,0,22.231,1.155,33.19,3.444
		c39.041,8.18,72.29,30.039,95.205,59.922c8.65,11.292,15.832,23.738,21.272,37.025
		C374.461,132.055,378.727,152.818,378.727,174.422z"/>
	<path style="fill:#E29A3B;" d="M366.633,113.033H315.42l29.941-37.025C354.011,87.299,361.193,99.745,366.633,113.033z"/>
	<path style="fill:#FCD983;" d="M285.319,71.224L318.492,0v48.469L362.85,9.132L341.843,63.15l43.186-13.574l-51.454,54.423
		c-9.561,10.113-24.883,12.183-36.785,4.969l0,0C283.898,101.155,278.955,84.889,285.319,71.224z"/>
</g>
</svg>