<?xml version="1.0" encoding="iso-8859-1"?>
<!-- Uploaded to: SVG Repo, www.svgrepo.com, Generator: SVG Repo Mixer Tools -->
<svg version="1.1" id="Layer_1" xmlns="http://www.w3.org/2000/svg" xmlns:xlink="http://www.w3.org/1999/xlink" 
	 viewBox="0 0 511.999 511.999" xml:space="preserve">
<path style="fill:#A7A9AC;" d="M389.115,108.83l-65.468,65.468l-0.212,0.218c-5.34-5.665-11.766-10.569-18.851-14.159
	c0.33-2.617,0.436-5.229,0.436-7.846c0-5.665-0.542-11.111-1.638-16.447l1.638,0.107l57.085-54.361l-23.095-23.09l42.266-47.824
	l81.702,81.702l-46.947,43.139L389.115,108.83z"/>
<path style="fill:#FFD248;" d="M304.583,160.357c7.085,3.591,13.51,8.495,18.851,14.159c7.298,7.628,12.851,16.776,16.117,27.016
	H71.131c-0.218-1.851-0.325-3.596-0.325-5.447c0-39.106,31.703-70.808,70.808-70.808c1.526,0,3.159,0.107,4.686,0.218
	c11.111-31.808,41.393-54.686,77.016-54.686c39.436,0,72.447,27.994,80.064,65.255c1.096,5.335,1.638,10.781,1.638,16.447
	C305.02,155.128,304.913,157.74,304.583,160.357z"/>
<path style="fill:#F4661E;" d="M76.254,250.553v38.128v168.851v21.787c0,11.979,9.803,21.787,21.787,21.787h228.765
	c11.979,0,21.787-9.809,21.787-21.787V288.681v-38.128H76.254z"/>
<path style="fill:#31C0D8;" d="M375.828,201.532v38.128c0,5.989-4.904,10.894-10.894,10.894h-16.34H76.254h-16.34
	c-5.989,0-10.894-4.904-10.894-10.894v-38.128h22.112h268.419H375.828z"/>
<g>
	<path style="fill:#231F20;" d="M114.382,299.575v54.468c0,24.027,19.547,43.574,43.574,43.574h108.936
		c24.027,0,43.574-19.547,43.574-43.574v-54.468h10.894v-21.787h-43.574v21.787h10.894v54.468c0,12.013-9.774,21.787-21.787,21.787
		H157.956c-12.013,0-21.787-9.774-21.787-21.787v-54.468h10.894v-21.787h-43.574v21.787H114.382z"/>
	<rect x="119.828" y="157.957" style="fill:#231F20;" width="21.787" height="21.787"/>
	<rect x="163.402" y="147.063" style="fill:#231F20;" width="21.787" height="21.787"/>
	<rect x="185.189" y="114.382" style="fill:#231F20;" width="21.787" height="21.787"/>
	<rect x="228.764" y="103.489" style="fill:#231F20;" width="21.787" height="21.787"/>
	<rect x="217.87" y="147.063" style="fill:#231F20;" width="21.787" height="21.787"/>
	<rect x="261.444" y="157.957" style="fill:#231F20;" width="21.787" height="21.787"/>
	<path style="fill:#231F20;" d="M470.68,84.893L388.978,3.192c-2.125-2.124-5.03-3.288-8.038-3.185
		c-3.004,0.093-5.837,1.423-7.827,3.674l-42.267,47.824c-3.812,4.313-3.61,10.848,0.461,14.918l15.201,15.197l-37.516,35.726
		c-14.041-34.089-47.729-57.43-85.674-57.43c-36.562,0-69.499,21.602-84.318,54.509c-42.027,1.327-76.127,34.556-78.885,76.214
		H49.02c-6.017,0-10.894,4.878-10.894,10.894v38.128c0,12.013,9.774,21.787,21.787,21.787h5.447v217.872
		c0,18.02,14.661,32.681,32.681,32.681h228.765c18.02,0,32.681-14.661,32.681-32.681V261.446h5.447
		c12.013,0,21.787-9.774,21.787-21.787v-38.128c0-6.015-4.877-10.894-10.894-10.894h-28.767c-2.376-5.475-5.351-10.639-8.892-15.456
		l50.948-50.949l19.212,19.204c4.128,4.128,10.775,4.266,15.072,0.317l46.947-43.139c2.186-2.009,3.458-4.823,3.521-7.791
		C473.93,89.858,472.779,86.993,470.68,84.893z M141.616,136.171c1.206,0,2.641,0.098,3.891,0.188
		c4.914,0.359,9.456-2.622,11.079-7.271c9.901-28.343,36.718-47.385,66.732-47.385c33.51,0,62.693,23.78,69.393,56.553
		c0.952,4.637,1.415,9.301,1.415,14.255c0,2.525-0.111,4.585-0.351,6.484c-0.575,4.566,1.78,8.999,5.884,11.079
		c5.782,2.93,11.263,7.05,15.905,11.973c2.574,2.69,4.86,5.559,6.849,8.592H81.946C84.706,160.143,110.413,136.171,141.616,136.171z
		 M337.701,479.319c0,6.007-4.887,10.894-10.894,10.894H98.042c-6.007,0-10.894-4.887-10.894-10.894v-10.894H305.02v-21.787H87.148
		V261.447h250.553V479.319z M364.935,212.426v27.234H59.914v-27.234h11.218h268.419H364.935z M416.347,120.65l-19.53-19.523
		c-4.254-4.253-11.15-4.252-15.405,0.001l-58.313,58.313c-2.315-1.855-4.72-3.587-7.201-5.161c0.01-0.574,0.015-1.163,0.015-1.769
		c0-3.779-0.236-7.433-0.661-11.042l54.365-51.771c2.126-2.024,3.344-4.822,3.38-7.756c0.036-2.935-1.114-5.761-3.191-7.836
		l-15.851-15.848l27.809-31.467l65.474,65.474L416.347,120.65z"/>
	
		<rect x="389.777" y="46.916" transform="matrix(0.7071 -0.7071 0.7071 0.7071 64.8985 305.0442)" style="fill:#231F20;" width="21.787" height="54.533"/>
</g>
</svg>