<?xml version="1.0" encoding="iso-8859-1"?>
<!-- Uploaded to: SVG Repo, www.svgrepo.com, Generator: SVG Repo Mixer Tools -->
<svg height="800px" width="800px" version="1.1" id="Layer_1" xmlns="http://www.w3.org/2000/svg" xmlns:xlink="http://www.w3.org/1999/xlink" 
	 viewBox="0 0 511.984 511.984" xml:space="preserve">
<path style="fill:#CCD1D9;" d="M351.989,10.672c-46.123,0-87.677,19.515-116.871,50.733c-15.647-18.016-38.718-29.406-64.459-29.406
	c-47.124,0-85.325,38.202-85.325,85.325c0,0.719,0.008,1.422,0.023,2.141C36.655,129.324,0,172.385,0,223.993
	c0,58.904,47.757,106.668,106.661,106.668h245.328c88.356,0,159.995-71.638,159.995-159.995
	C511.984,82.294,440.346,10.672,351.989,10.672z"/>
<path style="fill:#AAB2BC;" d="M453.954,47.358c22.922,27.687,36.703,63.217,36.703,101.966
	c0,88.372-71.638,159.995-159.995,159.995H85.334c-24.016,0-46.179-7.937-64.006-21.327c19.46,25.905,50.443,42.67,85.333,42.67
	h245.328c88.356,0,159.995-71.638,159.995-159.995C511.984,121.043,489.407,76.717,453.954,47.358z"/>
<path style="fill:#5D9CEC;" d="M85.326,501.312c-1.609,0-3.234-0.359-4.766-1.125c-5.266-2.625-7.406-9.047-4.773-14.313
	l63.998-127.995c2.641-5.266,9.047-7.406,14.313-4.766c5.273,2.641,7.405,9.046,4.773,14.312L94.873,495.422
	C93.006,499.156,89.232,501.312,85.326,501.312z"/>
<path style="fill:#4A89DC;" d="M149.324,501.312c-1.609,0-3.234-0.359-4.766-1.125c-5.266-2.625-7.406-9.047-4.773-14.313
	l63.998-127.995c2.641-5.266,9.047-7.406,14.313-4.766c5.272,2.641,7.405,9.046,4.772,14.312l-63.997,127.997
	C157.004,499.156,153.23,501.312,149.324,501.312z"/>
<path style="fill:#5D9CEC;" d="M213.322,501.312c-1.609,0-3.234-0.359-4.766-1.125c-5.266-2.625-7.406-9.047-4.773-14.313
	l63.998-127.995c2.641-5.266,9.055-7.406,14.304-4.766c5.281,2.641,7.406,9.046,4.781,14.312l-63.998,127.997
	C221.001,499.156,217.228,501.312,213.322,501.312z"/>
<path style="fill:#4A89DC;" d="M277.32,501.312c-1.609,0-3.234-0.359-4.766-1.125c-5.266-2.625-7.406-9.047-4.773-14.313
	l64.006-127.995c2.625-5.266,9.03-7.406,14.312-4.766c5.266,2.641,7.406,9.046,4.766,14.312l-63.999,127.997
	C284.991,499.156,281.225,501.312,277.32,501.312z"/>
</svg>