<svg width="644" height="800" viewBox="0 0 644 800" fill="none" xmlns="http://www.w3.org/2000/svg">
<path d="M390.55 349.513L387.489 356.477L386.435 359.116L386.33 359.219L371.661 392.039L369.022 397.844L326.813 492.605L326.602 493.132L321.747 504.108L192.9 793.143L189.841 800L178.971 793.986L181.821 782.061L251.046 494.505L262.549 446.807L274.366 397.738L274.894 395.521L275.21 395.1L321.747 347.928L321.958 347.613L349.607 319.332L354.988 313.844L358.997 309.835L390.55 349.513Z" fill="#D6D7D7"/>
<path d="M639.591 96.8847C638.325 92.1347 636.741 87.491 634.947 83.166C624.922 58.4722 607.405 39.9003 591.786 26.3925C582.396 18.2675 571.104 11.83 559.18 7.39877C550.105 3.80971 540.713 1.59409 531.427 0.537838C504.939 -2.20591 480.141 5.39252 469.589 26.9191L461.147 48.2347L451.966 71.1347L434.66 114.4L382.424 245.041L354.986 313.844L356.675 316.061L387.489 356.477L388.122 357.321L389.494 359.01C389.494 359.01 416.086 328.302 448.377 307.196C500.822 272.9 591.68 280.497 630.936 184.893C634.63 176.028 637.374 167.586 639.272 159.46C645.183 135.507 644.444 114.824 639.591 96.8847ZM558.441 162.416C539.552 197.452 488.16 217.077 466.211 201.777C444.157 186.477 462.622 143.103 476.658 109.443C488.371 81.1628 504.411 70.505 518.446 69.6597C525.199 69.1316 531.425 70.8222 536.596 73.8816C549.153 81.4785 560.022 94.5659 564.771 110.816C569.31 126.01 568.466 143.949 558.441 162.416Z" fill="#779E59"/>
<path d="M464.418 80.2097L447.746 118.727L434.66 114.4L420.941 109.652L439.515 66.9144L451.966 71.1363L464.418 80.2097Z" fill="#779E59"/>
<path d="M464.417 793.986L453.654 800L321.747 504.108L316.787 493.132L316.576 492.605L296.948 448.496L274.365 397.738L271.833 392.039L257.165 359.219L255.9 356.372L252.839 349.513L284.39 309.835L288.401 313.844L293.783 319.332L321.429 347.613L321.747 347.928L359.314 386.128L368.178 395.1L368.495 395.521L369.022 397.844L380.84 446.807L464.417 793.986Z" fill="#FBFBFC"/>
<path d="M232.261 173.285L208.728 114.401L191.422 71.135L182.347 48.235L180.131 42.7475L173.8 26.9179C163.249 5.39286 138.45 -2.20557 112.069 0.538177C90.5407 2.86005 68.1704 12.1476 51.6017 26.3929C33.2407 42.3272 12.2407 65.121 3.79855 96.885C-0.73895 114.19 -1.68895 134.135 3.58761 157.033C3.69386 157.773 3.9048 158.616 4.11574 159.46C6.01574 167.585 8.75949 176.029 12.4532 184.893C37.3564 245.465 82.9439 264.669 126.316 279.233C151.431 287.674 175.913 294.64 195.119 307.196C227.305 328.301 253.897 359.01 253.897 359.01L255.902 356.373L286.716 316.062L288.403 313.844L232.261 173.285ZM177.177 201.777C155.333 217.077 103.942 197.452 84.947 162.416C75.0282 143.949 74.0782 126.01 78.6157 110.815C83.3642 94.5647 94.2345 81.4788 106.792 73.8804C111.963 70.821 118.189 69.1304 124.942 69.6585C138.977 70.5038 155.017 81.1616 166.73 109.441C180.766 143.104 199.233 186.476 177.177 201.777Z" fill="#779E59"/>
<path d="M222.467 109.628L208.703 114.408L195.668 118.678L178.951 80.2269L191.471 71.1863L203.892 66.905L222.467 109.628Z" fill="#779E59"/>
<path d="M321.705 426.185C335.029 426.185 345.83 415.384 345.83 402.06C345.83 388.736 335.029 377.935 321.705 377.935C308.381 377.935 297.58 388.736 297.58 402.06C297.58 415.384 308.381 426.185 321.705 426.185Z" fill="#8E9E27"/>
<path opacity="0.1" d="M639.59 96.8847C638.325 92.1347 636.74 87.491 634.946 83.166C624.921 58.4722 607.404 39.9003 591.786 26.3925C582.395 18.2675 571.103 11.83 559.179 7.39878C550.104 3.80971 540.712 1.59409 531.426 0.537838C504.939 -2.20591 480.14 5.39252 469.589 26.9191L461.146 48.2347L451.965 71.1347L439.514 66.9128L420.94 109.65L434.659 114.399L382.423 245.039L354.986 313.843L349.604 319.33L321.956 347.611L321.745 347.927L321.732 347.916V504.133L321.745 504.107L453.654 800L464.417 793.986L380.84 446.807L369.021 397.844L371.659 392.039L386.328 359.219L386.434 359.114L387.489 356.477L388.121 357.321L389.493 359.01C389.493 359.01 416.086 328.302 448.376 307.196C500.821 272.9 591.679 280.497 630.936 184.893C634.629 176.028 637.373 167.586 639.271 159.46C645.182 135.507 644.443 114.824 639.59 96.8847ZM558.442 162.416C539.553 197.452 488.162 217.077 466.212 201.777C444.157 186.477 462.625 143.103 476.659 109.443C488.372 81.1628 504.412 70.505 518.448 69.6597C525.201 69.1316 531.428 70.8222 536.598 73.8816C549.156 81.4785 560.025 94.566 564.773 110.816C569.311 126.01 568.467 143.949 558.442 162.416Z" fill="#040000"/>
</svg>
