<?xml version="1.0" encoding="iso-8859-1"?>
<!-- Uploaded to: SVG Repo, www.svgrepo.com, Generator: SVG Repo Mixer Tools -->
<svg height="800px" width="800px" version="1.1" id="Layer_1" xmlns="http://www.w3.org/2000/svg" xmlns:xlink="http://www.w3.org/1999/xlink" 
	 viewBox="0 0 512 512" xml:space="preserve">
<g>
	<path style="fill:#27B5F7;" d="M405.96,270.597c21.857,0,39.576-17.719,39.576-39.576s-17.719-39.576-39.576-39.576
		c-5.8,0-11.303,1.258-16.266,3.499c0.41-2.983,0.638-6.023,0.638-9.119c0-36.718-29.766-66.483-66.483-66.483
		s-66.483,29.766-66.483,66.483c0,9.168,1.856,17.901,5.212,25.846c-4.304-2.237-9.19-3.51-14.376-3.51
		c-17.241,0-31.217,13.977-31.217,31.217s13.977,31.217,31.217,31.217H405.96V270.597z"/>
	<path style="fill:#27B5F7;" d="M211.381,462.921c1.095-2.978,1.695-6.196,1.695-9.555c0-15.285-12.391-27.676-27.676-27.676
		c-4.598,0-8.93,1.127-12.746,3.112c2.975-7.045,4.621-14.787,4.621-22.916c0-32.553-26.39-58.942-58.942-58.942
		s-58.942,26.39-58.942,58.942c0,2.744,0.203,5.44,0.566,8.084c-4.4-1.987-9.279-3.102-14.421-3.102
		c-19.378,0-35.086,15.709-35.086,35.087c0,6.154,1.589,11.937,4.373,16.965L211.381,462.921L211.381,462.921z"/>
</g>
<path style="fill:#FFAE18;" d="M390.332,185.826c0,3.095-0.229,6.136-0.638,9.119c4.963-2.241,10.466-3.499,16.266-3.499
	c10.312,0,19.7,3.947,26.744,10.409c5.919-9.387,9.358-20.497,9.358-32.415c0-33.62-27.254-60.872-60.872-60.872
	c-14.511,0-27.83,5.085-38.289,13.561C370.33,130.32,390.332,155.732,390.332,185.826z"/>
<path d="M381.19,83.595c5.77,0,10.449-4.678,10.449-10.449V49.078c0-5.771-4.679-10.449-10.449-10.449
	c-5.77,0-10.449,4.678-10.449,10.449v24.068C370.741,78.917,375.419,83.595,381.19,83.595z"/>
<path d="M469.806,130.34l20.842-12.034c4.998-2.886,6.71-9.276,3.824-14.273c-2.885-4.997-9.276-6.71-14.273-3.824l-20.842,12.034
	c-4.998,2.886-6.71,9.276-3.824,14.273c1.936,3.352,5.447,5.226,9.059,5.226C466.364,131.742,468.161,131.29,469.806,130.34z"/>
<path d="M490.649,220.573l-16.328-9.427c-4.999-2.886-11.387-1.173-14.273,3.824c-2.886,4.998-1.173,11.388,3.824,14.273
	l16.328,9.427c1.646,0.95,3.442,1.401,5.214,1.401c3.611,0,7.123-1.873,9.059-5.226
	C497.359,229.849,495.647,223.459,490.649,220.573z"/>
<path d="M323.992,91.27c1.936,3.352,5.447,5.226,9.059,5.226c1.772,0,3.568-0.451,5.214-1.401c4.998-2.885,6.71-9.276,3.824-14.273
	l-12.034-20.844c-2.886-4.997-9.272-6.709-14.273-3.824c-4.998,2.885-6.71,9.276-3.824,14.273L323.992,91.27z"/>
<path d="M424.111,95.094c1.646,0.95,3.442,1.401,5.214,1.401c3.611,0,7.124-1.873,9.059-5.226l12.033-20.844
	c2.886-4.998,1.173-11.388-3.824-14.273c-5-2.885-11.389-1.173-14.273,3.824l-12.034,20.842
	C417.401,85.817,419.112,92.209,424.111,95.094z"/>
<path d="M501.551,158.992h-24.067c-5.77,0-10.449,4.678-10.449,10.449c0,5.77,4.678,10.449,10.449,10.449h24.067
	c5.77,0,10.449-4.678,10.449-10.449C512,163.67,507.322,158.992,501.551,158.992z"/>
<path d="M452.51,169.44c0-39.327-31.995-71.321-71.321-71.321c-14.663,0-28.587,4.369-40.525,12.649
	c-5.417-1.213-11.038-1.873-16.815-1.873c-42.422,0-76.933,34.512-76.933,76.932c0,4.014,0.304,7.983,0.91,11.89
	c-22.803,0.202-41.291,18.814-41.291,41.665c0,7.56,2.034,14.649,5.568,20.767h-17.056c-5.77,0-10.449,4.678-10.449,10.449
	s4.679,10.449,10.449,10.449h210.913c27.583,0,50.025-22.441,50.025-50.024c0-11.547-3.943-22.184-10.539-30.659
	C450.075,190.751,452.51,180.171,452.51,169.44z M381.19,119.015c27.804,0,50.423,22.62,50.423,50.423
	c0,5.824-1.028,11.579-2.978,17.014c-6.813-3.481-14.516-5.456-22.675-5.456c-1.786,0-3.557,0.093-5.311,0.279
	c-1.469-25.05-14.984-46.913-34.816-59.879C370.738,119.829,375.894,119.015,381.19,119.015z M405.96,260.148H261.223h-13.023
	c-11.452,0-20.768-9.316-20.768-20.767s9.316-20.768,20.768-20.768c3.366,0,6.581,0.784,9.555,2.331
	c3.906,2.032,8.672,1.396,11.909-1.592c3.237-2.987,4.252-7.685,2.538-11.744c-2.912-6.894-4.389-14.222-4.389-21.781
	c0-30.897,25.138-56.035,56.036-56.035s56.035,25.137,56.035,56.035c0,2.494-0.182,5.083-0.542,7.695
	c-0.517,3.767,1.052,7.518,4.098,9.795c3.046,2.277,7.089,2.718,10.554,1.153c3.781-1.707,7.808-2.574,11.966-2.574
	c16.061,0,29.127,13.066,29.127,29.127C435.087,247.082,422.021,260.148,405.96,260.148z"/>
<path d="M341.893,340.417c-12.55,0-23.823,5.544-31.52,14.304c-7.698-8.759-18.97-14.304-31.52-14.304
	c-5.77,0-10.449,4.678-10.449,10.449c0,5.771,4.679,10.449,10.449,10.449c11.618,0,21.071,9.452,21.071,21.071
	c0,5.771,4.679,10.449,10.449,10.449s10.449-4.678,10.449-10.449c0-11.619,9.453-21.071,21.071-21.071
	c5.77,0,10.449-4.678,10.449-10.449C352.342,345.095,347.664,340.417,341.893,340.417z"/>
<path d="M10.449,191.293c11.618,0,21.071,9.452,21.071,21.071c0,5.771,4.679,10.449,10.449,10.449s10.449-4.678,10.449-10.449
	c0-11.619,9.453-21.071,21.071-21.071c5.77,0,10.449-4.678,10.449-10.449c0-5.771-4.679-10.449-10.449-10.449
	c-12.55,0-23.823,5.544-31.52,14.304c-7.698-8.759-18.97-14.304-31.52-14.304C4.679,170.395,0,175.073,0,180.844
	C0,186.615,4.679,191.293,10.449,191.293z"/>
<path d="M80.243,252.658c-5.77,0-10.449,4.678-10.449,10.449s4.679,10.449,10.449,10.449c11.618,0,21.071,9.452,21.071,21.071
	c0,5.771,4.679,10.449,10.449,10.449s10.449-4.678,10.449-10.449c0-11.619,9.453-21.071,21.071-21.071
	c5.77,0,10.449-4.678,10.449-10.449c0-5.771-4.679-10.449-10.449-10.449c-12.55,0-23.823,5.544-31.52,14.304
	C104.065,258.203,92.793,252.658,80.243,252.658z"/>
<path d="M333.093,452.472h-0.137c-5.77,0-10.449,4.678-10.449,10.449s4.679,10.449,10.449,10.449h0.137
	c5.77,0,10.449-4.678,10.449-10.449S338.864,452.472,333.093,452.472z"/>
<path d="M299.153,452.473h-75.65c-0.465-20.044-16.464-36.316-36.405-37.194c0.417-3.093,0.628-6.227,0.628-9.392
	c0-38.263-31.128-69.391-69.391-69.391c-36.471,0-66.459,28.28-69.189,64.065c-1.195-0.093-2.398-0.14-3.608-0.14
	C20.428,400.42,0,420.848,0,445.955c0,7.696,1.964,15.313,5.681,22.026c1.841,3.325,5.341,5.389,9.142,5.389l284.33,0.001
	c5.77,0,10.449-4.678,10.449-10.449C309.602,457.151,304.923,452.473,299.153,452.473z M20.898,445.955
	c0-13.585,11.053-24.638,24.639-24.638c3.518,0,6.922,0.732,10.12,2.177c3.465,1.565,7.508,1.125,10.554-1.151
	c3.046-2.276,4.616-6.027,4.099-9.794c-0.311-2.261-0.468-4.502-0.468-6.661c0-26.74,21.754-48.493,48.492-48.493
	c26.74,0,48.494,21.754,48.494,48.493c0,6.541-1.278,12.883-3.798,18.849c-1.715,4.057-0.699,8.754,2.537,11.743
	c3.236,2.987,7.996,3.626,11.908,1.595c2.468-1.283,5.135-1.934,7.927-1.934c9.198,0,16.736,7.247,17.204,16.332H21.775
	C21.196,450.358,20.898,448.163,20.898,445.955z"/>
</svg>