<?xml version="1.0" encoding="iso-8859-1"?>
<!-- Uploaded to: SVG Repo, www.svgrepo.com, Generator: SVG Repo Mixer Tools -->
<svg height="800px" width="800px" version="1.1" id="Layer_1" xmlns="http://www.w3.org/2000/svg" xmlns:xlink="http://www.w3.org/1999/xlink" 
	 viewBox="0 0 503.327 503.327" xml:space="preserve">
<g transform="translate(0 -1)">
	<g>
		<path style="fill:#BDC3C7;" d="M43.392,504.327c-4.799,0-8.678-3.879-8.678-8.678v-26.034c0-4.799,3.879-8.678,8.678-8.678
			s8.678,3.879,8.678,8.678v26.034C52.07,500.448,48.191,504.327,43.392,504.327"/>
		<path style="fill:#BDC3C7;" d="M459.935,504.327c-4.799,0-8.678-3.879-8.678-8.678v-26.034c0-4.799,3.879-8.678,8.678-8.678
			c4.799,0,8.678,3.879,8.678,8.678v26.034C468.613,500.448,464.734,504.327,459.935,504.327"/>
		<path style="fill:#BDC3C7;" d="M251.655,130.632c-1.562,0-3.133-0.417-4.556-1.293c-4.079-2.517-5.337-7.88-2.82-11.95
			L313.702,5.114c2.525-4.079,7.888-5.337,11.95-2.812c4.079,2.517,5.337,7.871,2.82,11.95l-69.424,112.267
			C257.4,129.174,254.562,130.632,251.655,130.632"/>
		<path style="fill:#BDC3C7;" d="M251.672,130.632c-2.742,0-5.45-1.293-7.133-3.723L166.437,14.642
			c-2.742-3.931-1.762-9.346,2.169-12.088c3.922-2.734,9.337-1.762,12.08,2.169l78.102,112.276c2.742,3.931,1.762,9.346-2.169,12.08
			C255.109,130.129,253.382,130.632,251.672,130.632"/>
	</g>
	<path style="fill:#AB6942;" d="M0.003,148.53c0-14.379,11.655-26.034,26.034-26.034h451.254c14.379,0,26.034,11.655,26.034,26.034
		v295.051c0,14.379-11.655,26.034-26.034,26.034H26.036c-14.379,0-26.034-11.655-26.034-26.034V148.53z"/>
	<path style="fill:#596C6C;" d="M321.087,434.903H78.104c-23.96,0-43.39-19.43-43.39-43.39V200.598c0-23.96,19.43-43.39,43.39-43.39
		h242.983c23.96,0,43.39,19.43,43.39,43.39v190.915C364.477,415.473,345.047,434.903,321.087,434.903"/>
	<g>
		<path style="fill:#E1A486;" d="M468.613,209.276h-69.424c-4.799,0-8.678-3.879-8.678-8.678s3.879-8.678,8.678-8.678h69.424
			c4.799,0,8.678,3.879,8.678,8.678S473.412,209.276,468.613,209.276"/>
		<path style="fill:#E1A486;" d="M468.613,243.988h-69.424c-4.799,0-8.678-3.879-8.678-8.678c0-4.799,3.879-8.678,8.678-8.678
			h69.424c4.799,0,8.678,3.879,8.678,8.678C477.291,240.109,473.412,243.988,468.613,243.988"/>
		<path style="fill:#E1A486;" d="M468.613,278.7h-69.424c-4.799,0-8.678-3.879-8.678-8.678c0-4.799,3.879-8.678,8.678-8.678h69.424
			c4.799,0,8.678,3.879,8.678,8.678C477.291,274.821,473.412,278.7,468.613,278.7"/>
		<polygon style="fill:#E1A486;" points="399.185,374.158 468.609,374.158 468.609,304.734 399.185,304.734 		"/>
	</g>
	<g>
		<path style="fill:#859695;" d="M69.426,235.31c-2.222,0-4.443-0.85-6.135-2.543c-3.393-3.393-3.393-8.878,0-12.271l34.712-34.712
			c3.393-3.393,8.878-3.393,12.271,0c3.393,3.393,3.393,8.878,0,12.271l-34.712,34.712C73.869,234.46,71.648,235.31,69.426,235.31"
			/>
		<path style="fill:#859695;" d="M69.426,278.7c-2.222,0-4.443-0.85-6.135-2.543c-3.393-3.393-3.393-8.878,0-12.271l8.678-8.678
			c3.393-3.393,8.878-3.393,12.271,0c3.393,3.393,3.393,8.878,0,12.271l-8.678,8.678C73.869,277.85,71.648,278.7,69.426,278.7"/>
		<path style="fill:#859695;" d="M130.172,217.954c-2.222,0-4.443-0.85-6.135-2.543c-3.393-3.393-3.393-8.878,0-12.271
			l26.034-26.034c3.393-3.393,8.878-3.393,12.271,0s3.393,8.878,0,12.271l-26.034,26.034
			C134.615,217.104,132.394,217.954,130.172,217.954"/>
		<path style="fill:#859695;" d="M112.816,235.31c0-4.79-3.888-8.678-8.678-8.678s-8.678,3.888-8.678,8.678s3.888,8.678,8.678,8.678
			S112.816,240.1,112.816,235.31"/>
	</g>
</g>
</svg>