<svg width="800" height="489" viewBox="0 0 800 489" fill="none" xmlns="http://www.w3.org/2000/svg">
<path d="M800 343.514C800 350.097 798.838 356.577 796.514 362.856C783.463 398.642 734.52 430.366 663.347 452.994C593.033 475.434 500.864 488.969 399.997 488.969C299.13 488.969 206.961 475.434 136.652 452.994C92.4563 438.969 56.8641 421.373 33.075 401.541C32.8812 401.447 32.7813 401.258 32.5891 401.164L17.1188 385.684C16.925 385.589 16.8266 385.391 16.7313 385.203C10.7344 378.044 6.28594 370.498 3.48125 362.858C1.15781 356.577 0 350.097 0 343.514C0 293.516 69.4359 234.62 175.238 197.191C182.783 192.355 192.261 187.813 203.288 183.656C210.734 80.9484 295.938 0 399.997 0C446.803 0 489.842 16.4422 523.597 43.8125C534.523 52.6141 544.487 62.5687 553.28 73.4969C577.948 104.059 593.806 142.073 596.705 183.658C607.736 187.814 617.209 192.356 624.755 197.192C730.555 234.62 800 293.516 800 343.514Z" fill="#7DB78C"/>
<path d="M399.997 189.655V488.969C299.13 488.969 206.961 475.434 136.652 452.994C92.4563 438.969 56.8641 421.373 33.075 401.541C32.8812 401.447 32.7813 401.258 32.5891 401.164C26.6906 396.13 21.4688 391.002 17.1188 385.684C16.925 385.589 16.8266 385.391 16.7313 385.203C10.7344 378.044 6.28594 370.498 3.48125 362.858C1.15781 356.577 0 350.097 0 343.514C0 293.516 69.4359 234.62 175.238 197.191C184.233 193.998 193.422 191.005 202.9 188.294C253.094 173.117 310.058 162.955 370.795 160.442L385.395 175.044L399.997 189.655Z" fill="#DCDBDB"/>
<path d="M800 343.514C800 350.097 798.838 356.577 796.514 362.856C783.463 398.642 734.52 430.366 663.347 452.994C593.033 475.434 500.864 488.969 399.997 488.969V189.655L414.599 175.044L429.199 160.442C489.936 162.955 546.905 173.117 597.094 188.294C606.577 191.005 615.756 193.998 624.756 197.191C730.555 234.62 800 293.516 800 343.514Z" fill="#C4C4C4"/>
<path d="M796.514 362.856C783.463 398.642 734.52 430.366 663.347 452.994L555.122 344.78L399.997 189.655L414.599 175.044L526.203 229.983L543.222 238.294H543.325L599.605 266.052L644.674 288.198L796.514 362.856Z" fill="#B8B8B8"/>
<path d="M385.395 175.044L273.886 229.878C273.791 229.878 273.791 229.983 273.791 229.983L258.416 237.52L200.384 266.052L155.32 288.198L3.48125 362.856C1.15781 356.577 0 350.097 0 343.514C0 293.516 69.4359 234.62 175.238 197.191C184.233 193.998 193.422 191.005 202.9 188.294C253.094 173.117 310.058 162.955 370.795 160.442L385.395 175.044Z" fill="#EAEAEA"/>
<path d="M399.997 189.655V488.969C299.129 488.969 206.961 475.434 136.651 452.994L244.872 344.78L399.997 189.655Z" fill="#D3D3D3"/>
<path d="M155.286 225.469V288.219C155.286 328.584 264.856 361.319 400.006 361.319V220.775C264.856 220.773 155.286 259.619 155.286 225.469Z" fill="#CECECF"/>
<path d="M400.008 220.773V361.317C535.148 361.317 644.705 328.583 644.705 288.217V225.469C644.703 259.619 535.148 220.773 400.008 220.773Z" fill="#C7C8C8"/>
<path d="M399.997 155.702V295.158C364.504 295.158 330.844 293.033 300.481 289.17C260.247 284.136 225.723 276.108 200.384 266.05C175.529 256.284 159.379 244.581 155.32 231.917C154.64 229.783 154.253 227.656 154.253 225.428C154.253 215.369 161.701 205.803 175.239 197.189C182.784 192.353 192.262 187.811 203.289 183.655C248.159 166.639 319.531 155.702 399.997 155.702Z" fill="#EAEAEA"/>
<path d="M645.744 225.43C645.744 227.658 645.356 229.784 644.677 231.919C640.616 244.583 624.466 256.284 599.608 266.052C574.269 276.109 539.75 284.138 499.516 289.172C469.152 293.034 435.492 295.159 400 295.159V155.702C480.467 155.702 551.839 166.639 596.709 183.656C607.741 187.813 617.214 192.355 624.759 197.191C638.291 205.805 645.744 215.372 645.744 225.43Z" fill="#DADADA"/>
<path d="M597.387 198.552C597.387 211.216 582.01 223.598 556.085 233.75C552.129 235.394 547.868 236.847 543.326 238.292H543.223C521.66 245.263 494.773 250.872 464.502 254.159C444.291 256.38 422.624 257.634 399.996 257.634V0C446.802 0 489.841 16.4422 523.596 43.8125C534.523 52.6141 544.487 62.5687 553.279 73.4969C577.948 104.059 593.805 142.073 596.704 183.658C596.998 185.208 597.091 186.747 597.091 188.295C597.291 191.684 597.387 195.161 597.387 198.552Z" fill="#78979B"/>
<path d="M399.996 0V257.636C377.462 257.636 355.9 256.286 335.784 253.869C306.184 250.289 279.684 244.491 258.415 237.52C254.348 236.169 250.382 234.819 246.709 233.364C219.145 222.823 202.607 210.159 202.607 198.552C202.607 195.161 202.707 191.684 202.901 188.294C202.901 186.745 202.996 185.206 203.289 183.656C210.734 80.9484 295.937 0 399.996 0Z" fill="#86ABAF"/>
<path d="M606.055 303.498C606.055 310.744 601.712 316.617 596.376 316.617C591.049 316.617 586.723 310.744 586.723 303.498C586.723 296.255 591.049 290.381 596.376 290.381C601.712 290.38 606.055 296.255 606.055 303.498Z" fill="#78979B"/>
<path d="M217.057 300.939C217.057 309.609 211.886 316.617 205.506 316.617C199.121 316.617 193.951 309.609 193.951 300.939C193.951 292.278 199.123 285.261 205.506 285.261C211.887 285.261 217.057 292.278 217.057 300.939Z" fill="#86ABAF"/>
<path d="M321.948 114.817C321.948 130.22 309.453 142.706 294.059 142.706C278.664 142.706 266.18 130.22 266.18 114.817C266.18 99.4125 278.666 86.9281 294.059 86.9281C309.453 86.9266 321.948 99.4125 321.948 114.817Z" fill="#F0F0F0"/>
<path d="M383.678 329.234C383.678 338.725 391.365 346.405 400.848 346.405V312.064C391.365 312.064 383.678 319.752 383.678 329.234Z" fill="#86ABAF"/>
<path d="M400.848 312.064V346.405C410.338 346.405 418.027 338.725 418.027 329.234C418.027 319.752 410.338 312.064 400.848 312.064Z" fill="#78979B"/>
</svg>
