<?xml version="1.0" encoding="iso-8859-1"?>
<!-- Uploaded to: SVG Repo, www.svgrepo.com, Generator: SVG Repo Mixer Tools -->
<svg version="1.1" id="Capa_1" xmlns="http://www.w3.org/2000/svg" xmlns:xlink="http://www.w3.org/1999/xlink" 
	 viewBox="0 0 470 470" xml:space="preserve">
<g>
	<path style="fill:#B9A9A2;" d="M105.536,176.042c0,72.257,58.785,131.042,131.042,131.042S367.62,248.299,367.62,176.042
		S308.835,45,236.578,45S105.536,103.785,105.536,176.042z M236.578,60c63.985,0,116.042,52.056,116.042,116.042
		s-52.057,116.042-116.042,116.042c-63.986,0-116.042-52.056-116.042-116.042S172.592,60,236.578,60z"/>
	<path style="fill:#8A6F64;" d="M104.186,267.758c30.132,43.41,79.624,69.326,132.392,69.326
		c88.799,0,161.042-72.243,161.042-161.042S325.377,15,236.578,15S75.536,87.243,75.536,176.042v48.546
		c4.406,14.588,10.741,28.345,18.712,40.974C97.597,263.604,101.937,264.519,104.186,267.758z M236.578,30
		c80.528,0,146.042,65.514,146.042,146.042s-65.514,146.042-146.042,146.042c-80.528,0-146.042-65.514-146.042-146.042
		S156.05,30,236.578,30z"/>
	<path style="fill:#34150C;" d="M236.578,0C139.508,0,60.536,78.972,60.536,176.042v153.735H44.39c-4.142,0-7.5,3.358-7.5,7.5
		c0,3.641,2.596,6.675,6.038,7.355v15.29c-3.442,0.68-6.038,3.714-6.038,7.355s2.596,6.675,6.038,7.355v70.259
		c0,13.845,11.264,25.108,25.108,25.108s25.108-11.264,25.108-25.108v-70.259c3.441-0.681,6.037-3.714,6.037-7.355
		s-2.596-6.674-6.037-7.355v-15.29c3.441-0.681,6.037-3.714,6.037-7.355c0-4.142-3.358-7.5-7.5-7.5H75.536V224.588v-48.546
		C75.536,87.243,147.779,15,236.578,15S397.62,87.243,397.62,176.042s-72.243,161.042-161.042,161.042
		c-52.768,0-102.26-25.917-132.392-69.326c-2.249-3.239-6.589-4.154-9.938-2.196c-0.168,0.099-0.337,0.198-0.5,0.311
		c-3.403,2.362-4.247,7.035-1.885,10.438c32.934,47.447,87.033,75.773,144.714,75.773c97.07,0,176.042-78.972,176.042-176.042
		S333.648,0,236.578,0z M68.036,455c-5.574,0-10.108-4.535-10.108-10.108v-70.114h20.217v70.114
		C78.145,450.465,73.61,455,68.036,455z M78.145,344.777v15H57.928v-15H78.145z"/>
	<path style="fill:#34150C;" d="M236.578,322.084c80.528,0,146.042-65.514,146.042-146.042S317.106,30,236.578,30
		C156.05,30,90.536,95.514,90.536,176.042S156.05,322.084,236.578,322.084z M367.62,176.042
		c0,72.257-58.785,131.042-131.042,131.042s-131.042-58.785-131.042-131.042S164.321,45,236.578,45S367.62,103.785,367.62,176.042z"
		/>
	<path style="fill:#34150C;" d="M236.578,292.084c63.985,0,116.042-52.056,116.042-116.042S300.563,60,236.578,60
		c-63.986,0-116.042,52.056-116.042,116.042S172.592,292.084,236.578,292.084z M337.62,176.042
		c0,55.715-45.327,101.042-101.042,101.042s-101.042-45.327-101.042-101.042S180.863,75,236.578,75S337.62,120.327,337.62,176.042z"
		/>
	<path style="fill:#CF5530;" d="M57.928,374.777v70.114c0,5.574,4.535,10.108,10.108,10.108s10.108-4.535,10.108-10.108v-70.114
		H57.928z"/>
	<rect x="57.928" y="344.777" style="fill:#CF5530;" width="20.217" height="15"/>
	<path style="fill:#34150C;" d="M432.305,449.06l-19.685-39.02V280.861c0-4.142-3.357-7.5-7.5-7.5s-7.5,3.358-7.5,7.5V410.04
		l-19.686,39.02c-1.865,3.698-0.38,8.209,3.318,10.075c1.083,0.546,2.236,0.805,3.372,0.805c2.741,0,5.383-1.509,6.702-4.123
		l6.293-12.474V462.5c0,4.142,3.357,7.5,7.5,7.5s7.5-3.358,7.5-7.5v-19.156l6.292,12.472c1.866,3.699,6.378,5.184,10.074,3.318
		C432.685,457.269,434.17,452.758,432.305,449.06z"/>
</g>
</svg>